G04 #@! TF.GenerationSoftware,KiCad,Pcbnew,8.0.8*
G04 #@! TF.CreationDate,2025-03-03T11:47:27-06:00*
G04 #@! TF.ProjectId,Group_29_Handheld,47726f75-705f-4323-995f-48616e646865,rev?*
G04 #@! TF.SameCoordinates,Original*
G04 #@! TF.FileFunction,Copper,L1,Top*
G04 #@! TF.FilePolarity,Positive*
%FSLAX46Y46*%
G04 Gerber Fmt 4.6, Leading zero omitted, Abs format (unit mm)*
G04 Created by KiCad (PCBNEW 8.0.8) date 2025-03-03 11:47:27*
%MOMM*%
%LPD*%
G01*
G04 APERTURE LIST*
G04 Aperture macros list*
%AMRoundRect*
0 Rectangle with rounded corners*
0 $1 Rounding radius*
0 $2 $3 $4 $5 $6 $7 $8 $9 X,Y pos of 4 corners*
0 Add a 4 corners polygon primitive as box body*
4,1,4,$2,$3,$4,$5,$6,$7,$8,$9,$2,$3,0*
0 Add four circle primitives for the rounded corners*
1,1,$1+$1,$2,$3*
1,1,$1+$1,$4,$5*
1,1,$1+$1,$6,$7*
1,1,$1+$1,$8,$9*
0 Add four rect primitives between the rounded corners*
20,1,$1+$1,$2,$3,$4,$5,0*
20,1,$1+$1,$4,$5,$6,$7,0*
20,1,$1+$1,$6,$7,$8,$9,0*
20,1,$1+$1,$8,$9,$2,$3,0*%
G04 Aperture macros list end*
G04 #@! TA.AperFunction,SMDPad,CuDef*
%ADD10RoundRect,0.162500X0.162500X-0.837500X0.162500X0.837500X-0.162500X0.837500X-0.162500X-0.837500X0*%
G04 #@! TD*
G04 #@! TA.AperFunction,SMDPad,CuDef*
%ADD11RoundRect,0.162500X-0.837500X-0.162500X0.837500X-0.162500X0.837500X0.162500X-0.837500X0.162500X0*%
G04 #@! TD*
G04 #@! TA.AperFunction,SMDPad,CuDef*
%ADD12RoundRect,0.250000X-0.450000X0.350000X-0.450000X-0.350000X0.450000X-0.350000X0.450000X0.350000X0*%
G04 #@! TD*
G04 #@! TA.AperFunction,SMDPad,CuDef*
%ADD13RoundRect,0.175000X0.175000X-0.250000X0.175000X0.250000X-0.175000X0.250000X-0.175000X-0.250000X0*%
G04 #@! TD*
G04 #@! TA.AperFunction,SMDPad,CuDef*
%ADD14RoundRect,0.150000X0.150000X-0.275000X0.150000X0.275000X-0.150000X0.275000X-0.150000X-0.275000X0*%
G04 #@! TD*
G04 #@! TA.AperFunction,SMDPad,CuDef*
%ADD15RoundRect,0.250000X-0.350000X-0.450000X0.350000X-0.450000X0.350000X0.450000X-0.350000X0.450000X0*%
G04 #@! TD*
G04 #@! TA.AperFunction,ComponentPad*
%ADD16RoundRect,0.250000X0.845000X-0.620000X0.845000X0.620000X-0.845000X0.620000X-0.845000X-0.620000X0*%
G04 #@! TD*
G04 #@! TA.AperFunction,ComponentPad*
%ADD17O,2.190000X1.740000*%
G04 #@! TD*
G04 #@! TA.AperFunction,SMDPad,CuDef*
%ADD18RoundRect,0.250000X0.475000X-0.337500X0.475000X0.337500X-0.475000X0.337500X-0.475000X-0.337500X0*%
G04 #@! TD*
G04 #@! TA.AperFunction,ComponentPad*
%ADD19RoundRect,0.250000X-0.845000X0.620000X-0.845000X-0.620000X0.845000X-0.620000X0.845000X0.620000X0*%
G04 #@! TD*
G04 #@! TA.AperFunction,SMDPad,CuDef*
%ADD20RoundRect,0.250000X-0.337500X-0.475000X0.337500X-0.475000X0.337500X0.475000X-0.337500X0.475000X0*%
G04 #@! TD*
G04 #@! TA.AperFunction,SMDPad,CuDef*
%ADD21R,2.413000X5.334000*%
G04 #@! TD*
G04 #@! TA.AperFunction,ComponentPad*
%ADD22RoundRect,0.250000X0.620000X0.845000X-0.620000X0.845000X-0.620000X-0.845000X0.620000X-0.845000X0*%
G04 #@! TD*
G04 #@! TA.AperFunction,ComponentPad*
%ADD23O,1.740000X2.190000*%
G04 #@! TD*
G04 #@! TA.AperFunction,SMDPad,CuDef*
%ADD24R,0.812800X1.905000*%
G04 #@! TD*
G04 #@! TA.AperFunction,SMDPad,CuDef*
%ADD25RoundRect,0.250000X0.337500X0.475000X-0.337500X0.475000X-0.337500X-0.475000X0.337500X-0.475000X0*%
G04 #@! TD*
G04 #@! TA.AperFunction,ComponentPad*
%ADD26R,1.700000X1.700000*%
G04 #@! TD*
G04 #@! TA.AperFunction,ComponentPad*
%ADD27O,1.700000X1.700000*%
G04 #@! TD*
G04 #@! TA.AperFunction,SMDPad,CuDef*
%ADD28RoundRect,0.250000X-0.475000X0.337500X-0.475000X-0.337500X0.475000X-0.337500X0.475000X0.337500X0*%
G04 #@! TD*
G04 #@! TA.AperFunction,ComponentPad*
%ADD29R,2.000000X1.905000*%
G04 #@! TD*
G04 #@! TA.AperFunction,ComponentPad*
%ADD30O,2.000000X1.905000*%
G04 #@! TD*
G04 #@! TA.AperFunction,ComponentPad*
%ADD31R,2.550000X2.550000*%
G04 #@! TD*
G04 #@! TA.AperFunction,ComponentPad*
%ADD32C,2.550000*%
G04 #@! TD*
G04 #@! TA.AperFunction,ComponentPad*
%ADD33C,1.508000*%
G04 #@! TD*
G04 #@! TA.AperFunction,SMDPad,CuDef*
%ADD34RoundRect,0.100000X-0.575000X0.100000X-0.575000X-0.100000X0.575000X-0.100000X0.575000X0.100000X0*%
G04 #@! TD*
G04 #@! TA.AperFunction,HeatsinkPad*
%ADD35O,1.550000X0.890000*%
G04 #@! TD*
G04 #@! TA.AperFunction,SMDPad,CuDef*
%ADD36RoundRect,0.250000X-0.525000X0.475000X-0.525000X-0.475000X0.525000X-0.475000X0.525000X0.475000X0*%
G04 #@! TD*
G04 #@! TA.AperFunction,HeatsinkPad*
%ADD37O,0.950000X1.250000*%
G04 #@! TD*
G04 #@! TA.AperFunction,SMDPad,CuDef*
%ADD38RoundRect,0.250000X-0.525000X0.500000X-0.525000X-0.500000X0.525000X-0.500000X0.525000X0.500000X0*%
G04 #@! TD*
G04 #@! TA.AperFunction,SMDPad,CuDef*
%ADD39R,1.905000X0.812800*%
G04 #@! TD*
G04 #@! TA.AperFunction,SMDPad,CuDef*
%ADD40RoundRect,0.250000X0.350000X0.450000X-0.350000X0.450000X-0.350000X-0.450000X0.350000X-0.450000X0*%
G04 #@! TD*
G04 #@! TA.AperFunction,SMDPad,CuDef*
%ADD41R,1.500000X0.900000*%
G04 #@! TD*
G04 #@! TA.AperFunction,SMDPad,CuDef*
%ADD42R,0.900000X1.500000*%
G04 #@! TD*
G04 #@! TA.AperFunction,HeatsinkPad*
%ADD43C,0.600000*%
G04 #@! TD*
G04 #@! TA.AperFunction,HeatsinkPad*
%ADD44R,3.900000X3.900000*%
G04 #@! TD*
G04 #@! TA.AperFunction,ViaPad*
%ADD45C,0.600000*%
G04 #@! TD*
G04 #@! TA.AperFunction,Conductor*
%ADD46C,0.381000*%
G04 #@! TD*
G04 #@! TA.AperFunction,Conductor*
%ADD47C,0.508000*%
G04 #@! TD*
G04 #@! TA.AperFunction,Conductor*
%ADD48C,1.016000*%
G04 #@! TD*
G04 #@! TA.AperFunction,Conductor*
%ADD49C,0.762000*%
G04 #@! TD*
G04 APERTURE END LIST*
D10*
X144970501Y-68870999D03*
X145920501Y-68870999D03*
X146870501Y-68870999D03*
X146870501Y-65450999D03*
X145920501Y-65450999D03*
X144970501Y-65450999D03*
D11*
X122813500Y-60137000D03*
X122813500Y-61087000D03*
X122813500Y-62037000D03*
X126233500Y-62037000D03*
X126233500Y-61087000D03*
X126233500Y-60137000D03*
D12*
X122491500Y-31262500D03*
X122491500Y-33262500D03*
X159004000Y-41878500D03*
X159004000Y-43878500D03*
D13*
X140970000Y-79369000D03*
D14*
X140970000Y-75819000D03*
D15*
X152162000Y-79883000D03*
X154162000Y-79883000D03*
D12*
X158940500Y-34576000D03*
X158940500Y-36576000D03*
D16*
X109664500Y-36830000D03*
D17*
X109664500Y-34290000D03*
X109664500Y-31750000D03*
D15*
X125200000Y-53400000D03*
X127200000Y-53400000D03*
D18*
X125158500Y-33337500D03*
X125158500Y-31262500D03*
D19*
X163512500Y-40640000D03*
D17*
X163512500Y-43180000D03*
D20*
X129052500Y-68135500D03*
X131127500Y-68135500D03*
D21*
X129794000Y-59563000D03*
X137033000Y-59563000D03*
D18*
X120078500Y-33337500D03*
X120078500Y-31262500D03*
D16*
X109093000Y-64770000D03*
D17*
X109093000Y-62230000D03*
X109093000Y-59690000D03*
D13*
X148780500Y-79375000D03*
D14*
X148780500Y-75825000D03*
D16*
X109347000Y-46355000D03*
D17*
X109347000Y-43815000D03*
X109347000Y-41275000D03*
D20*
X129052500Y-65786000D03*
X131127500Y-65786000D03*
D15*
X152146000Y-81978500D03*
X154146000Y-81978500D03*
D22*
X113220500Y-81661000D03*
D23*
X110680500Y-81661000D03*
X108140500Y-81661000D03*
D24*
X114501300Y-51300000D03*
X119098700Y-51300000D03*
D19*
X163512500Y-33528000D03*
D17*
X163512500Y-36068000D03*
D25*
X146937500Y-72300000D03*
X144862500Y-72300000D03*
D12*
X151191001Y-66367499D03*
X151191001Y-68367499D03*
D26*
X165036500Y-69977000D03*
D27*
X165036500Y-67437000D03*
X165036500Y-64897000D03*
X165036500Y-62357000D03*
X165036500Y-59817000D03*
X165036500Y-57277000D03*
X165036500Y-54737000D03*
X165036500Y-52197000D03*
X165036500Y-49657000D03*
X165036500Y-47117000D03*
D24*
X116662200Y-69596000D03*
X112064800Y-69596000D03*
D13*
X144653000Y-79432500D03*
D14*
X144653000Y-75882500D03*
D28*
X156017001Y-66419499D03*
X156017001Y-68494499D03*
D18*
X140205501Y-67965999D03*
X140205501Y-65890999D03*
D21*
X154495500Y-59626500D03*
X147256500Y-59626500D03*
D16*
X109156500Y-55562500D03*
D17*
X109156500Y-53022500D03*
X109156500Y-50482500D03*
D24*
X116401300Y-42600000D03*
X120998700Y-42600000D03*
D29*
X117419000Y-77216000D03*
D30*
X117419000Y-79756000D03*
X117419000Y-82296000D03*
D15*
X129667000Y-53530500D03*
X131667000Y-53530500D03*
X152114500Y-84137500D03*
X154114500Y-84137500D03*
D18*
X117475000Y-33274000D03*
X117475000Y-31199000D03*
D31*
X130604000Y-73058000D03*
D32*
X125604000Y-73058000D03*
D33*
X122604000Y-83058000D03*
X133604000Y-83058000D03*
D24*
X113701300Y-56100000D03*
X118298700Y-56100000D03*
D22*
X165354000Y-78994000D03*
D23*
X162814000Y-78994000D03*
X160274000Y-78994000D03*
D34*
X102600000Y-70788500D03*
X102600000Y-71438500D03*
X102600000Y-72088500D03*
X102600000Y-72738500D03*
X102600000Y-73388500D03*
D35*
X99900000Y-68588500D03*
D36*
X99900000Y-69063500D03*
D37*
X102600000Y-69588500D03*
D38*
X99900000Y-71088500D03*
X99900000Y-73088500D03*
D37*
X102600000Y-74588500D03*
D36*
X99900000Y-75113500D03*
D35*
X99900000Y-75588500D03*
D15*
X152178000Y-77724000D03*
X154178000Y-77724000D03*
D20*
X124000000Y-65913000D03*
X126075000Y-65913000D03*
D18*
X127508000Y-33337500D03*
X127508000Y-31262500D03*
D39*
X116014500Y-61899800D03*
X116014500Y-66497200D03*
D40*
X161100000Y-66300000D03*
X159100000Y-66300000D03*
D41*
X132764500Y-30885000D03*
X132764500Y-32155000D03*
X132764500Y-33425000D03*
X132764500Y-34695000D03*
X132764500Y-35965000D03*
X132764500Y-37235000D03*
X132764500Y-38505000D03*
X132764500Y-39775000D03*
X132764500Y-41045000D03*
X132764500Y-42315000D03*
X132764500Y-43585000D03*
X132764500Y-44855000D03*
X132764500Y-46125000D03*
X132764500Y-47395000D03*
D42*
X134529500Y-48645000D03*
X135799500Y-48645000D03*
X137069500Y-48645000D03*
X138339500Y-48645000D03*
X139609500Y-48645000D03*
X140879500Y-48645000D03*
X142149500Y-48645000D03*
X143419500Y-48645000D03*
X144689500Y-48645000D03*
X145959500Y-48645000D03*
X147229500Y-48645000D03*
X148499500Y-48645000D03*
D41*
X150264500Y-47395000D03*
X150264500Y-46125000D03*
X150264500Y-44855000D03*
X150264500Y-43585000D03*
X150264500Y-42315000D03*
X150264500Y-41045000D03*
X150264500Y-39775000D03*
X150264500Y-38505000D03*
X150264500Y-37235000D03*
X150264500Y-35965000D03*
X150264500Y-34695000D03*
X150264500Y-33425000D03*
X150264500Y-32155000D03*
X150264500Y-30885000D03*
D43*
X138614500Y-37905000D03*
X138614500Y-39305000D03*
X139314500Y-37205000D03*
X139314500Y-38605000D03*
X139314500Y-40005000D03*
X140014500Y-37905000D03*
D44*
X140014500Y-38605000D03*
D43*
X140014500Y-39305000D03*
X140714500Y-37205000D03*
X140714500Y-38605000D03*
X140714500Y-40005000D03*
X141414500Y-37905000D03*
X141414500Y-39305000D03*
D12*
X153604001Y-66430999D03*
X153604001Y-68430999D03*
D13*
X137160000Y-79305500D03*
D14*
X137160000Y-75755500D03*
D20*
X134725000Y-53594000D03*
X136800000Y-53594000D03*
D45*
X115600000Y-59600000D03*
X118100000Y-65000000D03*
X128700000Y-81200000D03*
X121800000Y-78100000D03*
X136700000Y-45200000D03*
X151000000Y-55400000D03*
X162700000Y-49600000D03*
X113701300Y-58800000D03*
X114100000Y-43900000D03*
X118100000Y-69600000D03*
X113701300Y-53100000D03*
X138200000Y-69800000D03*
X113792000Y-61341000D03*
X123100000Y-63700000D03*
X123417500Y-71217500D03*
X129200000Y-43600000D03*
X143300000Y-69800000D03*
X120400000Y-48800000D03*
X143700000Y-67700000D03*
X143914000Y-65786000D03*
X143700000Y-60900000D03*
X123900000Y-68000000D03*
X133700000Y-61800000D03*
X125587000Y-55356000D03*
X117300000Y-59400000D03*
X109900000Y-68700000D03*
X135400000Y-76500000D03*
X148100000Y-63700000D03*
X152000000Y-64500000D03*
X128600000Y-55300000D03*
X125200000Y-63300000D03*
D46*
X150264500Y-47395000D02*
X150264500Y-49934500D01*
X158804000Y-58474000D02*
X158804000Y-62115961D01*
X150264500Y-49934500D02*
X158804000Y-58474000D01*
X158804000Y-62115961D02*
X159100000Y-62411961D01*
X159100000Y-62411961D02*
X159100000Y-66300000D01*
D47*
X161100000Y-66300000D02*
X161100000Y-67200000D01*
X161100000Y-67200000D02*
X162814000Y-68914000D01*
X162814000Y-68914000D02*
X162814000Y-78994000D01*
X122016000Y-60984000D02*
X121990134Y-60984000D01*
X123900000Y-66300000D02*
X123900000Y-68000000D01*
X121990134Y-60984000D02*
X121359500Y-61614634D01*
X121359500Y-63759500D02*
X123900000Y-66300000D01*
X121359500Y-61614634D02*
X121359500Y-63759500D01*
X126233500Y-60137000D02*
X127159866Y-60137000D01*
X127800000Y-63779000D02*
X126075000Y-65504000D01*
X127159866Y-60137000D02*
X127800000Y-60777134D01*
X126075000Y-65504000D02*
X126075000Y-65913000D01*
X127800000Y-60777134D02*
X127800000Y-63779000D01*
D48*
X134725000Y-53594000D02*
X134725000Y-54632000D01*
X134725000Y-54632000D02*
X129794000Y-59563000D01*
X125200000Y-53400000D02*
X125587000Y-53787000D01*
X125587000Y-53787000D02*
X125587000Y-55356000D01*
D49*
X140205501Y-67965999D02*
X144571500Y-63600000D01*
X145920501Y-64120501D02*
X145920501Y-65786000D01*
X144571500Y-63600000D02*
X145400000Y-63600000D01*
X145400000Y-63600000D02*
X145920501Y-64120501D01*
D46*
X143914000Y-65786000D02*
X141800000Y-67900000D01*
X141800000Y-67900000D02*
X141800000Y-70200000D01*
X143900000Y-72300000D02*
X144862500Y-72300000D01*
X141800000Y-70200000D02*
X143900000Y-72300000D01*
X145920501Y-68536000D02*
X145920501Y-71283001D01*
X145920501Y-71283001D02*
X146937500Y-72300000D01*
X136700000Y-34959500D02*
X136700000Y-45200000D01*
X132764500Y-32155000D02*
X133895500Y-32155000D01*
X127508000Y-33337500D02*
X128690500Y-32155000D01*
D49*
X156005501Y-66430999D02*
X156017001Y-66419499D01*
D46*
X128690500Y-32155000D02*
X132764500Y-32155000D01*
D49*
X156017001Y-66419499D02*
X154495500Y-64897998D01*
D47*
X154495500Y-59626500D02*
X148780500Y-65341500D01*
D46*
X151000000Y-55400000D02*
X154495500Y-58895500D01*
X164979500Y-49600000D02*
X165036500Y-49657000D01*
D49*
X154495500Y-64897998D02*
X154495500Y-59626500D01*
D47*
X148780500Y-65341500D02*
X148780500Y-75825000D01*
D48*
X153604001Y-66430999D02*
X156005501Y-66430999D01*
D46*
X124566500Y-33337500D02*
X122491500Y-31262500D01*
X127508000Y-33337500D02*
X125158500Y-33337500D01*
X154495500Y-58895500D02*
X154495500Y-59626500D01*
X133895500Y-32155000D02*
X136700000Y-34959500D01*
X162700000Y-49600000D02*
X164979500Y-49600000D01*
X125158500Y-33337500D02*
X124566500Y-33337500D01*
X150527000Y-79375000D02*
X152178000Y-77724000D01*
X148780500Y-79375000D02*
X150527000Y-79375000D01*
D47*
X145920501Y-66828001D02*
X146870499Y-67777999D01*
X113701300Y-52100000D02*
X113701300Y-53100000D01*
X146870499Y-67777999D02*
X146870499Y-68536000D01*
X140205501Y-71435001D02*
X144653000Y-75882500D01*
X116662200Y-68398590D02*
X115954610Y-67691000D01*
X116662200Y-69596000D02*
X118096000Y-69596000D01*
D49*
X115455700Y-61341000D02*
X116014500Y-61899800D01*
D47*
X118096000Y-69596000D02*
X118100000Y-69600000D01*
X112839500Y-63877390D02*
X114817090Y-61899800D01*
X140205501Y-67965999D02*
X140205501Y-71435001D01*
D49*
X109093000Y-62230000D02*
X108204000Y-62230000D01*
D47*
X113701300Y-56100000D02*
X113701300Y-61250300D01*
X113701300Y-53100000D02*
X113701300Y-56100000D01*
X115400000Y-42600000D02*
X114100000Y-43900000D01*
X116401300Y-42600000D02*
X115400000Y-42600000D01*
X113701300Y-61250300D02*
X113792000Y-61341000D01*
X114501300Y-51300000D02*
X113701300Y-52100000D01*
X138371500Y-69800000D02*
X140205501Y-67965999D01*
X116662200Y-69596000D02*
X116662200Y-68398590D01*
X114817090Y-61899800D02*
X116014500Y-61899800D01*
X145920501Y-65786000D02*
X145920501Y-66828001D01*
D49*
X113792000Y-61341000D02*
X115455700Y-61341000D01*
D47*
X138200000Y-69800000D02*
X138371500Y-69800000D01*
X115954610Y-67691000D02*
X112839500Y-67691000D01*
X112839500Y-67691000D02*
X112839500Y-63877390D01*
D46*
X144653000Y-79432500D02*
X146108500Y-80888000D01*
X149976000Y-80888000D02*
X149987000Y-80899000D01*
X151003000Y-79883000D02*
X152162000Y-79883000D01*
X149987000Y-80899000D02*
X151003000Y-79883000D01*
X146108500Y-80888000D02*
X149976000Y-80888000D01*
D49*
X129052500Y-68135500D02*
X129052500Y-65786000D01*
D48*
X123417500Y-71217500D02*
X126499500Y-68135500D01*
D47*
X130365500Y-70167500D02*
X129052500Y-68854500D01*
D48*
X126499500Y-68135500D02*
X129052500Y-68135500D01*
D47*
X135318500Y-70167500D02*
X130365500Y-70167500D01*
D49*
X124886498Y-61087000D02*
X125898499Y-61087000D01*
X129052500Y-68854500D02*
X129052500Y-68135500D01*
X123148499Y-62036998D02*
X123936500Y-62036998D01*
X123148499Y-63651501D02*
X123100000Y-63700000D01*
X123148499Y-62036998D02*
X123148499Y-63651501D01*
D47*
X140970000Y-75819000D02*
X135318500Y-70167500D01*
D48*
X117419000Y-77216000D02*
X123417500Y-71217500D01*
D49*
X123936500Y-62036998D02*
X124886498Y-61087000D01*
D46*
X143637000Y-81978500D02*
X152146000Y-81978500D01*
X140970000Y-79369000D02*
X140970000Y-79311500D01*
X140970000Y-79311500D02*
X143637000Y-81978500D01*
X147256500Y-59626500D02*
X144973500Y-59626500D01*
X144973500Y-59626500D02*
X143700000Y-60900000D01*
X144970500Y-65786000D02*
X143914000Y-65786000D01*
D47*
X125898499Y-60136999D02*
X126906499Y-60136999D01*
X123148499Y-61087000D02*
X122555000Y-61087000D01*
X133700000Y-61800000D02*
X134796000Y-61800000D01*
X134796000Y-61800000D02*
X137033000Y-59563000D01*
X118298700Y-58401300D02*
X117300000Y-59400000D01*
X118298700Y-56100000D02*
X118298700Y-58401300D01*
D48*
X125587000Y-55356000D02*
X129794000Y-59563000D01*
D47*
X122416500Y-33337500D02*
X122491500Y-33262500D01*
D46*
X110553500Y-34290000D02*
X111569500Y-33274000D01*
X120078500Y-33337500D02*
X122416500Y-33337500D01*
X130553500Y-34798000D02*
X131926500Y-33425000D01*
D47*
X109664500Y-34290000D02*
X110553500Y-34290000D01*
D46*
X122491500Y-33262500D02*
X124027000Y-34798000D01*
X111569500Y-33274000D02*
X117475000Y-33274000D01*
D47*
X131926500Y-33425000D02*
X132764500Y-33425000D01*
D46*
X117475000Y-33274000D02*
X120015000Y-33274000D01*
X124027000Y-34798000D02*
X130553500Y-34798000D01*
D47*
X120015000Y-33274000D02*
X120078500Y-33337500D01*
X110796000Y-69596000D02*
X109900000Y-68700000D01*
X112064800Y-69596000D02*
X110796000Y-69596000D01*
X110876300Y-70784500D02*
X102712500Y-70784500D01*
X136415500Y-76500000D02*
X137160000Y-75755500D01*
X135400000Y-76500000D02*
X136415500Y-76500000D01*
X112064800Y-69596000D02*
X110876300Y-70784500D01*
D46*
X137160000Y-79305500D02*
X141819000Y-83964500D01*
X141819000Y-83964500D02*
X152114500Y-83964500D01*
X127801500Y-47395000D02*
X132764500Y-47395000D01*
X118427500Y-73469500D02*
X120024500Y-71872500D01*
X120024500Y-71872500D02*
X120024500Y-55172000D01*
X102712500Y-72088500D02*
X103433944Y-72088500D01*
X104814944Y-73469500D02*
X118427500Y-73469500D01*
X120024500Y-55172000D02*
X127801500Y-47395000D01*
X103433944Y-72088500D02*
X104814944Y-73469500D01*
X103605602Y-71438500D02*
X105001602Y-72834500D01*
X128249842Y-46125000D02*
X132764500Y-46125000D01*
X105001602Y-72834500D02*
X117786100Y-72834500D01*
X119443500Y-71177100D02*
X119443500Y-54931342D01*
X119443500Y-54931342D02*
X128249842Y-46125000D01*
X102712500Y-71438500D02*
X103605602Y-71438500D01*
X117786100Y-72834500D02*
X119443500Y-71177100D01*
D48*
X121298419Y-82296000D02*
X117419000Y-82296000D01*
X114180500Y-85534500D02*
X109918500Y-85534500D01*
X109918500Y-85534500D02*
X108140500Y-83756500D01*
X130604000Y-73058000D02*
X130536419Y-73058000D01*
X108140500Y-83756500D02*
X108140500Y-81661000D01*
X117419000Y-82296000D02*
X114180500Y-85534500D01*
X130536419Y-73058000D02*
X121298419Y-82296000D01*
D46*
X150264500Y-32155000D02*
X162139500Y-32155000D01*
X162139500Y-32155000D02*
X163512500Y-33528000D01*
D47*
X163512500Y-36068000D02*
X160432500Y-36068000D01*
X160432500Y-36068000D02*
X158940500Y-34576000D01*
X113538000Y-42164000D02*
X109347000Y-46355000D01*
X132764500Y-34695000D02*
X131926500Y-34695000D01*
D46*
X109347000Y-46355000D02*
X110049342Y-46355000D01*
D47*
X128394500Y-38227000D02*
X116776500Y-38227000D01*
X131926500Y-34695000D02*
X128394500Y-38227000D01*
X113538000Y-41465500D02*
X113538000Y-42164000D01*
X116776500Y-38227000D02*
X113538000Y-41465500D01*
X132764500Y-35965000D02*
X132500500Y-35965000D01*
X132764500Y-35965000D02*
X132183000Y-35965000D01*
X132500500Y-35965000D02*
X132397500Y-36068000D01*
X116458400Y-45600000D02*
X111633000Y-50425400D01*
X111633000Y-50425400D02*
X111633000Y-53086000D01*
X111633000Y-53086000D02*
X109156500Y-55562500D01*
X122548000Y-45600000D02*
X116458400Y-45600000D01*
X132183000Y-35965000D02*
X122548000Y-45600000D01*
X112341000Y-61522000D02*
X109093000Y-64770000D01*
X132053500Y-37235000D02*
X122980500Y-46308000D01*
X122980500Y-46308000D02*
X116792000Y-46308000D01*
X112341000Y-50759000D02*
X112341000Y-61522000D01*
D46*
X132764500Y-37235000D02*
X132053500Y-37235000D01*
D47*
X116792000Y-46308000D02*
X112341000Y-50759000D01*
X150264500Y-44855000D02*
X151102500Y-44855000D01*
X159448500Y-57721500D02*
X159448500Y-61849000D01*
X151828500Y-45581000D02*
X151828500Y-50101500D01*
X151828500Y-50101500D02*
X159448500Y-57721500D01*
X151102500Y-44855000D02*
X151828500Y-45581000D01*
X159448500Y-61849000D02*
X165036500Y-67437000D01*
X151522500Y-41045000D02*
X154686000Y-44208500D01*
X150264500Y-41045000D02*
X151522500Y-41045000D01*
X154686000Y-48958500D02*
X162306000Y-56578500D01*
X162306000Y-56578500D02*
X162306000Y-57975500D01*
X164147500Y-59817000D02*
X165036500Y-59817000D01*
X154686000Y-44208500D02*
X154686000Y-48958500D01*
X162306000Y-57975500D02*
X164147500Y-59817000D01*
X153797000Y-49466500D02*
X161290000Y-56959500D01*
X161290000Y-58610500D02*
X165036500Y-62357000D01*
X161290000Y-56959500D02*
X161290000Y-58610500D01*
X153797000Y-44589500D02*
X153797000Y-49466500D01*
X150264500Y-42315000D02*
X151522500Y-42315000D01*
X151522500Y-42315000D02*
X153797000Y-44589500D01*
D46*
X165036500Y-51943000D02*
X165036500Y-52197000D01*
D47*
X150264500Y-37235000D02*
X151522500Y-37235000D01*
X151522500Y-37235000D02*
X157480000Y-43192500D01*
X157480000Y-47498000D02*
X162179000Y-52197000D01*
X157480000Y-43192500D02*
X157480000Y-47498000D01*
X162179000Y-52197000D02*
X165036500Y-52197000D01*
X150264500Y-39775000D02*
X151522500Y-39775000D01*
X155575000Y-43827500D02*
X155575000Y-48323500D01*
X155575000Y-48323500D02*
X164528500Y-57277000D01*
X164528500Y-57277000D02*
X165036500Y-57277000D01*
X151522500Y-39775000D02*
X155575000Y-43827500D01*
X156591000Y-48069500D02*
X163258500Y-54737000D01*
X150264500Y-38505000D02*
X151522500Y-38505000D01*
X163258500Y-54737000D02*
X165036500Y-54737000D01*
X151522500Y-38505000D02*
X156591000Y-43573500D01*
X156591000Y-43573500D02*
X156591000Y-48069500D01*
X152844500Y-44907000D02*
X152844500Y-49720500D01*
X160401000Y-57277000D02*
X160401000Y-60261500D01*
X160401000Y-60261500D02*
X165036500Y-64897000D01*
X150264500Y-43585000D02*
X151522500Y-43585000D01*
X151522500Y-43585000D02*
X152844500Y-44907000D01*
X152844500Y-49720500D02*
X160401000Y-57277000D01*
D46*
X152678000Y-33425000D02*
X159893000Y-40640000D01*
X150264500Y-33425000D02*
X152678000Y-33425000D01*
X159893000Y-40640000D02*
X163512500Y-40640000D01*
X159893000Y-43054768D02*
X159893000Y-42767500D01*
X163512500Y-43180000D02*
X160018232Y-43180000D01*
X159893000Y-42767500D02*
X159004000Y-41878500D01*
X160018232Y-43180000D02*
X159893000Y-43054768D01*
D48*
X110680500Y-81661000D02*
X110680500Y-80000000D01*
X111813500Y-78867000D02*
X115711000Y-78867000D01*
X116600000Y-79756000D02*
X117419000Y-79756000D01*
X110680500Y-80000000D02*
X111813500Y-78867000D01*
X115711000Y-78867000D02*
X116600000Y-79756000D01*
D46*
X146870499Y-65786000D02*
X146870499Y-64929501D01*
X151540501Y-66367499D02*
X153604001Y-68430999D01*
X151191001Y-66367499D02*
X151540501Y-66367499D01*
X152000000Y-64500000D02*
X152000000Y-65558500D01*
X146870499Y-64929501D02*
X148100000Y-63700000D01*
X152000000Y-65558500D02*
X151191001Y-66367499D01*
X128600000Y-54597500D02*
X129667000Y-53530500D01*
X125898499Y-62601501D02*
X125200000Y-63300000D01*
X125898499Y-62036998D02*
X125898499Y-62601501D01*
D48*
X127587000Y-53530500D02*
X129667000Y-53530500D01*
D46*
X128600000Y-55300000D02*
X128600000Y-54597500D01*
G04 #@! TA.AperFunction,Conductor*
G36*
X115308943Y-79895185D02*
G01*
X115329585Y-79911819D01*
X115957115Y-80539350D01*
X115957119Y-80539353D01*
X116122296Y-80649722D01*
X116249863Y-80702561D01*
X116290086Y-80729438D01*
X116424934Y-80864286D01*
X116467781Y-80895416D01*
X116509438Y-80925682D01*
X116552103Y-80981013D01*
X116558082Y-81050626D01*
X116525476Y-81112421D01*
X116509438Y-81126318D01*
X116424932Y-81187715D01*
X116263216Y-81349431D01*
X116263216Y-81349432D01*
X116263214Y-81349434D01*
X116218484Y-81411000D01*
X116128783Y-81534461D01*
X116024950Y-81738244D01*
X115954278Y-81955750D01*
X115954278Y-81955753D01*
X115918500Y-82181646D01*
X115918500Y-82318903D01*
X115898815Y-82385942D01*
X115882181Y-82406584D01*
X113799085Y-84489681D01*
X113737762Y-84523166D01*
X113711404Y-84526000D01*
X110387597Y-84526000D01*
X110320558Y-84506315D01*
X110299916Y-84489681D01*
X109185319Y-83375084D01*
X109151834Y-83313761D01*
X109149000Y-83287403D01*
X109149000Y-82867042D01*
X109168685Y-82800003D01*
X109182739Y-82782562D01*
X109182695Y-82782525D01*
X109184010Y-82780984D01*
X109185319Y-82779361D01*
X109185859Y-82778821D01*
X109310182Y-82607704D01*
X109365512Y-82565040D01*
X109435126Y-82559061D01*
X109496920Y-82591667D01*
X109510815Y-82607702D01*
X109635141Y-82778821D01*
X109787679Y-82931359D01*
X109962201Y-83058157D01*
X110154411Y-83156092D01*
X110359574Y-83222754D01*
X110439473Y-83235408D01*
X110572634Y-83256500D01*
X110572639Y-83256500D01*
X110788366Y-83256500D01*
X110910337Y-83237181D01*
X111001426Y-83222754D01*
X111206589Y-83156092D01*
X111398799Y-83058157D01*
X111573321Y-82931359D01*
X111715686Y-82788993D01*
X111777005Y-82755511D01*
X111846697Y-82760495D01*
X111902631Y-82802366D01*
X111915748Y-82824277D01*
X111916140Y-82825118D01*
X112008184Y-82974345D01*
X112132154Y-83098315D01*
X112281375Y-83190356D01*
X112281380Y-83190358D01*
X112447802Y-83245505D01*
X112447809Y-83245506D01*
X112550519Y-83255999D01*
X112970499Y-83255999D01*
X112970500Y-83255998D01*
X112970500Y-82203709D01*
X112990839Y-82215452D01*
X113142167Y-82256000D01*
X113298833Y-82256000D01*
X113450161Y-82215452D01*
X113470500Y-82203709D01*
X113470500Y-83255999D01*
X113890472Y-83255999D01*
X113890486Y-83255998D01*
X113993197Y-83245505D01*
X114159619Y-83190358D01*
X114159624Y-83190356D01*
X114308845Y-83098315D01*
X114432815Y-82974345D01*
X114524856Y-82825124D01*
X114524858Y-82825119D01*
X114580005Y-82658697D01*
X114580006Y-82658690D01*
X114590499Y-82555986D01*
X114590500Y-82555973D01*
X114590500Y-81911000D01*
X113763209Y-81911000D01*
X113774952Y-81890661D01*
X113815500Y-81739333D01*
X113815500Y-81582667D01*
X113774952Y-81431339D01*
X113763209Y-81411000D01*
X114590499Y-81411000D01*
X114590499Y-80766028D01*
X114590498Y-80766013D01*
X114580005Y-80663302D01*
X114524858Y-80496880D01*
X114524856Y-80496875D01*
X114432815Y-80347654D01*
X114308845Y-80223684D01*
X114159624Y-80131643D01*
X114159619Y-80131641D01*
X114116056Y-80117206D01*
X114058611Y-80077433D01*
X114031788Y-80012917D01*
X114044103Y-79944142D01*
X114091646Y-79892942D01*
X114155060Y-79875500D01*
X115241904Y-79875500D01*
X115308943Y-79895185D01*
G37*
G04 #@! TD.AperFunction*
G04 #@! TA.AperFunction,Conductor*
G36*
X144186288Y-66593446D02*
G01*
X144242221Y-66635318D01*
X144249070Y-66645477D01*
X144282265Y-66700387D01*
X144282268Y-66700391D01*
X144396109Y-66814232D01*
X144396111Y-66814233D01*
X144396113Y-66814235D01*
X144533899Y-66897530D01*
X144687614Y-66945429D01*
X144754410Y-66951499D01*
X145074020Y-66951498D01*
X145141059Y-66971182D01*
X145186814Y-67023986D01*
X145192759Y-67042392D01*
X145193228Y-67042251D01*
X145194998Y-67048087D01*
X145208055Y-67079609D01*
X145208056Y-67079611D01*
X145251867Y-67185382D01*
X145251869Y-67185386D01*
X145251871Y-67185390D01*
X145251874Y-67185395D01*
X145251875Y-67185396D01*
X145259086Y-67196189D01*
X145279962Y-67262867D01*
X145261476Y-67330247D01*
X145239602Y-67356640D01*
X145220501Y-67374083D01*
X145220501Y-67606502D01*
X145202618Y-67670651D01*
X145148971Y-67759394D01*
X145101070Y-67913115D01*
X145096214Y-67966556D01*
X145095001Y-67979908D01*
X145095001Y-68870196D01*
X145095002Y-68870999D01*
X145095002Y-69762097D01*
X145101069Y-69828881D01*
X145101072Y-69828892D01*
X145148968Y-69982598D01*
X145148969Y-69982600D01*
X145162672Y-70005267D01*
X145202617Y-70071343D01*
X145220501Y-70135493D01*
X145220501Y-70391004D01*
X145225348Y-70398997D01*
X145229501Y-70430818D01*
X145229501Y-70950500D01*
X145209816Y-71017539D01*
X145157012Y-71063294D01*
X145105501Y-71074500D01*
X144474998Y-71074500D01*
X144474980Y-71074501D01*
X144372203Y-71085000D01*
X144372200Y-71085001D01*
X144205668Y-71140185D01*
X144205663Y-71140187D01*
X144056342Y-71232289D01*
X144020608Y-71268024D01*
X143959285Y-71301509D01*
X143889593Y-71296525D01*
X143845246Y-71268024D01*
X142527319Y-69950097D01*
X142493834Y-69888774D01*
X142491000Y-69862416D01*
X142491000Y-69762042D01*
X144145501Y-69762042D01*
X144151566Y-69828791D01*
X144199430Y-69982395D01*
X144282664Y-70120079D01*
X144396420Y-70233835D01*
X144534108Y-70317071D01*
X144534107Y-70317071D01*
X144687698Y-70364931D01*
X144687708Y-70364934D01*
X144720500Y-70367913D01*
X144720501Y-70367913D01*
X144720501Y-69120999D01*
X144145501Y-69120999D01*
X144145501Y-69762042D01*
X142491000Y-69762042D01*
X142491000Y-68237583D01*
X142510685Y-68170544D01*
X142527314Y-68149907D01*
X142697266Y-67979955D01*
X144145501Y-67979955D01*
X144145501Y-68620999D01*
X144720501Y-68620999D01*
X144720501Y-67374084D01*
X144720500Y-67374084D01*
X144687706Y-67377065D01*
X144534104Y-67424928D01*
X144396420Y-67508162D01*
X144282664Y-67621918D01*
X144199430Y-67759602D01*
X144151566Y-67913206D01*
X144145501Y-67979955D01*
X142697266Y-67979955D01*
X144055275Y-66621945D01*
X144116596Y-66588462D01*
X144186288Y-66593446D01*
G37*
G04 #@! TD.AperFunction*
G04 #@! TA.AperFunction,Conductor*
G36*
X117487239Y-57415085D02*
G01*
X117532994Y-57467889D01*
X117544200Y-57519400D01*
X117544200Y-58037412D01*
X117524515Y-58104451D01*
X117507881Y-58125093D01*
X116981357Y-58651616D01*
X116955869Y-58669705D01*
X116956373Y-58670507D01*
X116797737Y-58770184D01*
X116670184Y-58897737D01*
X116574211Y-59050476D01*
X116514631Y-59220745D01*
X116514630Y-59220750D01*
X116494435Y-59399996D01*
X116494435Y-59400003D01*
X116514630Y-59579249D01*
X116514631Y-59579254D01*
X116574211Y-59749523D01*
X116616610Y-59817000D01*
X116670184Y-59902262D01*
X116797738Y-60029816D01*
X116833685Y-60052403D01*
X116943513Y-60121413D01*
X116950478Y-60125789D01*
X117024276Y-60151612D01*
X117120745Y-60185368D01*
X117120750Y-60185369D01*
X117299996Y-60205565D01*
X117300000Y-60205565D01*
X117300004Y-60205565D01*
X117479249Y-60185369D01*
X117479252Y-60185368D01*
X117479255Y-60185368D01*
X117649522Y-60125789D01*
X117802262Y-60029816D01*
X117929816Y-59902262D01*
X118025789Y-59749522D01*
X118025789Y-59749520D01*
X118029494Y-59743625D01*
X118030299Y-59744131D01*
X118048382Y-59718641D01*
X118540820Y-59226204D01*
X118602142Y-59192720D01*
X118671834Y-59197704D01*
X118727767Y-59239576D01*
X118752184Y-59305040D01*
X118752500Y-59313886D01*
X118752500Y-68840223D01*
X118732815Y-68907262D01*
X118680011Y-68953017D01*
X118610853Y-68962961D01*
X118562528Y-68945217D01*
X118449523Y-68874211D01*
X118279254Y-68814631D01*
X118279249Y-68814630D01*
X118100004Y-68794435D01*
X118099996Y-68794435D01*
X117920753Y-68814630D01*
X117920743Y-68814632D01*
X117863849Y-68834541D01*
X117822894Y-68841500D01*
X117693099Y-68841500D01*
X117626060Y-68821815D01*
X117580305Y-68769011D01*
X117569099Y-68717500D01*
X117569099Y-68595628D01*
X117569098Y-68595623D01*
X117568332Y-68588500D01*
X117562691Y-68536017D01*
X117555229Y-68516011D01*
X117512397Y-68401171D01*
X117512393Y-68401164D01*
X117420832Y-68278855D01*
X117423557Y-68276814D01*
X117397951Y-68229921D01*
X117397516Y-68227835D01*
X117387705Y-68178510D01*
X117330829Y-68041200D01*
X117310984Y-68011500D01*
X117248260Y-67917625D01*
X117248254Y-67917618D01*
X117138847Y-67808211D01*
X117138824Y-67808190D01*
X116944739Y-67614104D01*
X116911254Y-67552781D01*
X116916238Y-67483089D01*
X116958110Y-67427156D01*
X117019165Y-67403133D01*
X117074380Y-67397196D01*
X117209086Y-67346954D01*
X117209093Y-67346950D01*
X117324187Y-67260790D01*
X117324190Y-67260787D01*
X117410350Y-67145693D01*
X117410354Y-67145686D01*
X117460596Y-67010979D01*
X117460598Y-67010972D01*
X117466999Y-66951444D01*
X117467000Y-66951427D01*
X117467000Y-66747200D01*
X114562000Y-66747200D01*
X114562000Y-66812500D01*
X114542315Y-66879539D01*
X114489511Y-66925294D01*
X114438000Y-66936500D01*
X113718000Y-66936500D01*
X113650961Y-66916815D01*
X113605206Y-66864011D01*
X113594000Y-66812500D01*
X113594000Y-64241276D01*
X113613685Y-64174237D01*
X113630319Y-64153595D01*
X114507419Y-63276495D01*
X114568742Y-63243010D01*
X114638434Y-63247994D01*
X114694367Y-63289866D01*
X114718784Y-63355330D01*
X114719100Y-63364176D01*
X114719100Y-65673252D01*
X114699415Y-65740291D01*
X114694366Y-65747563D01*
X114618649Y-65848706D01*
X114618645Y-65848713D01*
X114568403Y-65983420D01*
X114568401Y-65983427D01*
X114562000Y-66042955D01*
X114562000Y-66247200D01*
X117467000Y-66247200D01*
X117467000Y-66042972D01*
X117466999Y-66042955D01*
X117460598Y-65983427D01*
X117460596Y-65983420D01*
X117410354Y-65848713D01*
X117410350Y-65848706D01*
X117334634Y-65747563D01*
X117310216Y-65682099D01*
X117309900Y-65673252D01*
X117309900Y-62724581D01*
X117329585Y-62657542D01*
X117334622Y-62650285D01*
X117410796Y-62548531D01*
X117461091Y-62413683D01*
X117467500Y-62354073D01*
X117467499Y-61445528D01*
X117461091Y-61385917D01*
X117442912Y-61337177D01*
X117410797Y-61251071D01*
X117410793Y-61251064D01*
X117324547Y-61135855D01*
X117324544Y-61135852D01*
X117209335Y-61049606D01*
X117209328Y-61049602D01*
X117074482Y-60999308D01*
X117074483Y-60999308D01*
X117014883Y-60992901D01*
X117014881Y-60992900D01*
X117014873Y-60992900D01*
X117014865Y-60992900D01*
X116405591Y-60992900D01*
X116338552Y-60973215D01*
X116317914Y-60956585D01*
X116017624Y-60656294D01*
X115934412Y-60600694D01*
X115873243Y-60559822D01*
X115712828Y-60493377D01*
X115712818Y-60493374D01*
X115542523Y-60459500D01*
X115542521Y-60459500D01*
X115542520Y-60459500D01*
X114579800Y-60459500D01*
X114512761Y-60439815D01*
X114467006Y-60387011D01*
X114455800Y-60335500D01*
X114455800Y-59088537D01*
X114462759Y-59047582D01*
X114474326Y-59014525D01*
X114486668Y-58979255D01*
X114505560Y-58811583D01*
X114506865Y-58800003D01*
X114506865Y-58799996D01*
X114486669Y-58620750D01*
X114486668Y-58620745D01*
X114462758Y-58552414D01*
X114455800Y-58511459D01*
X114455800Y-57519400D01*
X114475485Y-57452361D01*
X114528289Y-57406606D01*
X114579800Y-57395400D01*
X117420200Y-57395400D01*
X117487239Y-57415085D01*
G37*
G04 #@! TD.AperFunction*
G04 #@! TA.AperFunction,Conductor*
G36*
X131453222Y-39004814D02*
G01*
X131509155Y-39046686D01*
X131526070Y-39077663D01*
X131533158Y-39096667D01*
X131538142Y-39166359D01*
X131533159Y-39183331D01*
X131520408Y-39217518D01*
X131514820Y-39269500D01*
X131514001Y-39277123D01*
X131514000Y-39277135D01*
X131514000Y-40272870D01*
X131514001Y-40272876D01*
X131520408Y-40332481D01*
X131533159Y-40366669D01*
X131538142Y-40436361D01*
X131533159Y-40453331D01*
X131520408Y-40487518D01*
X131514001Y-40547116D01*
X131514001Y-40547123D01*
X131514000Y-40547135D01*
X131514000Y-41542870D01*
X131514001Y-41542876D01*
X131520408Y-41602481D01*
X131533159Y-41636669D01*
X131538142Y-41706361D01*
X131533159Y-41723331D01*
X131520408Y-41757518D01*
X131514001Y-41817116D01*
X131514001Y-41817123D01*
X131514000Y-41817135D01*
X131514000Y-42812870D01*
X131514001Y-42812876D01*
X131520408Y-42872481D01*
X131533159Y-42906669D01*
X131538142Y-42976361D01*
X131533159Y-42993331D01*
X131520408Y-43027518D01*
X131515612Y-43072133D01*
X131514001Y-43087123D01*
X131514000Y-43087135D01*
X131514000Y-44082870D01*
X131514001Y-44082876D01*
X131520408Y-44142481D01*
X131533159Y-44176669D01*
X131538142Y-44246361D01*
X131533159Y-44263331D01*
X131520408Y-44297518D01*
X131515724Y-44341089D01*
X131514000Y-44357127D01*
X131514000Y-44850480D01*
X131514001Y-45310000D01*
X131494317Y-45377039D01*
X131441513Y-45422794D01*
X131390001Y-45434000D01*
X128181782Y-45434000D01*
X128048290Y-45460553D01*
X128048280Y-45460556D01*
X127922532Y-45512642D01*
X127922529Y-45512644D01*
X127809356Y-45588263D01*
X127809349Y-45588269D01*
X118906769Y-54490849D01*
X118906763Y-54490856D01*
X118851069Y-54574210D01*
X118851068Y-54574213D01*
X118839254Y-54591893D01*
X118785640Y-54636697D01*
X118736153Y-54647000D01*
X117844429Y-54647000D01*
X117844423Y-54647001D01*
X117784816Y-54653408D01*
X117649971Y-54703702D01*
X117649969Y-54703703D01*
X117583640Y-54753358D01*
X117548227Y-54779867D01*
X117482765Y-54804284D01*
X117473918Y-54804600D01*
X114579800Y-54804600D01*
X114512761Y-54784915D01*
X114467006Y-54732111D01*
X114455800Y-54680600D01*
X114455800Y-53388537D01*
X114462759Y-53347582D01*
X114486668Y-53279255D01*
X114506865Y-53100000D01*
X114503375Y-53069028D01*
X114486669Y-52920750D01*
X114486667Y-52920742D01*
X114485693Y-52917958D01*
X114485595Y-52916044D01*
X114485118Y-52913953D01*
X114485484Y-52913869D01*
X114482129Y-52848179D01*
X114516855Y-52787551D01*
X114578847Y-52755321D01*
X114602733Y-52752999D01*
X114955571Y-52752999D01*
X114955572Y-52752999D01*
X115015183Y-52746591D01*
X115150031Y-52696296D01*
X115251772Y-52620132D01*
X115317235Y-52595716D01*
X115326082Y-52595400D01*
X118274752Y-52595400D01*
X118341791Y-52615085D01*
X118349063Y-52620134D01*
X118450206Y-52695850D01*
X118450213Y-52695854D01*
X118584920Y-52746096D01*
X118584927Y-52746098D01*
X118644455Y-52752499D01*
X118644472Y-52752500D01*
X118848700Y-52752500D01*
X119348700Y-52752500D01*
X119552928Y-52752500D01*
X119552944Y-52752499D01*
X119612472Y-52746098D01*
X119612479Y-52746096D01*
X119747186Y-52695854D01*
X119747193Y-52695850D01*
X119862287Y-52609690D01*
X119862290Y-52609687D01*
X119948450Y-52494593D01*
X119948454Y-52494586D01*
X119998696Y-52359879D01*
X119998698Y-52359872D01*
X120005099Y-52300344D01*
X120005100Y-52300327D01*
X120005100Y-51550000D01*
X119348700Y-51550000D01*
X119348700Y-52752500D01*
X118848700Y-52752500D01*
X118848700Y-51050000D01*
X119348700Y-51050000D01*
X120005100Y-51050000D01*
X120005100Y-50299672D01*
X120005099Y-50299655D01*
X119998698Y-50240127D01*
X119998696Y-50240120D01*
X119948454Y-50105413D01*
X119948450Y-50105406D01*
X119862290Y-49990312D01*
X119862287Y-49990309D01*
X119747193Y-49904149D01*
X119747186Y-49904145D01*
X119612479Y-49853903D01*
X119612472Y-49853901D01*
X119552944Y-49847500D01*
X119348700Y-49847500D01*
X119348700Y-51050000D01*
X118848700Y-51050000D01*
X118848700Y-49847500D01*
X118644455Y-49847500D01*
X118584927Y-49853901D01*
X118584920Y-49853903D01*
X118450213Y-49904145D01*
X118450206Y-49904149D01*
X118349063Y-49979866D01*
X118283599Y-50004284D01*
X118274752Y-50004600D01*
X115326082Y-50004600D01*
X115259043Y-49984915D01*
X115251778Y-49979871D01*
X115182550Y-49928048D01*
X115150030Y-49903703D01*
X115150028Y-49903702D01*
X115015182Y-49853408D01*
X115015183Y-49853408D01*
X114955583Y-49847001D01*
X114955581Y-49847000D01*
X114955573Y-49847000D01*
X114955565Y-49847000D01*
X114619385Y-49847000D01*
X114552346Y-49827315D01*
X114506591Y-49774511D01*
X114496647Y-49705353D01*
X114525672Y-49641797D01*
X114531704Y-49635319D01*
X115733332Y-48433692D01*
X117068205Y-47098819D01*
X117129528Y-47065334D01*
X117155886Y-47062500D01*
X122900054Y-47062500D01*
X122900074Y-47062501D01*
X122906188Y-47062501D01*
X123054814Y-47062501D01*
X123176394Y-47038315D01*
X123176394Y-47038316D01*
X123176400Y-47038313D01*
X123200580Y-47033505D01*
X123236442Y-47018649D01*
X123257444Y-47009951D01*
X123257447Y-47009949D01*
X123257455Y-47009946D01*
X123337889Y-46976630D01*
X123461466Y-46894059D01*
X131322209Y-39033313D01*
X131383530Y-38999830D01*
X131453222Y-39004814D01*
G37*
G04 #@! TD.AperFunction*
G04 #@! TA.AperFunction,Conductor*
G36*
X100143320Y-29338344D02*
G01*
X100210340Y-29358084D01*
X100256050Y-29410927D01*
X100265935Y-29480094D01*
X100257774Y-29509795D01*
X100240999Y-29550293D01*
X100176518Y-29790938D01*
X100144002Y-30037924D01*
X100144001Y-30037941D01*
X100144001Y-30287058D01*
X100144002Y-30287075D01*
X100176518Y-30534061D01*
X100241000Y-30774710D01*
X100336334Y-31004866D01*
X100336338Y-31004876D01*
X100460901Y-31220625D01*
X100612561Y-31418273D01*
X100612567Y-31418280D01*
X100788719Y-31594432D01*
X100788726Y-31594438D01*
X100986374Y-31746098D01*
X101202123Y-31870661D01*
X101202124Y-31870661D01*
X101202127Y-31870663D01*
X101432294Y-31966001D01*
X101672935Y-32030481D01*
X101919935Y-32062999D01*
X101919942Y-32062999D01*
X102169058Y-32062999D01*
X102169065Y-32062999D01*
X102416065Y-32030481D01*
X102656706Y-31966001D01*
X102886873Y-31870663D01*
X103102626Y-31746098D01*
X103300275Y-31594437D01*
X103476437Y-31418275D01*
X103628098Y-31220626D01*
X103752663Y-31004873D01*
X103848001Y-30774706D01*
X103912481Y-30534065D01*
X103944999Y-30287065D01*
X103944999Y-30037935D01*
X103912481Y-29790935D01*
X103848001Y-29550294D01*
X103832557Y-29513008D01*
X103825088Y-29443538D01*
X103856363Y-29381059D01*
X103916452Y-29345407D01*
X103947209Y-29341556D01*
X117421181Y-29352936D01*
X117488202Y-29372677D01*
X117508755Y-29389255D01*
X117514500Y-29395000D01*
X165554305Y-29395000D01*
X165567353Y-29393600D01*
X168232846Y-29395851D01*
X168299867Y-29415592D01*
X168345577Y-29468435D01*
X168355462Y-29537602D01*
X168352514Y-29551943D01*
X168332019Y-29628434D01*
X168332019Y-29628435D01*
X168299502Y-29875424D01*
X168299501Y-29875441D01*
X168299501Y-30124558D01*
X168299502Y-30124575D01*
X168326233Y-30327620D01*
X168332019Y-30371565D01*
X168354820Y-30456659D01*
X168396500Y-30612210D01*
X168491834Y-30842366D01*
X168491838Y-30842376D01*
X168616401Y-31058125D01*
X168768061Y-31255773D01*
X168768067Y-31255780D01*
X168944219Y-31431932D01*
X168944226Y-31431938D01*
X169141874Y-31583598D01*
X169357623Y-31708161D01*
X169357624Y-31708161D01*
X169357627Y-31708163D01*
X169587794Y-31803501D01*
X169828435Y-31867981D01*
X170075435Y-31900499D01*
X170075442Y-31900499D01*
X170324558Y-31900499D01*
X170324565Y-31900499D01*
X170571565Y-31867981D01*
X170812206Y-31803501D01*
X171042373Y-31708163D01*
X171258126Y-31583598D01*
X171455775Y-31431937D01*
X171631937Y-31255775D01*
X171783598Y-31058126D01*
X171908163Y-30842373D01*
X172003501Y-30612206D01*
X172067981Y-30371565D01*
X172100499Y-30124565D01*
X172100499Y-29875435D01*
X172067981Y-29628435D01*
X172048375Y-29555265D01*
X172050038Y-29485418D01*
X172089200Y-29427555D01*
X172153428Y-29400051D01*
X172168229Y-29399175D01*
X173248107Y-29400087D01*
X173315129Y-29419828D01*
X173360839Y-29472671D01*
X173372001Y-29524087D01*
X173372001Y-87951501D01*
X173352316Y-88018540D01*
X173299512Y-88064295D01*
X173248419Y-88075500D01*
X98849917Y-88326211D01*
X98782811Y-88306753D01*
X98736879Y-88254103D01*
X98725499Y-88202212D01*
X98725499Y-84330441D01*
X100144001Y-84330441D01*
X100144001Y-84579558D01*
X100144002Y-84579575D01*
X100176518Y-84826561D01*
X100241000Y-85067210D01*
X100336334Y-85297366D01*
X100336338Y-85297376D01*
X100460901Y-85513125D01*
X100612561Y-85710773D01*
X100612567Y-85710780D01*
X100788719Y-85886932D01*
X100788726Y-85886938D01*
X100986374Y-86038598D01*
X101202123Y-86163161D01*
X101202124Y-86163161D01*
X101202127Y-86163163D01*
X101432294Y-86258501D01*
X101672935Y-86322981D01*
X101919935Y-86355499D01*
X101919942Y-86355499D01*
X102169058Y-86355499D01*
X102169065Y-86355499D01*
X102416065Y-86322981D01*
X102656706Y-86258501D01*
X102886873Y-86163163D01*
X103102626Y-86038598D01*
X103300275Y-85886937D01*
X103476437Y-85710775D01*
X103628098Y-85513126D01*
X103752663Y-85297373D01*
X103848001Y-85067206D01*
X103912481Y-84826565D01*
X103944999Y-84579565D01*
X103944999Y-84330435D01*
X103912481Y-84083435D01*
X103848001Y-83842794D01*
X103752663Y-83612627D01*
X103709990Y-83538716D01*
X103628098Y-83396874D01*
X103476438Y-83199226D01*
X103476432Y-83199219D01*
X103300280Y-83023067D01*
X103300273Y-83023061D01*
X103102625Y-82871401D01*
X102886876Y-82746838D01*
X102886866Y-82746834D01*
X102656710Y-82651500D01*
X102416061Y-82587018D01*
X102169075Y-82554502D01*
X102169070Y-82554501D01*
X102169065Y-82554501D01*
X101919935Y-82554501D01*
X101919929Y-82554501D01*
X101919924Y-82554502D01*
X101672938Y-82587018D01*
X101432289Y-82651500D01*
X101202133Y-82746834D01*
X101202123Y-82746838D01*
X100986374Y-82871401D01*
X100788726Y-83023061D01*
X100788719Y-83023067D01*
X100612567Y-83199219D01*
X100612561Y-83199226D01*
X100460901Y-83396874D01*
X100336338Y-83612623D01*
X100336334Y-83612633D01*
X100241000Y-83842789D01*
X100176518Y-84083438D01*
X100144002Y-84330424D01*
X100144001Y-84330441D01*
X98725499Y-84330441D01*
X98725499Y-76379793D01*
X98745184Y-76312754D01*
X98797988Y-76266999D01*
X98867146Y-76257055D01*
X98930702Y-76286080D01*
X98937180Y-76292112D01*
X98967594Y-76322526D01*
X98967598Y-76322529D01*
X99122368Y-76425944D01*
X99122377Y-76425949D01*
X99294353Y-76497183D01*
X99294361Y-76497185D01*
X99476921Y-76533499D01*
X99476924Y-76533500D01*
X99650000Y-76533500D01*
X99650000Y-75838500D01*
X100150000Y-75838500D01*
X100150000Y-76533500D01*
X100323076Y-76533500D01*
X100323078Y-76533499D01*
X100505638Y-76497185D01*
X100505646Y-76497183D01*
X100677622Y-76425949D01*
X100677631Y-76425944D01*
X100832401Y-76322529D01*
X100832405Y-76322526D01*
X100964026Y-76190905D01*
X100964029Y-76190901D01*
X101067444Y-76036131D01*
X101067451Y-76036118D01*
X101138682Y-75864149D01*
X101138683Y-75864144D01*
X101143784Y-75838500D01*
X100274728Y-75838500D01*
X100366614Y-75800440D01*
X100436940Y-75730114D01*
X100475000Y-75638228D01*
X100475000Y-75538772D01*
X100436940Y-75446886D01*
X100366614Y-75376560D01*
X100274728Y-75338500D01*
X99900000Y-75338500D01*
X99900000Y-75113500D01*
X99774000Y-75113500D01*
X99706961Y-75093815D01*
X99661206Y-75041011D01*
X99650000Y-74989500D01*
X99650000Y-74863500D01*
X100150000Y-74863500D01*
X101174999Y-74863500D01*
X101174999Y-74588528D01*
X101174998Y-74588513D01*
X101164505Y-74485802D01*
X101109358Y-74319380D01*
X101109353Y-74319369D01*
X101022523Y-74178597D01*
X101004082Y-74111205D01*
X101022523Y-74048403D01*
X101109353Y-73907630D01*
X101109358Y-73907619D01*
X101164505Y-73741197D01*
X101164506Y-73741190D01*
X101174999Y-73638486D01*
X101175000Y-73638473D01*
X101175000Y-73338500D01*
X100150000Y-73338500D01*
X100150000Y-74863500D01*
X99650000Y-74863500D01*
X99650000Y-72838500D01*
X100150000Y-72838500D01*
X101174999Y-72838500D01*
X101174999Y-72538528D01*
X101174998Y-72538513D01*
X101164505Y-72435802D01*
X101109358Y-72269380D01*
X101109356Y-72269375D01*
X101037943Y-72153597D01*
X101019503Y-72086205D01*
X101037943Y-72023403D01*
X101109356Y-71907624D01*
X101109358Y-71907619D01*
X101164505Y-71741197D01*
X101164506Y-71741190D01*
X101174999Y-71638486D01*
X101175000Y-71638473D01*
X101175000Y-71338500D01*
X100150000Y-71338500D01*
X100150000Y-72838500D01*
X99650000Y-72838500D01*
X99650000Y-70838500D01*
X100150000Y-70838500D01*
X101174999Y-70838500D01*
X101174999Y-70649138D01*
X101424500Y-70649138D01*
X101424500Y-70927863D01*
X101439953Y-71045253D01*
X101439957Y-71045265D01*
X101448566Y-71066050D01*
X101456033Y-71135519D01*
X101448566Y-71160950D01*
X101439957Y-71181734D01*
X101439955Y-71181739D01*
X101424500Y-71299138D01*
X101424501Y-71577861D01*
X101439953Y-71695253D01*
X101439957Y-71695265D01*
X101448566Y-71716050D01*
X101456033Y-71785519D01*
X101448566Y-71810950D01*
X101439957Y-71831734D01*
X101439955Y-71831739D01*
X101424500Y-71949138D01*
X101424500Y-72227863D01*
X101439953Y-72345253D01*
X101439956Y-72345262D01*
X101448837Y-72366703D01*
X101456304Y-72436173D01*
X101448838Y-72461603D01*
X101440443Y-72481870D01*
X101432987Y-72538500D01*
X101475500Y-72538500D01*
X101542539Y-72558185D01*
X101573875Y-72587013D01*
X101596715Y-72616779D01*
X101596716Y-72616780D01*
X101596718Y-72616782D01*
X101722159Y-72713036D01*
X101722160Y-72713036D01*
X101726184Y-72716124D01*
X101767386Y-72772552D01*
X101771541Y-72842298D01*
X101737329Y-72903219D01*
X101675611Y-72935971D01*
X101650697Y-72938500D01*
X101432990Y-72938500D01*
X101432988Y-72938501D01*
X101440442Y-72995127D01*
X101440443Y-72995129D01*
X101449108Y-73016049D01*
X101456576Y-73085518D01*
X101449109Y-73110949D01*
X101440443Y-73131870D01*
X101432987Y-73188500D01*
X102400000Y-73188500D01*
X102400000Y-72912999D01*
X102419685Y-72845960D01*
X102472489Y-72800205D01*
X102523997Y-72788999D01*
X102676001Y-72788999D01*
X102743039Y-72808684D01*
X102788794Y-72861488D01*
X102800000Y-72912999D01*
X102800000Y-73333500D01*
X102813681Y-73347181D01*
X102847166Y-73408504D01*
X102850000Y-73434862D01*
X102850000Y-74323443D01*
X102833134Y-74282725D01*
X102755775Y-74205366D01*
X102654701Y-74163500D01*
X102545299Y-74163500D01*
X102444225Y-74205366D01*
X102366866Y-74282725D01*
X102350000Y-74323443D01*
X102350000Y-73588500D01*
X101432990Y-73588500D01*
X101432988Y-73588501D01*
X101440442Y-73645127D01*
X101440444Y-73645133D01*
X101500899Y-73791085D01*
X101597077Y-73916427D01*
X101645915Y-73953902D01*
X101687118Y-74010330D01*
X101691272Y-74080076D01*
X101684990Y-74099727D01*
X101662469Y-74154099D01*
X101662466Y-74154111D01*
X101625789Y-74338499D01*
X101625790Y-74338500D01*
X102343763Y-74338500D01*
X102325000Y-74383799D01*
X102325000Y-74793201D01*
X102343763Y-74838500D01*
X101625789Y-74838500D01*
X101662466Y-75022889D01*
X101662468Y-75022897D01*
X101735964Y-75200333D01*
X101735969Y-75200342D01*
X101842667Y-75360026D01*
X101842670Y-75360030D01*
X101978469Y-75495829D01*
X101978473Y-75495832D01*
X102138157Y-75602530D01*
X102138167Y-75602535D01*
X102315599Y-75676030D01*
X102315606Y-75676033D01*
X102350000Y-75682873D01*
X102350000Y-74853556D01*
X102366866Y-74894275D01*
X102444225Y-74971634D01*
X102545299Y-75013500D01*
X102654701Y-75013500D01*
X102755775Y-74971634D01*
X102833134Y-74894275D01*
X102850000Y-74853556D01*
X102850000Y-75682872D01*
X102884393Y-75676033D01*
X102884400Y-75676030D01*
X103061832Y-75602535D01*
X103061842Y-75602530D01*
X103221526Y-75495832D01*
X103221530Y-75495829D01*
X103357329Y-75360030D01*
X103357332Y-75360026D01*
X103464030Y-75200342D01*
X103464035Y-75200333D01*
X103537531Y-75022897D01*
X103537533Y-75022889D01*
X103574210Y-74838500D01*
X102856237Y-74838500D01*
X102875000Y-74793201D01*
X102875000Y-74383799D01*
X102856237Y-74338500D01*
X103574210Y-74338500D01*
X103574210Y-74338499D01*
X103537533Y-74154110D01*
X103537532Y-74154106D01*
X103515009Y-74099731D01*
X103507540Y-74030262D01*
X103538814Y-73967782D01*
X103554084Y-73953901D01*
X103602923Y-73916426D01*
X103699100Y-73791086D01*
X103762666Y-73637623D01*
X103765847Y-73638940D01*
X103793846Y-73592871D01*
X103856653Y-73562260D01*
X103926039Y-73570464D01*
X103965057Y-73596835D01*
X104278210Y-73909987D01*
X104336005Y-73967782D01*
X104374458Y-74006235D01*
X104487626Y-74081852D01*
X104487639Y-74081859D01*
X104590249Y-74124361D01*
X104613387Y-74133945D01*
X104613391Y-74133945D01*
X104613392Y-74133946D01*
X104746883Y-74160500D01*
X104746886Y-74160500D01*
X118495560Y-74160500D01*
X118585370Y-74142634D01*
X118629057Y-74133945D01*
X118754811Y-74081856D01*
X118777793Y-74066500D01*
X118829378Y-74032032D01*
X118896053Y-74011154D01*
X118963433Y-74029638D01*
X119010124Y-74081616D01*
X119021301Y-74150586D01*
X118993416Y-74214650D01*
X118985949Y-74222815D01*
X117482083Y-75726681D01*
X117420760Y-75760166D01*
X117394402Y-75763000D01*
X116371129Y-75763000D01*
X116371123Y-75763001D01*
X116311516Y-75769408D01*
X116176671Y-75819702D01*
X116176664Y-75819706D01*
X116061455Y-75905952D01*
X116061452Y-75905955D01*
X115975206Y-76021164D01*
X115975202Y-76021171D01*
X115924908Y-76156017D01*
X115918501Y-76215616D01*
X115918500Y-76215635D01*
X115918500Y-77734500D01*
X115898815Y-77801539D01*
X115846011Y-77847294D01*
X115794500Y-77858500D01*
X111714166Y-77858500D01*
X111519338Y-77897254D01*
X111519330Y-77897256D01*
X111451007Y-77925557D01*
X111335798Y-77973277D01*
X111335789Y-77973282D01*
X111170619Y-78083646D01*
X111170615Y-78083649D01*
X110289922Y-78964344D01*
X110037619Y-79216647D01*
X109999850Y-79254416D01*
X109897145Y-79357120D01*
X109786782Y-79522289D01*
X109786777Y-79522298D01*
X109710756Y-79705830D01*
X109710754Y-79705838D01*
X109672000Y-79900666D01*
X109672000Y-80454958D01*
X109652315Y-80521997D01*
X109638260Y-80539437D01*
X109638305Y-80539475D01*
X109636989Y-80541015D01*
X109635681Y-80542639D01*
X109635143Y-80543176D01*
X109635143Y-80543177D01*
X109635141Y-80543179D01*
X109601487Y-80589500D01*
X109510818Y-80714294D01*
X109455488Y-80756959D01*
X109385874Y-80762938D01*
X109324079Y-80730332D01*
X109310182Y-80714294D01*
X109287935Y-80683674D01*
X109185859Y-80543179D01*
X109033321Y-80390641D01*
X108858799Y-80263843D01*
X108666589Y-80165908D01*
X108461426Y-80099246D01*
X108461424Y-80099245D01*
X108461422Y-80099245D01*
X108248366Y-80065500D01*
X108248361Y-80065500D01*
X108032639Y-80065500D01*
X108032634Y-80065500D01*
X107819577Y-80099245D01*
X107819574Y-80099246D01*
X107630600Y-80160648D01*
X107614408Y-80165909D01*
X107422200Y-80263843D01*
X107361896Y-80307657D01*
X107247679Y-80390641D01*
X107247677Y-80390643D01*
X107247676Y-80390643D01*
X107095143Y-80543176D01*
X107095143Y-80543177D01*
X107095141Y-80543179D01*
X107061487Y-80589500D01*
X106968343Y-80717700D01*
X106870409Y-80909908D01*
X106870408Y-80909910D01*
X106870408Y-80909911D01*
X106847305Y-80981013D01*
X106803745Y-81115077D01*
X106770000Y-81328133D01*
X106770000Y-81993866D01*
X106799742Y-82181646D01*
X106803746Y-82206926D01*
X106870408Y-82412089D01*
X106968343Y-82604299D01*
X107095141Y-82778821D01*
X107095143Y-82778823D01*
X107095681Y-82779361D01*
X107095819Y-82779615D01*
X107098305Y-82782525D01*
X107097693Y-82783047D01*
X107129166Y-82840684D01*
X107132000Y-82867042D01*
X107132000Y-83855833D01*
X107170754Y-84050661D01*
X107170756Y-84050669D01*
X107246777Y-84234201D01*
X107246782Y-84234210D01*
X107357146Y-84399380D01*
X107357149Y-84399384D01*
X109275615Y-86317851D01*
X109275623Y-86317857D01*
X109440786Y-86428215D01*
X109440789Y-86428216D01*
X109440797Y-86428222D01*
X109548309Y-86472754D01*
X109624331Y-86504244D01*
X109819166Y-86542999D01*
X109819170Y-86543000D01*
X109819171Y-86543000D01*
X114279830Y-86543000D01*
X114279831Y-86542999D01*
X114474669Y-86504244D01*
X114658204Y-86428221D01*
X114823381Y-86317853D01*
X114963853Y-86177381D01*
X115022412Y-86118822D01*
X115022424Y-86118808D01*
X117355916Y-83785319D01*
X117417239Y-83751834D01*
X117443597Y-83749000D01*
X117580853Y-83749000D01*
X117580854Y-83749000D01*
X117806745Y-83713222D01*
X117806748Y-83713221D01*
X117806749Y-83713221D01*
X118024255Y-83642549D01*
X118024255Y-83642548D01*
X118024258Y-83642548D01*
X118228038Y-83538717D01*
X118413066Y-83404286D01*
X118476533Y-83340819D01*
X118537856Y-83307334D01*
X118564214Y-83304500D01*
X121199090Y-83304500D01*
X121276147Y-83304500D01*
X121343186Y-83324185D01*
X121388941Y-83376989D01*
X121395921Y-83396405D01*
X121420653Y-83488705D01*
X121513419Y-83687642D01*
X121513423Y-83687650D01*
X121639322Y-83867452D01*
X121639327Y-83867458D01*
X121794541Y-84022672D01*
X121794547Y-84022677D01*
X121974349Y-84148576D01*
X121974351Y-84148577D01*
X121974354Y-84148579D01*
X122173297Y-84241347D01*
X122385326Y-84298161D01*
X122541521Y-84311826D01*
X122603998Y-84317292D01*
X122604000Y-84317292D01*
X122604002Y-84317292D01*
X122658668Y-84312509D01*
X122822674Y-84298161D01*
X123034703Y-84241347D01*
X123233646Y-84148579D01*
X123413457Y-84022674D01*
X123568674Y-83867457D01*
X123694579Y-83687646D01*
X123787347Y-83488703D01*
X123844161Y-83276674D01*
X123863278Y-83058157D01*
X123863292Y-83058002D01*
X123863292Y-83057997D01*
X132344708Y-83057997D01*
X132344708Y-83058002D01*
X132363838Y-83276668D01*
X132363839Y-83276675D01*
X132373777Y-83313761D01*
X132420653Y-83488703D01*
X132420654Y-83488705D01*
X132420655Y-83488708D01*
X132513419Y-83687642D01*
X132513423Y-83687650D01*
X132639322Y-83867452D01*
X132639327Y-83867458D01*
X132794541Y-84022672D01*
X132794547Y-84022677D01*
X132974349Y-84148576D01*
X132974351Y-84148577D01*
X132974354Y-84148579D01*
X133173297Y-84241347D01*
X133385326Y-84298161D01*
X133541521Y-84311826D01*
X133603998Y-84317292D01*
X133604000Y-84317292D01*
X133604002Y-84317292D01*
X133658668Y-84312509D01*
X133822674Y-84298161D01*
X134034703Y-84241347D01*
X134233646Y-84148579D01*
X134413457Y-84022674D01*
X134568674Y-83867457D01*
X134694579Y-83687646D01*
X134787347Y-83488703D01*
X134844161Y-83276674D01*
X134863278Y-83058157D01*
X134863292Y-83058002D01*
X134863292Y-83057997D01*
X134854243Y-82954569D01*
X134844161Y-82839326D01*
X134787347Y-82627297D01*
X134694579Y-82428354D01*
X134694577Y-82428351D01*
X134694576Y-82428349D01*
X134568677Y-82248547D01*
X134568672Y-82248541D01*
X134413458Y-82093327D01*
X134413452Y-82093322D01*
X134233650Y-81967423D01*
X134233642Y-81967419D01*
X134034708Y-81874655D01*
X134034706Y-81874654D01*
X134034703Y-81874653D01*
X133883885Y-81834240D01*
X133822675Y-81817839D01*
X133822668Y-81817838D01*
X133604002Y-81798708D01*
X133603998Y-81798708D01*
X133385331Y-81817838D01*
X133385324Y-81817839D01*
X133262902Y-81850642D01*
X133173297Y-81874653D01*
X133173295Y-81874653D01*
X133173291Y-81874655D01*
X132974357Y-81967419D01*
X132974349Y-81967423D01*
X132794547Y-82093322D01*
X132794541Y-82093327D01*
X132639327Y-82248541D01*
X132639322Y-82248547D01*
X132513423Y-82428349D01*
X132513419Y-82428357D01*
X132420655Y-82627291D01*
X132420653Y-82627295D01*
X132420653Y-82627297D01*
X132409345Y-82669500D01*
X132363839Y-82839324D01*
X132363838Y-82839331D01*
X132344708Y-83057997D01*
X123863292Y-83057997D01*
X123854243Y-82954569D01*
X123844161Y-82839326D01*
X123787347Y-82627297D01*
X123694579Y-82428354D01*
X123694577Y-82428351D01*
X123694576Y-82428349D01*
X123568677Y-82248547D01*
X123568672Y-82248541D01*
X123413458Y-82093327D01*
X123413452Y-82093322D01*
X123248584Y-81977881D01*
X123204959Y-81923304D01*
X123197765Y-81853806D01*
X123229288Y-81791451D01*
X123231994Y-81788657D01*
X126019746Y-79000906D01*
X136309500Y-79000906D01*
X136309500Y-79610094D01*
X136315685Y-79678157D01*
X136315686Y-79678162D01*
X136315687Y-79678164D01*
X136364485Y-79834763D01*
X136364488Y-79834772D01*
X136449348Y-79975148D01*
X136449351Y-79975152D01*
X136565347Y-80091148D01*
X136565351Y-80091151D01*
X136705727Y-80176011D01*
X136705730Y-80176012D01*
X136862343Y-80224815D01*
X136930406Y-80231000D01*
X137056916Y-80231000D01*
X137123955Y-80250685D01*
X137144597Y-80267319D01*
X141378507Y-84501230D01*
X141378510Y-84501233D01*
X141436311Y-84539854D01*
X141491682Y-84576852D01*
X141491695Y-84576859D01*
X141617438Y-84628943D01*
X141617443Y-84628945D01*
X141617447Y-84628945D01*
X141617448Y-84628946D01*
X141750939Y-84655500D01*
X141750942Y-84655500D01*
X141750943Y-84655500D01*
X141887057Y-84655500D01*
X150906861Y-84655500D01*
X150973900Y-84675185D01*
X151019655Y-84727989D01*
X151024566Y-84740495D01*
X151079686Y-84906834D01*
X151171788Y-85056156D01*
X151295844Y-85180212D01*
X151445166Y-85272314D01*
X151611703Y-85327499D01*
X151714491Y-85338000D01*
X152514508Y-85337999D01*
X152514516Y-85337998D01*
X152514519Y-85337998D01*
X152570802Y-85332248D01*
X152617297Y-85327499D01*
X152783834Y-85272314D01*
X152933156Y-85180212D01*
X153027175Y-85086192D01*
X153088494Y-85052710D01*
X153158186Y-85057694D01*
X153202534Y-85086195D01*
X153296154Y-85179815D01*
X153445375Y-85271856D01*
X153445380Y-85271858D01*
X153611802Y-85327005D01*
X153611809Y-85327006D01*
X153714519Y-85337499D01*
X153864499Y-85337499D01*
X154364500Y-85337499D01*
X154514472Y-85337499D01*
X154514486Y-85337498D01*
X154617197Y-85327005D01*
X154783619Y-85271858D01*
X154783624Y-85271856D01*
X154932845Y-85179815D01*
X155056815Y-85055845D01*
X155148856Y-84906624D01*
X155148858Y-84906619D01*
X155204005Y-84740197D01*
X155204006Y-84740190D01*
X155214499Y-84637486D01*
X155214500Y-84637473D01*
X155214500Y-84387500D01*
X154364500Y-84387500D01*
X154364500Y-85337499D01*
X153864499Y-85337499D01*
X153864500Y-85337498D01*
X153864500Y-84330441D01*
X168470001Y-84330441D01*
X168470001Y-84579558D01*
X168470002Y-84579575D01*
X168502518Y-84826561D01*
X168567000Y-85067210D01*
X168662334Y-85297366D01*
X168662338Y-85297376D01*
X168786901Y-85513125D01*
X168938561Y-85710773D01*
X168938567Y-85710780D01*
X169114719Y-85886932D01*
X169114726Y-85886938D01*
X169312374Y-86038598D01*
X169528123Y-86163161D01*
X169528124Y-86163161D01*
X169528127Y-86163163D01*
X169758294Y-86258501D01*
X169998935Y-86322981D01*
X170245935Y-86355499D01*
X170245942Y-86355499D01*
X170495058Y-86355499D01*
X170495065Y-86355499D01*
X170742065Y-86322981D01*
X170982706Y-86258501D01*
X171212873Y-86163163D01*
X171428626Y-86038598D01*
X171626275Y-85886937D01*
X171802437Y-85710775D01*
X171954098Y-85513126D01*
X172078663Y-85297373D01*
X172174001Y-85067206D01*
X172238481Y-84826565D01*
X172270999Y-84579565D01*
X172270999Y-84330435D01*
X172238481Y-84083435D01*
X172174001Y-83842794D01*
X172078663Y-83612627D01*
X172035990Y-83538716D01*
X171954098Y-83396874D01*
X171802438Y-83199226D01*
X171802432Y-83199219D01*
X171626280Y-83023067D01*
X171626273Y-83023061D01*
X171428625Y-82871401D01*
X171212876Y-82746838D01*
X171212866Y-82746834D01*
X170982710Y-82651500D01*
X170742061Y-82587018D01*
X170495075Y-82554502D01*
X170495070Y-82554501D01*
X170495065Y-82554501D01*
X170245935Y-82554501D01*
X170245929Y-82554501D01*
X170245924Y-82554502D01*
X169998938Y-82587018D01*
X169758289Y-82651500D01*
X169528133Y-82746834D01*
X169528123Y-82746838D01*
X169312374Y-82871401D01*
X169114726Y-83023061D01*
X169114719Y-83023067D01*
X168938567Y-83199219D01*
X168938561Y-83199226D01*
X168786901Y-83396874D01*
X168662338Y-83612623D01*
X168662334Y-83612633D01*
X168567000Y-83842789D01*
X168502518Y-84083438D01*
X168470002Y-84330424D01*
X168470001Y-84330441D01*
X153864500Y-84330441D01*
X153864500Y-83307338D01*
X154364500Y-83307338D01*
X154364500Y-83887500D01*
X155214499Y-83887500D01*
X155214499Y-83637528D01*
X155214498Y-83637513D01*
X155204005Y-83534802D01*
X155148858Y-83368380D01*
X155148856Y-83368375D01*
X155056815Y-83219154D01*
X154999092Y-83161431D01*
X154965607Y-83100108D01*
X154970591Y-83030416D01*
X154999092Y-82986069D01*
X155088315Y-82896845D01*
X155180356Y-82747624D01*
X155180358Y-82747619D01*
X155235505Y-82581197D01*
X155235506Y-82581190D01*
X155245999Y-82478486D01*
X155246000Y-82478473D01*
X155246000Y-82228500D01*
X154396000Y-82228500D01*
X154396000Y-83225638D01*
X154376315Y-83292677D01*
X154364500Y-83307338D01*
X153864500Y-83307338D01*
X153864500Y-82890362D01*
X153884185Y-82823323D01*
X153896000Y-82808661D01*
X153896000Y-81200127D01*
X154396000Y-81200127D01*
X154396000Y-81728500D01*
X155245999Y-81728500D01*
X155245999Y-81478528D01*
X155245998Y-81478513D01*
X155235505Y-81375802D01*
X155180358Y-81209380D01*
X155180356Y-81209375D01*
X155088315Y-81060154D01*
X155054592Y-81026431D01*
X155021107Y-80965108D01*
X155026091Y-80895416D01*
X155054592Y-80851069D01*
X155104315Y-80801345D01*
X155196356Y-80652124D01*
X155196358Y-80652119D01*
X155251505Y-80485697D01*
X155251506Y-80485690D01*
X155261999Y-80382986D01*
X155262000Y-80382973D01*
X155262000Y-80133000D01*
X154412000Y-80133000D01*
X154412000Y-81145638D01*
X154396000Y-81200127D01*
X153896000Y-81200127D01*
X153896000Y-80715862D01*
X153912000Y-80661372D01*
X153912000Y-79041127D01*
X154412000Y-79041127D01*
X154412000Y-79633000D01*
X155261999Y-79633000D01*
X155261999Y-79383028D01*
X155261998Y-79383013D01*
X155251505Y-79280302D01*
X155196358Y-79113880D01*
X155196356Y-79113875D01*
X155104315Y-78964654D01*
X155038842Y-78899181D01*
X155005357Y-78837858D01*
X155010341Y-78768166D01*
X155038842Y-78723819D01*
X155120315Y-78642345D01*
X155212356Y-78493124D01*
X155212358Y-78493119D01*
X155267505Y-78326697D01*
X155267506Y-78326690D01*
X155277999Y-78223986D01*
X155278000Y-78223973D01*
X155278000Y-77974000D01*
X154428000Y-77974000D01*
X154428000Y-78986638D01*
X154412000Y-79041127D01*
X153912000Y-79041127D01*
X153912000Y-78620362D01*
X153928000Y-78565872D01*
X153928000Y-77474000D01*
X154428000Y-77474000D01*
X155277999Y-77474000D01*
X155277999Y-77224028D01*
X155277998Y-77224013D01*
X155267505Y-77121302D01*
X155212358Y-76954880D01*
X155212356Y-76954875D01*
X155120315Y-76805654D01*
X154996345Y-76681684D01*
X154847124Y-76589643D01*
X154847119Y-76589641D01*
X154680697Y-76534494D01*
X154680690Y-76534493D01*
X154577986Y-76524000D01*
X154428000Y-76524000D01*
X154428000Y-77474000D01*
X153928000Y-77474000D01*
X153928000Y-76524000D01*
X153778027Y-76524000D01*
X153778012Y-76524001D01*
X153675302Y-76534494D01*
X153508880Y-76589641D01*
X153508875Y-76589643D01*
X153359657Y-76681682D01*
X153266034Y-76775305D01*
X153204710Y-76808789D01*
X153135019Y-76803805D01*
X153090672Y-76775304D01*
X152996657Y-76681289D01*
X152996656Y-76681288D01*
X152847334Y-76589186D01*
X152680797Y-76534001D01*
X152680795Y-76534000D01*
X152578010Y-76523500D01*
X151777998Y-76523500D01*
X151777980Y-76523501D01*
X151675203Y-76534000D01*
X151675200Y-76534001D01*
X151508668Y-76589185D01*
X151508663Y-76589187D01*
X151359342Y-76681289D01*
X151235289Y-76805342D01*
X151143187Y-76954663D01*
X151143185Y-76954668D01*
X151143115Y-76954880D01*
X151088001Y-77121203D01*
X151088001Y-77121204D01*
X151088000Y-77121204D01*
X151077500Y-77223983D01*
X151077500Y-77795915D01*
X151057815Y-77862954D01*
X151041181Y-77883596D01*
X150277097Y-78647681D01*
X150215774Y-78681166D01*
X150189416Y-78684000D01*
X149521163Y-78684000D01*
X149454124Y-78664315D01*
X149433482Y-78647681D01*
X149375152Y-78589351D01*
X149375148Y-78589348D01*
X149234772Y-78504488D01*
X149234763Y-78504485D01*
X149078164Y-78455687D01*
X149078162Y-78455686D01*
X149078157Y-78455685D01*
X149010094Y-78449500D01*
X148550906Y-78449500D01*
X148482843Y-78455685D01*
X148482839Y-78455686D01*
X148482835Y-78455687D01*
X148326236Y-78504485D01*
X148326227Y-78504488D01*
X148185851Y-78589348D01*
X148185847Y-78589351D01*
X148069851Y-78705347D01*
X148069848Y-78705351D01*
X147984988Y-78845727D01*
X147984985Y-78845736D01*
X147936632Y-79000908D01*
X147936185Y-79002343D01*
X147930000Y-79070406D01*
X147930000Y-79679594D01*
X147936185Y-79747657D01*
X147936186Y-79747662D01*
X147936187Y-79747664D01*
X147984985Y-79904263D01*
X147984989Y-79904272D01*
X148048208Y-80008851D01*
X148066044Y-80076406D01*
X148044526Y-80142879D01*
X147990485Y-80187167D01*
X147942091Y-80197000D01*
X146446083Y-80197000D01*
X146379044Y-80177315D01*
X146358402Y-80160681D01*
X145539819Y-79342097D01*
X145506334Y-79280774D01*
X145503500Y-79254416D01*
X145503500Y-79127908D01*
X145502206Y-79113666D01*
X145497315Y-79059843D01*
X145448512Y-78903230D01*
X145448511Y-78903227D01*
X145363651Y-78762851D01*
X145363648Y-78762847D01*
X145247652Y-78646851D01*
X145247648Y-78646848D01*
X145107272Y-78561988D01*
X145107263Y-78561985D01*
X144950664Y-78513187D01*
X144950662Y-78513186D01*
X144950657Y-78513185D01*
X144882594Y-78507000D01*
X144423406Y-78507000D01*
X144355343Y-78513185D01*
X144355339Y-78513186D01*
X144355335Y-78513187D01*
X144198736Y-78561985D01*
X144198727Y-78561988D01*
X144058351Y-78646848D01*
X144058347Y-78646851D01*
X143942351Y-78762847D01*
X143942348Y-78762851D01*
X143857488Y-78903227D01*
X143857485Y-78903236D01*
X143826602Y-79002345D01*
X143808685Y-79059843D01*
X143802500Y-79127906D01*
X143802500Y-79737094D01*
X143808685Y-79805157D01*
X143808686Y-79805162D01*
X143808687Y-79805164D01*
X143857485Y-79961763D01*
X143857488Y-79961772D01*
X143942348Y-80102148D01*
X143942351Y-80102152D01*
X144058347Y-80218148D01*
X144058351Y-80218151D01*
X144198727Y-80303011D01*
X144198730Y-80303012D01*
X144355343Y-80351815D01*
X144423406Y-80358000D01*
X144549916Y-80358000D01*
X144616955Y-80377685D01*
X144637597Y-80394319D01*
X145053755Y-80810477D01*
X145319098Y-81075819D01*
X145352583Y-81137142D01*
X145347599Y-81206833D01*
X145305728Y-81262767D01*
X145240263Y-81287184D01*
X145231417Y-81287500D01*
X143974583Y-81287500D01*
X143907544Y-81267815D01*
X143886902Y-81251181D01*
X141856819Y-79221097D01*
X141823334Y-79159774D01*
X141820500Y-79133416D01*
X141820500Y-79064408D01*
X141820500Y-79064406D01*
X141814315Y-78996343D01*
X141765512Y-78839730D01*
X141765511Y-78839727D01*
X141680651Y-78699351D01*
X141680648Y-78699347D01*
X141564652Y-78583351D01*
X141564648Y-78583348D01*
X141424272Y-78498488D01*
X141424263Y-78498485D01*
X141267664Y-78449687D01*
X141267662Y-78449686D01*
X141267657Y-78449685D01*
X141199594Y-78443500D01*
X140740406Y-78443500D01*
X140672343Y-78449685D01*
X140672339Y-78449686D01*
X140672335Y-78449687D01*
X140515736Y-78498485D01*
X140515727Y-78498488D01*
X140375351Y-78583348D01*
X140375347Y-78583351D01*
X140259351Y-78699347D01*
X140259348Y-78699351D01*
X140174488Y-78839727D01*
X140174485Y-78839736D01*
X140128709Y-78986638D01*
X140125685Y-78996343D01*
X140119500Y-79064406D01*
X140119500Y-79673594D01*
X140125685Y-79741657D01*
X140125686Y-79741662D01*
X140125687Y-79741664D01*
X140174485Y-79898263D01*
X140174488Y-79898272D01*
X140259348Y-80038648D01*
X140259351Y-80038652D01*
X140375347Y-80154648D01*
X140375351Y-80154651D01*
X140515727Y-80239511D01*
X140515730Y-80239512D01*
X140672343Y-80288315D01*
X140740406Y-80294500D01*
X140924416Y-80294500D01*
X140991455Y-80314185D01*
X141012097Y-80330819D01*
X143100266Y-82418987D01*
X143159752Y-82478473D01*
X143196514Y-82515235D01*
X143309682Y-82590852D01*
X143309695Y-82590859D01*
X143397665Y-82627297D01*
X143435443Y-82642945D01*
X143435447Y-82642945D01*
X143435448Y-82642946D01*
X143568939Y-82669500D01*
X143568942Y-82669500D01*
X143568943Y-82669500D01*
X143705057Y-82669500D01*
X150995688Y-82669500D01*
X151062727Y-82689185D01*
X151107951Y-82741376D01*
X151108136Y-82741291D01*
X151108437Y-82741937D01*
X151108482Y-82741989D01*
X151108591Y-82742268D01*
X151111187Y-82747836D01*
X151131633Y-82780984D01*
X151203096Y-82896845D01*
X151203289Y-82897157D01*
X151260701Y-82954569D01*
X151294186Y-83015892D01*
X151289202Y-83085584D01*
X151260701Y-83129931D01*
X151171788Y-83218843D01*
X151167307Y-83224511D01*
X151165220Y-83222861D01*
X151122457Y-83261323D01*
X151068869Y-83273500D01*
X142156584Y-83273500D01*
X142089545Y-83253815D01*
X142068903Y-83237181D01*
X138046819Y-79215097D01*
X138013334Y-79153774D01*
X138010500Y-79127416D01*
X138010500Y-79000908D01*
X138010500Y-79000906D01*
X138004315Y-78932843D01*
X137955512Y-78776230D01*
X137955511Y-78776227D01*
X137870651Y-78635851D01*
X137870648Y-78635847D01*
X137754652Y-78519851D01*
X137754648Y-78519848D01*
X137614272Y-78434988D01*
X137614263Y-78434985D01*
X137457664Y-78386187D01*
X137457662Y-78386186D01*
X137457657Y-78386185D01*
X137389594Y-78380000D01*
X136930406Y-78380000D01*
X136862343Y-78386185D01*
X136862339Y-78386186D01*
X136862335Y-78386187D01*
X136705736Y-78434985D01*
X136705727Y-78434988D01*
X136565351Y-78519848D01*
X136565347Y-78519851D01*
X136449351Y-78635847D01*
X136449348Y-78635851D01*
X136364488Y-78776227D01*
X136364485Y-78776236D01*
X136321037Y-78915667D01*
X136315685Y-78932843D01*
X136309500Y-79000906D01*
X126019746Y-79000906D01*
X128520656Y-76499996D01*
X134594435Y-76499996D01*
X134594435Y-76500003D01*
X134614630Y-76679249D01*
X134614631Y-76679254D01*
X134674211Y-76849523D01*
X134740409Y-76954875D01*
X134770184Y-77002262D01*
X134897738Y-77129816D01*
X134959505Y-77168627D01*
X135050022Y-77225503D01*
X135050478Y-77225789D01*
X135152417Y-77261459D01*
X135220745Y-77285368D01*
X135220750Y-77285369D01*
X135399996Y-77305565D01*
X135400000Y-77305565D01*
X135400004Y-77305565D01*
X135579249Y-77285369D01*
X135579251Y-77285368D01*
X135579255Y-77285368D01*
X135579258Y-77285366D01*
X135579262Y-77285366D01*
X135647585Y-77261459D01*
X135688540Y-77254500D01*
X136335054Y-77254500D01*
X136335074Y-77254501D01*
X136341188Y-77254501D01*
X136489814Y-77254501D01*
X136611394Y-77230315D01*
X136611394Y-77230316D01*
X136611400Y-77230313D01*
X136635580Y-77225505D01*
X136671442Y-77210649D01*
X136692444Y-77201951D01*
X136692447Y-77201949D01*
X136692455Y-77201946D01*
X136772889Y-77168630D01*
X136896466Y-77086059D01*
X137265206Y-76717319D01*
X137326529Y-76683834D01*
X137352887Y-76681000D01*
X137375686Y-76681000D01*
X137375694Y-76681000D01*
X137412569Y-76678098D01*
X137412571Y-76678097D01*
X137412573Y-76678097D01*
X137454191Y-76666005D01*
X137570398Y-76632244D01*
X137711865Y-76548581D01*
X137828081Y-76432365D01*
X137911744Y-76290898D01*
X137948117Y-76165701D01*
X137957597Y-76133073D01*
X137957598Y-76133067D01*
X137960500Y-76096194D01*
X137960500Y-75414806D01*
X137957598Y-75377931D01*
X137952397Y-75360030D01*
X137911745Y-75220106D01*
X137911744Y-75220103D01*
X137911744Y-75220102D01*
X137828081Y-75078635D01*
X137828079Y-75078633D01*
X137828076Y-75078629D01*
X137711870Y-74962423D01*
X137711862Y-74962417D01*
X137570396Y-74878755D01*
X137570393Y-74878754D01*
X137412573Y-74832902D01*
X137412567Y-74832901D01*
X137375701Y-74830000D01*
X137375694Y-74830000D01*
X136944306Y-74830000D01*
X136944298Y-74830000D01*
X136907432Y-74832901D01*
X136907426Y-74832902D01*
X136749606Y-74878754D01*
X136749603Y-74878755D01*
X136608137Y-74962417D01*
X136608129Y-74962423D01*
X136491923Y-75078629D01*
X136491917Y-75078637D01*
X136408255Y-75220103D01*
X136408254Y-75220106D01*
X136362402Y-75377926D01*
X136362401Y-75377932D01*
X136359500Y-75414798D01*
X136359500Y-75437613D01*
X136339815Y-75504652D01*
X136323181Y-75525294D01*
X136139294Y-75709181D01*
X136077971Y-75742666D01*
X136051613Y-75745500D01*
X135688540Y-75745500D01*
X135647585Y-75738541D01*
X135579262Y-75714633D01*
X135579249Y-75714630D01*
X135400004Y-75694435D01*
X135399996Y-75694435D01*
X135220750Y-75714630D01*
X135220745Y-75714631D01*
X135050476Y-75774211D01*
X134897737Y-75870184D01*
X134770184Y-75997737D01*
X134674211Y-76150476D01*
X134614631Y-76320745D01*
X134614630Y-76320750D01*
X134594435Y-76499996D01*
X128520656Y-76499996D01*
X130150834Y-74869818D01*
X130212157Y-74836333D01*
X130238515Y-74833499D01*
X131926871Y-74833499D01*
X131926872Y-74833499D01*
X131986483Y-74827091D01*
X132121331Y-74776796D01*
X132236546Y-74690546D01*
X132322796Y-74575331D01*
X132373091Y-74440483D01*
X132379500Y-74380873D01*
X132379499Y-71735128D01*
X132373091Y-71675517D01*
X132371853Y-71672199D01*
X132322797Y-71540671D01*
X132322793Y-71540664D01*
X132236547Y-71425455D01*
X132236544Y-71425452D01*
X132121335Y-71339206D01*
X132121328Y-71339202D01*
X131986482Y-71288908D01*
X131986483Y-71288908D01*
X131926883Y-71282501D01*
X131926881Y-71282500D01*
X131926873Y-71282500D01*
X131926864Y-71282500D01*
X129281129Y-71282500D01*
X129281123Y-71282501D01*
X129221516Y-71288908D01*
X129086671Y-71339202D01*
X129086664Y-71339206D01*
X128971455Y-71425452D01*
X128971452Y-71425455D01*
X128885206Y-71540664D01*
X128885202Y-71540671D01*
X128834908Y-71675517D01*
X128830551Y-71716050D01*
X128828501Y-71735123D01*
X128828500Y-71735135D01*
X128828500Y-73288322D01*
X128808815Y-73355361D01*
X128792181Y-73376003D01*
X120917004Y-81251181D01*
X120855681Y-81284666D01*
X120829323Y-81287500D01*
X118564214Y-81287500D01*
X118497175Y-81267815D01*
X118476533Y-81251181D01*
X118413068Y-81187716D01*
X118413067Y-81187715D01*
X118413066Y-81187714D01*
X118328559Y-81126316D01*
X118285896Y-81070988D01*
X118279917Y-81001375D01*
X118312523Y-80939580D01*
X118328556Y-80925685D01*
X118413066Y-80864286D01*
X118574786Y-80702566D01*
X118709217Y-80517538D01*
X118813048Y-80313758D01*
X118883722Y-80096245D01*
X118919500Y-79870354D01*
X118919500Y-79641646D01*
X118883722Y-79415755D01*
X118883721Y-79415751D01*
X118883721Y-79415750D01*
X118813049Y-79198244D01*
X118803131Y-79178778D01*
X118709217Y-78994462D01*
X118576472Y-78811755D01*
X118552994Y-78745953D01*
X118568819Y-78677899D01*
X118618925Y-78629204D01*
X118633455Y-78622692D01*
X118661331Y-78612296D01*
X118776546Y-78526046D01*
X118862796Y-78410831D01*
X118913091Y-78275983D01*
X118919500Y-78216373D01*
X118919499Y-77193094D01*
X118939183Y-77126056D01*
X118955813Y-77105419D01*
X123725266Y-72335967D01*
X123786587Y-72302484D01*
X123856279Y-72307468D01*
X123912212Y-72349340D01*
X123936629Y-72414804D01*
X123928374Y-72468951D01*
X123903102Y-72533344D01*
X123903098Y-72533356D01*
X123843903Y-72792707D01*
X123843903Y-72792709D01*
X123824023Y-73057995D01*
X123824023Y-73058004D01*
X123843903Y-73323290D01*
X123843903Y-73323292D01*
X123903098Y-73582643D01*
X123903104Y-73582662D01*
X124000296Y-73830303D01*
X124133313Y-74060695D01*
X124133320Y-74060706D01*
X124184084Y-74124360D01*
X124184085Y-74124361D01*
X124849884Y-73458561D01*
X124850740Y-73460626D01*
X124943762Y-73599844D01*
X125062156Y-73718238D01*
X125201374Y-73811260D01*
X125203437Y-73812114D01*
X124536839Y-74478711D01*
X124714011Y-74599504D01*
X124714015Y-74599506D01*
X124953695Y-74714931D01*
X124953699Y-74714932D01*
X125207909Y-74793346D01*
X125207915Y-74793347D01*
X125470976Y-74832999D01*
X125470983Y-74833000D01*
X125737017Y-74833000D01*
X125737023Y-74832999D01*
X126000084Y-74793347D01*
X126000090Y-74793346D01*
X126254299Y-74714933D01*
X126493984Y-74599507D01*
X126671159Y-74478711D01*
X126004562Y-73812114D01*
X126006626Y-73811260D01*
X126145844Y-73718238D01*
X126264238Y-73599844D01*
X126357260Y-73460626D01*
X126358114Y-73458562D01*
X127023913Y-74124361D01*
X127023913Y-74124360D01*
X127074688Y-74060693D01*
X127207703Y-73830303D01*
X127304895Y-73582662D01*
X127304901Y-73582643D01*
X127364096Y-73323292D01*
X127364096Y-73323290D01*
X127383977Y-73058004D01*
X127383977Y-73057995D01*
X127364096Y-72792709D01*
X127364096Y-72792707D01*
X127304901Y-72533356D01*
X127304895Y-72533337D01*
X127207703Y-72285696D01*
X127074686Y-72055304D01*
X127023913Y-71991637D01*
X126358114Y-72657436D01*
X126357260Y-72655374D01*
X126264238Y-72516156D01*
X126145844Y-72397762D01*
X126006626Y-72304740D01*
X126004561Y-72303884D01*
X126671159Y-71637287D01*
X126493989Y-71516495D01*
X126493985Y-71516493D01*
X126254299Y-71401066D01*
X126000090Y-71322653D01*
X126000084Y-71322652D01*
X125737023Y-71283000D01*
X125470976Y-71283000D01*
X125207915Y-71322652D01*
X125207909Y-71322653D01*
X125007015Y-71384621D01*
X124937151Y-71385571D01*
X124877865Y-71348600D01*
X124847978Y-71285445D01*
X124856981Y-71216157D01*
X124882781Y-71178452D01*
X126880915Y-69180319D01*
X126942238Y-69146834D01*
X126968596Y-69144000D01*
X128135432Y-69144000D01*
X128202471Y-69163685D01*
X128248226Y-69216489D01*
X128249993Y-69220548D01*
X128271321Y-69272040D01*
X128271328Y-69272053D01*
X128367793Y-69416422D01*
X128367796Y-69416426D01*
X128490573Y-69539203D01*
X128490577Y-69539206D01*
X128634946Y-69635671D01*
X128634955Y-69635676D01*
X128795372Y-69702123D01*
X128795375Y-69702123D01*
X128795376Y-69702124D01*
X128805571Y-69704151D01*
X128867482Y-69736534D01*
X128869064Y-69738088D01*
X129775100Y-70644124D01*
X129775121Y-70644147D01*
X129884528Y-70753554D01*
X129884535Y-70753560D01*
X130008108Y-70836128D01*
X130008109Y-70836128D01*
X130008110Y-70836129D01*
X130145420Y-70893005D01*
X130261693Y-70916133D01*
X130291183Y-70921999D01*
X130291187Y-70922000D01*
X130291188Y-70922000D01*
X134954613Y-70922000D01*
X135021652Y-70941685D01*
X135042294Y-70958319D01*
X140133181Y-76049206D01*
X140166666Y-76110529D01*
X140169500Y-76136887D01*
X140169500Y-76159701D01*
X140172401Y-76196567D01*
X140172402Y-76196573D01*
X140218254Y-76354393D01*
X140218255Y-76354396D01*
X140218256Y-76354398D01*
X140255681Y-76417681D01*
X140301917Y-76495862D01*
X140301923Y-76495870D01*
X140418129Y-76612076D01*
X140418133Y-76612079D01*
X140418135Y-76612081D01*
X140559602Y-76695744D01*
X140601224Y-76707836D01*
X140717426Y-76741597D01*
X140717429Y-76741597D01*
X140717431Y-76741598D01*
X140754306Y-76744500D01*
X140754314Y-76744500D01*
X141185686Y-76744500D01*
X141185694Y-76744500D01*
X141222569Y-76741598D01*
X141222571Y-76741597D01*
X141222573Y-76741597D01*
X141306137Y-76717319D01*
X141380398Y-76695744D01*
X141521865Y-76612081D01*
X141638081Y-76495865D01*
X141721744Y-76354398D01*
X141765855Y-76202569D01*
X141767597Y-76196573D01*
X141767598Y-76196567D01*
X141770027Y-76165701D01*
X141770500Y-76159694D01*
X141770500Y-75478306D01*
X141767598Y-75441431D01*
X141759860Y-75414798D01*
X141721745Y-75283606D01*
X141721744Y-75283603D01*
X141721744Y-75283602D01*
X141638081Y-75142135D01*
X141638079Y-75142133D01*
X141638076Y-75142129D01*
X141521870Y-75025923D01*
X141521862Y-75025917D01*
X141414492Y-74962419D01*
X141380398Y-74942256D01*
X141380397Y-74942255D01*
X141380396Y-74942255D01*
X141380393Y-74942254D01*
X141222573Y-74896402D01*
X141222567Y-74896401D01*
X141185701Y-74893500D01*
X141185694Y-74893500D01*
X141162887Y-74893500D01*
X141095848Y-74873815D01*
X141075206Y-74857181D01*
X135799469Y-69581443D01*
X135799468Y-69581442D01*
X135724722Y-69531499D01*
X135675889Y-69498870D01*
X135675886Y-69498868D01*
X135675885Y-69498868D01*
X135595455Y-69465553D01*
X135538580Y-69441995D01*
X135514394Y-69437184D01*
X135392814Y-69412999D01*
X135392812Y-69412999D01*
X135244188Y-69412999D01*
X135238074Y-69412999D01*
X135238054Y-69413000D01*
X132022523Y-69413000D01*
X131955484Y-69393315D01*
X131909729Y-69340511D01*
X131899785Y-69271353D01*
X131928810Y-69207797D01*
X131934842Y-69201319D01*
X132057315Y-69078845D01*
X132149356Y-68929624D01*
X132149358Y-68929619D01*
X132204505Y-68763197D01*
X132204506Y-68763190D01*
X132214999Y-68660486D01*
X132215000Y-68660473D01*
X132215000Y-68385500D01*
X131251500Y-68385500D01*
X131184461Y-68365815D01*
X131138706Y-68313011D01*
X131127500Y-68261500D01*
X131127500Y-68135500D01*
X131001500Y-68135500D01*
X130934461Y-68115815D01*
X130888706Y-68063011D01*
X130877500Y-68011500D01*
X130877500Y-67885500D01*
X131377500Y-67885500D01*
X132214999Y-67885500D01*
X132214999Y-67610528D01*
X132214998Y-67610513D01*
X132204505Y-67507802D01*
X132149358Y-67341380D01*
X132149356Y-67341375D01*
X132057315Y-67192154D01*
X131933344Y-67068183D01*
X131933342Y-67068182D01*
X131930275Y-67066290D01*
X131928612Y-67064441D01*
X131927677Y-67063702D01*
X131927803Y-67063542D01*
X131883549Y-67014344D01*
X131872325Y-66945381D01*
X131900167Y-66881299D01*
X131930275Y-66855210D01*
X131933342Y-66853317D01*
X131933344Y-66853316D01*
X132057315Y-66729345D01*
X132149356Y-66580124D01*
X132149358Y-66580119D01*
X132204505Y-66413697D01*
X132204506Y-66413690D01*
X132214999Y-66310986D01*
X132215000Y-66310973D01*
X132215000Y-66036000D01*
X131377500Y-66036000D01*
X131377500Y-67885500D01*
X130877500Y-67885500D01*
X130877500Y-65536000D01*
X131377500Y-65536000D01*
X132214999Y-65536000D01*
X132214999Y-65503512D01*
X138980501Y-65503512D01*
X138980501Y-65640999D01*
X139955501Y-65640999D01*
X139955501Y-64803499D01*
X139680530Y-64803499D01*
X139680513Y-64803500D01*
X139577803Y-64813993D01*
X139411381Y-64869140D01*
X139411376Y-64869142D01*
X139262155Y-64961183D01*
X139138185Y-65085153D01*
X139046144Y-65234374D01*
X139046142Y-65234379D01*
X138990995Y-65400801D01*
X138990994Y-65400808D01*
X138980501Y-65503512D01*
X132214999Y-65503512D01*
X132214999Y-65261028D01*
X132214998Y-65261013D01*
X132204505Y-65158302D01*
X132149358Y-64991880D01*
X132149356Y-64991875D01*
X132057315Y-64842654D01*
X131933345Y-64718684D01*
X131784124Y-64626643D01*
X131784119Y-64626641D01*
X131617697Y-64571494D01*
X131617690Y-64571493D01*
X131514986Y-64561000D01*
X131377500Y-64561000D01*
X131377500Y-65536000D01*
X130877500Y-65536000D01*
X130877500Y-64561000D01*
X130740027Y-64561000D01*
X130740012Y-64561001D01*
X130637302Y-64571494D01*
X130470880Y-64626641D01*
X130470875Y-64626643D01*
X130321654Y-64718684D01*
X130197683Y-64842655D01*
X130197679Y-64842660D01*
X130195826Y-64845665D01*
X130194018Y-64847290D01*
X130193202Y-64848323D01*
X130193025Y-64848183D01*
X130143874Y-64892385D01*
X130074911Y-64903601D01*
X130010831Y-64875752D01*
X129984753Y-64845653D01*
X129984528Y-64845288D01*
X129982712Y-64842344D01*
X129858656Y-64718288D01*
X129749858Y-64651181D01*
X129709336Y-64626187D01*
X129709331Y-64626185D01*
X129707862Y-64625698D01*
X129542797Y-64571001D01*
X129542795Y-64571000D01*
X129440010Y-64560500D01*
X128664998Y-64560500D01*
X128664980Y-64560501D01*
X128562203Y-64571000D01*
X128562200Y-64571001D01*
X128395668Y-64626185D01*
X128395659Y-64626190D01*
X128317816Y-64674203D01*
X128250423Y-64692643D01*
X128183760Y-64671720D01*
X128138991Y-64618077D01*
X128130330Y-64548747D01*
X128160527Y-64485739D01*
X128165018Y-64481004D01*
X128280963Y-64365060D01*
X128280966Y-64365059D01*
X128386059Y-64259966D01*
X128468629Y-64136390D01*
X128525505Y-63999080D01*
X128554500Y-63853312D01*
X128554500Y-62854499D01*
X128574185Y-62787460D01*
X128626989Y-62741705D01*
X128678500Y-62730499D01*
X131048371Y-62730499D01*
X131048372Y-62730499D01*
X131107983Y-62724091D01*
X131242831Y-62673796D01*
X131358046Y-62587546D01*
X131444296Y-62472331D01*
X131494591Y-62337483D01*
X131501000Y-62277873D01*
X131501000Y-61799996D01*
X132894435Y-61799996D01*
X132894435Y-61800003D01*
X132914630Y-61979249D01*
X132914631Y-61979254D01*
X132974211Y-62149523D01*
X133041862Y-62257188D01*
X133070184Y-62302262D01*
X133197738Y-62429816D01*
X133265400Y-62472331D01*
X133350027Y-62525506D01*
X133350478Y-62525789D01*
X133452417Y-62561459D01*
X133520745Y-62585368D01*
X133520750Y-62585369D01*
X133699996Y-62605565D01*
X133700000Y-62605565D01*
X133700004Y-62605565D01*
X133879249Y-62585369D01*
X133879251Y-62585368D01*
X133879255Y-62585368D01*
X133879258Y-62585366D01*
X133879262Y-62585366D01*
X133947585Y-62561459D01*
X133988540Y-62554500D01*
X134715554Y-62554500D01*
X134715574Y-62554501D01*
X134721688Y-62554501D01*
X134870314Y-62554501D01*
X134991894Y-62530315D01*
X134991894Y-62530316D01*
X134991900Y-62530313D01*
X135016080Y-62525505D01*
X135091089Y-62494435D01*
X135153389Y-62468630D01*
X135207182Y-62432686D01*
X135273858Y-62411809D01*
X135341238Y-62430293D01*
X135375616Y-62466557D01*
X135377388Y-62465231D01*
X135468952Y-62587544D01*
X135468955Y-62587547D01*
X135584164Y-62673793D01*
X135584171Y-62673797D01*
X135719017Y-62724091D01*
X135719016Y-62724091D01*
X135723574Y-62724581D01*
X135778627Y-62730500D01*
X138287372Y-62730499D01*
X138346983Y-62724091D01*
X138481831Y-62673796D01*
X138597046Y-62587546D01*
X138683296Y-62472331D01*
X138733591Y-62337483D01*
X138740000Y-62277873D01*
X138739999Y-56848128D01*
X138733591Y-56788517D01*
X138683296Y-56653669D01*
X138683295Y-56653668D01*
X138683293Y-56653664D01*
X138597047Y-56538455D01*
X138597044Y-56538452D01*
X138481835Y-56452206D01*
X138481828Y-56452202D01*
X138346982Y-56401908D01*
X138346983Y-56401908D01*
X138287383Y-56395501D01*
X138287381Y-56395500D01*
X138287373Y-56395500D01*
X138287364Y-56395500D01*
X135778629Y-56395500D01*
X135778623Y-56395501D01*
X135719016Y-56401908D01*
X135584171Y-56452202D01*
X135584164Y-56452206D01*
X135468955Y-56538452D01*
X135468952Y-56538455D01*
X135382706Y-56653664D01*
X135382702Y-56653671D01*
X135332408Y-56788517D01*
X135327074Y-56838134D01*
X135326001Y-56848123D01*
X135326000Y-56848135D01*
X135326000Y-60151612D01*
X135306315Y-60218651D01*
X135289681Y-60239293D01*
X134519794Y-61009181D01*
X134458471Y-61042666D01*
X134432113Y-61045500D01*
X133988540Y-61045500D01*
X133947585Y-61038541D01*
X133879262Y-61014633D01*
X133879249Y-61014630D01*
X133700004Y-60994435D01*
X133699996Y-60994435D01*
X133520750Y-61014630D01*
X133520745Y-61014631D01*
X133350476Y-61074211D01*
X133197737Y-61170184D01*
X133070184Y-61297737D01*
X132974211Y-61450476D01*
X132914631Y-61620745D01*
X132914630Y-61620750D01*
X132894435Y-61799996D01*
X131501000Y-61799996D01*
X131500999Y-59333595D01*
X131520684Y-59266557D01*
X131537318Y-59245915D01*
X133506234Y-57277000D01*
X135508353Y-55274881D01*
X135618721Y-55109704D01*
X135638550Y-55061832D01*
X135694744Y-54926169D01*
X135733500Y-54731329D01*
X135733500Y-54700023D01*
X135753185Y-54632984D01*
X135805989Y-54587229D01*
X135875147Y-54577285D01*
X135938703Y-54606310D01*
X135945181Y-54612342D01*
X135994154Y-54661315D01*
X136143375Y-54753356D01*
X136143380Y-54753358D01*
X136309802Y-54808505D01*
X136309809Y-54808506D01*
X136412519Y-54818999D01*
X136549999Y-54818999D01*
X137050000Y-54818999D01*
X137187472Y-54818999D01*
X137187486Y-54818998D01*
X137290197Y-54808505D01*
X137456619Y-54753358D01*
X137456624Y-54753356D01*
X137605845Y-54661315D01*
X137729815Y-54537345D01*
X137821856Y-54388124D01*
X137821858Y-54388119D01*
X137877005Y-54221697D01*
X137877006Y-54221690D01*
X137887499Y-54118986D01*
X137887500Y-54118973D01*
X137887500Y-53844000D01*
X137050000Y-53844000D01*
X137050000Y-54818999D01*
X136549999Y-54818999D01*
X136550000Y-54818998D01*
X136550000Y-53344000D01*
X137050000Y-53344000D01*
X137887499Y-53344000D01*
X137887499Y-53069028D01*
X137887498Y-53069013D01*
X137877005Y-52966302D01*
X137821858Y-52799880D01*
X137821856Y-52799875D01*
X137729815Y-52650654D01*
X137605845Y-52526684D01*
X137456624Y-52434643D01*
X137456619Y-52434641D01*
X137290197Y-52379494D01*
X137290190Y-52379493D01*
X137187486Y-52369000D01*
X137050000Y-52369000D01*
X137050000Y-53344000D01*
X136550000Y-53344000D01*
X136550000Y-52369000D01*
X136412527Y-52369000D01*
X136412512Y-52369001D01*
X136309802Y-52379494D01*
X136143380Y-52434641D01*
X136143375Y-52434643D01*
X135994154Y-52526684D01*
X135870183Y-52650655D01*
X135870179Y-52650660D01*
X135868326Y-52653665D01*
X135866518Y-52655290D01*
X135865702Y-52656323D01*
X135865525Y-52656183D01*
X135816374Y-52700385D01*
X135747411Y-52711601D01*
X135683331Y-52683752D01*
X135657253Y-52653653D01*
X135657237Y-52653628D01*
X135655212Y-52650344D01*
X135531156Y-52526288D01*
X135381834Y-52434186D01*
X135215297Y-52379001D01*
X135215295Y-52379000D01*
X135112510Y-52368500D01*
X134337498Y-52368500D01*
X134337480Y-52368501D01*
X134234703Y-52379000D01*
X134234700Y-52379001D01*
X134068168Y-52434185D01*
X134068163Y-52434187D01*
X133918842Y-52526289D01*
X133794789Y-52650342D01*
X133702687Y-52799663D01*
X133702685Y-52799668D01*
X133702615Y-52799880D01*
X133647501Y-52966203D01*
X133647501Y-52966204D01*
X133647500Y-52966204D01*
X133637000Y-53068983D01*
X133637000Y-54119001D01*
X133637001Y-54119019D01*
X133647210Y-54218949D01*
X133634440Y-54287641D01*
X133611533Y-54319231D01*
X131453618Y-56477146D01*
X131392295Y-56510631D01*
X131322603Y-56505647D01*
X131291626Y-56488732D01*
X131242831Y-56452204D01*
X131242829Y-56452203D01*
X131242828Y-56452202D01*
X131107982Y-56401908D01*
X131107983Y-56401908D01*
X131048383Y-56395501D01*
X131048381Y-56395500D01*
X131048373Y-56395500D01*
X131048364Y-56395500D01*
X128539629Y-56395500D01*
X128539623Y-56395501D01*
X128480016Y-56401908D01*
X128345171Y-56452202D01*
X128345164Y-56452206D01*
X128296373Y-56488732D01*
X128230909Y-56513150D01*
X128162636Y-56498299D01*
X128134381Y-56477147D01*
X126631819Y-54974585D01*
X126598334Y-54913262D01*
X126595500Y-54886904D01*
X126595500Y-54716922D01*
X126615185Y-54649883D01*
X126667989Y-54604128D01*
X126732101Y-54593564D01*
X126799991Y-54600500D01*
X127600008Y-54600499D01*
X127600016Y-54600498D01*
X127600019Y-54600498D01*
X127659371Y-54594435D01*
X127702797Y-54589999D01*
X127745997Y-54575683D01*
X127815823Y-54573282D01*
X127875865Y-54609013D01*
X127907059Y-54671533D01*
X127909000Y-54693390D01*
X127909000Y-54859387D01*
X127889995Y-54925357D01*
X127874209Y-54950480D01*
X127814633Y-55120737D01*
X127814630Y-55120750D01*
X127794435Y-55299996D01*
X127794435Y-55300003D01*
X127814630Y-55479249D01*
X127814631Y-55479254D01*
X127874211Y-55649523D01*
X127937045Y-55749522D01*
X127970184Y-55802262D01*
X128097738Y-55929816D01*
X128184767Y-55984500D01*
X128220575Y-56007000D01*
X128250478Y-56025789D01*
X128420745Y-56085368D01*
X128420750Y-56085369D01*
X128599996Y-56105565D01*
X128600000Y-56105565D01*
X128600004Y-56105565D01*
X128779249Y-56085369D01*
X128779252Y-56085368D01*
X128779255Y-56085368D01*
X128949522Y-56025789D01*
X129102262Y-55929816D01*
X129229816Y-55802262D01*
X129325789Y-55649522D01*
X129385368Y-55479255D01*
X129387738Y-55458221D01*
X129405565Y-55300003D01*
X129405565Y-55299996D01*
X129385369Y-55120750D01*
X129385366Y-55120737D01*
X129325201Y-54948796D01*
X129321639Y-54879017D01*
X129354561Y-54820160D01*
X129407403Y-54767318D01*
X129468726Y-54733833D01*
X129495084Y-54730999D01*
X130067002Y-54730999D01*
X130067008Y-54730999D01*
X130169797Y-54720499D01*
X130336334Y-54665314D01*
X130485656Y-54573212D01*
X130579675Y-54479192D01*
X130640994Y-54445710D01*
X130710686Y-54450694D01*
X130755034Y-54479195D01*
X130848654Y-54572815D01*
X130997875Y-54664856D01*
X130997880Y-54664858D01*
X131164302Y-54720005D01*
X131164309Y-54720006D01*
X131267019Y-54730499D01*
X131416999Y-54730499D01*
X131917000Y-54730499D01*
X132066972Y-54730499D01*
X132066986Y-54730498D01*
X132169697Y-54720005D01*
X132336119Y-54664858D01*
X132336124Y-54664856D01*
X132485345Y-54572815D01*
X132609315Y-54448845D01*
X132701356Y-54299624D01*
X132701358Y-54299619D01*
X132756505Y-54133197D01*
X132756506Y-54133190D01*
X132766999Y-54030486D01*
X132767000Y-54030473D01*
X132767000Y-53780500D01*
X131917000Y-53780500D01*
X131917000Y-54730499D01*
X131416999Y-54730499D01*
X131417000Y-54730498D01*
X131417000Y-53280500D01*
X131917000Y-53280500D01*
X132766999Y-53280500D01*
X132766999Y-53030528D01*
X132766998Y-53030513D01*
X132756505Y-52927802D01*
X132701358Y-52761380D01*
X132701356Y-52761375D01*
X132609315Y-52612154D01*
X132485345Y-52488184D01*
X132336124Y-52396143D01*
X132336119Y-52396141D01*
X132169697Y-52340994D01*
X132169690Y-52340993D01*
X132066986Y-52330500D01*
X131917000Y-52330500D01*
X131917000Y-53280500D01*
X131417000Y-53280500D01*
X131417000Y-52330500D01*
X131267027Y-52330500D01*
X131267012Y-52330501D01*
X131164302Y-52340994D01*
X130997880Y-52396141D01*
X130997875Y-52396143D01*
X130848657Y-52488182D01*
X130755034Y-52581805D01*
X130693710Y-52615289D01*
X130624019Y-52610305D01*
X130579672Y-52581804D01*
X130485657Y-52487789D01*
X130485656Y-52487788D01*
X130336334Y-52395686D01*
X130169797Y-52340501D01*
X130169795Y-52340500D01*
X130067010Y-52330000D01*
X129266998Y-52330000D01*
X129266980Y-52330001D01*
X129164203Y-52340500D01*
X129164200Y-52340501D01*
X128997668Y-52395685D01*
X128997663Y-52395687D01*
X128870679Y-52474011D01*
X128853779Y-52484436D01*
X128848341Y-52487790D01*
X128842681Y-52492266D01*
X128841387Y-52490630D01*
X128789128Y-52519166D01*
X128762770Y-52522000D01*
X128234730Y-52522000D01*
X128167691Y-52502315D01*
X128147049Y-52485681D01*
X128018657Y-52357289D01*
X128018656Y-52357288D01*
X127869334Y-52265186D01*
X127702797Y-52210001D01*
X127702795Y-52210000D01*
X127600010Y-52199500D01*
X126799998Y-52199500D01*
X126799980Y-52199501D01*
X126697203Y-52210000D01*
X126697200Y-52210001D01*
X126530668Y-52265185D01*
X126530663Y-52265187D01*
X126381342Y-52357289D01*
X126287681Y-52450951D01*
X126226358Y-52484436D01*
X126156666Y-52479452D01*
X126112319Y-52450951D01*
X126018657Y-52357289D01*
X126018656Y-52357288D01*
X125869334Y-52265186D01*
X125702797Y-52210001D01*
X125702795Y-52210000D01*
X125600010Y-52199500D01*
X124799998Y-52199500D01*
X124799980Y-52199501D01*
X124697203Y-52210000D01*
X124697200Y-52210001D01*
X124530668Y-52265185D01*
X124530663Y-52265187D01*
X124381342Y-52357289D01*
X124257289Y-52481342D01*
X124165187Y-52630663D01*
X124165185Y-52630668D01*
X124147595Y-52683752D01*
X124110001Y-52797203D01*
X124110001Y-52797204D01*
X124110000Y-52797204D01*
X124099500Y-52899983D01*
X124099500Y-53900001D01*
X124099501Y-53900019D01*
X124110000Y-54002796D01*
X124110001Y-54002799D01*
X124148510Y-54119009D01*
X124165186Y-54169334D01*
X124257288Y-54318656D01*
X124381344Y-54442712D01*
X124519598Y-54527987D01*
X124566321Y-54579932D01*
X124578500Y-54633524D01*
X124578500Y-55455333D01*
X124617254Y-55650161D01*
X124617256Y-55650169D01*
X124658410Y-55749522D01*
X124658410Y-55749523D01*
X124693275Y-55833697D01*
X124693282Y-55833710D01*
X124803646Y-55998880D01*
X124803649Y-55998884D01*
X128050681Y-59245915D01*
X128084166Y-59307238D01*
X128087000Y-59333596D01*
X128087000Y-59697747D01*
X128067315Y-59764786D01*
X128014511Y-59810541D01*
X127945353Y-59820485D01*
X127881797Y-59791460D01*
X127875319Y-59785428D01*
X127640835Y-59550943D01*
X127640832Y-59550940D01*
X127517261Y-59468373D01*
X127517246Y-59468365D01*
X127513100Y-59466648D01*
X127484082Y-59449700D01*
X127482890Y-59448766D01*
X127482888Y-59448764D01*
X127345102Y-59365469D01*
X127191387Y-59317570D01*
X127191385Y-59317569D01*
X127191383Y-59317569D01*
X127144617Y-59313319D01*
X127124591Y-59311500D01*
X127124588Y-59311500D01*
X125342401Y-59311500D01*
X125275617Y-59317568D01*
X125275606Y-59317571D01*
X125121901Y-59365467D01*
X124984108Y-59448766D01*
X124870266Y-59562608D01*
X124786969Y-59700397D01*
X124739069Y-59854116D01*
X124734213Y-59907557D01*
X124733114Y-59919661D01*
X124733000Y-59920911D01*
X124733000Y-60116998D01*
X124713315Y-60184037D01*
X124660511Y-60229792D01*
X124633204Y-60238613D01*
X124629381Y-60239373D01*
X124629371Y-60239376D01*
X124468954Y-60305822D01*
X124378738Y-60366103D01*
X124312061Y-60386980D01*
X124309848Y-60387000D01*
X124077996Y-60387000D01*
X124013846Y-60369117D01*
X123925102Y-60315469D01*
X123827322Y-60285000D01*
X123771387Y-60267570D01*
X123771385Y-60267569D01*
X123771383Y-60267569D01*
X123724617Y-60263319D01*
X123704591Y-60261500D01*
X123704588Y-60261500D01*
X122263399Y-60261500D01*
X122239208Y-60259117D01*
X122090315Y-60229500D01*
X122090312Y-60229500D01*
X122070580Y-60229500D01*
X122070560Y-60229499D01*
X122064446Y-60229499D01*
X121915822Y-60229499D01*
X121915820Y-60229499D01*
X121794239Y-60253684D01*
X121770054Y-60258495D01*
X121632744Y-60315370D01*
X121588685Y-60344809D01*
X121556817Y-60366102D01*
X121490143Y-60386980D01*
X121487929Y-60387000D01*
X121316585Y-60387000D01*
X121319564Y-60419791D01*
X121337118Y-60476123D01*
X121338268Y-60545984D01*
X121306413Y-60600694D01*
X120927181Y-60979927D01*
X120865858Y-61013412D01*
X120796167Y-61008428D01*
X120740233Y-60966557D01*
X120715816Y-60901092D01*
X120715500Y-60892246D01*
X120715500Y-59886999D01*
X121316585Y-59886999D01*
X121316585Y-59887000D01*
X122563500Y-59887000D01*
X123063500Y-59887000D01*
X124310415Y-59887000D01*
X124310414Y-59886999D01*
X124307435Y-59854207D01*
X124307432Y-59854197D01*
X124259572Y-59700607D01*
X124176336Y-59562919D01*
X124062580Y-59449163D01*
X123924896Y-59365929D01*
X123771292Y-59318065D01*
X123704543Y-59312000D01*
X123063500Y-59312000D01*
X123063500Y-59887000D01*
X122563500Y-59887000D01*
X122563500Y-59312000D01*
X121922457Y-59312000D01*
X121855707Y-59318065D01*
X121702103Y-59365929D01*
X121564419Y-59449163D01*
X121450663Y-59562919D01*
X121367427Y-59700607D01*
X121319567Y-59854197D01*
X121319564Y-59854207D01*
X121316585Y-59886999D01*
X120715500Y-59886999D01*
X120715500Y-55509583D01*
X120735185Y-55442544D01*
X120751819Y-55421902D01*
X128051402Y-48122319D01*
X128112725Y-48088834D01*
X128139083Y-48086000D01*
X131507638Y-48086000D01*
X131574677Y-48105685D01*
X131606904Y-48135689D01*
X131656952Y-48202544D01*
X131656955Y-48202547D01*
X131772164Y-48288793D01*
X131772171Y-48288797D01*
X131907017Y-48339091D01*
X131907016Y-48339091D01*
X131912644Y-48339696D01*
X131966627Y-48345500D01*
X133455000Y-48345499D01*
X133522039Y-48365184D01*
X133567794Y-48417987D01*
X133579000Y-48469499D01*
X133579000Y-49442870D01*
X133579001Y-49442876D01*
X133585408Y-49502483D01*
X133635702Y-49637328D01*
X133635706Y-49637335D01*
X133721952Y-49752544D01*
X133721955Y-49752547D01*
X133837164Y-49838793D01*
X133837171Y-49838797D01*
X133972017Y-49889091D01*
X133972016Y-49889091D01*
X133978944Y-49889835D01*
X134031627Y-49895500D01*
X135027372Y-49895499D01*
X135086983Y-49889091D01*
X135121167Y-49876340D01*
X135190858Y-49871357D01*
X135207827Y-49876338D01*
X135242017Y-49889091D01*
X135301627Y-49895500D01*
X136297372Y-49895499D01*
X136356983Y-49889091D01*
X136391167Y-49876340D01*
X136460858Y-49871357D01*
X136477827Y-49876338D01*
X136512017Y-49889091D01*
X136571627Y-49895500D01*
X137567372Y-49895499D01*
X137626983Y-49889091D01*
X137661167Y-49876340D01*
X137730858Y-49871357D01*
X137747827Y-49876338D01*
X137782017Y-49889091D01*
X137841627Y-49895500D01*
X138837372Y-49895499D01*
X138896983Y-49889091D01*
X138931167Y-49876340D01*
X139000858Y-49871357D01*
X139017827Y-49876338D01*
X139052017Y-49889091D01*
X139111627Y-49895500D01*
X140107372Y-49895499D01*
X140166983Y-49889091D01*
X140201167Y-49876340D01*
X140270858Y-49871357D01*
X140287827Y-49876338D01*
X140322017Y-49889091D01*
X140381627Y-49895500D01*
X141377372Y-49895499D01*
X141436983Y-49889091D01*
X141471167Y-49876340D01*
X141540858Y-49871357D01*
X141557827Y-49876338D01*
X141592017Y-49889091D01*
X141651627Y-49895500D01*
X142647372Y-49895499D01*
X142706983Y-49889091D01*
X142741167Y-49876340D01*
X142810858Y-49871357D01*
X142827827Y-49876338D01*
X142862017Y-49889091D01*
X142921627Y-49895500D01*
X143917372Y-49895499D01*
X143976983Y-49889091D01*
X144011167Y-49876340D01*
X144080858Y-49871357D01*
X144097827Y-49876338D01*
X144132017Y-49889091D01*
X144191627Y-49895500D01*
X145187372Y-49895499D01*
X145246983Y-49889091D01*
X145281167Y-49876340D01*
X145350858Y-49871357D01*
X145367827Y-49876338D01*
X145402017Y-49889091D01*
X145461627Y-49895500D01*
X146457372Y-49895499D01*
X146516983Y-49889091D01*
X146551167Y-49876340D01*
X146620858Y-49871357D01*
X146637827Y-49876338D01*
X146672017Y-49889091D01*
X146731627Y-49895500D01*
X147727372Y-49895499D01*
X147786983Y-49889091D01*
X147821167Y-49876340D01*
X147890858Y-49871357D01*
X147907827Y-49876338D01*
X147942017Y-49889091D01*
X148001627Y-49895500D01*
X148997372Y-49895499D01*
X149056983Y-49889091D01*
X149191831Y-49838796D01*
X149307046Y-49752546D01*
X149350234Y-49694854D01*
X149406167Y-49652984D01*
X149475859Y-49648000D01*
X149537182Y-49681485D01*
X149570666Y-49742809D01*
X149573500Y-49769166D01*
X149573500Y-50002559D01*
X149580992Y-50040224D01*
X149588485Y-50077890D01*
X149596993Y-50120663D01*
X149600055Y-50136057D01*
X149600056Y-50136061D01*
X149652142Y-50261809D01*
X149652144Y-50261812D01*
X149727763Y-50374985D01*
X149727769Y-50374992D01*
X155600098Y-56247319D01*
X155633583Y-56308642D01*
X155628599Y-56378334D01*
X155586727Y-56434267D01*
X155521263Y-56458684D01*
X155512417Y-56459000D01*
X153241129Y-56459000D01*
X153241123Y-56459001D01*
X153181516Y-56465408D01*
X153155023Y-56475290D01*
X153085331Y-56480274D01*
X153024010Y-56446789D01*
X151798599Y-55221377D01*
X151769238Y-55174650D01*
X151750373Y-55120737D01*
X151725789Y-55050478D01*
X151692629Y-54997705D01*
X151629815Y-54897737D01*
X151502262Y-54770184D01*
X151349523Y-54674211D01*
X151179254Y-54614631D01*
X151179249Y-54614630D01*
X151000004Y-54594435D01*
X150999996Y-54594435D01*
X150820750Y-54614630D01*
X150820745Y-54614631D01*
X150650476Y-54674211D01*
X150497737Y-54770184D01*
X150370184Y-54897737D01*
X150274211Y-55050476D01*
X150214631Y-55220745D01*
X150214630Y-55220750D01*
X150194435Y-55399996D01*
X150194435Y-55400003D01*
X150214630Y-55579249D01*
X150214631Y-55579254D01*
X150239443Y-55650161D01*
X150274211Y-55749522D01*
X150370184Y-55902262D01*
X150497738Y-56029816D01*
X150650478Y-56125789D01*
X150774651Y-56169238D01*
X150821377Y-56198599D01*
X152752181Y-58129402D01*
X152785666Y-58190725D01*
X152788500Y-58217083D01*
X152788500Y-60215112D01*
X152768815Y-60282151D01*
X152752181Y-60302793D01*
X149099077Y-63955896D01*
X149037754Y-63989381D01*
X148968062Y-63984397D01*
X148912129Y-63942525D01*
X148887712Y-63877061D01*
X148888176Y-63854331D01*
X148888291Y-63853316D01*
X148901247Y-63738322D01*
X148905565Y-63700002D01*
X148905565Y-63699996D01*
X148885369Y-63520750D01*
X148885368Y-63520745D01*
X148845767Y-63407572D01*
X148825789Y-63350478D01*
X148729816Y-63197738D01*
X148602262Y-63070184D01*
X148602260Y-63070182D01*
X148516111Y-63016051D01*
X148469821Y-62963717D01*
X148459173Y-62894663D01*
X148487548Y-62830815D01*
X148545938Y-62792443D01*
X148568833Y-62787768D01*
X148570483Y-62787591D01*
X148705331Y-62737296D01*
X148820546Y-62651046D01*
X148906796Y-62535831D01*
X148957091Y-62400983D01*
X148963500Y-62341373D01*
X148963499Y-56911628D01*
X148957091Y-56852017D01*
X148955640Y-56848128D01*
X148906797Y-56717171D01*
X148906793Y-56717164D01*
X148820547Y-56601955D01*
X148820544Y-56601952D01*
X148705335Y-56515706D01*
X148705328Y-56515702D01*
X148570482Y-56465408D01*
X148570483Y-56465408D01*
X148510883Y-56459001D01*
X148510881Y-56459000D01*
X148510873Y-56459000D01*
X148510864Y-56459000D01*
X146002129Y-56459000D01*
X146002123Y-56459001D01*
X145942516Y-56465408D01*
X145807671Y-56515702D01*
X145807664Y-56515706D01*
X145692455Y-56601952D01*
X145692452Y-56601955D01*
X145606206Y-56717164D01*
X145606202Y-56717171D01*
X145555908Y-56852017D01*
X145549501Y-56911616D01*
X145549501Y-56911623D01*
X145549500Y-56911635D01*
X145549500Y-58811500D01*
X145529815Y-58878539D01*
X145477011Y-58924294D01*
X145425500Y-58935500D01*
X144905441Y-58935500D01*
X144880057Y-58940549D01*
X144854672Y-58945599D01*
X144854671Y-58945599D01*
X144771950Y-58962053D01*
X144771938Y-58962056D01*
X144646195Y-59014140D01*
X144646182Y-59014147D01*
X144533014Y-59089764D01*
X144533010Y-59089767D01*
X143521376Y-60101400D01*
X143474651Y-60130760D01*
X143350476Y-60174211D01*
X143350475Y-60174212D01*
X143197737Y-60270184D01*
X143070184Y-60397737D01*
X142974211Y-60550476D01*
X142914631Y-60720745D01*
X142914630Y-60720750D01*
X142894435Y-60899996D01*
X142894435Y-60900003D01*
X142914630Y-61079249D01*
X142914631Y-61079254D01*
X142974211Y-61249523D01*
X143059913Y-61385916D01*
X143070184Y-61402262D01*
X143197738Y-61529816D01*
X143266137Y-61572794D01*
X143342450Y-61620745D01*
X143350478Y-61625789D01*
X143471319Y-61668073D01*
X143520745Y-61685368D01*
X143520750Y-61685369D01*
X143699996Y-61705565D01*
X143700000Y-61705565D01*
X143700004Y-61705565D01*
X143879249Y-61685369D01*
X143879252Y-61685368D01*
X143879255Y-61685368D01*
X144049522Y-61625789D01*
X144202262Y-61529816D01*
X144329816Y-61402262D01*
X144425789Y-61249522D01*
X144469239Y-61125345D01*
X144498597Y-61078623D01*
X145223402Y-60353819D01*
X145284725Y-60320334D01*
X145311083Y-60317500D01*
X145425501Y-60317500D01*
X145492540Y-60337185D01*
X145538295Y-60389989D01*
X145549501Y-60441500D01*
X145549501Y-62341376D01*
X145555908Y-62400983D01*
X145609303Y-62544141D01*
X145608005Y-62544625D01*
X145620871Y-62603764D01*
X145596455Y-62669229D01*
X145540523Y-62711101D01*
X145492913Y-62717303D01*
X145492913Y-62718500D01*
X144484677Y-62718500D01*
X144314381Y-62752374D01*
X144314371Y-62752377D01*
X144153956Y-62818822D01*
X144009573Y-62915295D01*
X144009572Y-62915296D01*
X141588058Y-65336809D01*
X141526735Y-65370294D01*
X141457043Y-65365310D01*
X141401110Y-65323438D01*
X141382671Y-65288132D01*
X141364859Y-65234379D01*
X141364857Y-65234374D01*
X141272816Y-65085153D01*
X141148846Y-64961183D01*
X140999625Y-64869142D01*
X140999620Y-64869140D01*
X140833198Y-64813993D01*
X140833191Y-64813992D01*
X140730487Y-64803499D01*
X140455501Y-64803499D01*
X140455501Y-65766999D01*
X140435816Y-65834038D01*
X140383012Y-65879793D01*
X140331501Y-65890999D01*
X140205501Y-65890999D01*
X140205501Y-66016999D01*
X140185816Y-66084038D01*
X140133012Y-66129793D01*
X140081501Y-66140999D01*
X138980502Y-66140999D01*
X138980502Y-66278485D01*
X138990995Y-66381196D01*
X139046142Y-66547618D01*
X139046144Y-66547623D01*
X139138185Y-66696844D01*
X139262156Y-66820815D01*
X139262160Y-66820818D01*
X139265157Y-66822667D01*
X139266780Y-66824471D01*
X139267824Y-66825297D01*
X139267682Y-66825475D01*
X139311882Y-66874615D01*
X139323103Y-66943578D01*
X139295260Y-67007660D01*
X139265162Y-67033740D01*
X139261850Y-67035782D01*
X139261844Y-67035787D01*
X139137790Y-67159841D01*
X139045688Y-67309162D01*
X139045686Y-67309167D01*
X139034243Y-67343701D01*
X138990502Y-67475702D01*
X138990502Y-67475703D01*
X138990501Y-67475703D01*
X138980001Y-67578482D01*
X138980001Y-68073111D01*
X138960316Y-68140150D01*
X138943682Y-68160792D01*
X138129297Y-68975176D01*
X138067974Y-69008661D01*
X138055501Y-69010715D01*
X138020750Y-69014630D01*
X137850478Y-69074210D01*
X137697737Y-69170184D01*
X137570184Y-69297737D01*
X137474211Y-69450476D01*
X137414631Y-69620745D01*
X137414630Y-69620750D01*
X137394435Y-69799996D01*
X137394435Y-69800003D01*
X137414630Y-69979249D01*
X137414631Y-69979254D01*
X137474211Y-70149523D01*
X137528412Y-70235782D01*
X137570184Y-70302262D01*
X137697738Y-70429816D01*
X137699333Y-70430818D01*
X137850022Y-70525503D01*
X137850478Y-70525789D01*
X138020742Y-70585367D01*
X138020745Y-70585368D01*
X138020750Y-70585369D01*
X138199996Y-70605565D01*
X138200000Y-70605565D01*
X138200004Y-70605565D01*
X138379246Y-70585369D01*
X138379245Y-70585369D01*
X138379255Y-70585368D01*
X138487778Y-70547393D01*
X138504531Y-70542820D01*
X138567394Y-70530315D01*
X138567394Y-70530316D01*
X138567400Y-70530313D01*
X138591580Y-70525505D01*
X138627442Y-70510649D01*
X138648444Y-70501951D01*
X138648447Y-70501949D01*
X138648455Y-70501946D01*
X138728889Y-70468630D01*
X138852466Y-70386059D01*
X139239320Y-69999205D01*
X139300643Y-69965720D01*
X139370334Y-69970704D01*
X139426268Y-70012575D01*
X139450685Y-70078040D01*
X139451001Y-70086886D01*
X139451001Y-71355553D01*
X139451000Y-71355579D01*
X139451000Y-71509314D01*
X139464636Y-71577861D01*
X139464636Y-71577863D01*
X139476456Y-71637287D01*
X139479996Y-71655081D01*
X139487088Y-71672203D01*
X139529664Y-71774992D01*
X139536871Y-71792390D01*
X139563163Y-71831739D01*
X139619443Y-71915969D01*
X139619444Y-71915970D01*
X143816181Y-76112705D01*
X143849666Y-76174028D01*
X143852500Y-76200386D01*
X143852500Y-76223201D01*
X143855401Y-76260067D01*
X143855402Y-76260073D01*
X143901254Y-76417893D01*
X143901255Y-76417896D01*
X143901256Y-76417898D01*
X143906017Y-76425949D01*
X143984917Y-76559362D01*
X143984923Y-76559370D01*
X144101129Y-76675576D01*
X144101133Y-76675579D01*
X144101135Y-76675581D01*
X144242602Y-76759244D01*
X144284224Y-76771336D01*
X144400426Y-76805097D01*
X144400429Y-76805097D01*
X144400431Y-76805098D01*
X144437306Y-76808000D01*
X144437314Y-76808000D01*
X144868686Y-76808000D01*
X144868694Y-76808000D01*
X144905569Y-76805098D01*
X144905571Y-76805097D01*
X144905573Y-76805097D01*
X144947191Y-76793005D01*
X145063398Y-76759244D01*
X145204865Y-76675581D01*
X145321081Y-76559365D01*
X145404744Y-76417898D01*
X145450598Y-76260069D01*
X145453500Y-76223194D01*
X145453500Y-75541806D01*
X145450598Y-75504931D01*
X145447954Y-75495832D01*
X145404745Y-75347106D01*
X145404744Y-75347103D01*
X145404744Y-75347102D01*
X145321081Y-75205635D01*
X145321079Y-75205633D01*
X145321076Y-75205629D01*
X145204870Y-75089423D01*
X145204862Y-75089417D01*
X145097492Y-75025919D01*
X145063398Y-75005756D01*
X145063397Y-75005755D01*
X145063396Y-75005755D01*
X145063393Y-75005754D01*
X144905573Y-74959902D01*
X144905567Y-74959901D01*
X144868701Y-74957000D01*
X144868694Y-74957000D01*
X144845886Y-74957000D01*
X144778847Y-74937315D01*
X144758205Y-74920681D01*
X140996320Y-71158795D01*
X140962835Y-71097472D01*
X140960001Y-71071114D01*
X140960001Y-70595392D01*
X140979686Y-70528353D01*
X141032490Y-70482598D01*
X141101648Y-70472654D01*
X141165204Y-70501679D01*
X141187103Y-70526502D01*
X141263263Y-70640485D01*
X141263269Y-70640492D01*
X143459509Y-72836732D01*
X143459513Y-72836735D01*
X143572681Y-72912352D01*
X143572685Y-72912354D01*
X143572688Y-72912356D01*
X143698442Y-72964445D01*
X143717439Y-72968223D01*
X143733299Y-72971377D01*
X143795210Y-73003760D01*
X143826816Y-73053989D01*
X143840184Y-73094331D01*
X143840186Y-73094334D01*
X143932288Y-73243656D01*
X144056344Y-73367712D01*
X144205666Y-73459814D01*
X144372203Y-73514999D01*
X144474991Y-73525500D01*
X145250008Y-73525499D01*
X145250016Y-73525498D01*
X145250019Y-73525498D01*
X145306302Y-73519748D01*
X145352797Y-73514999D01*
X145519334Y-73459814D01*
X145668656Y-73367712D01*
X145792712Y-73243656D01*
X145794461Y-73240819D01*
X145796169Y-73239283D01*
X145797193Y-73237989D01*
X145797414Y-73238163D01*
X145846406Y-73194096D01*
X145915368Y-73182872D01*
X145979451Y-73210713D01*
X146005537Y-73240817D01*
X146007288Y-73243656D01*
X146131344Y-73367712D01*
X146280666Y-73459814D01*
X146447203Y-73514999D01*
X146549991Y-73525500D01*
X147325008Y-73525499D01*
X147325016Y-73525498D01*
X147325019Y-73525498D01*
X147381302Y-73519748D01*
X147427797Y-73514999D01*
X147594334Y-73459814D01*
X147743656Y-73367712D01*
X147814319Y-73297049D01*
X147875642Y-73263564D01*
X147945334Y-73268548D01*
X148001267Y-73310420D01*
X148025684Y-73375884D01*
X148026000Y-73384730D01*
X148026000Y-75281441D01*
X148021076Y-75316036D01*
X147982902Y-75447426D01*
X147982901Y-75447432D01*
X147980000Y-75484298D01*
X147980000Y-76165701D01*
X147982901Y-76202567D01*
X147982902Y-76202573D01*
X148028754Y-76360393D01*
X148028755Y-76360396D01*
X148112417Y-76501862D01*
X148112423Y-76501870D01*
X148228629Y-76618076D01*
X148228633Y-76618079D01*
X148228635Y-76618081D01*
X148370102Y-76701744D01*
X148411724Y-76713836D01*
X148527926Y-76747597D01*
X148527929Y-76747597D01*
X148527931Y-76747598D01*
X148564806Y-76750500D01*
X148564814Y-76750500D01*
X148996186Y-76750500D01*
X148996194Y-76750500D01*
X149033069Y-76747598D01*
X149033071Y-76747597D01*
X149033073Y-76747597D01*
X149074691Y-76735505D01*
X149190898Y-76701744D01*
X149332365Y-76618081D01*
X149448581Y-76501865D01*
X149532244Y-76360398D01*
X149574304Y-76215627D01*
X149578097Y-76202573D01*
X149578098Y-76202567D01*
X149580999Y-76165701D01*
X149581000Y-76165694D01*
X149581000Y-75484306D01*
X149578098Y-75447431D01*
X149576355Y-75441432D01*
X149539924Y-75316036D01*
X149535000Y-75281441D01*
X149535000Y-68767485D01*
X149991002Y-68767485D01*
X150001495Y-68870196D01*
X150056642Y-69036618D01*
X150056644Y-69036623D01*
X150148685Y-69185844D01*
X150272655Y-69309814D01*
X150421876Y-69401855D01*
X150421881Y-69401857D01*
X150588303Y-69457004D01*
X150588310Y-69457005D01*
X150691020Y-69467498D01*
X150941000Y-69467498D01*
X150941001Y-69467497D01*
X150941001Y-68617499D01*
X149991002Y-68617499D01*
X149991002Y-68767485D01*
X149535000Y-68767485D01*
X149535000Y-65705385D01*
X149554685Y-65638346D01*
X149571314Y-65617709D01*
X151016904Y-64172119D01*
X151078226Y-64138635D01*
X151147918Y-64143619D01*
X151203851Y-64185491D01*
X151228268Y-64250955D01*
X151221626Y-64300754D01*
X151214633Y-64320738D01*
X151214630Y-64320750D01*
X151194435Y-64499996D01*
X151194435Y-64500003D01*
X151214630Y-64679249D01*
X151214631Y-64679254D01*
X151274211Y-64849524D01*
X151289993Y-64874639D01*
X151309000Y-64940612D01*
X151309000Y-65142999D01*
X151289315Y-65210038D01*
X151236511Y-65255793D01*
X151185000Y-65266999D01*
X150690999Y-65266999D01*
X150690981Y-65267000D01*
X150588204Y-65277499D01*
X150588201Y-65277500D01*
X150421669Y-65332684D01*
X150421664Y-65332686D01*
X150272343Y-65424788D01*
X150148290Y-65548841D01*
X150056188Y-65698162D01*
X150056186Y-65698167D01*
X150052487Y-65709331D01*
X150001002Y-65864702D01*
X150001002Y-65864703D01*
X150001001Y-65864703D01*
X149990501Y-65967482D01*
X149990501Y-66767500D01*
X149990502Y-66767518D01*
X150001001Y-66870295D01*
X150001002Y-66870298D01*
X150056186Y-67036830D01*
X150056188Y-67036835D01*
X150090072Y-67091770D01*
X150147817Y-67185390D01*
X150148290Y-67186156D01*
X150242305Y-67280171D01*
X150275790Y-67341494D01*
X150270806Y-67411186D01*
X150242306Y-67455533D01*
X150148683Y-67549156D01*
X150056644Y-67698374D01*
X150056642Y-67698379D01*
X150001495Y-67864801D01*
X150001494Y-67864808D01*
X149991001Y-67967512D01*
X149991001Y-68117499D01*
X151067001Y-68117499D01*
X151134040Y-68137184D01*
X151179795Y-68189988D01*
X151191001Y-68241499D01*
X151191001Y-68367499D01*
X151317001Y-68367499D01*
X151384040Y-68387184D01*
X151429795Y-68439988D01*
X151441001Y-68491499D01*
X151441001Y-69467498D01*
X151690973Y-69467498D01*
X151690987Y-69467497D01*
X151793698Y-69457004D01*
X151960120Y-69401857D01*
X151960125Y-69401855D01*
X152109346Y-69309814D01*
X152233318Y-69185842D01*
X152272084Y-69122992D01*
X152324031Y-69076267D01*
X152392994Y-69065044D01*
X152457076Y-69092887D01*
X152483161Y-69122991D01*
X152561286Y-69249651D01*
X152561288Y-69249654D01*
X152561289Y-69249655D01*
X152685345Y-69373711D01*
X152834667Y-69465813D01*
X153001204Y-69520998D01*
X153103992Y-69531499D01*
X154104009Y-69531498D01*
X154104017Y-69531497D01*
X154104020Y-69531497D01*
X154160303Y-69525747D01*
X154206798Y-69520998D01*
X154373335Y-69465813D01*
X154522657Y-69373711D01*
X154646713Y-69249655D01*
X154677028Y-69200505D01*
X154728974Y-69153782D01*
X154797936Y-69142559D01*
X154862019Y-69170402D01*
X154888105Y-69200507D01*
X154949683Y-69300342D01*
X155073655Y-69424314D01*
X155222876Y-69516355D01*
X155222881Y-69516357D01*
X155389303Y-69571504D01*
X155389310Y-69571505D01*
X155492020Y-69581998D01*
X155767000Y-69581998D01*
X156267001Y-69581998D01*
X156541973Y-69581998D01*
X156541987Y-69581997D01*
X156644698Y-69571504D01*
X156811120Y-69516357D01*
X156811125Y-69516355D01*
X156960346Y-69424314D01*
X157084316Y-69300344D01*
X157176357Y-69151123D01*
X157176359Y-69151118D01*
X157231506Y-68984696D01*
X157231507Y-68984689D01*
X157242000Y-68881985D01*
X157242001Y-68881972D01*
X157242001Y-68744499D01*
X156267001Y-68744499D01*
X156267001Y-69581998D01*
X155767000Y-69581998D01*
X155767001Y-69581997D01*
X155767001Y-68618499D01*
X155786686Y-68551460D01*
X155839490Y-68505705D01*
X155891001Y-68494499D01*
X156017001Y-68494499D01*
X156017001Y-68368499D01*
X156036686Y-68301460D01*
X156089490Y-68255705D01*
X156141001Y-68244499D01*
X157242000Y-68244499D01*
X157242000Y-68107027D01*
X157241999Y-68107012D01*
X157231506Y-68004301D01*
X157176359Y-67837879D01*
X157176357Y-67837874D01*
X157084316Y-67688653D01*
X156960345Y-67564682D01*
X156960342Y-67564680D01*
X156957340Y-67562828D01*
X156955714Y-67561020D01*
X156954678Y-67560201D01*
X156954818Y-67560023D01*
X156910618Y-67510879D01*
X156899398Y-67441916D01*
X156927244Y-67377835D01*
X156957345Y-67351753D01*
X156960657Y-67349711D01*
X157084713Y-67225655D01*
X157176815Y-67076333D01*
X157232000Y-66909796D01*
X157242501Y-66807008D01*
X157242500Y-66031991D01*
X157237538Y-65983420D01*
X157232000Y-65929202D01*
X157231999Y-65929199D01*
X157210627Y-65864702D01*
X157176815Y-65762665D01*
X157084713Y-65613343D01*
X156960657Y-65489287D01*
X156851445Y-65421925D01*
X156811337Y-65397186D01*
X156811332Y-65397184D01*
X156730183Y-65370294D01*
X156644798Y-65342000D01*
X156644796Y-65341999D01*
X156542017Y-65331499D01*
X156542010Y-65331499D01*
X156226992Y-65331499D01*
X156159953Y-65311814D01*
X156139311Y-65295180D01*
X155413319Y-64569187D01*
X155379834Y-64507864D01*
X155377000Y-64481506D01*
X155377000Y-62917999D01*
X155396685Y-62850960D01*
X155449489Y-62805205D01*
X155501000Y-62793999D01*
X155749871Y-62793999D01*
X155749872Y-62793999D01*
X155809483Y-62787591D01*
X155944331Y-62737296D01*
X156059546Y-62651046D01*
X156145796Y-62535831D01*
X156196091Y-62400983D01*
X156202500Y-62341373D01*
X156202499Y-57149081D01*
X156222184Y-57082043D01*
X156274988Y-57036288D01*
X156344146Y-57026344D01*
X156407702Y-57055369D01*
X156414180Y-57061401D01*
X158076681Y-58723902D01*
X158110166Y-58785225D01*
X158113000Y-58811583D01*
X158113000Y-62184019D01*
X158127555Y-62257189D01*
X158137268Y-62306019D01*
X158139555Y-62317518D01*
X158139556Y-62317522D01*
X158191642Y-62443270D01*
X158191644Y-62443273D01*
X158267263Y-62556446D01*
X158267264Y-62556447D01*
X158267265Y-62556448D01*
X158372682Y-62661865D01*
X158406166Y-62723186D01*
X158409000Y-62749545D01*
X158409000Y-65109341D01*
X158389315Y-65176380D01*
X158350098Y-65214879D01*
X158281344Y-65257287D01*
X158157289Y-65381342D01*
X158065187Y-65530663D01*
X158065185Y-65530668D01*
X158037349Y-65614670D01*
X158010001Y-65697203D01*
X158010001Y-65697204D01*
X158010000Y-65697204D01*
X157999500Y-65799983D01*
X157999500Y-66800001D01*
X157999501Y-66800019D01*
X158010000Y-66902796D01*
X158010001Y-66902799D01*
X158065185Y-67069331D01*
X158065187Y-67069336D01*
X158085321Y-67101978D01*
X158157288Y-67218656D01*
X158281344Y-67342712D01*
X158430666Y-67434814D01*
X158597203Y-67489999D01*
X158699991Y-67500500D01*
X159500008Y-67500499D01*
X159500016Y-67500498D01*
X159500019Y-67500498D01*
X159556302Y-67494748D01*
X159602797Y-67489999D01*
X159769334Y-67434814D01*
X159918656Y-67342712D01*
X160012319Y-67249049D01*
X160073642Y-67215564D01*
X160143334Y-67220548D01*
X160187681Y-67249049D01*
X160281344Y-67342712D01*
X160329294Y-67372287D01*
X160376018Y-67424233D01*
X160378757Y-67430369D01*
X160381612Y-67437261D01*
X160393438Y-67465813D01*
X160427959Y-67549156D01*
X160431370Y-67557389D01*
X160464186Y-67606502D01*
X160513942Y-67680968D01*
X160513943Y-67680969D01*
X162023181Y-69190206D01*
X162056666Y-69251529D01*
X162059500Y-69277887D01*
X162059500Y-77559963D01*
X162039815Y-77627002D01*
X162008386Y-77660281D01*
X161921177Y-77723642D01*
X161768642Y-77876177D01*
X161644008Y-78047720D01*
X161588677Y-78090385D01*
X161519064Y-78096364D01*
X161457269Y-78063758D01*
X161443372Y-78047720D01*
X161318974Y-77876503D01*
X161318974Y-77876502D01*
X161166497Y-77724025D01*
X160992036Y-77597271D01*
X160799899Y-77499372D01*
X160594805Y-77432733D01*
X160524000Y-77421518D01*
X160524000Y-78451290D01*
X160503661Y-78439548D01*
X160352333Y-78399000D01*
X160195667Y-78399000D01*
X160044339Y-78439548D01*
X160024000Y-78451290D01*
X160024000Y-77421518D01*
X160023999Y-77421518D01*
X159953194Y-77432733D01*
X159748100Y-77499372D01*
X159555963Y-77597271D01*
X159381503Y-77724025D01*
X159381502Y-77724025D01*
X159229025Y-77876502D01*
X159229025Y-77876503D01*
X159102271Y-78050963D01*
X159004372Y-78243098D01*
X158937734Y-78448190D01*
X158904000Y-78661179D01*
X158904000Y-78744000D01*
X159731291Y-78744000D01*
X159719548Y-78764339D01*
X159679000Y-78915667D01*
X159679000Y-79072333D01*
X159719548Y-79223661D01*
X159731291Y-79244000D01*
X158904000Y-79244000D01*
X158904000Y-79326820D01*
X158937734Y-79539809D01*
X159004372Y-79744901D01*
X159102271Y-79937036D01*
X159229025Y-80111496D01*
X159229025Y-80111497D01*
X159381502Y-80263974D01*
X159555963Y-80390728D01*
X159748098Y-80488627D01*
X159953190Y-80555266D01*
X160024000Y-80566481D01*
X160024000Y-79536709D01*
X160044339Y-79548452D01*
X160195667Y-79589000D01*
X160352333Y-79589000D01*
X160503661Y-79548452D01*
X160524000Y-79536709D01*
X160524000Y-80566480D01*
X160594809Y-80555266D01*
X160799901Y-80488627D01*
X160992036Y-80390728D01*
X161166496Y-80263974D01*
X161166497Y-80263974D01*
X161318974Y-80111497D01*
X161318979Y-80111491D01*
X161443372Y-79940280D01*
X161498702Y-79897614D01*
X161568315Y-79891635D01*
X161630110Y-79924241D01*
X161644008Y-79940279D01*
X161768641Y-80111821D01*
X161921179Y-80264359D01*
X162095701Y-80391157D01*
X162287911Y-80489092D01*
X162493074Y-80555754D01*
X162560796Y-80566480D01*
X162706134Y-80589500D01*
X162706139Y-80589500D01*
X162921866Y-80589500D01*
X163040230Y-80570752D01*
X163134926Y-80555754D01*
X163340089Y-80489092D01*
X163532299Y-80391157D01*
X163706821Y-80264359D01*
X163848807Y-80122372D01*
X163910126Y-80088890D01*
X163979818Y-80093874D01*
X164035752Y-80135745D01*
X164048864Y-80157645D01*
X164049181Y-80158326D01*
X164062642Y-80180150D01*
X164141288Y-80307656D01*
X164265344Y-80431712D01*
X164414666Y-80523814D01*
X164581203Y-80578999D01*
X164683991Y-80589500D01*
X166024008Y-80589499D01*
X166126797Y-80578999D01*
X166293334Y-80523814D01*
X166442656Y-80431712D01*
X166566712Y-80307656D01*
X166658814Y-80158334D01*
X166713999Y-79991797D01*
X166724500Y-79889009D01*
X166724499Y-78098992D01*
X166722931Y-78083647D01*
X166713999Y-77996203D01*
X166713998Y-77996200D01*
X166681210Y-77897254D01*
X166658814Y-77829666D01*
X166566712Y-77680344D01*
X166442656Y-77556288D01*
X166293334Y-77464186D01*
X166126797Y-77409001D01*
X166126795Y-77409000D01*
X166024010Y-77398500D01*
X164683998Y-77398500D01*
X164683981Y-77398501D01*
X164581203Y-77409000D01*
X164581200Y-77409001D01*
X164414668Y-77464185D01*
X164414663Y-77464187D01*
X164265342Y-77556289D01*
X164141289Y-77680342D01*
X164049179Y-77829677D01*
X164048861Y-77830360D01*
X164048518Y-77830748D01*
X164045395Y-77835813D01*
X164044529Y-77835278D01*
X164002683Y-77882794D01*
X163935487Y-77901939D01*
X163868608Y-77881716D01*
X163848804Y-77865624D01*
X163706822Y-77723642D01*
X163647225Y-77680342D01*
X163619613Y-77660280D01*
X163576949Y-77604950D01*
X163568500Y-77559963D01*
X163568500Y-71209181D01*
X163588185Y-71142142D01*
X163640989Y-71096387D01*
X163710147Y-71086443D01*
X163773703Y-71115468D01*
X163791766Y-71134870D01*
X163828952Y-71184544D01*
X163828955Y-71184547D01*
X163944164Y-71270793D01*
X163944171Y-71270797D01*
X164079017Y-71321091D01*
X164079016Y-71321091D01*
X164085944Y-71321835D01*
X164138627Y-71327500D01*
X165934372Y-71327499D01*
X165993983Y-71321091D01*
X166128831Y-71270796D01*
X166244046Y-71184546D01*
X166330296Y-71069331D01*
X166380591Y-70934483D01*
X166387000Y-70874873D01*
X166386999Y-69079128D01*
X166380591Y-69019517D01*
X166378768Y-69014630D01*
X166330297Y-68884671D01*
X166330293Y-68884664D01*
X166244047Y-68769455D01*
X166244044Y-68769452D01*
X166128835Y-68683206D01*
X166128828Y-68683202D01*
X165997417Y-68634189D01*
X165941483Y-68592318D01*
X165917066Y-68526853D01*
X165931918Y-68458580D01*
X165953063Y-68430332D01*
X166074995Y-68308401D01*
X166210535Y-68114830D01*
X166310403Y-67900663D01*
X166371563Y-67672408D01*
X166392159Y-67437000D01*
X166371563Y-67201592D01*
X166311150Y-66976125D01*
X166310405Y-66973344D01*
X166310404Y-66973343D01*
X166310403Y-66973337D01*
X166210535Y-66759171D01*
X166189870Y-66729657D01*
X166074994Y-66565597D01*
X165907902Y-66398506D01*
X165907896Y-66398501D01*
X165722342Y-66268575D01*
X165678717Y-66213998D01*
X165671523Y-66144500D01*
X165703046Y-66082145D01*
X165722342Y-66065425D01*
X165754432Y-66042955D01*
X165907901Y-65935495D01*
X166074995Y-65768401D01*
X166210535Y-65574830D01*
X166310403Y-65360663D01*
X166371563Y-65132408D01*
X166392159Y-64897000D01*
X166371563Y-64661592D01*
X166310403Y-64433337D01*
X166210535Y-64219171D01*
X166198696Y-64202262D01*
X166074994Y-64025597D01*
X165907902Y-63858506D01*
X165907896Y-63858501D01*
X165722342Y-63728575D01*
X165678717Y-63673998D01*
X165671523Y-63604500D01*
X165703046Y-63542145D01*
X165722342Y-63525425D01*
X165754664Y-63502793D01*
X165907901Y-63395495D01*
X166074995Y-63228401D01*
X166210535Y-63034830D01*
X166310403Y-62820663D01*
X166371563Y-62592408D01*
X166392159Y-62357000D01*
X166371563Y-62121592D01*
X166310403Y-61893337D01*
X166210535Y-61679171D01*
X166202765Y-61668073D01*
X166074994Y-61485597D01*
X165907902Y-61318506D01*
X165907896Y-61318501D01*
X165722342Y-61188575D01*
X165678717Y-61133998D01*
X165671523Y-61064500D01*
X165703046Y-61002145D01*
X165722342Y-60985425D01*
X165794265Y-60935064D01*
X165907901Y-60855495D01*
X166074995Y-60688401D01*
X166210535Y-60494830D01*
X166310403Y-60280663D01*
X166371563Y-60052408D01*
X166392159Y-59817000D01*
X166389924Y-59791460D01*
X166371563Y-59581596D01*
X166371563Y-59581592D01*
X166310403Y-59353337D01*
X166210535Y-59139171D01*
X166207999Y-59135548D01*
X166074994Y-58945597D01*
X165907902Y-58778506D01*
X165907896Y-58778501D01*
X165722342Y-58648575D01*
X165678717Y-58593998D01*
X165671523Y-58524500D01*
X165703046Y-58462145D01*
X165722342Y-58445425D01*
X165901467Y-58320000D01*
X165907901Y-58315495D01*
X166074995Y-58148401D01*
X166210535Y-57954830D01*
X166310403Y-57740663D01*
X166371563Y-57512408D01*
X166392159Y-57277000D01*
X166371563Y-57041592D01*
X166310403Y-56813337D01*
X166210535Y-56599171D01*
X166168022Y-56538455D01*
X166074994Y-56405597D01*
X165907902Y-56238506D01*
X165907896Y-56238501D01*
X165722342Y-56108575D01*
X165678717Y-56053998D01*
X165671523Y-55984500D01*
X165703046Y-55922145D01*
X165722342Y-55905425D01*
X165824780Y-55833697D01*
X165907901Y-55775495D01*
X166074995Y-55608401D01*
X166210535Y-55414830D01*
X166310403Y-55200663D01*
X166371563Y-54972408D01*
X166392159Y-54737000D01*
X166371563Y-54501592D01*
X166317503Y-54299834D01*
X166310405Y-54273344D01*
X166310404Y-54273343D01*
X166310403Y-54273337D01*
X166210535Y-54059171D01*
X166109812Y-53915322D01*
X166074994Y-53865597D01*
X165907902Y-53698506D01*
X165907896Y-53698501D01*
X165722342Y-53568575D01*
X165678717Y-53513998D01*
X165671523Y-53444500D01*
X165703046Y-53382145D01*
X165722342Y-53365425D01*
X165843627Y-53280500D01*
X165907901Y-53235495D01*
X166074995Y-53068401D01*
X166210535Y-52874830D01*
X166310403Y-52660663D01*
X166371563Y-52432408D01*
X166392159Y-52197000D01*
X166371563Y-51961592D01*
X166310403Y-51733337D01*
X166210535Y-51519171D01*
X166136700Y-51413722D01*
X166074994Y-51325597D01*
X165907902Y-51158506D01*
X165907896Y-51158501D01*
X165722342Y-51028575D01*
X165678717Y-50973998D01*
X165671523Y-50904500D01*
X165703046Y-50842145D01*
X165722342Y-50825425D01*
X165753927Y-50803309D01*
X165907901Y-50695495D01*
X166074995Y-50528401D01*
X166210535Y-50334830D01*
X166310403Y-50120663D01*
X166371563Y-49892408D01*
X166392159Y-49657000D01*
X166390438Y-49637335D01*
X166373425Y-49442873D01*
X166371563Y-49421592D01*
X166310403Y-49193337D01*
X166210535Y-48979171D01*
X166204243Y-48970184D01*
X166074994Y-48785597D01*
X165907902Y-48618506D01*
X165907901Y-48618505D01*
X165721905Y-48488269D01*
X165678281Y-48433692D01*
X165671088Y-48364193D01*
X165702610Y-48301839D01*
X165721905Y-48285119D01*
X165907582Y-48155105D01*
X166074605Y-47988082D01*
X166210100Y-47794578D01*
X166309929Y-47580492D01*
X166309932Y-47580486D01*
X166367136Y-47367000D01*
X165469512Y-47367000D01*
X165502425Y-47309993D01*
X165536500Y-47182826D01*
X165536500Y-47051174D01*
X165502425Y-46924007D01*
X165469512Y-46867000D01*
X166367136Y-46867000D01*
X166367135Y-46866999D01*
X166309932Y-46653513D01*
X166309929Y-46653507D01*
X166210100Y-46439422D01*
X166210099Y-46439420D01*
X166074613Y-46245926D01*
X166074608Y-46245920D01*
X165907582Y-46078894D01*
X165714078Y-45943399D01*
X165499992Y-45843570D01*
X165499986Y-45843567D01*
X165286500Y-45786364D01*
X165286500Y-46683988D01*
X165229493Y-46651075D01*
X165102326Y-46617000D01*
X164970674Y-46617000D01*
X164843507Y-46651075D01*
X164786500Y-46683988D01*
X164786500Y-45786364D01*
X164786499Y-45786364D01*
X164573013Y-45843567D01*
X164573007Y-45843570D01*
X164358922Y-45943399D01*
X164358920Y-45943400D01*
X164165426Y-46078886D01*
X164165420Y-46078891D01*
X163998391Y-46245920D01*
X163998386Y-46245926D01*
X163862900Y-46439420D01*
X163862899Y-46439422D01*
X163763070Y-46653507D01*
X163763067Y-46653513D01*
X163705864Y-46866999D01*
X163705864Y-46867000D01*
X164603488Y-46867000D01*
X164570575Y-46924007D01*
X164536500Y-47051174D01*
X164536500Y-47182826D01*
X164570575Y-47309993D01*
X164603488Y-47367000D01*
X163705864Y-47367000D01*
X163763067Y-47580486D01*
X163763070Y-47580492D01*
X163862899Y-47794578D01*
X163998394Y-47988082D01*
X164165417Y-48155105D01*
X164351095Y-48285119D01*
X164394719Y-48339696D01*
X164401912Y-48409195D01*
X164370390Y-48471549D01*
X164351095Y-48488269D01*
X164165094Y-48618508D01*
X163998006Y-48785596D01*
X163948624Y-48856123D01*
X163894048Y-48899748D01*
X163847049Y-48909000D01*
X163140613Y-48909000D01*
X163074641Y-48889994D01*
X163049523Y-48874211D01*
X162879254Y-48814631D01*
X162879249Y-48814630D01*
X162700004Y-48794435D01*
X162699996Y-48794435D01*
X162520750Y-48814630D01*
X162520745Y-48814631D01*
X162350476Y-48874211D01*
X162197737Y-48970184D01*
X162070184Y-49097737D01*
X161974211Y-49250476D01*
X161914631Y-49420745D01*
X161914630Y-49420750D01*
X161894435Y-49599996D01*
X161894435Y-49600003D01*
X161914630Y-49779249D01*
X161914631Y-49779254D01*
X161974211Y-49949523D01*
X162054869Y-50077889D01*
X162070184Y-50102262D01*
X162197738Y-50229816D01*
X162288080Y-50286582D01*
X162325359Y-50310006D01*
X162350478Y-50325789D01*
X162443961Y-50358500D01*
X162520745Y-50385368D01*
X162520750Y-50385369D01*
X162699996Y-50405565D01*
X162700000Y-50405565D01*
X162700004Y-50405565D01*
X162879249Y-50385369D01*
X162879252Y-50385368D01*
X162879255Y-50385368D01*
X163049522Y-50325789D01*
X163073560Y-50310685D01*
X163074641Y-50310006D01*
X163140613Y-50291000D01*
X163767224Y-50291000D01*
X163834263Y-50310685D01*
X163868799Y-50343876D01*
X163998005Y-50528401D01*
X163998006Y-50528402D01*
X164165097Y-50695493D01*
X164165103Y-50695498D01*
X164350658Y-50825425D01*
X164394283Y-50880002D01*
X164401477Y-50949500D01*
X164369954Y-51011855D01*
X164350658Y-51028575D01*
X164165097Y-51158505D01*
X163998006Y-51325597D01*
X163998005Y-51325599D01*
X163953174Y-51389624D01*
X163898596Y-51433249D01*
X163851599Y-51442500D01*
X162542886Y-51442500D01*
X162475847Y-51422815D01*
X162455205Y-51406181D01*
X158270819Y-47221794D01*
X158237334Y-47160471D01*
X158234500Y-47134113D01*
X158234500Y-45084452D01*
X158254185Y-45017413D01*
X158306989Y-44971658D01*
X158376147Y-44961714D01*
X158397508Y-44966748D01*
X158401298Y-44968004D01*
X158401309Y-44968006D01*
X158504019Y-44978499D01*
X158753999Y-44978499D01*
X159254000Y-44978499D01*
X159503972Y-44978499D01*
X159503986Y-44978498D01*
X159606697Y-44968005D01*
X159773119Y-44912858D01*
X159773124Y-44912856D01*
X159922345Y-44820815D01*
X160046315Y-44696845D01*
X160138356Y-44547624D01*
X160138358Y-44547619D01*
X160193505Y-44381197D01*
X160193506Y-44381190D01*
X160203999Y-44278486D01*
X160204000Y-44278473D01*
X160204000Y-44128500D01*
X159254000Y-44128500D01*
X159254000Y-44978499D01*
X158753999Y-44978499D01*
X158754000Y-44978498D01*
X158754000Y-44002500D01*
X158773685Y-43935461D01*
X158826489Y-43889706D01*
X158878000Y-43878500D01*
X159004000Y-43878500D01*
X159004000Y-43752500D01*
X159023685Y-43685461D01*
X159076489Y-43639706D01*
X159128000Y-43628500D01*
X159438149Y-43628500D01*
X159505188Y-43648185D01*
X159525831Y-43664820D01*
X159577740Y-43716730D01*
X159577746Y-43716735D01*
X159595777Y-43728783D01*
X159690914Y-43792352D01*
X159690927Y-43792359D01*
X159816670Y-43844443D01*
X159816675Y-43844445D01*
X159816679Y-43844445D01*
X159816680Y-43844446D01*
X159950171Y-43871000D01*
X159950174Y-43871000D01*
X159950175Y-43871000D01*
X160086289Y-43871000D01*
X162032328Y-43871000D01*
X162099367Y-43890685D01*
X162132644Y-43922112D01*
X162242141Y-44072821D01*
X162394679Y-44225359D01*
X162569201Y-44352157D01*
X162761411Y-44450092D01*
X162966574Y-44516754D01*
X163046473Y-44529408D01*
X163179634Y-44550500D01*
X163179639Y-44550500D01*
X163845366Y-44550500D01*
X163975955Y-44529816D01*
X164058426Y-44516754D01*
X164263589Y-44450092D01*
X164455799Y-44352157D01*
X164630321Y-44225359D01*
X164782859Y-44072821D01*
X164909657Y-43898299D01*
X165007592Y-43706089D01*
X165074254Y-43500926D01*
X165090597Y-43397738D01*
X165108000Y-43287866D01*
X165108000Y-43072133D01*
X165085502Y-42930095D01*
X165074254Y-42859074D01*
X165007592Y-42653911D01*
X164909657Y-42461701D01*
X164782859Y-42287179D01*
X164640875Y-42145195D01*
X164607390Y-42083872D01*
X164612374Y-42014180D01*
X164654246Y-41958247D01*
X164676157Y-41945129D01*
X164676822Y-41944817D01*
X164676834Y-41944814D01*
X164826156Y-41852712D01*
X164950212Y-41728656D01*
X165042314Y-41579334D01*
X165097499Y-41412797D01*
X165108000Y-41310009D01*
X165107999Y-39969992D01*
X165097499Y-39867203D01*
X165042314Y-39700666D01*
X164950212Y-39551344D01*
X164826156Y-39427288D01*
X164676834Y-39335186D01*
X164510297Y-39280001D01*
X164510295Y-39280000D01*
X164407510Y-39269500D01*
X162617498Y-39269500D01*
X162617481Y-39269501D01*
X162514703Y-39280000D01*
X162514700Y-39280001D01*
X162348168Y-39335185D01*
X162348163Y-39335187D01*
X162198842Y-39427289D01*
X162074789Y-39551342D01*
X161982687Y-39700663D01*
X161982685Y-39700668D01*
X161928561Y-39864004D01*
X161888788Y-39921449D01*
X161824272Y-39948272D01*
X161810855Y-39949000D01*
X160230583Y-39949000D01*
X160163544Y-39929315D01*
X160142902Y-39912681D01*
X158046597Y-37816375D01*
X158013112Y-37755052D01*
X158018096Y-37685360D01*
X158059968Y-37629427D01*
X158125432Y-37605010D01*
X158173282Y-37610988D01*
X158337802Y-37665505D01*
X158337809Y-37665506D01*
X158440519Y-37675999D01*
X158690499Y-37675999D01*
X158690500Y-37675998D01*
X158690500Y-36826000D01*
X157740501Y-36826000D01*
X157740501Y-36975986D01*
X157750994Y-37078697D01*
X157805511Y-37243217D01*
X157807913Y-37313045D01*
X157772181Y-37373087D01*
X157709661Y-37404280D01*
X157640201Y-37396719D01*
X157600124Y-37369902D01*
X153287904Y-33057681D01*
X153254419Y-32996358D01*
X153259403Y-32926666D01*
X153301275Y-32870733D01*
X153366739Y-32846316D01*
X153375585Y-32846000D01*
X161793000Y-32846000D01*
X161860039Y-32865685D01*
X161905794Y-32918489D01*
X161917000Y-32970000D01*
X161917000Y-34198001D01*
X161917001Y-34198018D01*
X161927500Y-34300796D01*
X161927501Y-34300799D01*
X161982685Y-34467331D01*
X161982686Y-34467334D01*
X162074788Y-34616656D01*
X162198844Y-34740712D01*
X162348166Y-34832814D01*
X162348168Y-34832814D01*
X162348169Y-34832815D01*
X162348848Y-34833132D01*
X162349235Y-34833473D01*
X162354313Y-34836605D01*
X162353777Y-34837472D01*
X162401287Y-34879304D01*
X162420439Y-34946498D01*
X162400223Y-35013379D01*
X162384125Y-35033195D01*
X162242138Y-35175182D01*
X162178782Y-35262385D01*
X162123452Y-35305051D01*
X162078464Y-35313500D01*
X160796386Y-35313500D01*
X160729347Y-35293815D01*
X160708705Y-35277181D01*
X160177318Y-34745794D01*
X160143833Y-34684471D01*
X160140999Y-34658113D01*
X160140999Y-34175998D01*
X160140998Y-34175981D01*
X160130499Y-34073203D01*
X160130498Y-34073200D01*
X160122209Y-34048185D01*
X160075314Y-33906666D01*
X159983212Y-33757344D01*
X159859156Y-33633288D01*
X159709834Y-33541186D01*
X159543297Y-33486001D01*
X159543295Y-33486000D01*
X159440510Y-33475500D01*
X158440498Y-33475500D01*
X158440480Y-33475501D01*
X158337703Y-33486000D01*
X158337700Y-33486001D01*
X158171168Y-33541185D01*
X158171163Y-33541187D01*
X158021842Y-33633289D01*
X157897789Y-33757342D01*
X157805687Y-33906663D01*
X157805685Y-33906668D01*
X157793316Y-33943996D01*
X157750501Y-34073203D01*
X157750501Y-34073204D01*
X157750500Y-34073204D01*
X157740000Y-34175983D01*
X157740000Y-34976001D01*
X157740001Y-34976019D01*
X157750500Y-35078796D01*
X157750501Y-35078799D01*
X157805685Y-35245331D01*
X157805687Y-35245336D01*
X157816203Y-35262385D01*
X157892527Y-35386127D01*
X157897789Y-35394657D01*
X157991804Y-35488672D01*
X158025289Y-35549995D01*
X158020305Y-35619687D01*
X157991805Y-35664034D01*
X157898182Y-35757657D01*
X157806143Y-35906875D01*
X157806141Y-35906880D01*
X157750994Y-36073302D01*
X157750993Y-36073309D01*
X157740500Y-36176013D01*
X157740500Y-36326000D01*
X158816500Y-36326000D01*
X158883539Y-36345685D01*
X158929294Y-36398489D01*
X158940500Y-36450000D01*
X158940500Y-36576000D01*
X159066500Y-36576000D01*
X159133539Y-36595685D01*
X159179294Y-36648489D01*
X159190500Y-36700000D01*
X159190500Y-37675999D01*
X159440472Y-37675999D01*
X159440486Y-37675998D01*
X159543197Y-37665505D01*
X159709619Y-37610358D01*
X159709624Y-37610356D01*
X159858845Y-37518315D01*
X159982815Y-37394345D01*
X160074856Y-37245124D01*
X160074858Y-37245119D01*
X160130005Y-37078697D01*
X160130006Y-37078690D01*
X160140499Y-36975985D01*
X160140499Y-36930297D01*
X160160182Y-36863257D01*
X160212985Y-36817501D01*
X160282144Y-36807556D01*
X160288691Y-36808677D01*
X160358186Y-36822501D01*
X160358188Y-36822501D01*
X160512926Y-36822501D01*
X160512946Y-36822500D01*
X162078464Y-36822500D01*
X162145503Y-36842185D01*
X162178782Y-36873615D01*
X162242141Y-36960821D01*
X162394679Y-37113359D01*
X162569201Y-37240157D01*
X162761411Y-37338092D01*
X162966574Y-37404754D01*
X163046473Y-37417408D01*
X163179634Y-37438500D01*
X163179639Y-37438500D01*
X163845366Y-37438500D01*
X163963730Y-37419752D01*
X164058426Y-37404754D01*
X164263589Y-37338092D01*
X164455799Y-37240157D01*
X164630321Y-37113359D01*
X164782859Y-36960821D01*
X164909657Y-36786299D01*
X165007592Y-36594089D01*
X165074254Y-36388926D01*
X165089252Y-36294230D01*
X165108000Y-36175866D01*
X165108000Y-35960133D01*
X165074254Y-35747077D01*
X165074254Y-35747074D01*
X165007592Y-35541911D01*
X164909657Y-35349701D01*
X164782859Y-35175179D01*
X164640875Y-35033195D01*
X164607390Y-34971872D01*
X164612374Y-34902180D01*
X164654246Y-34846247D01*
X164676157Y-34833129D01*
X164676822Y-34832817D01*
X164676834Y-34832814D01*
X164826156Y-34740712D01*
X164950212Y-34616656D01*
X165042314Y-34467334D01*
X165097499Y-34300797D01*
X165108000Y-34198009D01*
X165107999Y-32857992D01*
X165097499Y-32755203D01*
X165042314Y-32588666D01*
X164950212Y-32439344D01*
X164826156Y-32315288D01*
X164676834Y-32223186D01*
X164510297Y-32168001D01*
X164510295Y-32168000D01*
X164407516Y-32157500D01*
X164407509Y-32157500D01*
X163170584Y-32157500D01*
X163103545Y-32137815D01*
X163082903Y-32121181D01*
X162579992Y-31618269D01*
X162579985Y-31618263D01*
X162466812Y-31542644D01*
X162466809Y-31542642D01*
X162341061Y-31490556D01*
X162341051Y-31490553D01*
X162207560Y-31464000D01*
X162207558Y-31464000D01*
X151638500Y-31464000D01*
X151571461Y-31444315D01*
X151525706Y-31391511D01*
X151514500Y-31340000D01*
X151514500Y-31135000D01*
X149014500Y-31135000D01*
X149014500Y-31382844D01*
X149020901Y-31442372D01*
X149020903Y-31442379D01*
X149033425Y-31475952D01*
X149038409Y-31545643D01*
X149033425Y-31562617D01*
X149020409Y-31597514D01*
X149020408Y-31597516D01*
X149014001Y-31657116D01*
X149014000Y-31657135D01*
X149014000Y-32652870D01*
X149014001Y-32652876D01*
X149020408Y-32712481D01*
X149033159Y-32746669D01*
X149038142Y-32816361D01*
X149033159Y-32833331D01*
X149020408Y-32867518D01*
X149014001Y-32927116D01*
X149014000Y-32927135D01*
X149014000Y-33922870D01*
X149014001Y-33922876D01*
X149020408Y-33982481D01*
X149033159Y-34016669D01*
X149038142Y-34086361D01*
X149033159Y-34103331D01*
X149020408Y-34137518D01*
X149015612Y-34182133D01*
X149014001Y-34197123D01*
X149014000Y-34197135D01*
X149014000Y-35192870D01*
X149014001Y-35192876D01*
X149020408Y-35252481D01*
X149033159Y-35286669D01*
X149038142Y-35356361D01*
X149033159Y-35373331D01*
X149020408Y-35407518D01*
X149014001Y-35467116D01*
X149014001Y-35467123D01*
X149014000Y-35467135D01*
X149014000Y-36462870D01*
X149014001Y-36462876D01*
X149020408Y-36522481D01*
X149033159Y-36556669D01*
X149038142Y-36626361D01*
X149033159Y-36643331D01*
X149020408Y-36677518D01*
X149014053Y-36736630D01*
X149014001Y-36737123D01*
X149014000Y-36737135D01*
X149014000Y-37732870D01*
X149014001Y-37732876D01*
X149020408Y-37792481D01*
X149033159Y-37826669D01*
X149038142Y-37896361D01*
X149033159Y-37913331D01*
X149020408Y-37947518D01*
X149014001Y-38007116D01*
X149014001Y-38007123D01*
X149014000Y-38007135D01*
X149014000Y-39002870D01*
X149014001Y-39002876D01*
X149020408Y-39062481D01*
X149033159Y-39096669D01*
X149038142Y-39166361D01*
X149033159Y-39183331D01*
X149020408Y-39217518D01*
X149014820Y-39269500D01*
X149014001Y-39277123D01*
X149014000Y-39277135D01*
X149014000Y-40272870D01*
X149014001Y-40272876D01*
X149020408Y-40332481D01*
X149033159Y-40366669D01*
X149038142Y-40436361D01*
X149033159Y-40453331D01*
X149020408Y-40487518D01*
X149014001Y-40547116D01*
X149014001Y-40547123D01*
X149014000Y-40547135D01*
X149014000Y-41542870D01*
X149014001Y-41542876D01*
X149020408Y-41602481D01*
X149033159Y-41636669D01*
X149038142Y-41706361D01*
X149033159Y-41723331D01*
X149020408Y-41757518D01*
X149014001Y-41817116D01*
X149014001Y-41817123D01*
X149014000Y-41817135D01*
X149014000Y-42812870D01*
X149014001Y-42812876D01*
X149020408Y-42872481D01*
X149033159Y-42906669D01*
X149038142Y-42976361D01*
X149033159Y-42993331D01*
X149020408Y-43027518D01*
X149015612Y-43072133D01*
X149014001Y-43087123D01*
X149014000Y-43087135D01*
X149014000Y-44082870D01*
X149014001Y-44082876D01*
X149020408Y-44142481D01*
X149033159Y-44176669D01*
X149038142Y-44246361D01*
X149033159Y-44263331D01*
X149020408Y-44297518D01*
X149015724Y-44341089D01*
X149014001Y-44357123D01*
X149014000Y-44357135D01*
X149014000Y-45352870D01*
X149014001Y-45352876D01*
X149020408Y-45412481D01*
X149033159Y-45446669D01*
X149038142Y-45516361D01*
X149033159Y-45533331D01*
X149020408Y-45567518D01*
X149014001Y-45627116D01*
X149014001Y-45627123D01*
X149014000Y-45627135D01*
X149014000Y-46622870D01*
X149014001Y-46622876D01*
X149020408Y-46682481D01*
X149033159Y-46716669D01*
X149038142Y-46786361D01*
X149033159Y-46803331D01*
X149020408Y-46837518D01*
X149017239Y-46866999D01*
X149014001Y-46897123D01*
X149014000Y-46897135D01*
X149014000Y-47270500D01*
X148994315Y-47337539D01*
X148941511Y-47383294D01*
X148890000Y-47394500D01*
X148001629Y-47394500D01*
X148001623Y-47394501D01*
X147942018Y-47400908D01*
X147907831Y-47413659D01*
X147838139Y-47418642D01*
X147821169Y-47413659D01*
X147786980Y-47400908D01*
X147786982Y-47400908D01*
X147727383Y-47394501D01*
X147727381Y-47394500D01*
X147727373Y-47394500D01*
X147727364Y-47394500D01*
X146731629Y-47394500D01*
X146731623Y-47394501D01*
X146672018Y-47400908D01*
X146637831Y-47413659D01*
X146568139Y-47418642D01*
X146551169Y-47413659D01*
X146516980Y-47400908D01*
X146516982Y-47400908D01*
X146457383Y-47394501D01*
X146457381Y-47394500D01*
X146457373Y-47394500D01*
X146457364Y-47394500D01*
X145461629Y-47394500D01*
X145461623Y-47394501D01*
X145402018Y-47400908D01*
X145367831Y-47413659D01*
X145298139Y-47418642D01*
X145281169Y-47413659D01*
X145246980Y-47400908D01*
X145246982Y-47400908D01*
X145187383Y-47394501D01*
X145187381Y-47394500D01*
X145187373Y-47394500D01*
X145187364Y-47394500D01*
X144191629Y-47394500D01*
X144191623Y-47394501D01*
X144132018Y-47400908D01*
X144097831Y-47413659D01*
X144028139Y-47418642D01*
X144011169Y-47413659D01*
X143976980Y-47400908D01*
X143976982Y-47400908D01*
X143917383Y-47394501D01*
X143917381Y-47394500D01*
X143917373Y-47394500D01*
X143917364Y-47394500D01*
X142921629Y-47394500D01*
X142921623Y-47394501D01*
X142862018Y-47400908D01*
X142827831Y-47413659D01*
X142758139Y-47418642D01*
X142741169Y-47413659D01*
X142706980Y-47400908D01*
X142706982Y-47400908D01*
X142647383Y-47394501D01*
X142647381Y-47394500D01*
X142647373Y-47394500D01*
X142647364Y-47394500D01*
X141651629Y-47394500D01*
X141651623Y-47394501D01*
X141592018Y-47400908D01*
X141557831Y-47413659D01*
X141488139Y-47418642D01*
X141471169Y-47413659D01*
X141436980Y-47400908D01*
X141436982Y-47400908D01*
X141377383Y-47394501D01*
X141377381Y-47394500D01*
X141377373Y-47394500D01*
X141377364Y-47394500D01*
X140381629Y-47394500D01*
X140381623Y-47394501D01*
X140322018Y-47400908D01*
X140287831Y-47413659D01*
X140218139Y-47418642D01*
X140201169Y-47413659D01*
X140166980Y-47400908D01*
X140166982Y-47400908D01*
X140107383Y-47394501D01*
X140107381Y-47394500D01*
X140107373Y-47394500D01*
X140107364Y-47394500D01*
X139111629Y-47394500D01*
X139111623Y-47394501D01*
X139052018Y-47400908D01*
X139017831Y-47413659D01*
X138948139Y-47418642D01*
X138931169Y-47413659D01*
X138896980Y-47400908D01*
X138896982Y-47400908D01*
X138837383Y-47394501D01*
X138837381Y-47394500D01*
X138837373Y-47394500D01*
X138837364Y-47394500D01*
X137841629Y-47394500D01*
X137841623Y-47394501D01*
X137782018Y-47400908D01*
X137747831Y-47413659D01*
X137678139Y-47418642D01*
X137661169Y-47413659D01*
X137626980Y-47400908D01*
X137626982Y-47400908D01*
X137567383Y-47394501D01*
X137567381Y-47394500D01*
X137567373Y-47394500D01*
X137567364Y-47394500D01*
X136571629Y-47394500D01*
X136571623Y-47394501D01*
X136512018Y-47400908D01*
X136477831Y-47413659D01*
X136408139Y-47418642D01*
X136391169Y-47413659D01*
X136356980Y-47400908D01*
X136356982Y-47400908D01*
X136297383Y-47394501D01*
X136297381Y-47394500D01*
X136297373Y-47394500D01*
X136297364Y-47394500D01*
X135301629Y-47394500D01*
X135301623Y-47394501D01*
X135242018Y-47400908D01*
X135207831Y-47413659D01*
X135138139Y-47418642D01*
X135121169Y-47413659D01*
X135086980Y-47400908D01*
X135086982Y-47400908D01*
X135027383Y-47394501D01*
X135027381Y-47394500D01*
X135027373Y-47394500D01*
X135027365Y-47394500D01*
X134138999Y-47394500D01*
X134071960Y-47374815D01*
X134026205Y-47322011D01*
X134014999Y-47270500D01*
X134014999Y-46897129D01*
X134014998Y-46897123D01*
X134014997Y-46897116D01*
X134008591Y-46837517D01*
X133995840Y-46803332D01*
X133990857Y-46733642D01*
X133995840Y-46716669D01*
X134008591Y-46682483D01*
X134015000Y-46622873D01*
X134014999Y-45627128D01*
X134008591Y-45567517D01*
X133995840Y-45533332D01*
X133990857Y-45463642D01*
X133995840Y-45446669D01*
X134008591Y-45412483D01*
X134015000Y-45352873D01*
X134014999Y-44357128D01*
X134008591Y-44297517D01*
X133995840Y-44263332D01*
X133990857Y-44193642D01*
X133995840Y-44176669D01*
X134008591Y-44142483D01*
X134015000Y-44082873D01*
X134014999Y-43087128D01*
X134008591Y-43027517D01*
X133995840Y-42993332D01*
X133990857Y-42923642D01*
X133995840Y-42906669D01*
X134008591Y-42872483D01*
X134015000Y-42812873D01*
X134014999Y-41817128D01*
X134008591Y-41757517D01*
X133995840Y-41723332D01*
X133990857Y-41653642D01*
X133995840Y-41636669D01*
X134008591Y-41602483D01*
X134015000Y-41542873D01*
X134014999Y-40547128D01*
X134008591Y-40487517D01*
X133995840Y-40453332D01*
X133990857Y-40383642D01*
X133995840Y-40366669D01*
X134008591Y-40332483D01*
X134015000Y-40272873D01*
X134014999Y-39277128D01*
X134008591Y-39217517D01*
X133995840Y-39183332D01*
X133990857Y-39113642D01*
X133995841Y-39096667D01*
X134008591Y-39062483D01*
X134015000Y-39002873D01*
X134014999Y-38007128D01*
X134008591Y-37947517D01*
X133995840Y-37913332D01*
X133990857Y-37843642D01*
X133995840Y-37826669D01*
X134008591Y-37792483D01*
X134015000Y-37732873D01*
X134014999Y-36737128D01*
X134008591Y-36677517D01*
X133995840Y-36643332D01*
X133990857Y-36573642D01*
X133995840Y-36556669D01*
X134008591Y-36522483D01*
X134015000Y-36462873D01*
X134014999Y-35467128D01*
X134008591Y-35407517D01*
X133995840Y-35373332D01*
X133990857Y-35303642D01*
X133995840Y-35286669D01*
X134008591Y-35252483D01*
X134015000Y-35192873D01*
X134014999Y-34197128D01*
X134008591Y-34137517D01*
X133995840Y-34103332D01*
X133990857Y-34033642D01*
X133995840Y-34016669D01*
X134008591Y-33982483D01*
X134015000Y-33922873D01*
X134014999Y-33551081D01*
X134034683Y-33484044D01*
X134087487Y-33438289D01*
X134156646Y-33428345D01*
X134220201Y-33457370D01*
X134226680Y-33463402D01*
X135972681Y-35209402D01*
X136006166Y-35270725D01*
X136009000Y-35297083D01*
X136009000Y-44759387D01*
X135989995Y-44825357D01*
X135974209Y-44850480D01*
X135914633Y-45020737D01*
X135914630Y-45020750D01*
X135894435Y-45199996D01*
X135894435Y-45200003D01*
X135914630Y-45379249D01*
X135914631Y-45379254D01*
X135974211Y-45549523D01*
X136059327Y-45684983D01*
X136070184Y-45702262D01*
X136197738Y-45829816D01*
X136350478Y-45925789D01*
X136520745Y-45985368D01*
X136520750Y-45985369D01*
X136699996Y-46005565D01*
X136700000Y-46005565D01*
X136700004Y-46005565D01*
X136879249Y-45985369D01*
X136879252Y-45985368D01*
X136879255Y-45985368D01*
X137049522Y-45925789D01*
X137202262Y-45829816D01*
X137329816Y-45702262D01*
X137425789Y-45549522D01*
X137485368Y-45379255D01*
X137485618Y-45377039D01*
X137505565Y-45200003D01*
X137505565Y-45199996D01*
X137485369Y-45020750D01*
X137485366Y-45020737D01*
X137425790Y-44850480D01*
X137425365Y-44849804D01*
X137410005Y-44825357D01*
X137391000Y-44759387D01*
X137391000Y-34891439D01*
X137364446Y-34757948D01*
X137364445Y-34757947D01*
X137364445Y-34757943D01*
X137344369Y-34709475D01*
X137312358Y-34632193D01*
X137312356Y-34632190D01*
X137312356Y-34632189D01*
X137301977Y-34616656D01*
X137236735Y-34519014D01*
X137236733Y-34519011D01*
X137236732Y-34519010D01*
X134335992Y-31618269D01*
X134335985Y-31618263D01*
X134222812Y-31542644D01*
X134222809Y-31542642D01*
X134091430Y-31488224D01*
X134092494Y-31485655D01*
X134044043Y-31453883D01*
X134015605Y-31390062D01*
X134014500Y-31373547D01*
X134014500Y-31135000D01*
X131514500Y-31135000D01*
X131514500Y-31340000D01*
X131494815Y-31407039D01*
X131442011Y-31452794D01*
X131390500Y-31464000D01*
X128622440Y-31464000D01*
X128488948Y-31490553D01*
X128488938Y-31490556D01*
X128458750Y-31503061D01*
X128411298Y-31512500D01*
X125282500Y-31512500D01*
X125215461Y-31492815D01*
X125169706Y-31440011D01*
X125158500Y-31388500D01*
X125158500Y-31262500D01*
X125032500Y-31262500D01*
X124965461Y-31242815D01*
X124919706Y-31190011D01*
X124908500Y-31138500D01*
X124908500Y-31012500D01*
X125408500Y-31012500D01*
X127258000Y-31012500D01*
X127758000Y-31012500D01*
X128732999Y-31012500D01*
X128732999Y-30875028D01*
X128732998Y-30875013D01*
X128722505Y-30772302D01*
X128667358Y-30605880D01*
X128667356Y-30605875D01*
X128575315Y-30456654D01*
X128505816Y-30387155D01*
X131514500Y-30387155D01*
X131514500Y-30635000D01*
X132514500Y-30635000D01*
X133014500Y-30635000D01*
X134014500Y-30635000D01*
X134014500Y-30387172D01*
X134014499Y-30387155D01*
X149014500Y-30387155D01*
X149014500Y-30635000D01*
X150014500Y-30635000D01*
X150514500Y-30635000D01*
X151514500Y-30635000D01*
X151514500Y-30387172D01*
X151514499Y-30387155D01*
X151508098Y-30327627D01*
X151508096Y-30327620D01*
X151457854Y-30192913D01*
X151457850Y-30192906D01*
X151371690Y-30077812D01*
X151371687Y-30077809D01*
X151256593Y-29991649D01*
X151256586Y-29991645D01*
X151121879Y-29941403D01*
X151121872Y-29941401D01*
X151062344Y-29935000D01*
X150514500Y-29935000D01*
X150514500Y-30635000D01*
X150014500Y-30635000D01*
X150014500Y-29935000D01*
X149466655Y-29935000D01*
X149407127Y-29941401D01*
X149407120Y-29941403D01*
X149272413Y-29991645D01*
X149272406Y-29991649D01*
X149157312Y-30077809D01*
X149157309Y-30077812D01*
X149071149Y-30192906D01*
X149071145Y-30192913D01*
X149020903Y-30327620D01*
X149020901Y-30327627D01*
X149014500Y-30387155D01*
X134014499Y-30387155D01*
X134008098Y-30327627D01*
X134008096Y-30327620D01*
X133957854Y-30192913D01*
X133957850Y-30192906D01*
X133871690Y-30077812D01*
X133871687Y-30077809D01*
X133756593Y-29991649D01*
X133756586Y-29991645D01*
X133621879Y-29941403D01*
X133621872Y-29941401D01*
X133562344Y-29935000D01*
X133014500Y-29935000D01*
X133014500Y-30635000D01*
X132514500Y-30635000D01*
X132514500Y-29935000D01*
X131966655Y-29935000D01*
X131907127Y-29941401D01*
X131907120Y-29941403D01*
X131772413Y-29991645D01*
X131772406Y-29991649D01*
X131657312Y-30077809D01*
X131657309Y-30077812D01*
X131571149Y-30192906D01*
X131571145Y-30192913D01*
X131520903Y-30327620D01*
X131520901Y-30327627D01*
X131514500Y-30387155D01*
X128505816Y-30387155D01*
X128451345Y-30332684D01*
X128302124Y-30240643D01*
X128302119Y-30240641D01*
X128135697Y-30185494D01*
X128135690Y-30185493D01*
X128032986Y-30175000D01*
X127758000Y-30175000D01*
X127758000Y-31012500D01*
X127258000Y-31012500D01*
X127258000Y-30175000D01*
X126983029Y-30175000D01*
X126983012Y-30175001D01*
X126880302Y-30185494D01*
X126713880Y-30240641D01*
X126713875Y-30240643D01*
X126564654Y-30332684D01*
X126440683Y-30456655D01*
X126440680Y-30456659D01*
X126438787Y-30459729D01*
X126436938Y-30461391D01*
X126436202Y-30462323D01*
X126436042Y-30462197D01*
X126386838Y-30506453D01*
X126317875Y-30517673D01*
X126253794Y-30489828D01*
X126227713Y-30459729D01*
X126225819Y-30456659D01*
X126225816Y-30456655D01*
X126101845Y-30332684D01*
X125952624Y-30240643D01*
X125952619Y-30240641D01*
X125786197Y-30185494D01*
X125786190Y-30185493D01*
X125683486Y-30175000D01*
X125408500Y-30175000D01*
X125408500Y-31012500D01*
X124908500Y-31012500D01*
X124908500Y-30175000D01*
X124633529Y-30175000D01*
X124633512Y-30175001D01*
X124530802Y-30185494D01*
X124364380Y-30240641D01*
X124364375Y-30240643D01*
X124215154Y-30332684D01*
X124091184Y-30456654D01*
X123999143Y-30605875D01*
X123999141Y-30605880D01*
X123943994Y-30772302D01*
X123943993Y-30772309D01*
X123936747Y-30843233D01*
X123910350Y-30907924D01*
X123853169Y-30948075D01*
X123783358Y-30950937D01*
X123723082Y-30915603D01*
X123691477Y-30853290D01*
X123690032Y-30843238D01*
X123681499Y-30759703D01*
X123626314Y-30593166D01*
X123534212Y-30443844D01*
X123410156Y-30319788D01*
X123260834Y-30227686D01*
X123094297Y-30172501D01*
X123094295Y-30172500D01*
X122991510Y-30162000D01*
X121991498Y-30162000D01*
X121991480Y-30162001D01*
X121888703Y-30172500D01*
X121888700Y-30172501D01*
X121722168Y-30227685D01*
X121722163Y-30227687D01*
X121572842Y-30319789D01*
X121448789Y-30443842D01*
X121398890Y-30524742D01*
X121346942Y-30571466D01*
X121277979Y-30582688D01*
X121213897Y-30554845D01*
X121187812Y-30524741D01*
X121145817Y-30456657D01*
X121145816Y-30456655D01*
X121021845Y-30332684D01*
X120872624Y-30240643D01*
X120872619Y-30240641D01*
X120706197Y-30185494D01*
X120706190Y-30185493D01*
X120603486Y-30175000D01*
X120328500Y-30175000D01*
X120328500Y-31138500D01*
X120308815Y-31205539D01*
X120256011Y-31251294D01*
X120204500Y-31262500D01*
X120078500Y-31262500D01*
X120078500Y-31388500D01*
X120058815Y-31455539D01*
X120006011Y-31501294D01*
X119954500Y-31512500D01*
X118814862Y-31512500D01*
X118747823Y-31492815D01*
X118727181Y-31476181D01*
X118700000Y-31449000D01*
X116250001Y-31449000D01*
X116250001Y-31586486D01*
X116260494Y-31689197D01*
X116315641Y-31855619D01*
X116315643Y-31855624D01*
X116407684Y-32004845D01*
X116531655Y-32128816D01*
X116531659Y-32128819D01*
X116534656Y-32130668D01*
X116536279Y-32132472D01*
X116537323Y-32133298D01*
X116537181Y-32133476D01*
X116581381Y-32182616D01*
X116592602Y-32251579D01*
X116564759Y-32315661D01*
X116534661Y-32341741D01*
X116531349Y-32343783D01*
X116531343Y-32343788D01*
X116407290Y-32467841D01*
X116407288Y-32467843D01*
X116407288Y-32467844D01*
X116372590Y-32524098D01*
X116320644Y-32570821D01*
X116267053Y-32583000D01*
X111501442Y-32583000D01*
X111472958Y-32588666D01*
X111472957Y-32588666D01*
X111367950Y-32609553D01*
X111367938Y-32609556D01*
X111242195Y-32661640D01*
X111242184Y-32661646D01*
X111194470Y-32693528D01*
X111127793Y-32714405D01*
X111060412Y-32695920D01*
X111013723Y-32643941D01*
X111002547Y-32574971D01*
X111025263Y-32517538D01*
X111061228Y-32468037D01*
X111159127Y-32275901D01*
X111225766Y-32070809D01*
X111236981Y-32000000D01*
X110207209Y-32000000D01*
X110218952Y-31979661D01*
X110259500Y-31828333D01*
X110259500Y-31671667D01*
X110218952Y-31520339D01*
X110207209Y-31500000D01*
X111236981Y-31500000D01*
X111225766Y-31429190D01*
X111159127Y-31224098D01*
X111061228Y-31031963D01*
X110934474Y-30857503D01*
X110934474Y-30857502D01*
X110888485Y-30811513D01*
X116250000Y-30811513D01*
X116250000Y-30949000D01*
X117225000Y-30949000D01*
X117725000Y-30949000D01*
X118738638Y-30949000D01*
X118805677Y-30968685D01*
X118826319Y-30985319D01*
X118853500Y-31012500D01*
X119828500Y-31012500D01*
X119828500Y-30175000D01*
X119553529Y-30175000D01*
X119553512Y-30175001D01*
X119450802Y-30185494D01*
X119284380Y-30240641D01*
X119284375Y-30240643D01*
X119135154Y-30332684D01*
X119011184Y-30456654D01*
X118919143Y-30605875D01*
X118919141Y-30605880D01*
X118904977Y-30648626D01*
X118865204Y-30706071D01*
X118800688Y-30732894D01*
X118731912Y-30720579D01*
X118680713Y-30673036D01*
X118669565Y-30648626D01*
X118634358Y-30542380D01*
X118634356Y-30542375D01*
X118542315Y-30393154D01*
X118418345Y-30269184D01*
X118269124Y-30177143D01*
X118269119Y-30177141D01*
X118102697Y-30121994D01*
X118102690Y-30121993D01*
X117999986Y-30111500D01*
X117725000Y-30111500D01*
X117725000Y-30949000D01*
X117225000Y-30949000D01*
X117225000Y-30111500D01*
X116950029Y-30111500D01*
X116950012Y-30111501D01*
X116847302Y-30121994D01*
X116680880Y-30177141D01*
X116680875Y-30177143D01*
X116531654Y-30269184D01*
X116407684Y-30393154D01*
X116315643Y-30542375D01*
X116315641Y-30542380D01*
X116260494Y-30708802D01*
X116260493Y-30708809D01*
X116250000Y-30811513D01*
X110888485Y-30811513D01*
X110781997Y-30705025D01*
X110607536Y-30578271D01*
X110415401Y-30480372D01*
X110210309Y-30413734D01*
X109997320Y-30380000D01*
X109914500Y-30380000D01*
X109914500Y-31207290D01*
X109894161Y-31195548D01*
X109742833Y-31155000D01*
X109586167Y-31155000D01*
X109434839Y-31195548D01*
X109414500Y-31207290D01*
X109414500Y-30380000D01*
X109331680Y-30380000D01*
X109118690Y-30413734D01*
X108913598Y-30480372D01*
X108721463Y-30578271D01*
X108547003Y-30705025D01*
X108547002Y-30705025D01*
X108394525Y-30857502D01*
X108394525Y-30857503D01*
X108267771Y-31031963D01*
X108169872Y-31224098D01*
X108103233Y-31429190D01*
X108092019Y-31500000D01*
X109121791Y-31500000D01*
X109110048Y-31520339D01*
X109069500Y-31671667D01*
X109069500Y-31828333D01*
X109110048Y-31979661D01*
X109121791Y-32000000D01*
X108092019Y-32000000D01*
X108103233Y-32070809D01*
X108169872Y-32275901D01*
X108267771Y-32468036D01*
X108394525Y-32642496D01*
X108394525Y-32642497D01*
X108547002Y-32794974D01*
X108718220Y-32919372D01*
X108760885Y-32974702D01*
X108766864Y-33044316D01*
X108734258Y-33106110D01*
X108718220Y-33120008D01*
X108546677Y-33244642D01*
X108394143Y-33397176D01*
X108394143Y-33397177D01*
X108394141Y-33397179D01*
X108371498Y-33428345D01*
X108267343Y-33571700D01*
X108169409Y-33763908D01*
X108102745Y-33969077D01*
X108069000Y-34182133D01*
X108069000Y-34397866D01*
X108102745Y-34610922D01*
X108102746Y-34610926D01*
X108150513Y-34757938D01*
X108169409Y-34816091D01*
X108179861Y-34836605D01*
X108267343Y-35008299D01*
X108394141Y-35182821D01*
X108394143Y-35182823D01*
X108536124Y-35324804D01*
X108569609Y-35386127D01*
X108564625Y-35455819D01*
X108522753Y-35511752D01*
X108500860Y-35524861D01*
X108500177Y-35525179D01*
X108350842Y-35617289D01*
X108226789Y-35741342D01*
X108134687Y-35890663D01*
X108134686Y-35890666D01*
X108079501Y-36057203D01*
X108079501Y-36057204D01*
X108079500Y-36057204D01*
X108069000Y-36159983D01*
X108069000Y-37500001D01*
X108069001Y-37500018D01*
X108079500Y-37602796D01*
X108079501Y-37602799D01*
X108122601Y-37732864D01*
X108134686Y-37769334D01*
X108226788Y-37918656D01*
X108350844Y-38042712D01*
X108500166Y-38134814D01*
X108666703Y-38189999D01*
X108769491Y-38200500D01*
X110559508Y-38200499D01*
X110662297Y-38189999D01*
X110828834Y-38134814D01*
X110978156Y-38042712D01*
X111102212Y-37918656D01*
X111194314Y-37769334D01*
X111249499Y-37602797D01*
X111260000Y-37500009D01*
X111259999Y-36159992D01*
X111249499Y-36057203D01*
X111194314Y-35890666D01*
X111102212Y-35741344D01*
X110978156Y-35617288D01*
X110828834Y-35525186D01*
X110828826Y-35525181D01*
X110828145Y-35524864D01*
X110827756Y-35524521D01*
X110822687Y-35521395D01*
X110823221Y-35520528D01*
X110775708Y-35478688D01*
X110756560Y-35411494D01*
X110776780Y-35344614D01*
X110792866Y-35324813D01*
X110934859Y-35182821D01*
X111061657Y-35008299D01*
X111159592Y-34816089D01*
X111201794Y-34686201D01*
X111216625Y-34655626D01*
X111222129Y-34647390D01*
X111247196Y-34586871D01*
X111274072Y-34546648D01*
X111819402Y-34001319D01*
X111880725Y-33967834D01*
X111907083Y-33965000D01*
X116267053Y-33965000D01*
X116334092Y-33984685D01*
X116372590Y-34023900D01*
X116407288Y-34080156D01*
X116531344Y-34204212D01*
X116680666Y-34296314D01*
X116847203Y-34351499D01*
X116949991Y-34362000D01*
X118000008Y-34361999D01*
X118000016Y-34361998D01*
X118000019Y-34361998D01*
X118056302Y-34356248D01*
X118102797Y-34351499D01*
X118269334Y-34296314D01*
X118418656Y-34204212D01*
X118542712Y-34080156D01*
X118577409Y-34023901D01*
X118629356Y-33977179D01*
X118682947Y-33965000D01*
X118831386Y-33965000D01*
X118898425Y-33984685D01*
X118936925Y-34023904D01*
X119000641Y-34127206D01*
X119010788Y-34143656D01*
X119134844Y-34267712D01*
X119284166Y-34359814D01*
X119450703Y-34414999D01*
X119553491Y-34425500D01*
X120603508Y-34425499D01*
X120603516Y-34425498D01*
X120603519Y-34425498D01*
X120659802Y-34419748D01*
X120706297Y-34414999D01*
X120872834Y-34359814D01*
X121022156Y-34267712D01*
X121146212Y-34143656D01*
X121180909Y-34087401D01*
X121232856Y-34040679D01*
X121286447Y-34028500D01*
X121347120Y-34028500D01*
X121414159Y-34048185D01*
X121444386Y-34075588D01*
X121448785Y-34081152D01*
X121448788Y-34081156D01*
X121572844Y-34205212D01*
X121722166Y-34297314D01*
X121888703Y-34352499D01*
X121991491Y-34363000D01*
X122563415Y-34362999D01*
X122630454Y-34382683D01*
X122651096Y-34399318D01*
X123586511Y-35334733D01*
X123615840Y-35354330D01*
X123699682Y-35410352D01*
X123699695Y-35410359D01*
X123809446Y-35455819D01*
X123825443Y-35462445D01*
X123825447Y-35462445D01*
X123825448Y-35462446D01*
X123958939Y-35489000D01*
X123958942Y-35489000D01*
X123958943Y-35489000D01*
X124095057Y-35489000D01*
X129766114Y-35489000D01*
X129833153Y-35508685D01*
X129878908Y-35561489D01*
X129888852Y-35630647D01*
X129859827Y-35694203D01*
X129853796Y-35700679D01*
X128980833Y-36573642D01*
X128118294Y-37436181D01*
X128056971Y-37469666D01*
X128030613Y-37472500D01*
X116856946Y-37472500D01*
X116856926Y-37472499D01*
X116850812Y-37472499D01*
X116702188Y-37472499D01*
X116702186Y-37472499D01*
X116580605Y-37496684D01*
X116566040Y-37499581D01*
X116556418Y-37501495D01*
X116556417Y-37501495D01*
X116499545Y-37525053D01*
X116419115Y-37558367D01*
X116419110Y-37558370D01*
X116413211Y-37562310D01*
X116413212Y-37562311D01*
X116295535Y-37640939D01*
X116260477Y-37675998D01*
X116190441Y-37746034D01*
X116190439Y-37746036D01*
X112951943Y-40984530D01*
X112951942Y-40984531D01*
X112869369Y-41108111D01*
X112857538Y-41136675D01*
X112850607Y-41153409D01*
X112825441Y-41214166D01*
X112825441Y-41214167D01*
X112812494Y-41245422D01*
X112812493Y-41245426D01*
X112783499Y-41391185D01*
X112783499Y-41545925D01*
X112783500Y-41545946D01*
X112783500Y-41800112D01*
X112763815Y-41867151D01*
X112747181Y-41887793D01*
X111108767Y-43526206D01*
X111047444Y-43559691D01*
X110977752Y-43554707D01*
X110921819Y-43512835D01*
X110903155Y-43476843D01*
X110872364Y-43382079D01*
X110842092Y-43288911D01*
X110744157Y-43096701D01*
X110617359Y-42922179D01*
X110464821Y-42769641D01*
X110293279Y-42645008D01*
X110250614Y-42589678D01*
X110244635Y-42520064D01*
X110277241Y-42458269D01*
X110293280Y-42444372D01*
X110464491Y-42319979D01*
X110464497Y-42319974D01*
X110616974Y-42167497D01*
X110616974Y-42167496D01*
X110743728Y-41993036D01*
X110841627Y-41800901D01*
X110908266Y-41595809D01*
X110919481Y-41525000D01*
X109889709Y-41525000D01*
X109901452Y-41504661D01*
X109942000Y-41353333D01*
X109942000Y-41196667D01*
X109901452Y-41045339D01*
X109889709Y-41025000D01*
X110919481Y-41025000D01*
X110908266Y-40954190D01*
X110841627Y-40749098D01*
X110743728Y-40556963D01*
X110616974Y-40382503D01*
X110616974Y-40382502D01*
X110464497Y-40230025D01*
X110290036Y-40103271D01*
X110097901Y-40005372D01*
X109892809Y-39938734D01*
X109679820Y-39905000D01*
X109597000Y-39905000D01*
X109597000Y-40732290D01*
X109576661Y-40720548D01*
X109425333Y-40680000D01*
X109268667Y-40680000D01*
X109117339Y-40720548D01*
X109097000Y-40732290D01*
X109097000Y-39905000D01*
X109014180Y-39905000D01*
X108801190Y-39938734D01*
X108596098Y-40005372D01*
X108403963Y-40103271D01*
X108229503Y-40230025D01*
X108229502Y-40230025D01*
X108077025Y-40382502D01*
X108077025Y-40382503D01*
X107950271Y-40556963D01*
X107852372Y-40749098D01*
X107785733Y-40954190D01*
X107774519Y-41025000D01*
X108804291Y-41025000D01*
X108792548Y-41045339D01*
X108752000Y-41196667D01*
X108752000Y-41353333D01*
X108792548Y-41504661D01*
X108804291Y-41525000D01*
X107774519Y-41525000D01*
X107785733Y-41595809D01*
X107852372Y-41800901D01*
X107950271Y-41993036D01*
X108077025Y-42167496D01*
X108077025Y-42167497D01*
X108229502Y-42319974D01*
X108400720Y-42444372D01*
X108443385Y-42499702D01*
X108449364Y-42569316D01*
X108416758Y-42631110D01*
X108400720Y-42645008D01*
X108229177Y-42769642D01*
X108076643Y-42922176D01*
X108076643Y-42922177D01*
X108076641Y-42922179D01*
X108035359Y-42978999D01*
X107949843Y-43096700D01*
X107851909Y-43288908D01*
X107785245Y-43494077D01*
X107751500Y-43707133D01*
X107751500Y-43922866D01*
X107785245Y-44135922D01*
X107785246Y-44135926D01*
X107851908Y-44341089D01*
X107949843Y-44533299D01*
X108076641Y-44707821D01*
X108076643Y-44707823D01*
X108218624Y-44849804D01*
X108252109Y-44911127D01*
X108247125Y-44980819D01*
X108205253Y-45036752D01*
X108183360Y-45049861D01*
X108182677Y-45050179D01*
X108033342Y-45142289D01*
X107909289Y-45266342D01*
X107817187Y-45415663D01*
X107817185Y-45415668D01*
X107802312Y-45460553D01*
X107762001Y-45582203D01*
X107762001Y-45582204D01*
X107762000Y-45582204D01*
X107751500Y-45684983D01*
X107751500Y-47025001D01*
X107751501Y-47025018D01*
X107762000Y-47127796D01*
X107762001Y-47127799D01*
X107809288Y-47270500D01*
X107817186Y-47294334D01*
X107909288Y-47443656D01*
X108033344Y-47567712D01*
X108182666Y-47659814D01*
X108349203Y-47714999D01*
X108451991Y-47725500D01*
X110242008Y-47725499D01*
X110344797Y-47714999D01*
X110511334Y-47659814D01*
X110660656Y-47567712D01*
X110784712Y-47443656D01*
X110876814Y-47294334D01*
X110931999Y-47127797D01*
X110942500Y-47025009D01*
X110942499Y-45877885D01*
X110962184Y-45810847D01*
X110978813Y-45790210D01*
X113097875Y-43671149D01*
X113159197Y-43637665D01*
X113228889Y-43642649D01*
X113284822Y-43684521D01*
X113309239Y-43749985D01*
X113308775Y-43772713D01*
X113294435Y-43899994D01*
X113294435Y-43900003D01*
X113314630Y-44079249D01*
X113314631Y-44079254D01*
X113374211Y-44249523D01*
X113456948Y-44381197D01*
X113470184Y-44402262D01*
X113597738Y-44529816D01*
X113750478Y-44625789D01*
X113920745Y-44685368D01*
X113920750Y-44685369D01*
X114099996Y-44705565D01*
X114100000Y-44705565D01*
X114100004Y-44705565D01*
X114279249Y-44685369D01*
X114279252Y-44685368D01*
X114279255Y-44685368D01*
X114449522Y-44625789D01*
X114602262Y-44529816D01*
X114729816Y-44402262D01*
X114825789Y-44249522D01*
X114825789Y-44249520D01*
X114829494Y-44243625D01*
X114830299Y-44244131D01*
X114848382Y-44218641D01*
X115338902Y-43728120D01*
X115400223Y-43694637D01*
X115469914Y-43699621D01*
X115525848Y-43741492D01*
X115542762Y-43772468D01*
X115551101Y-43794826D01*
X115551106Y-43794835D01*
X115637352Y-43910044D01*
X115637355Y-43910047D01*
X115752564Y-43996293D01*
X115752571Y-43996297D01*
X115887417Y-44046591D01*
X115887416Y-44046591D01*
X115894344Y-44047335D01*
X115947027Y-44053000D01*
X116855572Y-44052999D01*
X116915183Y-44046591D01*
X117050031Y-43996296D01*
X117151772Y-43920132D01*
X117217235Y-43895716D01*
X117226082Y-43895400D01*
X120174752Y-43895400D01*
X120241791Y-43915085D01*
X120249063Y-43920134D01*
X120350206Y-43995850D01*
X120350213Y-43995854D01*
X120484920Y-44046096D01*
X120484927Y-44046098D01*
X120544455Y-44052499D01*
X120544472Y-44052500D01*
X120748700Y-44052500D01*
X121248700Y-44052500D01*
X121452928Y-44052500D01*
X121452944Y-44052499D01*
X121512472Y-44046098D01*
X121512479Y-44046096D01*
X121647186Y-43995854D01*
X121647193Y-43995850D01*
X121762287Y-43909690D01*
X121762290Y-43909687D01*
X121848450Y-43794593D01*
X121848454Y-43794586D01*
X121898696Y-43659879D01*
X121898698Y-43659872D01*
X121905099Y-43600344D01*
X121905100Y-43600327D01*
X121905100Y-42850000D01*
X121248700Y-42850000D01*
X121248700Y-44052500D01*
X120748700Y-44052500D01*
X120748700Y-42350000D01*
X121248700Y-42350000D01*
X121905100Y-42350000D01*
X121905100Y-41599672D01*
X121905099Y-41599655D01*
X121898698Y-41540127D01*
X121898696Y-41540120D01*
X121848454Y-41405413D01*
X121848450Y-41405406D01*
X121762290Y-41290312D01*
X121762287Y-41290309D01*
X121647193Y-41204149D01*
X121647186Y-41204145D01*
X121512479Y-41153903D01*
X121512472Y-41153901D01*
X121452944Y-41147500D01*
X121248700Y-41147500D01*
X121248700Y-42350000D01*
X120748700Y-42350000D01*
X120748700Y-41147500D01*
X120544455Y-41147500D01*
X120484927Y-41153901D01*
X120484920Y-41153903D01*
X120350213Y-41204145D01*
X120350206Y-41204149D01*
X120249063Y-41279866D01*
X120183599Y-41304284D01*
X120174752Y-41304600D01*
X117226082Y-41304600D01*
X117159043Y-41284915D01*
X117151778Y-41279871D01*
X117064008Y-41214167D01*
X117050030Y-41203703D01*
X117050028Y-41203702D01*
X116915182Y-41153408D01*
X116915183Y-41153408D01*
X116855583Y-41147001D01*
X116855581Y-41147000D01*
X116855573Y-41147000D01*
X116855564Y-41147000D01*
X115947029Y-41147000D01*
X115947023Y-41147001D01*
X115887416Y-41153408D01*
X115752571Y-41203702D01*
X115752564Y-41203706D01*
X115637355Y-41289952D01*
X115637352Y-41289955D01*
X115551106Y-41405164D01*
X115551102Y-41405171D01*
X115500808Y-41540017D01*
X115494401Y-41599616D01*
X115494400Y-41599635D01*
X115494400Y-41721499D01*
X115474715Y-41788538D01*
X115421911Y-41834293D01*
X115370400Y-41845499D01*
X115325686Y-41845499D01*
X115216839Y-41867151D01*
X115204105Y-41869684D01*
X115189540Y-41872581D01*
X115179918Y-41874495D01*
X115179917Y-41874495D01*
X115123045Y-41898053D01*
X115042617Y-41931366D01*
X115042603Y-41931374D01*
X115021504Y-41945473D01*
X115019882Y-41946557D01*
X115002387Y-41958247D01*
X114919033Y-42013941D01*
X114882560Y-42050415D01*
X114813941Y-42119034D01*
X114813939Y-42119036D01*
X114481687Y-42451287D01*
X114420364Y-42484772D01*
X114350672Y-42479788D01*
X114294739Y-42437916D01*
X114270322Y-42372452D01*
X114272389Y-42339413D01*
X114274856Y-42327014D01*
X114287708Y-42262408D01*
X114292501Y-42238314D01*
X114292501Y-42084578D01*
X114292500Y-42084552D01*
X114292500Y-41829386D01*
X114312185Y-41762347D01*
X114328819Y-41741705D01*
X117052705Y-39017819D01*
X117114028Y-38984334D01*
X117140386Y-38981500D01*
X127800114Y-38981500D01*
X127867153Y-39001185D01*
X127912908Y-39053989D01*
X127922852Y-39123147D01*
X127893827Y-39186703D01*
X127887795Y-39193180D01*
X125075029Y-42005946D01*
X122271794Y-44809181D01*
X122210471Y-44842666D01*
X122184113Y-44845500D01*
X116538846Y-44845500D01*
X116538826Y-44845499D01*
X116532712Y-44845499D01*
X116384088Y-44845499D01*
X116384086Y-44845499D01*
X116262505Y-44869684D01*
X116238320Y-44874495D01*
X116101008Y-44931371D01*
X115977435Y-45013939D01*
X115977434Y-45013940D01*
X115941514Y-45049861D01*
X115872341Y-45119034D01*
X115872339Y-45119036D01*
X111046943Y-49944430D01*
X111046942Y-49944431D01*
X110964372Y-50068007D01*
X110964368Y-50068014D01*
X110950183Y-50102262D01*
X110950182Y-50102265D01*
X110937739Y-50132303D01*
X110893897Y-50186705D01*
X110827602Y-50208768D01*
X110759903Y-50191487D01*
X110712294Y-50140349D01*
X110705248Y-50123165D01*
X110651127Y-49956600D01*
X110553228Y-49764463D01*
X110426474Y-49590003D01*
X110426474Y-49590002D01*
X110273997Y-49437525D01*
X110099536Y-49310771D01*
X109907401Y-49212872D01*
X109702309Y-49146234D01*
X109489320Y-49112500D01*
X109406500Y-49112500D01*
X109406500Y-49939790D01*
X109386161Y-49928048D01*
X109234833Y-49887500D01*
X109078167Y-49887500D01*
X108926839Y-49928048D01*
X108906500Y-49939790D01*
X108906500Y-49112500D01*
X108823680Y-49112500D01*
X108610690Y-49146234D01*
X108405598Y-49212872D01*
X108213463Y-49310771D01*
X108039003Y-49437525D01*
X108039002Y-49437525D01*
X107886525Y-49590002D01*
X107886525Y-49590003D01*
X107759771Y-49764463D01*
X107661872Y-49956598D01*
X107595233Y-50161690D01*
X107584019Y-50232500D01*
X108613791Y-50232500D01*
X108602048Y-50252839D01*
X108561500Y-50404167D01*
X108561500Y-50560833D01*
X108602048Y-50712161D01*
X108613791Y-50732500D01*
X107584019Y-50732500D01*
X107595233Y-50803309D01*
X107661872Y-51008401D01*
X107759771Y-51200536D01*
X107886525Y-51374996D01*
X107886525Y-51374997D01*
X108039002Y-51527474D01*
X108210220Y-51651872D01*
X108252885Y-51707202D01*
X108258864Y-51776816D01*
X108226258Y-51838610D01*
X108210220Y-51852508D01*
X108038677Y-51977142D01*
X107886143Y-52129676D01*
X107886143Y-52129677D01*
X107886141Y-52129679D01*
X107837230Y-52196999D01*
X107759343Y-52304200D01*
X107661409Y-52496408D01*
X107594745Y-52701577D01*
X107561000Y-52914633D01*
X107561000Y-53130366D01*
X107594745Y-53343422D01*
X107594746Y-53343426D01*
X107661408Y-53548589D01*
X107759343Y-53740799D01*
X107886141Y-53915321D01*
X107886143Y-53915323D01*
X108028124Y-54057304D01*
X108061609Y-54118627D01*
X108056625Y-54188319D01*
X108014753Y-54244252D01*
X107992860Y-54257361D01*
X107992177Y-54257679D01*
X107842842Y-54349789D01*
X107718789Y-54473842D01*
X107626687Y-54623163D01*
X107626685Y-54623168D01*
X107610659Y-54671533D01*
X107571501Y-54789703D01*
X107571501Y-54789704D01*
X107571500Y-54789704D01*
X107561000Y-54892483D01*
X107561000Y-56232501D01*
X107561001Y-56232518D01*
X107571500Y-56335296D01*
X107571501Y-56335299D01*
X107619542Y-56480274D01*
X107626686Y-56501834D01*
X107718788Y-56651156D01*
X107842844Y-56775212D01*
X107992166Y-56867314D01*
X108158703Y-56922499D01*
X108261491Y-56933000D01*
X110051508Y-56932999D01*
X110154297Y-56922499D01*
X110320834Y-56867314D01*
X110470156Y-56775212D01*
X110594212Y-56651156D01*
X110686314Y-56501834D01*
X110741499Y-56335297D01*
X110752000Y-56232509D01*
X110751999Y-55085385D01*
X110771684Y-55018347D01*
X110788313Y-54997710D01*
X111374819Y-54411205D01*
X111436142Y-54377720D01*
X111505834Y-54382704D01*
X111561767Y-54424576D01*
X111586184Y-54490040D01*
X111586500Y-54498886D01*
X111586500Y-61158113D01*
X111566815Y-61225152D01*
X111550181Y-61245794D01*
X110854767Y-61941207D01*
X110793444Y-61974692D01*
X110723752Y-61969708D01*
X110667819Y-61927836D01*
X110649156Y-61891847D01*
X110588092Y-61703911D01*
X110490157Y-61511701D01*
X110363359Y-61337179D01*
X110210821Y-61184641D01*
X110039279Y-61060008D01*
X109996614Y-61004678D01*
X109990635Y-60935064D01*
X110023241Y-60873269D01*
X110039280Y-60859372D01*
X110210491Y-60734979D01*
X110210497Y-60734974D01*
X110362974Y-60582497D01*
X110362974Y-60582496D01*
X110489728Y-60408036D01*
X110587627Y-60215901D01*
X110654266Y-60010809D01*
X110665481Y-59940000D01*
X109635709Y-59940000D01*
X109647452Y-59919661D01*
X109688000Y-59768333D01*
X109688000Y-59611667D01*
X109647452Y-59460339D01*
X109635709Y-59440000D01*
X110665481Y-59440000D01*
X110654266Y-59369190D01*
X110587627Y-59164098D01*
X110489728Y-58971963D01*
X110362974Y-58797503D01*
X110362974Y-58797502D01*
X110210497Y-58645025D01*
X110036036Y-58518271D01*
X109843901Y-58420372D01*
X109638809Y-58353734D01*
X109425820Y-58320000D01*
X109343000Y-58320000D01*
X109343000Y-59147290D01*
X109322661Y-59135548D01*
X109171333Y-59095000D01*
X109014667Y-59095000D01*
X108863339Y-59135548D01*
X108843000Y-59147290D01*
X108843000Y-58320000D01*
X108760180Y-58320000D01*
X108547190Y-58353734D01*
X108342098Y-58420372D01*
X108149963Y-58518271D01*
X107975503Y-58645025D01*
X107975502Y-58645025D01*
X107823025Y-58797502D01*
X107823025Y-58797503D01*
X107696271Y-58971963D01*
X107598372Y-59164098D01*
X107531733Y-59369190D01*
X107520519Y-59440000D01*
X108550291Y-59440000D01*
X108538548Y-59460339D01*
X108498000Y-59611667D01*
X108498000Y-59768333D01*
X108538548Y-59919661D01*
X108550291Y-59940000D01*
X107520519Y-59940000D01*
X107531733Y-60010809D01*
X107598372Y-60215901D01*
X107696271Y-60408036D01*
X107823025Y-60582496D01*
X107823025Y-60582497D01*
X107975502Y-60734974D01*
X108146720Y-60859372D01*
X108189385Y-60914702D01*
X108195364Y-60984316D01*
X108162758Y-61046110D01*
X108146720Y-61060008D01*
X107975177Y-61184642D01*
X107822642Y-61337177D01*
X107712151Y-61489254D01*
X107680725Y-61519470D01*
X107642073Y-61545296D01*
X107519296Y-61668073D01*
X107519293Y-61668077D01*
X107422828Y-61812446D01*
X107422821Y-61812459D01*
X107356377Y-61972871D01*
X107356374Y-61972881D01*
X107322500Y-62143177D01*
X107322500Y-62143180D01*
X107322500Y-62316820D01*
X107322500Y-62316822D01*
X107322499Y-62316822D01*
X107356374Y-62487118D01*
X107356377Y-62487128D01*
X107422821Y-62647540D01*
X107422828Y-62647553D01*
X107519293Y-62791922D01*
X107519296Y-62791926D01*
X107642072Y-62914702D01*
X107642075Y-62914704D01*
X107642077Y-62914706D01*
X107680726Y-62940530D01*
X107712152Y-62970746D01*
X107822638Y-63122817D01*
X107822643Y-63122823D01*
X107964624Y-63264804D01*
X107998109Y-63326127D01*
X107993125Y-63395819D01*
X107951253Y-63451752D01*
X107929360Y-63464861D01*
X107928677Y-63465179D01*
X107779342Y-63557289D01*
X107655289Y-63681342D01*
X107563187Y-63830663D01*
X107563185Y-63830668D01*
X107551012Y-63867404D01*
X107508001Y-63997203D01*
X107508001Y-63997204D01*
X107508000Y-63997204D01*
X107497500Y-64099983D01*
X107497500Y-65440001D01*
X107497501Y-65440018D01*
X107508000Y-65542796D01*
X107508001Y-65542799D01*
X107559484Y-65698162D01*
X107563186Y-65709334D01*
X107655288Y-65858656D01*
X107779344Y-65982712D01*
X107928666Y-66074814D01*
X108095203Y-66129999D01*
X108197991Y-66140500D01*
X109988008Y-66140499D01*
X110090797Y-66129999D01*
X110257334Y-66074814D01*
X110406656Y-65982712D01*
X110530712Y-65858656D01*
X110622814Y-65709334D01*
X110677999Y-65542797D01*
X110688500Y-65440009D01*
X110688499Y-64292885D01*
X110708184Y-64225847D01*
X110724813Y-64205210D01*
X112821963Y-62108060D01*
X112821966Y-62108059D01*
X112927059Y-62002966D01*
X112955379Y-61960581D01*
X113008987Y-61915778D01*
X113078311Y-61907068D01*
X113141340Y-61937221D01*
X113146161Y-61941791D01*
X113230073Y-62025703D01*
X113230077Y-62025706D01*
X113340681Y-62099610D01*
X113385486Y-62153222D01*
X113394193Y-62222547D01*
X113364038Y-62285575D01*
X113359471Y-62290393D01*
X112253443Y-63396420D01*
X112253442Y-63396421D01*
X112170868Y-63520002D01*
X112137552Y-63600437D01*
X112124504Y-63631939D01*
X112124503Y-63631942D01*
X112113995Y-63657309D01*
X112113993Y-63657315D01*
X112084999Y-63803075D01*
X112084999Y-63957815D01*
X112085000Y-63957836D01*
X112085000Y-67765316D01*
X112113993Y-67911072D01*
X112113996Y-67911084D01*
X112139041Y-67971548D01*
X112146510Y-68041017D01*
X112115234Y-68103496D01*
X112055145Y-68139148D01*
X112024480Y-68143000D01*
X111610529Y-68143000D01*
X111610523Y-68143001D01*
X111550916Y-68149408D01*
X111416071Y-68199702D01*
X111416064Y-68199706D01*
X111300855Y-68285952D01*
X111300852Y-68285955D01*
X111214606Y-68401164D01*
X111214602Y-68401171D01*
X111164308Y-68536017D01*
X111160175Y-68574464D01*
X111157901Y-68595623D01*
X111157900Y-68595628D01*
X111157761Y-68598207D01*
X111157561Y-68598771D01*
X111157545Y-68598928D01*
X111157507Y-68598924D01*
X111134508Y-68664094D01*
X111079325Y-68706950D01*
X111009733Y-68713168D01*
X110947826Y-68680775D01*
X110946259Y-68679235D01*
X110865952Y-68598928D01*
X110648385Y-68381360D01*
X110630298Y-68355868D01*
X110629494Y-68356374D01*
X110550038Y-68229921D01*
X110529816Y-68197738D01*
X110402262Y-68070184D01*
X110367577Y-68048390D01*
X110249523Y-67974211D01*
X110079254Y-67914631D01*
X110079249Y-67914630D01*
X109900004Y-67894435D01*
X109899996Y-67894435D01*
X109720750Y-67914630D01*
X109720745Y-67914631D01*
X109550476Y-67974211D01*
X109397737Y-68070184D01*
X109270184Y-68197737D01*
X109174211Y-68350476D01*
X109114631Y-68520745D01*
X109114630Y-68520750D01*
X109094435Y-68699996D01*
X109094435Y-68700003D01*
X109114630Y-68879249D01*
X109114631Y-68879254D01*
X109174211Y-69049523D01*
X109235356Y-69146834D01*
X109270184Y-69202262D01*
X109397738Y-69329816D01*
X109483651Y-69383799D01*
X109556374Y-69429494D01*
X109555868Y-69430298D01*
X109581360Y-69448385D01*
X109844465Y-69711490D01*
X109951295Y-69818319D01*
X109984780Y-69879642D01*
X109979796Y-69949333D01*
X109937925Y-70005267D01*
X109872460Y-70029684D01*
X109863614Y-70030000D01*
X103687213Y-70030000D01*
X103620174Y-70010315D01*
X103574419Y-69957511D01*
X103564475Y-69888353D01*
X103565596Y-69881809D01*
X103574210Y-69838500D01*
X102856237Y-69838500D01*
X102875000Y-69793201D01*
X102875000Y-69383799D01*
X102856237Y-69338500D01*
X103574210Y-69338500D01*
X103574210Y-69338499D01*
X103537533Y-69154110D01*
X103537531Y-69154102D01*
X103464035Y-68976666D01*
X103464030Y-68976657D01*
X103357332Y-68816973D01*
X103357329Y-68816969D01*
X103221530Y-68681170D01*
X103221526Y-68681167D01*
X103061842Y-68574469D01*
X103061833Y-68574464D01*
X102884397Y-68500968D01*
X102884389Y-68500966D01*
X102850000Y-68494125D01*
X102850000Y-69323443D01*
X102833134Y-69282725D01*
X102755775Y-69205366D01*
X102654701Y-69163500D01*
X102545299Y-69163500D01*
X102444225Y-69205366D01*
X102366866Y-69282725D01*
X102350000Y-69323443D01*
X102350000Y-68494125D01*
X102315610Y-68500966D01*
X102315602Y-68500968D01*
X102138166Y-68574464D01*
X102138157Y-68574469D01*
X101978473Y-68681167D01*
X101978469Y-68681170D01*
X101842670Y-68816969D01*
X101842667Y-68816973D01*
X101735969Y-68976657D01*
X101735964Y-68976666D01*
X101662468Y-69154102D01*
X101662466Y-69154110D01*
X101625789Y-69338499D01*
X101625790Y-69338500D01*
X102343763Y-69338500D01*
X102325000Y-69383799D01*
X102325000Y-69793201D01*
X102343763Y-69838500D01*
X101625789Y-69838500D01*
X101662466Y-70022889D01*
X101662470Y-70022903D01*
X101684791Y-70076791D01*
X101692260Y-70146260D01*
X101660984Y-70208739D01*
X101645718Y-70222618D01*
X101596720Y-70260215D01*
X101500463Y-70385660D01*
X101439956Y-70531737D01*
X101439955Y-70531739D01*
X101424500Y-70649138D01*
X101174999Y-70649138D01*
X101174999Y-70538528D01*
X101174998Y-70538513D01*
X101164505Y-70435802D01*
X101109358Y-70269380D01*
X101109353Y-70269369D01*
X101022523Y-70128597D01*
X101004082Y-70061205D01*
X101022523Y-69998403D01*
X101109353Y-69857630D01*
X101109358Y-69857619D01*
X101164505Y-69691197D01*
X101164506Y-69691190D01*
X101174999Y-69588486D01*
X101175000Y-69588473D01*
X101175000Y-69313500D01*
X100150000Y-69313500D01*
X100150000Y-70838500D01*
X99650000Y-70838500D01*
X99650000Y-69187500D01*
X99669685Y-69120461D01*
X99722489Y-69074706D01*
X99774000Y-69063500D01*
X99900000Y-69063500D01*
X99900000Y-68838500D01*
X100274728Y-68838500D01*
X100366614Y-68800440D01*
X100436940Y-68730114D01*
X100475000Y-68638228D01*
X100475000Y-68538772D01*
X100436940Y-68446886D01*
X100366614Y-68376560D01*
X100274728Y-68338500D01*
X101143784Y-68338500D01*
X101138683Y-68312855D01*
X101138682Y-68312850D01*
X101067451Y-68140881D01*
X101067444Y-68140868D01*
X100964029Y-67986098D01*
X100964026Y-67986094D01*
X100832405Y-67854473D01*
X100832401Y-67854470D01*
X100677631Y-67751055D01*
X100677622Y-67751050D01*
X100505646Y-67679816D01*
X100505638Y-67679814D01*
X100323077Y-67643500D01*
X100150000Y-67643500D01*
X100150000Y-68338500D01*
X99650000Y-68338500D01*
X99650000Y-67643500D01*
X99476923Y-67643500D01*
X99294361Y-67679814D01*
X99294353Y-67679816D01*
X99122377Y-67751050D01*
X99122368Y-67751055D01*
X98967598Y-67854470D01*
X98967594Y-67854473D01*
X98937180Y-67884888D01*
X98875857Y-67918373D01*
X98806165Y-67913389D01*
X98750232Y-67871517D01*
X98725815Y-67806053D01*
X98725499Y-67797207D01*
X98725499Y-29461250D01*
X98745184Y-29394211D01*
X98797988Y-29348456D01*
X98849597Y-29337251D01*
X100143320Y-29338344D01*
G37*
G04 #@! TD.AperFunction*
M02*
