M48
; DRILL file {KiCad 8.0.8} date 2025-03-03T11:47:23-0600
; FORMAT={2:4/ absolute / inch / suppress leading zeros}
; #@! TF.CreationDate,2025-03-03T11:47:23-06:00
; #@! TF.GenerationSoftware,Kicad,Pcbnew,8.0.8
; #@! TF.FileFunction,Plated,1,2,PTH
FMAT,2
INCH,TZ
; #@! TA.AperFunction,Plated,PTH,ViaDrill
T1C0.0118
; #@! TA.AperFunction,Plated,PTH,ComponentDrill
T2C0.0118
; #@! TA.AperFunction,Plated,PTH,ComponentDrill
T3C0.0197
; #@! TA.AperFunction,Plated,PTH,ComponentDrill
T4C0.0217
; #@! TA.AperFunction,Plated,PTH,ComponentDrill
T5C0.0394
; #@! TA.AperFunction,Plated,PTH,ComponentDrill
T6C0.0433
; #@! TA.AperFunction,Plated,PTH,ComponentDrill
T7C0.0469
; #@! TA.AperFunction,Plated,PTH,ComponentDrill
T8C0.0669
%
G90
G05
T1
X43268Y-27047
X44764Y-20906
X44764Y-23150
X44800Y-24150
X44921Y-17283
X45512Y-23465
X46181Y-23386
X46496Y-25591
X46496Y-27402
X47402Y-19213
X47953Y-30748
X48465Y-25079
X48590Y-28038
X48780Y-26772
X49291Y-24921
X49444Y-21794
X50630Y-21772
X50669Y-31969
X50866Y-17165
X52638Y-24331
X53307Y-30118
X53819Y-17795
X54409Y-27480
X56417Y-27480
X56575Y-23976
X56575Y-26654
X56659Y-25900
X58307Y-25079
X59449Y-21811
X59843Y-25394
X64055Y-19528
T2
X54573Y-14923
X54573Y-15474
X54848Y-14648
X54848Y-15199
X54848Y-15750
X55124Y-14923
X55124Y-15474
X55399Y-14648
X55399Y-15199
X55399Y-15750
X55675Y-14923
X55675Y-15474
T5
X48269Y-32700
X52600Y-32700
X64975Y-18550
X64975Y-19550
X64975Y-20550
X64975Y-21550
X64975Y-22550
X64975Y-23550
X64975Y-24550
X64975Y-25550
X64975Y-26550
X64975Y-27550
T6
X46228Y-30400
X46228Y-31400
X46228Y-32400
T7
X42575Y-32150
X42950Y-23500
X42950Y-24500
X42950Y-25500
X42975Y-19875
X42975Y-20875
X42975Y-21875
X43050Y-16250
X43050Y-17250
X43050Y-18250
X43175Y-12500
X43175Y-13500
X43175Y-14500
X43575Y-32150
X44575Y-32150
X63100Y-31100
X64100Y-31100
X64375Y-13200
X64375Y-14200
X64375Y-16000
X64375Y-17000
X65100Y-31100
T8
X49450Y-28763
X51419Y-28763
T3
G00X39459Y-27003
M15
G01X39203Y-27003
M16
G05
G00X39459Y-29759
M15
G01X39203Y-29759
M16
G05
T4
G00X40394Y-27338
M15
G01X40394Y-27456
M16
G05
G00X40394Y-29306
M15
G01X40394Y-29425
M16
G05
M30
