G04 #@! TF.GenerationSoftware,KiCad,Pcbnew,8.0.8*
G04 #@! TF.CreationDate,2025-03-03T11:47:27-06:00*
G04 #@! TF.ProjectId,Group_29_Handheld,47726f75-705f-4323-995f-48616e646865,rev?*
G04 #@! TF.SameCoordinates,Original*
G04 #@! TF.FileFunction,Paste,Top*
G04 #@! TF.FilePolarity,Positive*
%FSLAX46Y46*%
G04 Gerber Fmt 4.6, Leading zero omitted, Abs format (unit mm)*
G04 Created by KiCad (PCBNEW 8.0.8) date 2025-03-03 11:47:27*
%MOMM*%
%LPD*%
G01*
G04 APERTURE LIST*
G04 Aperture macros list*
%AMRoundRect*
0 Rectangle with rounded corners*
0 $1 Rounding radius*
0 $2 $3 $4 $5 $6 $7 $8 $9 X,Y pos of 4 corners*
0 Add a 4 corners polygon primitive as box body*
4,1,4,$2,$3,$4,$5,$6,$7,$8,$9,$2,$3,0*
0 Add four circle primitives for the rounded corners*
1,1,$1+$1,$2,$3*
1,1,$1+$1,$4,$5*
1,1,$1+$1,$6,$7*
1,1,$1+$1,$8,$9*
0 Add four rect primitives between the rounded corners*
20,1,$1+$1,$2,$3,$4,$5,0*
20,1,$1+$1,$4,$5,$6,$7,0*
20,1,$1+$1,$6,$7,$8,$9,0*
20,1,$1+$1,$8,$9,$2,$3,0*%
G04 Aperture macros list end*
%ADD10RoundRect,0.162500X0.162500X-0.837500X0.162500X0.837500X-0.162500X0.837500X-0.162500X-0.837500X0*%
%ADD11RoundRect,0.162500X-0.837500X-0.162500X0.837500X-0.162500X0.837500X0.162500X-0.837500X0.162500X0*%
%ADD12RoundRect,0.250000X-0.450000X0.350000X-0.450000X-0.350000X0.450000X-0.350000X0.450000X0.350000X0*%
%ADD13RoundRect,0.175000X0.175000X-0.250000X0.175000X0.250000X-0.175000X0.250000X-0.175000X-0.250000X0*%
%ADD14RoundRect,0.150000X0.150000X-0.275000X0.150000X0.275000X-0.150000X0.275000X-0.150000X-0.275000X0*%
%ADD15RoundRect,0.250000X-0.350000X-0.450000X0.350000X-0.450000X0.350000X0.450000X-0.350000X0.450000X0*%
%ADD16RoundRect,0.250000X0.475000X-0.337500X0.475000X0.337500X-0.475000X0.337500X-0.475000X-0.337500X0*%
%ADD17RoundRect,0.250000X-0.337500X-0.475000X0.337500X-0.475000X0.337500X0.475000X-0.337500X0.475000X0*%
%ADD18R,2.413000X5.334000*%
%ADD19R,0.812800X1.905000*%
%ADD20RoundRect,0.250000X0.337500X0.475000X-0.337500X0.475000X-0.337500X-0.475000X0.337500X-0.475000X0*%
%ADD21RoundRect,0.250000X-0.475000X0.337500X-0.475000X-0.337500X0.475000X-0.337500X0.475000X0.337500X0*%
%ADD22O,1.550000X0.890000*%
%ADD23O,0.950000X1.250000*%
%ADD24RoundRect,0.100000X-0.575000X0.100000X-0.575000X-0.100000X0.575000X-0.100000X0.575000X0.100000X0*%
%ADD25RoundRect,0.250000X-0.525000X0.475000X-0.525000X-0.475000X0.525000X-0.475000X0.525000X0.475000X0*%
%ADD26RoundRect,0.250000X-0.525000X0.500000X-0.525000X-0.500000X0.525000X-0.500000X0.525000X0.500000X0*%
%ADD27R,1.905000X0.812800*%
%ADD28RoundRect,0.250000X0.350000X0.450000X-0.350000X0.450000X-0.350000X-0.450000X0.350000X-0.450000X0*%
%ADD29R,0.900000X0.900000*%
%ADD30R,1.500000X0.900000*%
%ADD31R,0.900000X1.500000*%
G04 APERTURE END LIST*
D10*
X144970501Y-68870999D03*
X145920501Y-68870999D03*
X146870501Y-68870999D03*
X146870501Y-65450999D03*
X145920501Y-65450999D03*
X144970501Y-65450999D03*
D11*
X122813500Y-60137000D03*
X122813500Y-61087000D03*
X122813500Y-62037000D03*
X126233500Y-62037000D03*
X126233500Y-61087000D03*
X126233500Y-60137000D03*
D12*
X122491500Y-31262500D03*
X122491500Y-33262500D03*
X159004000Y-41878500D03*
X159004000Y-43878500D03*
D13*
X140970000Y-79369000D03*
D14*
X140970000Y-75819000D03*
D15*
X152162000Y-79883000D03*
X154162000Y-79883000D03*
D12*
X158940500Y-34576000D03*
X158940500Y-36576000D03*
D15*
X125200000Y-53400000D03*
X127200000Y-53400000D03*
D16*
X125158500Y-33337500D03*
X125158500Y-31262500D03*
D17*
X129052500Y-68135500D03*
X131127500Y-68135500D03*
D18*
X129794000Y-59563000D03*
X137033000Y-59563000D03*
D16*
X120078500Y-33337500D03*
X120078500Y-31262500D03*
D13*
X148780500Y-79375000D03*
D14*
X148780500Y-75825000D03*
D17*
X129052500Y-65786000D03*
X131127500Y-65786000D03*
D15*
X152146000Y-81978500D03*
X154146000Y-81978500D03*
D19*
X114501300Y-51300000D03*
X119098700Y-51300000D03*
D20*
X146937500Y-72300000D03*
X144862500Y-72300000D03*
D12*
X151191001Y-66367499D03*
X151191001Y-68367499D03*
D19*
X116662200Y-69596000D03*
X112064800Y-69596000D03*
D13*
X144653000Y-79432500D03*
D14*
X144653000Y-75882500D03*
D21*
X156017001Y-66419499D03*
X156017001Y-68494499D03*
D16*
X140205501Y-67965999D03*
X140205501Y-65890999D03*
D18*
X154495500Y-59626500D03*
X147256500Y-59626500D03*
D19*
X116401300Y-42600000D03*
X120998700Y-42600000D03*
D15*
X129667000Y-53530500D03*
X131667000Y-53530500D03*
X152114500Y-84137500D03*
X154114500Y-84137500D03*
D16*
X117475000Y-33274000D03*
X117475000Y-31199000D03*
D19*
X113701300Y-56100000D03*
X118298700Y-56100000D03*
D22*
X99900000Y-68588500D03*
D23*
X102600000Y-69588500D03*
X102600000Y-74588500D03*
D22*
X99900000Y-75588500D03*
D24*
X102600000Y-70788500D03*
X102600000Y-71438500D03*
X102600000Y-72088500D03*
X102600000Y-72738500D03*
X102600000Y-73388500D03*
D25*
X99900000Y-69063500D03*
D26*
X99900000Y-71088500D03*
X99900000Y-73088500D03*
D25*
X99900000Y-75113500D03*
D15*
X152178000Y-77724000D03*
X154178000Y-77724000D03*
D17*
X124000000Y-65913000D03*
X126075000Y-65913000D03*
D16*
X127508000Y-33337500D03*
X127508000Y-31262500D03*
D27*
X116014500Y-61899800D03*
X116014500Y-66497200D03*
D28*
X161100000Y-66300000D03*
X159100000Y-66300000D03*
D29*
X138614500Y-37205000D03*
X138614500Y-38605000D03*
X138614500Y-40005000D03*
X140014500Y-37205000D03*
X140014500Y-38605000D03*
X140014500Y-40005000D03*
X141414500Y-37205000D03*
X141414500Y-38605000D03*
X141414500Y-40005000D03*
D30*
X132764500Y-30885000D03*
X132764500Y-32155000D03*
X132764500Y-33425000D03*
X132764500Y-34695000D03*
X132764500Y-35965000D03*
X132764500Y-37235000D03*
X132764500Y-38505000D03*
X132764500Y-39775000D03*
X132764500Y-41045000D03*
X132764500Y-42315000D03*
X132764500Y-43585000D03*
X132764500Y-44855000D03*
X132764500Y-46125000D03*
X132764500Y-47395000D03*
D31*
X134529500Y-48645000D03*
X135799500Y-48645000D03*
X137069500Y-48645000D03*
X138339500Y-48645000D03*
X139609500Y-48645000D03*
X140879500Y-48645000D03*
X142149500Y-48645000D03*
X143419500Y-48645000D03*
X144689500Y-48645000D03*
X145959500Y-48645000D03*
X147229500Y-48645000D03*
X148499500Y-48645000D03*
D30*
X150264500Y-47395000D03*
X150264500Y-46125000D03*
X150264500Y-44855000D03*
X150264500Y-43585000D03*
X150264500Y-42315000D03*
X150264500Y-41045000D03*
X150264500Y-39775000D03*
X150264500Y-38505000D03*
X150264500Y-37235000D03*
X150264500Y-35965000D03*
X150264500Y-34695000D03*
X150264500Y-33425000D03*
X150264500Y-32155000D03*
X150264500Y-30885000D03*
D12*
X153604001Y-66430999D03*
X153604001Y-68430999D03*
D13*
X137160000Y-79305500D03*
D14*
X137160000Y-75755500D03*
D17*
X134725000Y-53594000D03*
X136800000Y-53594000D03*
M02*
