G04 #@! TF.GenerationSoftware,KiCad,Pcbnew,8.0.8*
G04 #@! TF.CreationDate,2025-03-03T11:47:27-06:00*
G04 #@! TF.ProjectId,Group_29_Handheld,47726f75-705f-4323-995f-48616e646865,rev?*
G04 #@! TF.SameCoordinates,Original*
G04 #@! TF.FileFunction,Soldermask,Top*
G04 #@! TF.FilePolarity,Negative*
%FSLAX46Y46*%
G04 Gerber Fmt 4.6, Leading zero omitted, Abs format (unit mm)*
G04 Created by KiCad (PCBNEW 8.0.8) date 2025-03-03 11:47:27*
%MOMM*%
%LPD*%
G01*
G04 APERTURE LIST*
G04 Aperture macros list*
%AMRoundRect*
0 Rectangle with rounded corners*
0 $1 Rounding radius*
0 $2 $3 $4 $5 $6 $7 $8 $9 X,Y pos of 4 corners*
0 Add a 4 corners polygon primitive as box body*
4,1,4,$2,$3,$4,$5,$6,$7,$8,$9,$2,$3,0*
0 Add four circle primitives for the rounded corners*
1,1,$1+$1,$2,$3*
1,1,$1+$1,$4,$5*
1,1,$1+$1,$6,$7*
1,1,$1+$1,$8,$9*
0 Add four rect primitives between the rounded corners*
20,1,$1+$1,$2,$3,$4,$5,0*
20,1,$1+$1,$4,$5,$6,$7,0*
20,1,$1+$1,$6,$7,$8,$9,0*
20,1,$1+$1,$8,$9,$2,$3,0*%
G04 Aperture macros list end*
%ADD10RoundRect,0.162500X0.162500X-0.837500X0.162500X0.837500X-0.162500X0.837500X-0.162500X-0.837500X0*%
%ADD11RoundRect,0.162500X-0.837500X-0.162500X0.837500X-0.162500X0.837500X0.162500X-0.837500X0.162500X0*%
%ADD12RoundRect,0.250000X-0.450000X0.350000X-0.450000X-0.350000X0.450000X-0.350000X0.450000X0.350000X0*%
%ADD13RoundRect,0.175000X0.175000X-0.250000X0.175000X0.250000X-0.175000X0.250000X-0.175000X-0.250000X0*%
%ADD14RoundRect,0.150000X0.150000X-0.275000X0.150000X0.275000X-0.150000X0.275000X-0.150000X-0.275000X0*%
%ADD15RoundRect,0.250000X-0.350000X-0.450000X0.350000X-0.450000X0.350000X0.450000X-0.350000X0.450000X0*%
%ADD16RoundRect,0.250000X0.845000X-0.620000X0.845000X0.620000X-0.845000X0.620000X-0.845000X-0.620000X0*%
%ADD17O,2.190000X1.740000*%
%ADD18C,3.200000*%
%ADD19RoundRect,0.250000X0.475000X-0.337500X0.475000X0.337500X-0.475000X0.337500X-0.475000X-0.337500X0*%
%ADD20RoundRect,0.250000X-0.845000X0.620000X-0.845000X-0.620000X0.845000X-0.620000X0.845000X0.620000X0*%
%ADD21RoundRect,0.250000X-0.337500X-0.475000X0.337500X-0.475000X0.337500X0.475000X-0.337500X0.475000X0*%
%ADD22R,2.413000X5.334000*%
%ADD23RoundRect,0.250000X0.620000X0.845000X-0.620000X0.845000X-0.620000X-0.845000X0.620000X-0.845000X0*%
%ADD24O,1.740000X2.190000*%
%ADD25R,0.812800X1.905000*%
%ADD26RoundRect,0.250000X0.337500X0.475000X-0.337500X0.475000X-0.337500X-0.475000X0.337500X-0.475000X0*%
%ADD27R,1.700000X1.700000*%
%ADD28O,1.700000X1.700000*%
%ADD29RoundRect,0.250000X-0.475000X0.337500X-0.475000X-0.337500X0.475000X-0.337500X0.475000X0.337500X0*%
%ADD30R,2.000000X1.905000*%
%ADD31O,2.000000X1.905000*%
%ADD32RoundRect,0.102000X1.275000X1.275000X-1.275000X1.275000X-1.275000X-1.275000X1.275000X-1.275000X0*%
%ADD33C,2.754000*%
%ADD34C,1.712000*%
%ADD35RoundRect,0.100000X-0.575000X0.100000X-0.575000X-0.100000X0.575000X-0.100000X0.575000X0.100000X0*%
%ADD36O,1.550000X0.890000*%
%ADD37RoundRect,0.250000X-0.525000X0.475000X-0.525000X-0.475000X0.525000X-0.475000X0.525000X0.475000X0*%
%ADD38O,0.950000X1.250000*%
%ADD39RoundRect,0.250000X-0.525000X0.500000X-0.525000X-0.500000X0.525000X-0.500000X0.525000X0.500000X0*%
%ADD40R,1.905000X0.812800*%
%ADD41RoundRect,0.250000X0.350000X0.450000X-0.350000X0.450000X-0.350000X-0.450000X0.350000X-0.450000X0*%
%ADD42R,1.500000X0.900000*%
%ADD43R,0.900000X1.500000*%
%ADD44C,0.600000*%
%ADD45R,3.900000X3.900000*%
G04 APERTURE END LIST*
D10*
X144970501Y-68870999D03*
X145920501Y-68870999D03*
X146870501Y-68870999D03*
X146870501Y-65450999D03*
X145920501Y-65450999D03*
X144970501Y-65450999D03*
D11*
X122813500Y-60137000D03*
X122813500Y-61087000D03*
X122813500Y-62037000D03*
X126233500Y-62037000D03*
X126233500Y-61087000D03*
X126233500Y-60137000D03*
D12*
X122491500Y-31262500D03*
X122491500Y-33262500D03*
X159004000Y-41878500D03*
X159004000Y-43878500D03*
D13*
X140970000Y-79369000D03*
D14*
X140970000Y-75819000D03*
D15*
X152162000Y-79883000D03*
X154162000Y-79883000D03*
D12*
X158940500Y-34576000D03*
X158940500Y-36576000D03*
D16*
X109664500Y-36830000D03*
D17*
X109664500Y-34290000D03*
X109664500Y-31750000D03*
D15*
X125200000Y-53400000D03*
X127200000Y-53400000D03*
D18*
X170200000Y-30000000D03*
D19*
X125158500Y-33337500D03*
X125158500Y-31262500D03*
D20*
X163512500Y-40640000D03*
D17*
X163512500Y-43180000D03*
D21*
X129052500Y-68135500D03*
X131127500Y-68135500D03*
D22*
X129794000Y-59563000D03*
X137033000Y-59563000D03*
D19*
X120078500Y-33337500D03*
X120078500Y-31262500D03*
D16*
X109093000Y-64770000D03*
D17*
X109093000Y-62230000D03*
X109093000Y-59690000D03*
D13*
X148780500Y-79375000D03*
D14*
X148780500Y-75825000D03*
D18*
X102044500Y-30162500D03*
D16*
X109347000Y-46355000D03*
D17*
X109347000Y-43815000D03*
X109347000Y-41275000D03*
D21*
X129052500Y-65786000D03*
X131127500Y-65786000D03*
D15*
X152146000Y-81978500D03*
X154146000Y-81978500D03*
D23*
X113220500Y-81661000D03*
D24*
X110680500Y-81661000D03*
X108140500Y-81661000D03*
D25*
X114501300Y-51300000D03*
X119098700Y-51300000D03*
D20*
X163512500Y-33528000D03*
D17*
X163512500Y-36068000D03*
D26*
X146937500Y-72300000D03*
X144862500Y-72300000D03*
D12*
X151191001Y-66367499D03*
X151191001Y-68367499D03*
D27*
X165036500Y-69977000D03*
D28*
X165036500Y-67437000D03*
X165036500Y-64897000D03*
X165036500Y-62357000D03*
X165036500Y-59817000D03*
X165036500Y-57277000D03*
X165036500Y-54737000D03*
X165036500Y-52197000D03*
X165036500Y-49657000D03*
X165036500Y-47117000D03*
D25*
X116662200Y-69596000D03*
X112064800Y-69596000D03*
D13*
X144653000Y-79432500D03*
D14*
X144653000Y-75882500D03*
D29*
X156017001Y-66419499D03*
X156017001Y-68494499D03*
D19*
X140205501Y-67965999D03*
X140205501Y-65890999D03*
D18*
X170370500Y-84455000D03*
D22*
X154495500Y-59626500D03*
X147256500Y-59626500D03*
D16*
X109156500Y-55562500D03*
D17*
X109156500Y-53022500D03*
X109156500Y-50482500D03*
D25*
X116401300Y-42600000D03*
X120998700Y-42600000D03*
D30*
X117419000Y-77216000D03*
D31*
X117419000Y-79756000D03*
X117419000Y-82296000D03*
D15*
X129667000Y-53530500D03*
X131667000Y-53530500D03*
X152114500Y-84137500D03*
X154114500Y-84137500D03*
D19*
X117475000Y-33274000D03*
X117475000Y-31199000D03*
D32*
X130604000Y-73058000D03*
D33*
X125604000Y-73058000D03*
D34*
X122604000Y-83058000D03*
X133604000Y-83058000D03*
D25*
X113701300Y-56100000D03*
X118298700Y-56100000D03*
D18*
X102044500Y-84455000D03*
D23*
X165354000Y-78994000D03*
D24*
X162814000Y-78994000D03*
X160274000Y-78994000D03*
D35*
X102600000Y-70788500D03*
X102600000Y-71438500D03*
X102600000Y-72088500D03*
X102600000Y-72738500D03*
X102600000Y-73388500D03*
D36*
X99900000Y-68588500D03*
D37*
X99900000Y-69063500D03*
D38*
X102600000Y-69588500D03*
D39*
X99900000Y-71088500D03*
X99900000Y-73088500D03*
D38*
X102600000Y-74588500D03*
D37*
X99900000Y-75113500D03*
D36*
X99900000Y-75588500D03*
D15*
X152178000Y-77724000D03*
X154178000Y-77724000D03*
D21*
X124000000Y-65913000D03*
X126075000Y-65913000D03*
D19*
X127508000Y-33337500D03*
X127508000Y-31262500D03*
D40*
X116014500Y-61899800D03*
X116014500Y-66497200D03*
D41*
X161100000Y-66300000D03*
X159100000Y-66300000D03*
D42*
X132764500Y-30885000D03*
X132764500Y-32155000D03*
X132764500Y-33425000D03*
X132764500Y-34695000D03*
X132764500Y-35965000D03*
X132764500Y-37235000D03*
X132764500Y-38505000D03*
X132764500Y-39775000D03*
X132764500Y-41045000D03*
X132764500Y-42315000D03*
X132764500Y-43585000D03*
X132764500Y-44855000D03*
X132764500Y-46125000D03*
X132764500Y-47395000D03*
D43*
X134529500Y-48645000D03*
X135799500Y-48645000D03*
X137069500Y-48645000D03*
X138339500Y-48645000D03*
X139609500Y-48645000D03*
X140879500Y-48645000D03*
X142149500Y-48645000D03*
X143419500Y-48645000D03*
X144689500Y-48645000D03*
X145959500Y-48645000D03*
X147229500Y-48645000D03*
X148499500Y-48645000D03*
D42*
X150264500Y-47395000D03*
X150264500Y-46125000D03*
X150264500Y-44855000D03*
X150264500Y-43585000D03*
X150264500Y-42315000D03*
X150264500Y-41045000D03*
X150264500Y-39775000D03*
X150264500Y-38505000D03*
X150264500Y-37235000D03*
X150264500Y-35965000D03*
X150264500Y-34695000D03*
X150264500Y-33425000D03*
X150264500Y-32155000D03*
X150264500Y-30885000D03*
D44*
X138614500Y-37905000D03*
X138614500Y-39305000D03*
X139314500Y-37205000D03*
X139314500Y-38605000D03*
X139314500Y-40005000D03*
X140014500Y-37905000D03*
D45*
X140014500Y-38605000D03*
D44*
X140014500Y-39305000D03*
X140714500Y-37205000D03*
X140714500Y-38605000D03*
X140714500Y-40005000D03*
X141414500Y-37905000D03*
X141414500Y-39305000D03*
D12*
X153604001Y-66430999D03*
X153604001Y-68430999D03*
D13*
X137160000Y-79305500D03*
D14*
X137160000Y-75755500D03*
D21*
X134725000Y-53594000D03*
X136800000Y-53594000D03*
M02*
