G04 #@! TF.GenerationSoftware,KiCad,Pcbnew,8.0.8*
G04 #@! TF.CreationDate,2025-03-31T15:28:11-05:00*
G04 #@! TF.ProjectId,Group_29_Handheld,47726f75-705f-4323-995f-48616e646865,rev?*
G04 #@! TF.SameCoordinates,Original*
G04 #@! TF.FileFunction,Paste,Top*
G04 #@! TF.FilePolarity,Positive*
%FSLAX46Y46*%
G04 Gerber Fmt 4.6, Leading zero omitted, Abs format (unit mm)*
G04 Created by KiCad (PCBNEW 8.0.8) date 2025-03-31 15:28:11*
%MOMM*%
%LPD*%
G01*
G04 APERTURE LIST*
G04 Aperture macros list*
%AMRoundRect*
0 Rectangle with rounded corners*
0 $1 Rounding radius*
0 $2 $3 $4 $5 $6 $7 $8 $9 X,Y pos of 4 corners*
0 Add a 4 corners polygon primitive as box body*
4,1,4,$2,$3,$4,$5,$6,$7,$8,$9,$2,$3,0*
0 Add four circle primitives for the rounded corners*
1,1,$1+$1,$2,$3*
1,1,$1+$1,$4,$5*
1,1,$1+$1,$6,$7*
1,1,$1+$1,$8,$9*
0 Add four rect primitives between the rounded corners*
20,1,$1+$1,$2,$3,$4,$5,0*
20,1,$1+$1,$4,$5,$6,$7,0*
20,1,$1+$1,$6,$7,$8,$9,0*
20,1,$1+$1,$8,$9,$2,$3,0*%
G04 Aperture macros list end*
%ADD10RoundRect,0.250000X-0.450000X0.350000X-0.450000X-0.350000X0.450000X-0.350000X0.450000X0.350000X0*%
%ADD11RoundRect,0.250000X-0.350000X-0.450000X0.350000X-0.450000X0.350000X0.450000X-0.350000X0.450000X0*%
%ADD12RoundRect,0.250000X0.350000X0.450000X-0.350000X0.450000X-0.350000X-0.450000X0.350000X-0.450000X0*%
%ADD13RoundRect,0.250000X0.300000X-2.050000X0.300000X2.050000X-0.300000X2.050000X-0.300000X-2.050000X0*%
%ADD14RoundRect,0.250000X2.375000X-2.025000X2.375000X2.025000X-2.375000X2.025000X-2.375000X-2.025000X0*%
%ADD15RoundRect,0.250000X0.475000X-0.337500X0.475000X0.337500X-0.475000X0.337500X-0.475000X-0.337500X0*%
%ADD16RoundRect,0.250000X0.337500X0.475000X-0.337500X0.475000X-0.337500X-0.475000X0.337500X-0.475000X0*%
%ADD17R,2.413000X5.334000*%
%ADD18RoundRect,0.150000X-0.512500X-0.150000X0.512500X-0.150000X0.512500X0.150000X-0.512500X0.150000X0*%
%ADD19RoundRect,0.250000X-0.475000X0.337500X-0.475000X-0.337500X0.475000X-0.337500X0.475000X0.337500X0*%
%ADD20RoundRect,0.175000X0.175000X-0.250000X0.175000X0.250000X-0.175000X0.250000X-0.175000X-0.250000X0*%
%ADD21RoundRect,0.150000X0.150000X-0.275000X0.150000X0.275000X-0.150000X0.275000X-0.150000X-0.275000X0*%
%ADD22RoundRect,0.250001X-0.924999X0.499999X-0.924999X-0.499999X0.924999X-0.499999X0.924999X0.499999X0*%
%ADD23RoundRect,0.250000X0.350000X-0.850000X0.350000X0.850000X-0.350000X0.850000X-0.350000X-0.850000X0*%
%ADD24RoundRect,0.250000X1.125000X-1.275000X1.125000X1.275000X-1.125000X1.275000X-1.125000X-1.275000X0*%
%ADD25O,1.550000X0.890000*%
%ADD26O,0.950000X1.250000*%
%ADD27RoundRect,0.100000X-0.575000X0.100000X-0.575000X-0.100000X0.575000X-0.100000X0.575000X0.100000X0*%
%ADD28RoundRect,0.250000X-0.525000X0.475000X-0.525000X-0.475000X0.525000X-0.475000X0.525000X0.475000X0*%
%ADD29RoundRect,0.250000X-0.525000X0.500000X-0.525000X-0.500000X0.525000X-0.500000X0.525000X0.500000X0*%
%ADD30RoundRect,0.250000X-0.337500X-0.475000X0.337500X-0.475000X0.337500X0.475000X-0.337500X0.475000X0*%
%ADD31RoundRect,0.250000X0.450000X-0.350000X0.450000X0.350000X-0.450000X0.350000X-0.450000X-0.350000X0*%
%ADD32R,0.900000X0.900000*%
%ADD33R,1.500000X0.900000*%
%ADD34R,0.900000X1.500000*%
G04 APERTURE END LIST*
D10*
X122491500Y-31262500D03*
X122491500Y-33262500D03*
X155900000Y-34400000D03*
X155900000Y-36400000D03*
D11*
X126460500Y-65913000D03*
X128460500Y-65913000D03*
D12*
X121634000Y-72072500D03*
X119634000Y-72072500D03*
D13*
X139827000Y-65973000D03*
X142367000Y-65973000D03*
X144907000Y-65973000D03*
D14*
X139592000Y-59248000D03*
X145142000Y-59248000D03*
X139592000Y-54398000D03*
X145142000Y-54398000D03*
D15*
X125158500Y-33337500D03*
X125158500Y-31262500D03*
D12*
X128397000Y-63563500D03*
X126397000Y-63563500D03*
D16*
X114978000Y-77279500D03*
X112903000Y-77279500D03*
D17*
X130810000Y-57594500D03*
X123571000Y-57594500D03*
D18*
X153046000Y-72710000D03*
X153046000Y-73660000D03*
X153046000Y-74610000D03*
X155321000Y-74610000D03*
X155321000Y-73660000D03*
X155321000Y-72710000D03*
D15*
X120078500Y-33337500D03*
X120078500Y-31262500D03*
X106807000Y-40407500D03*
X106807000Y-38332500D03*
D11*
X176244500Y-79121000D03*
X178244500Y-79121000D03*
D10*
X150622000Y-84074000D03*
X150622000Y-86074000D03*
D11*
X159702500Y-74612500D03*
X161702500Y-74612500D03*
D19*
X104118500Y-46079500D03*
X104118500Y-48154500D03*
D16*
X114978000Y-74930000D03*
X112903000Y-74930000D03*
D11*
X159702500Y-72199500D03*
X161702500Y-72199500D03*
D16*
X155215500Y-68643500D03*
X153140500Y-68643500D03*
D11*
X159655000Y-79502000D03*
X161655000Y-79502000D03*
X126460500Y-70294500D03*
X128460500Y-70294500D03*
D18*
X115956500Y-67376000D03*
X115956500Y-68326000D03*
X115956500Y-69276000D03*
X118231500Y-69276000D03*
X118231500Y-68326000D03*
X118231500Y-67376000D03*
D19*
X167259000Y-67584500D03*
X167259000Y-69659500D03*
X149479000Y-72156500D03*
X149479000Y-74231500D03*
D20*
X145806000Y-85622000D03*
D21*
X145806000Y-82072000D03*
D17*
X160655000Y-61531500D03*
X153416000Y-61531500D03*
D10*
X161671000Y-83963000D03*
X161671000Y-85963000D03*
D22*
X144843500Y-70765000D03*
X144843500Y-74015000D03*
D19*
X103505000Y-62589500D03*
X103505000Y-64664500D03*
D23*
X165550500Y-56147500D03*
X167830500Y-56147500D03*
D24*
X166305500Y-51522500D03*
X169355500Y-51522500D03*
X166305500Y-48172500D03*
X169355500Y-48172500D03*
D23*
X170110500Y-56147500D03*
D11*
X119634000Y-74485500D03*
X121634000Y-74485500D03*
D20*
X181800500Y-85909500D03*
D21*
X181800500Y-82359500D03*
D15*
X117475000Y-33274000D03*
X117475000Y-31199000D03*
D11*
X104172000Y-78613000D03*
X106172000Y-78613000D03*
D19*
X135191500Y-67246500D03*
X135191500Y-69321500D03*
D25*
X97409000Y-68715500D03*
D26*
X100109000Y-69715500D03*
X100109000Y-74715500D03*
D25*
X97409000Y-75715500D03*
D27*
X100109000Y-70915500D03*
X100109000Y-71565500D03*
X100109000Y-72215500D03*
X100109000Y-72865500D03*
X100109000Y-73515500D03*
D28*
X97409000Y-69190500D03*
D29*
X97409000Y-71215500D03*
X97409000Y-73215500D03*
D28*
X97409000Y-75240500D03*
D11*
X126460500Y-68072000D03*
X128460500Y-68072000D03*
D12*
X161639000Y-77025500D03*
X159639000Y-77025500D03*
D15*
X107759500Y-58610500D03*
X107759500Y-56535500D03*
D19*
X167449500Y-59668500D03*
X167449500Y-61743500D03*
X170180000Y-59668500D03*
X170180000Y-61743500D03*
D12*
X161734500Y-67437000D03*
X159734500Y-67437000D03*
D30*
X116924000Y-62293500D03*
X118999000Y-62293500D03*
D15*
X127508000Y-33337500D03*
X127508000Y-31262500D03*
D20*
X108331000Y-85211000D03*
D21*
X108331000Y-81661000D03*
D31*
X173672500Y-70151500D03*
X173672500Y-68151500D03*
D32*
X138614500Y-37205000D03*
X138614500Y-38605000D03*
X138614500Y-40005000D03*
X140014500Y-37205000D03*
X140014500Y-38605000D03*
X140014500Y-40005000D03*
X141414500Y-37205000D03*
X141414500Y-38605000D03*
X141414500Y-40005000D03*
D33*
X132764500Y-30885000D03*
X132764500Y-32155000D03*
X132764500Y-33425000D03*
X132764500Y-34695000D03*
X132764500Y-35965000D03*
X132764500Y-37235000D03*
X132764500Y-38505000D03*
X132764500Y-39775000D03*
X132764500Y-41045000D03*
X132764500Y-42315000D03*
X132764500Y-43585000D03*
X132764500Y-44855000D03*
X132764500Y-46125000D03*
X132764500Y-47395000D03*
D34*
X134529500Y-48645000D03*
X135799500Y-48645000D03*
X137069500Y-48645000D03*
X138339500Y-48645000D03*
X139609500Y-48645000D03*
X140879500Y-48645000D03*
X142149500Y-48645000D03*
X143419500Y-48645000D03*
X144689500Y-48645000D03*
X145959500Y-48645000D03*
X147229500Y-48645000D03*
X148499500Y-48645000D03*
D33*
X150264500Y-47395000D03*
X150264500Y-46125000D03*
X150264500Y-44855000D03*
X150264500Y-43585000D03*
X150264500Y-42315000D03*
X150264500Y-41045000D03*
X150264500Y-39775000D03*
X150264500Y-38505000D03*
X150264500Y-37235000D03*
X150264500Y-35965000D03*
X150264500Y-34695000D03*
X150264500Y-33425000D03*
X150264500Y-32155000D03*
X150264500Y-30885000D03*
D11*
X159702500Y-69723000D03*
X161702500Y-69723000D03*
D20*
X157416500Y-85655500D03*
D21*
X157416500Y-82105500D03*
D19*
X132143500Y-67246500D03*
X132143500Y-69321500D03*
M02*
