M48
INCH,TZ
T1C0.0118
T2C0.0118
T3C0.0197
T4C0.0217
T5C0.0315
T6C0.0394
T7C0.0433
T8C0.0469
T9C0.0630
T10C0.0669
%
G90
G05
T1
X38484Y-12992
X40400Y-27550
X44193Y-20079
X44882Y-27461
X46161Y-15157
X46161Y-25591
X46161Y-28150
X46457Y-21063
X46752Y-16831
X47343Y-33366
X47736Y-32972
X49075Y-12750
X50950Y-19950
X51083Y-16437
X51378Y-28346
X53375Y-12750
X54232Y-17520
X54823Y-28051
X57776Y-12894
X57916Y-31800
X59500Y-28250
X60335Y-13583
X60400Y-27900
X61025Y-18675
X63400Y-19300
X64100Y-22150
X64350Y-24400
X65050Y-23300
X65200Y-25900
X65256Y-13681
X65945Y-31496
X66437Y-23917
X66450Y-25575
X67500Y-26625
X67913Y-24114
X68209Y-20571
X72100Y-31900
T2
X54573Y-14923
X54573Y-15474
X54848Y-14648
X54848Y-15199
X54848Y-15750
X55124Y-14923
X55124Y-15474
X55399Y-14648
X55399Y-15199
X55399Y-15750
X55675Y-14923
X55675Y-15474
T5
X42150Y-24129
X42150Y-26098
X42250Y-17479
X42250Y-19448
T6
X50945Y-33344
X55276Y-33344
X70450Y-12650
X70450Y-13650
X70450Y-14650
X70450Y-15650
X70450Y-16650
X70450Y-17650
X70450Y-18650
X70450Y-19650
X70450Y-20650
X70450Y-21650
T7
X48625Y-31300
X48625Y-32300
X48625Y-33300
T8
X39725Y-14125
X39725Y-15125
X39725Y-16125
X39850Y-21100
X39850Y-22100
X39850Y-23100
X42625Y-12975
X43625Y-12975
X44550Y-32992
X44625Y-12975
X45550Y-32992
X46550Y-32992
X62598Y-13386
X63598Y-13386
X70472Y-23720
X70472Y-24720
X70472Y-25720
X70475Y-27375
X70475Y-28375
X70475Y-29375
T9
X38825Y-31275
X38925Y-18850
X48150Y-15150
X52675Y-20800
T10
X52126Y-29407
X54094Y-29407
T3
G00X38478Y-27053
M15
G01X38222Y-27053
M16
G05
G00X38478Y-29809
M15
G01X38222Y-29809
M16
G05
T4
G00X39413Y-27388
M15
G01X39413Y-27506
M16
G05
G00X39413Y-29356
M15
G01X39413Y-29475
M16
G05
M30
