G04 #@! TF.GenerationSoftware,KiCad,Pcbnew,8.0.8*
G04 #@! TF.CreationDate,2025-03-31T15:28:11-05:00*
G04 #@! TF.ProjectId,Group_29_Handheld,47726f75-705f-4323-995f-48616e646865,rev?*
G04 #@! TF.SameCoordinates,Original*
G04 #@! TF.FileFunction,Soldermask,Bot*
G04 #@! TF.FilePolarity,Negative*
%FSLAX46Y46*%
G04 Gerber Fmt 4.6, Leading zero omitted, Abs format (unit mm)*
G04 Created by KiCad (PCBNEW 8.0.8) date 2025-03-31 15:28:11*
%MOMM*%
%LPD*%
G01*
G04 APERTURE LIST*
G04 Aperture macros list*
%AMRoundRect*
0 Rectangle with rounded corners*
0 $1 Rounding radius*
0 $2 $3 $4 $5 $6 $7 $8 $9 X,Y pos of 4 corners*
0 Add a 4 corners polygon primitive as box body*
4,1,4,$2,$3,$4,$5,$6,$7,$8,$9,$2,$3,0*
0 Add four circle primitives for the rounded corners*
1,1,$1+$1,$2,$3*
1,1,$1+$1,$4,$5*
1,1,$1+$1,$6,$7*
1,1,$1+$1,$8,$9*
0 Add four rect primitives between the rounded corners*
20,1,$1+$1,$2,$3,$4,$5,0*
20,1,$1+$1,$4,$5,$6,$7,0*
20,1,$1+$1,$6,$7,$8,$9,0*
20,1,$1+$1,$8,$9,$2,$3,0*%
G04 Aperture macros list end*
%ADD10RoundRect,0.250000X-0.620000X-0.845000X0.620000X-0.845000X0.620000X0.845000X-0.620000X0.845000X0*%
%ADD11O,1.740000X2.190000*%
%ADD12C,3.200000*%
%ADD13C,2.604000*%
%ADD14RoundRect,0.250000X0.845000X-0.620000X0.845000X0.620000X-0.845000X0.620000X-0.845000X-0.620000X0*%
%ADD15O,2.190000X1.740000*%
%ADD16RoundRect,0.250000X0.620000X0.845000X-0.620000X0.845000X-0.620000X-0.845000X0.620000X-0.845000X0*%
%ADD17R,1.700000X1.700000*%
%ADD18O,1.700000X1.700000*%
%ADD19RoundRect,0.250000X-0.845000X0.620000X-0.845000X-0.620000X0.845000X-0.620000X0.845000X0.620000X0*%
%ADD20R,2.000000X1.905000*%
%ADD21O,2.000000X1.905000*%
%ADD22C,2.754000*%
%ADD23RoundRect,0.102000X1.275000X1.275000X-1.275000X1.275000X-1.275000X-1.275000X1.275000X-1.275000X0*%
%ADD24C,1.712000*%
%ADD25O,1.550000X0.890000*%
%ADD26O,0.950000X1.250000*%
%ADD27R,1.600000X1.600000*%
%ADD28C,1.600000*%
G04 APERTURE END LIST*
D10*
X108267500Y-32956500D03*
D11*
X110807500Y-32956500D03*
X113347500Y-32956500D03*
D12*
X170116500Y-30035500D03*
D10*
X159000000Y-34000000D03*
D11*
X161540000Y-34000000D03*
D13*
X98869500Y-47879000D03*
X98615500Y-79438500D03*
D12*
X102044500Y-30162500D03*
D14*
X100901500Y-40957500D03*
D15*
X100901500Y-38417500D03*
X100901500Y-35877500D03*
D13*
X133794500Y-52832000D03*
X122301000Y-38481000D03*
D16*
X118237000Y-83800000D03*
D11*
X115697000Y-83800000D03*
X113157000Y-83800000D03*
D17*
X178943000Y-54991000D03*
D18*
X178943000Y-52451000D03*
X178943000Y-49911000D03*
X178943000Y-47371000D03*
X178943000Y-44831000D03*
X178943000Y-42291000D03*
X178943000Y-39751000D03*
X178943000Y-37211000D03*
X178943000Y-34671000D03*
X178943000Y-32131000D03*
D12*
X170370500Y-84455000D03*
D14*
X101219000Y-58674000D03*
D15*
X101219000Y-56134000D03*
X101219000Y-53594000D03*
D19*
X179000000Y-60250000D03*
D15*
X179000000Y-62790000D03*
X179000000Y-65330000D03*
D20*
X123507500Y-79502000D03*
D21*
X123507500Y-82042000D03*
X123507500Y-84582000D03*
D22*
X132400000Y-74694250D03*
D23*
X137400000Y-74694250D03*
D24*
X129400000Y-84694250D03*
X140400000Y-84694250D03*
D12*
X102044500Y-84455000D03*
D19*
X179006500Y-69532500D03*
D15*
X179006500Y-72072500D03*
X179006500Y-74612500D03*
D25*
X97409000Y-68715500D03*
D26*
X100109000Y-69715500D03*
X100109000Y-74715500D03*
D25*
X97409000Y-75715500D03*
D27*
X107061000Y-61287849D03*
D28*
X107061000Y-66287849D03*
D27*
X107315000Y-44396849D03*
D28*
X107315000Y-49396849D03*
M02*
