G04 #@! TF.GenerationSoftware,KiCad,Pcbnew,8.0.8*
G04 #@! TF.CreationDate,2025-03-31T15:28:11-05:00*
G04 #@! TF.ProjectId,Group_29_Handheld,47726f75-705f-4323-995f-48616e646865,rev?*
G04 #@! TF.SameCoordinates,Original*
G04 #@! TF.FileFunction,Legend,Top*
G04 #@! TF.FilePolarity,Positive*
%FSLAX46Y46*%
G04 Gerber Fmt 4.6, Leading zero omitted, Abs format (unit mm)*
G04 Created by KiCad (PCBNEW 8.0.8) date 2025-03-31 15:28:11*
%MOMM*%
%LPD*%
G01*
G04 APERTURE LIST*
%ADD10C,0.100000*%
%ADD11C,0.150000*%
%ADD12C,0.120000*%
%ADD13C,0.127000*%
%ADD14C,0.152400*%
G04 APERTURE END LIST*
D10*
X143126109Y-85248571D02*
X143126109Y-85581904D01*
X143649919Y-85581904D02*
X142649919Y-85581904D01*
X142649919Y-85581904D02*
X142649919Y-85105714D01*
X143649919Y-84581904D02*
X143602300Y-84677142D01*
X143602300Y-84677142D02*
X143507061Y-84724761D01*
X143507061Y-84724761D02*
X142649919Y-84724761D01*
X143649919Y-83772380D02*
X143126109Y-83772380D01*
X143126109Y-83772380D02*
X143030871Y-83819999D01*
X143030871Y-83819999D02*
X142983252Y-83915237D01*
X142983252Y-83915237D02*
X142983252Y-84105713D01*
X142983252Y-84105713D02*
X143030871Y-84200951D01*
X143602300Y-83772380D02*
X143649919Y-83867618D01*
X143649919Y-83867618D02*
X143649919Y-84105713D01*
X143649919Y-84105713D02*
X143602300Y-84200951D01*
X143602300Y-84200951D02*
X143507061Y-84248570D01*
X143507061Y-84248570D02*
X143411823Y-84248570D01*
X143411823Y-84248570D02*
X143316585Y-84200951D01*
X143316585Y-84200951D02*
X143268966Y-84105713D01*
X143268966Y-84105713D02*
X143268966Y-83867618D01*
X143268966Y-83867618D02*
X143221347Y-83772380D01*
X143602300Y-83343808D02*
X143649919Y-83248570D01*
X143649919Y-83248570D02*
X143649919Y-83058094D01*
X143649919Y-83058094D02*
X143602300Y-82962856D01*
X143602300Y-82962856D02*
X143507061Y-82915237D01*
X143507061Y-82915237D02*
X143459442Y-82915237D01*
X143459442Y-82915237D02*
X143364204Y-82962856D01*
X143364204Y-82962856D02*
X143316585Y-83058094D01*
X143316585Y-83058094D02*
X143316585Y-83200951D01*
X143316585Y-83200951D02*
X143268966Y-83296189D01*
X143268966Y-83296189D02*
X143173728Y-83343808D01*
X143173728Y-83343808D02*
X143126109Y-83343808D01*
X143126109Y-83343808D02*
X143030871Y-83296189D01*
X143030871Y-83296189D02*
X142983252Y-83200951D01*
X142983252Y-83200951D02*
X142983252Y-83058094D01*
X142983252Y-83058094D02*
X143030871Y-82962856D01*
X143649919Y-82486665D02*
X142649919Y-82486665D01*
X143649919Y-82058094D02*
X143126109Y-82058094D01*
X143126109Y-82058094D02*
X143030871Y-82105713D01*
X143030871Y-82105713D02*
X142983252Y-82200951D01*
X142983252Y-82200951D02*
X142983252Y-82343808D01*
X142983252Y-82343808D02*
X143030871Y-82439046D01*
X143030871Y-82439046D02*
X143078490Y-82486665D01*
X145464884Y-80390466D02*
X146226789Y-80390466D01*
X145845836Y-80771419D02*
X145845836Y-80009514D01*
X145337884Y-87057966D02*
X146099789Y-87057966D01*
D11*
X122882819Y-35282166D02*
X122406628Y-35615499D01*
X122882819Y-35853594D02*
X121882819Y-35853594D01*
X121882819Y-35853594D02*
X121882819Y-35472642D01*
X121882819Y-35472642D02*
X121930438Y-35377404D01*
X121930438Y-35377404D02*
X121978057Y-35329785D01*
X121978057Y-35329785D02*
X122073295Y-35282166D01*
X122073295Y-35282166D02*
X122216152Y-35282166D01*
X122216152Y-35282166D02*
X122311390Y-35329785D01*
X122311390Y-35329785D02*
X122359009Y-35377404D01*
X122359009Y-35377404D02*
X122406628Y-35472642D01*
X122406628Y-35472642D02*
X122406628Y-35853594D01*
X122882819Y-34329785D02*
X122882819Y-34901213D01*
X122882819Y-34615499D02*
X121882819Y-34615499D01*
X121882819Y-34615499D02*
X122025676Y-34710737D01*
X122025676Y-34710737D02*
X122120914Y-34805975D01*
X122120914Y-34805975D02*
X122168533Y-34901213D01*
X156454819Y-38666666D02*
X155978628Y-38999999D01*
X156454819Y-39238094D02*
X155454819Y-39238094D01*
X155454819Y-39238094D02*
X155454819Y-38857142D01*
X155454819Y-38857142D02*
X155502438Y-38761904D01*
X155502438Y-38761904D02*
X155550057Y-38714285D01*
X155550057Y-38714285D02*
X155645295Y-38666666D01*
X155645295Y-38666666D02*
X155788152Y-38666666D01*
X155788152Y-38666666D02*
X155883390Y-38714285D01*
X155883390Y-38714285D02*
X155931009Y-38761904D01*
X155931009Y-38761904D02*
X155978628Y-38857142D01*
X155978628Y-38857142D02*
X155978628Y-39238094D01*
X155883390Y-38095237D02*
X155835771Y-38190475D01*
X155835771Y-38190475D02*
X155788152Y-38238094D01*
X155788152Y-38238094D02*
X155692914Y-38285713D01*
X155692914Y-38285713D02*
X155645295Y-38285713D01*
X155645295Y-38285713D02*
X155550057Y-38238094D01*
X155550057Y-38238094D02*
X155502438Y-38190475D01*
X155502438Y-38190475D02*
X155454819Y-38095237D01*
X155454819Y-38095237D02*
X155454819Y-37904761D01*
X155454819Y-37904761D02*
X155502438Y-37809523D01*
X155502438Y-37809523D02*
X155550057Y-37761904D01*
X155550057Y-37761904D02*
X155645295Y-37714285D01*
X155645295Y-37714285D02*
X155692914Y-37714285D01*
X155692914Y-37714285D02*
X155788152Y-37761904D01*
X155788152Y-37761904D02*
X155835771Y-37809523D01*
X155835771Y-37809523D02*
X155883390Y-37904761D01*
X155883390Y-37904761D02*
X155883390Y-38095237D01*
X155883390Y-38095237D02*
X155931009Y-38190475D01*
X155931009Y-38190475D02*
X155978628Y-38238094D01*
X155978628Y-38238094D02*
X156073866Y-38285713D01*
X156073866Y-38285713D02*
X156264342Y-38285713D01*
X156264342Y-38285713D02*
X156359580Y-38238094D01*
X156359580Y-38238094D02*
X156407200Y-38190475D01*
X156407200Y-38190475D02*
X156454819Y-38095237D01*
X156454819Y-38095237D02*
X156454819Y-37904761D01*
X156454819Y-37904761D02*
X156407200Y-37809523D01*
X156407200Y-37809523D02*
X156359580Y-37761904D01*
X156359580Y-37761904D02*
X156264342Y-37714285D01*
X156264342Y-37714285D02*
X156073866Y-37714285D01*
X156073866Y-37714285D02*
X155978628Y-37761904D01*
X155978628Y-37761904D02*
X155931009Y-37809523D01*
X155931009Y-37809523D02*
X155883390Y-37904761D01*
X123118642Y-66494819D02*
X122785309Y-66018628D01*
X122547214Y-66494819D02*
X122547214Y-65494819D01*
X122547214Y-65494819D02*
X122928166Y-65494819D01*
X122928166Y-65494819D02*
X123023404Y-65542438D01*
X123023404Y-65542438D02*
X123071023Y-65590057D01*
X123071023Y-65590057D02*
X123118642Y-65685295D01*
X123118642Y-65685295D02*
X123118642Y-65828152D01*
X123118642Y-65828152D02*
X123071023Y-65923390D01*
X123071023Y-65923390D02*
X123023404Y-65971009D01*
X123023404Y-65971009D02*
X122928166Y-66018628D01*
X122928166Y-66018628D02*
X122547214Y-66018628D01*
X123499595Y-65590057D02*
X123547214Y-65542438D01*
X123547214Y-65542438D02*
X123642452Y-65494819D01*
X123642452Y-65494819D02*
X123880547Y-65494819D01*
X123880547Y-65494819D02*
X123975785Y-65542438D01*
X123975785Y-65542438D02*
X124023404Y-65590057D01*
X124023404Y-65590057D02*
X124071023Y-65685295D01*
X124071023Y-65685295D02*
X124071023Y-65780533D01*
X124071023Y-65780533D02*
X124023404Y-65923390D01*
X124023404Y-65923390D02*
X123451976Y-66494819D01*
X123451976Y-66494819D02*
X124071023Y-66494819D01*
X124690071Y-65494819D02*
X124785309Y-65494819D01*
X124785309Y-65494819D02*
X124880547Y-65542438D01*
X124880547Y-65542438D02*
X124928166Y-65590057D01*
X124928166Y-65590057D02*
X124975785Y-65685295D01*
X124975785Y-65685295D02*
X125023404Y-65875771D01*
X125023404Y-65875771D02*
X125023404Y-66113866D01*
X125023404Y-66113866D02*
X124975785Y-66304342D01*
X124975785Y-66304342D02*
X124928166Y-66399580D01*
X124928166Y-66399580D02*
X124880547Y-66447200D01*
X124880547Y-66447200D02*
X124785309Y-66494819D01*
X124785309Y-66494819D02*
X124690071Y-66494819D01*
X124690071Y-66494819D02*
X124594833Y-66447200D01*
X124594833Y-66447200D02*
X124547214Y-66399580D01*
X124547214Y-66399580D02*
X124499595Y-66304342D01*
X124499595Y-66304342D02*
X124451976Y-66113866D01*
X124451976Y-66113866D02*
X124451976Y-65875771D01*
X124451976Y-65875771D02*
X124499595Y-65685295D01*
X124499595Y-65685295D02*
X124547214Y-65590057D01*
X124547214Y-65590057D02*
X124594833Y-65542438D01*
X124594833Y-65542438D02*
X124690071Y-65494819D01*
X106807167Y-29243700D02*
X106950024Y-29291319D01*
X106950024Y-29291319D02*
X107188119Y-29291319D01*
X107188119Y-29291319D02*
X107283357Y-29243700D01*
X107283357Y-29243700D02*
X107330976Y-29196080D01*
X107330976Y-29196080D02*
X107378595Y-29100842D01*
X107378595Y-29100842D02*
X107378595Y-29005604D01*
X107378595Y-29005604D02*
X107330976Y-28910366D01*
X107330976Y-28910366D02*
X107283357Y-28862747D01*
X107283357Y-28862747D02*
X107188119Y-28815128D01*
X107188119Y-28815128D02*
X106997643Y-28767509D01*
X106997643Y-28767509D02*
X106902405Y-28719890D01*
X106902405Y-28719890D02*
X106854786Y-28672271D01*
X106854786Y-28672271D02*
X106807167Y-28577033D01*
X106807167Y-28577033D02*
X106807167Y-28481795D01*
X106807167Y-28481795D02*
X106854786Y-28386557D01*
X106854786Y-28386557D02*
X106902405Y-28338938D01*
X106902405Y-28338938D02*
X106997643Y-28291319D01*
X106997643Y-28291319D02*
X107235738Y-28291319D01*
X107235738Y-28291319D02*
X107378595Y-28338938D01*
X107711929Y-28291319D02*
X107950024Y-29291319D01*
X107950024Y-29291319D02*
X108140500Y-28577033D01*
X108140500Y-28577033D02*
X108330976Y-29291319D01*
X108330976Y-29291319D02*
X108569072Y-28291319D01*
X109473833Y-29291319D02*
X108902405Y-29291319D01*
X109188119Y-29291319D02*
X109188119Y-28291319D01*
X109188119Y-28291319D02*
X109092881Y-28434176D01*
X109092881Y-28434176D02*
X108997643Y-28529414D01*
X108997643Y-28529414D02*
X108902405Y-28577033D01*
X113019561Y-37084095D02*
X113067180Y-36988857D01*
X113067180Y-36988857D02*
X113067180Y-36846000D01*
X113067180Y-36846000D02*
X113019561Y-36703143D01*
X113019561Y-36703143D02*
X112924323Y-36607905D01*
X112924323Y-36607905D02*
X112829085Y-36560286D01*
X112829085Y-36560286D02*
X112638609Y-36512667D01*
X112638609Y-36512667D02*
X112495752Y-36512667D01*
X112495752Y-36512667D02*
X112305276Y-36560286D01*
X112305276Y-36560286D02*
X112210038Y-36607905D01*
X112210038Y-36607905D02*
X112114800Y-36703143D01*
X112114800Y-36703143D02*
X112067180Y-36846000D01*
X112067180Y-36846000D02*
X112067180Y-36941238D01*
X112067180Y-36941238D02*
X112114800Y-37084095D01*
X112114800Y-37084095D02*
X112162419Y-37131714D01*
X112162419Y-37131714D02*
X112495752Y-37131714D01*
X112495752Y-37131714D02*
X112495752Y-36941238D01*
X112067180Y-37560286D02*
X113067180Y-37560286D01*
X113067180Y-37560286D02*
X112067180Y-38131714D01*
X112067180Y-38131714D02*
X113067180Y-38131714D01*
X112067180Y-38607905D02*
X113067180Y-38607905D01*
X113067180Y-38607905D02*
X113067180Y-38846000D01*
X113067180Y-38846000D02*
X113019561Y-38988857D01*
X113019561Y-38988857D02*
X112924323Y-39084095D01*
X112924323Y-39084095D02*
X112829085Y-39131714D01*
X112829085Y-39131714D02*
X112638609Y-39179333D01*
X112638609Y-39179333D02*
X112495752Y-39179333D01*
X112495752Y-39179333D02*
X112305276Y-39131714D01*
X112305276Y-39131714D02*
X112210038Y-39084095D01*
X112210038Y-39084095D02*
X112114800Y-38988857D01*
X112114800Y-38988857D02*
X112067180Y-38846000D01*
X112067180Y-38846000D02*
X112067180Y-38607905D01*
X111066990Y-36599905D02*
X111066990Y-36933238D01*
X110543180Y-37076095D02*
X110543180Y-36599905D01*
X110543180Y-36599905D02*
X111543180Y-36599905D01*
X111543180Y-36599905D02*
X111543180Y-37076095D01*
X110543180Y-37504667D02*
X111543180Y-37504667D01*
X111543180Y-37504667D02*
X110543180Y-38076095D01*
X110543180Y-38076095D02*
X111543180Y-38076095D01*
X123658333Y-72527319D02*
X123325000Y-72051128D01*
X123086905Y-72527319D02*
X123086905Y-71527319D01*
X123086905Y-71527319D02*
X123467857Y-71527319D01*
X123467857Y-71527319D02*
X123563095Y-71574938D01*
X123563095Y-71574938D02*
X123610714Y-71622557D01*
X123610714Y-71622557D02*
X123658333Y-71717795D01*
X123658333Y-71717795D02*
X123658333Y-71860652D01*
X123658333Y-71860652D02*
X123610714Y-71955890D01*
X123610714Y-71955890D02*
X123563095Y-72003509D01*
X123563095Y-72003509D02*
X123467857Y-72051128D01*
X123467857Y-72051128D02*
X123086905Y-72051128D01*
X124563095Y-71527319D02*
X124086905Y-71527319D01*
X124086905Y-71527319D02*
X124039286Y-72003509D01*
X124039286Y-72003509D02*
X124086905Y-71955890D01*
X124086905Y-71955890D02*
X124182143Y-71908271D01*
X124182143Y-71908271D02*
X124420238Y-71908271D01*
X124420238Y-71908271D02*
X124515476Y-71955890D01*
X124515476Y-71955890D02*
X124563095Y-72003509D01*
X124563095Y-72003509D02*
X124610714Y-72098747D01*
X124610714Y-72098747D02*
X124610714Y-72336842D01*
X124610714Y-72336842D02*
X124563095Y-72432080D01*
X124563095Y-72432080D02*
X124515476Y-72479700D01*
X124515476Y-72479700D02*
X124420238Y-72527319D01*
X124420238Y-72527319D02*
X124182143Y-72527319D01*
X124182143Y-72527319D02*
X124086905Y-72479700D01*
X124086905Y-72479700D02*
X124039286Y-72432080D01*
X135171819Y-59084904D02*
X135981342Y-59084904D01*
X135981342Y-59084904D02*
X136076580Y-59037285D01*
X136076580Y-59037285D02*
X136124200Y-58989666D01*
X136124200Y-58989666D02*
X136171819Y-58894428D01*
X136171819Y-58894428D02*
X136171819Y-58703952D01*
X136171819Y-58703952D02*
X136124200Y-58608714D01*
X136124200Y-58608714D02*
X136076580Y-58561095D01*
X136076580Y-58561095D02*
X135981342Y-58513476D01*
X135981342Y-58513476D02*
X135171819Y-58513476D01*
X135171819Y-57561095D02*
X135171819Y-58037285D01*
X135171819Y-58037285D02*
X135648009Y-58084904D01*
X135648009Y-58084904D02*
X135600390Y-58037285D01*
X135600390Y-58037285D02*
X135552771Y-57942047D01*
X135552771Y-57942047D02*
X135552771Y-57703952D01*
X135552771Y-57703952D02*
X135600390Y-57608714D01*
X135600390Y-57608714D02*
X135648009Y-57561095D01*
X135648009Y-57561095D02*
X135743247Y-57513476D01*
X135743247Y-57513476D02*
X135981342Y-57513476D01*
X135981342Y-57513476D02*
X136076580Y-57561095D01*
X136076580Y-57561095D02*
X136124200Y-57608714D01*
X136124200Y-57608714D02*
X136171819Y-57703952D01*
X136171819Y-57703952D02*
X136171819Y-57942047D01*
X136171819Y-57942047D02*
X136124200Y-58037285D01*
X136124200Y-58037285D02*
X136076580Y-58084904D01*
X174244095Y-29029819D02*
X174244095Y-28029819D01*
X174244095Y-28506009D02*
X174815523Y-28506009D01*
X174815523Y-29029819D02*
X174815523Y-28029819D01*
X175815523Y-29029819D02*
X175244095Y-29029819D01*
X175529809Y-29029819D02*
X175529809Y-28029819D01*
X175529809Y-28029819D02*
X175434571Y-28172676D01*
X175434571Y-28172676D02*
X175339333Y-28267914D01*
X175339333Y-28267914D02*
X175244095Y-28315533D01*
X125518080Y-36329857D02*
X125565700Y-36377476D01*
X125565700Y-36377476D02*
X125613319Y-36520333D01*
X125613319Y-36520333D02*
X125613319Y-36615571D01*
X125613319Y-36615571D02*
X125565700Y-36758428D01*
X125565700Y-36758428D02*
X125470461Y-36853666D01*
X125470461Y-36853666D02*
X125375223Y-36901285D01*
X125375223Y-36901285D02*
X125184747Y-36948904D01*
X125184747Y-36948904D02*
X125041890Y-36948904D01*
X125041890Y-36948904D02*
X124851414Y-36901285D01*
X124851414Y-36901285D02*
X124756176Y-36853666D01*
X124756176Y-36853666D02*
X124660938Y-36758428D01*
X124660938Y-36758428D02*
X124613319Y-36615571D01*
X124613319Y-36615571D02*
X124613319Y-36520333D01*
X124613319Y-36520333D02*
X124660938Y-36377476D01*
X124660938Y-36377476D02*
X124708557Y-36329857D01*
X125613319Y-35377476D02*
X125613319Y-35948904D01*
X125613319Y-35663190D02*
X124613319Y-35663190D01*
X124613319Y-35663190D02*
X124756176Y-35758428D01*
X124756176Y-35758428D02*
X124851414Y-35853666D01*
X124851414Y-35853666D02*
X124899033Y-35948904D01*
X125613319Y-34425095D02*
X125613319Y-34996523D01*
X125613319Y-34710809D02*
X124613319Y-34710809D01*
X124613319Y-34710809D02*
X124756176Y-34806047D01*
X124756176Y-34806047D02*
X124851414Y-34901285D01*
X124851414Y-34901285D02*
X124899033Y-34996523D01*
X157714166Y-37772819D02*
X157714166Y-38487104D01*
X157714166Y-38487104D02*
X157666547Y-38629961D01*
X157666547Y-38629961D02*
X157571309Y-38725200D01*
X157571309Y-38725200D02*
X157428452Y-38772819D01*
X157428452Y-38772819D02*
X157333214Y-38772819D01*
X158333214Y-38201390D02*
X158237976Y-38153771D01*
X158237976Y-38153771D02*
X158190357Y-38106152D01*
X158190357Y-38106152D02*
X158142738Y-38010914D01*
X158142738Y-38010914D02*
X158142738Y-37963295D01*
X158142738Y-37963295D02*
X158190357Y-37868057D01*
X158190357Y-37868057D02*
X158237976Y-37820438D01*
X158237976Y-37820438D02*
X158333214Y-37772819D01*
X158333214Y-37772819D02*
X158523690Y-37772819D01*
X158523690Y-37772819D02*
X158618928Y-37820438D01*
X158618928Y-37820438D02*
X158666547Y-37868057D01*
X158666547Y-37868057D02*
X158714166Y-37963295D01*
X158714166Y-37963295D02*
X158714166Y-38010914D01*
X158714166Y-38010914D02*
X158666547Y-38106152D01*
X158666547Y-38106152D02*
X158618928Y-38153771D01*
X158618928Y-38153771D02*
X158523690Y-38201390D01*
X158523690Y-38201390D02*
X158333214Y-38201390D01*
X158333214Y-38201390D02*
X158237976Y-38249009D01*
X158237976Y-38249009D02*
X158190357Y-38296628D01*
X158190357Y-38296628D02*
X158142738Y-38391866D01*
X158142738Y-38391866D02*
X158142738Y-38582342D01*
X158142738Y-38582342D02*
X158190357Y-38677580D01*
X158190357Y-38677580D02*
X158237976Y-38725200D01*
X158237976Y-38725200D02*
X158333214Y-38772819D01*
X158333214Y-38772819D02*
X158523690Y-38772819D01*
X158523690Y-38772819D02*
X158618928Y-38725200D01*
X158618928Y-38725200D02*
X158666547Y-38677580D01*
X158666547Y-38677580D02*
X158714166Y-38582342D01*
X158714166Y-38582342D02*
X158714166Y-38391866D01*
X158714166Y-38391866D02*
X158666547Y-38296628D01*
X158666547Y-38296628D02*
X158618928Y-38249009D01*
X158618928Y-38249009D02*
X158523690Y-38201390D01*
X158946866Y-30443951D02*
X158946866Y-29682047D01*
X159327819Y-30062999D02*
X158565914Y-30062999D01*
X161804366Y-30443951D02*
X161804366Y-29682047D01*
X122991642Y-64081819D02*
X122658309Y-63605628D01*
X122420214Y-64081819D02*
X122420214Y-63081819D01*
X122420214Y-63081819D02*
X122801166Y-63081819D01*
X122801166Y-63081819D02*
X122896404Y-63129438D01*
X122896404Y-63129438D02*
X122944023Y-63177057D01*
X122944023Y-63177057D02*
X122991642Y-63272295D01*
X122991642Y-63272295D02*
X122991642Y-63415152D01*
X122991642Y-63415152D02*
X122944023Y-63510390D01*
X122944023Y-63510390D02*
X122896404Y-63558009D01*
X122896404Y-63558009D02*
X122801166Y-63605628D01*
X122801166Y-63605628D02*
X122420214Y-63605628D01*
X123944023Y-64081819D02*
X123372595Y-64081819D01*
X123658309Y-64081819D02*
X123658309Y-63081819D01*
X123658309Y-63081819D02*
X123563071Y-63224676D01*
X123563071Y-63224676D02*
X123467833Y-63319914D01*
X123467833Y-63319914D02*
X123372595Y-63367533D01*
X124515452Y-63510390D02*
X124420214Y-63462771D01*
X124420214Y-63462771D02*
X124372595Y-63415152D01*
X124372595Y-63415152D02*
X124324976Y-63319914D01*
X124324976Y-63319914D02*
X124324976Y-63272295D01*
X124324976Y-63272295D02*
X124372595Y-63177057D01*
X124372595Y-63177057D02*
X124420214Y-63129438D01*
X124420214Y-63129438D02*
X124515452Y-63081819D01*
X124515452Y-63081819D02*
X124705928Y-63081819D01*
X124705928Y-63081819D02*
X124801166Y-63129438D01*
X124801166Y-63129438D02*
X124848785Y-63177057D01*
X124848785Y-63177057D02*
X124896404Y-63272295D01*
X124896404Y-63272295D02*
X124896404Y-63319914D01*
X124896404Y-63319914D02*
X124848785Y-63415152D01*
X124848785Y-63415152D02*
X124801166Y-63462771D01*
X124801166Y-63462771D02*
X124705928Y-63510390D01*
X124705928Y-63510390D02*
X124515452Y-63510390D01*
X124515452Y-63510390D02*
X124420214Y-63558009D01*
X124420214Y-63558009D02*
X124372595Y-63605628D01*
X124372595Y-63605628D02*
X124324976Y-63700866D01*
X124324976Y-63700866D02*
X124324976Y-63891342D01*
X124324976Y-63891342D02*
X124372595Y-63986580D01*
X124372595Y-63986580D02*
X124420214Y-64034200D01*
X124420214Y-64034200D02*
X124515452Y-64081819D01*
X124515452Y-64081819D02*
X124705928Y-64081819D01*
X124705928Y-64081819D02*
X124801166Y-64034200D01*
X124801166Y-64034200D02*
X124848785Y-63986580D01*
X124848785Y-63986580D02*
X124896404Y-63891342D01*
X124896404Y-63891342D02*
X124896404Y-63700866D01*
X124896404Y-63700866D02*
X124848785Y-63605628D01*
X124848785Y-63605628D02*
X124801166Y-63558009D01*
X124801166Y-63558009D02*
X124705928Y-63510390D01*
X97885881Y-44360219D02*
X98458007Y-44360219D01*
X98171944Y-45361439D02*
X98171944Y-44360219D01*
X98791746Y-45361439D02*
X98791746Y-44360219D01*
X98791746Y-44360219D02*
X99173163Y-44360219D01*
X99173163Y-44360219D02*
X99268518Y-44407896D01*
X99268518Y-44407896D02*
X99316195Y-44455573D01*
X99316195Y-44455573D02*
X99363872Y-44550927D01*
X99363872Y-44550927D02*
X99363872Y-44693959D01*
X99363872Y-44693959D02*
X99316195Y-44789313D01*
X99316195Y-44789313D02*
X99268518Y-44836990D01*
X99268518Y-44836990D02*
X99173163Y-44884667D01*
X99173163Y-44884667D02*
X98791746Y-44884667D01*
X100222061Y-44693959D02*
X100222061Y-45361439D01*
X99983675Y-44312542D02*
X99745289Y-45027699D01*
X99745289Y-45027699D02*
X100365092Y-45027699D01*
X99486556Y-76954164D02*
X100058682Y-76954164D01*
X99772619Y-77955384D02*
X99772619Y-76954164D01*
X100392421Y-77955384D02*
X100392421Y-76954164D01*
X100392421Y-76954164D02*
X100773838Y-76954164D01*
X100773838Y-76954164D02*
X100869193Y-77001841D01*
X100869193Y-77001841D02*
X100916870Y-77049518D01*
X100916870Y-77049518D02*
X100964547Y-77144872D01*
X100964547Y-77144872D02*
X100964547Y-77287904D01*
X100964547Y-77287904D02*
X100916870Y-77383258D01*
X100916870Y-77383258D02*
X100869193Y-77430935D01*
X100869193Y-77430935D02*
X100773838Y-77478612D01*
X100773838Y-77478612D02*
X100392421Y-77478612D01*
X101298287Y-76954164D02*
X101918090Y-76954164D01*
X101918090Y-76954164D02*
X101584350Y-77335581D01*
X101584350Y-77335581D02*
X101727381Y-77335581D01*
X101727381Y-77335581D02*
X101822736Y-77383258D01*
X101822736Y-77383258D02*
X101870413Y-77430935D01*
X101870413Y-77430935D02*
X101918090Y-77526289D01*
X101918090Y-77526289D02*
X101918090Y-77764675D01*
X101918090Y-77764675D02*
X101870413Y-77860029D01*
X101870413Y-77860029D02*
X101822736Y-77907707D01*
X101822736Y-77907707D02*
X101727381Y-77955384D01*
X101727381Y-77955384D02*
X101441318Y-77955384D01*
X101441318Y-77955384D02*
X101345964Y-77907707D01*
X101345964Y-77907707D02*
X101298287Y-77860029D01*
X110577333Y-77448580D02*
X110529714Y-77496200D01*
X110529714Y-77496200D02*
X110386857Y-77543819D01*
X110386857Y-77543819D02*
X110291619Y-77543819D01*
X110291619Y-77543819D02*
X110148762Y-77496200D01*
X110148762Y-77496200D02*
X110053524Y-77400961D01*
X110053524Y-77400961D02*
X110005905Y-77305723D01*
X110005905Y-77305723D02*
X109958286Y-77115247D01*
X109958286Y-77115247D02*
X109958286Y-76972390D01*
X109958286Y-76972390D02*
X110005905Y-76781914D01*
X110005905Y-76781914D02*
X110053524Y-76686676D01*
X110053524Y-76686676D02*
X110148762Y-76591438D01*
X110148762Y-76591438D02*
X110291619Y-76543819D01*
X110291619Y-76543819D02*
X110386857Y-76543819D01*
X110386857Y-76543819D02*
X110529714Y-76591438D01*
X110529714Y-76591438D02*
X110577333Y-76639057D01*
X111482095Y-76543819D02*
X111005905Y-76543819D01*
X111005905Y-76543819D02*
X110958286Y-77020009D01*
X110958286Y-77020009D02*
X111005905Y-76972390D01*
X111005905Y-76972390D02*
X111101143Y-76924771D01*
X111101143Y-76924771D02*
X111339238Y-76924771D01*
X111339238Y-76924771D02*
X111434476Y-76972390D01*
X111434476Y-76972390D02*
X111482095Y-77020009D01*
X111482095Y-77020009D02*
X111529714Y-77115247D01*
X111529714Y-77115247D02*
X111529714Y-77353342D01*
X111529714Y-77353342D02*
X111482095Y-77448580D01*
X111482095Y-77448580D02*
X111434476Y-77496200D01*
X111434476Y-77496200D02*
X111339238Y-77543819D01*
X111339238Y-77543819D02*
X111101143Y-77543819D01*
X111101143Y-77543819D02*
X111005905Y-77496200D01*
X111005905Y-77496200D02*
X110958286Y-77448580D01*
X120880166Y-57139680D02*
X121356356Y-57139680D01*
X121356356Y-57139680D02*
X121356356Y-58139680D01*
X120594451Y-58044442D02*
X120546832Y-58092061D01*
X120546832Y-58092061D02*
X120451594Y-58139680D01*
X120451594Y-58139680D02*
X120213499Y-58139680D01*
X120213499Y-58139680D02*
X120118261Y-58092061D01*
X120118261Y-58092061D02*
X120070642Y-58044442D01*
X120070642Y-58044442D02*
X120023023Y-57949204D01*
X120023023Y-57949204D02*
X120023023Y-57853966D01*
X120023023Y-57853966D02*
X120070642Y-57711109D01*
X120070642Y-57711109D02*
X120642070Y-57139680D01*
X120642070Y-57139680D02*
X120023023Y-57139680D01*
X153421595Y-75591319D02*
X153421595Y-76400842D01*
X153421595Y-76400842D02*
X153469214Y-76496080D01*
X153469214Y-76496080D02*
X153516833Y-76543700D01*
X153516833Y-76543700D02*
X153612071Y-76591319D01*
X153612071Y-76591319D02*
X153802547Y-76591319D01*
X153802547Y-76591319D02*
X153897785Y-76543700D01*
X153897785Y-76543700D02*
X153945404Y-76496080D01*
X153945404Y-76496080D02*
X153993023Y-76400842D01*
X153993023Y-76400842D02*
X153993023Y-75591319D01*
X154421595Y-75686557D02*
X154469214Y-75638938D01*
X154469214Y-75638938D02*
X154564452Y-75591319D01*
X154564452Y-75591319D02*
X154802547Y-75591319D01*
X154802547Y-75591319D02*
X154897785Y-75638938D01*
X154897785Y-75638938D02*
X154945404Y-75686557D01*
X154945404Y-75686557D02*
X154993023Y-75781795D01*
X154993023Y-75781795D02*
X154993023Y-75877033D01*
X154993023Y-75877033D02*
X154945404Y-76019890D01*
X154945404Y-76019890D02*
X154373976Y-76591319D01*
X154373976Y-76591319D02*
X154993023Y-76591319D01*
X120501580Y-36393357D02*
X120549200Y-36440976D01*
X120549200Y-36440976D02*
X120596819Y-36583833D01*
X120596819Y-36583833D02*
X120596819Y-36679071D01*
X120596819Y-36679071D02*
X120549200Y-36821928D01*
X120549200Y-36821928D02*
X120453961Y-36917166D01*
X120453961Y-36917166D02*
X120358723Y-36964785D01*
X120358723Y-36964785D02*
X120168247Y-37012404D01*
X120168247Y-37012404D02*
X120025390Y-37012404D01*
X120025390Y-37012404D02*
X119834914Y-36964785D01*
X119834914Y-36964785D02*
X119739676Y-36917166D01*
X119739676Y-36917166D02*
X119644438Y-36821928D01*
X119644438Y-36821928D02*
X119596819Y-36679071D01*
X119596819Y-36679071D02*
X119596819Y-36583833D01*
X119596819Y-36583833D02*
X119644438Y-36440976D01*
X119644438Y-36440976D02*
X119692057Y-36393357D01*
X120596819Y-35440976D02*
X120596819Y-36012404D01*
X120596819Y-35726690D02*
X119596819Y-35726690D01*
X119596819Y-35726690D02*
X119739676Y-35821928D01*
X119739676Y-35821928D02*
X119834914Y-35917166D01*
X119834914Y-35917166D02*
X119882533Y-36012404D01*
X119596819Y-34821928D02*
X119596819Y-34726690D01*
X119596819Y-34726690D02*
X119644438Y-34631452D01*
X119644438Y-34631452D02*
X119692057Y-34583833D01*
X119692057Y-34583833D02*
X119787295Y-34536214D01*
X119787295Y-34536214D02*
X119977771Y-34488595D01*
X119977771Y-34488595D02*
X120215866Y-34488595D01*
X120215866Y-34488595D02*
X120406342Y-34536214D01*
X120406342Y-34536214D02*
X120501580Y-34583833D01*
X120501580Y-34583833D02*
X120549200Y-34631452D01*
X120549200Y-34631452D02*
X120596819Y-34726690D01*
X120596819Y-34726690D02*
X120596819Y-34821928D01*
X120596819Y-34821928D02*
X120549200Y-34917166D01*
X120549200Y-34917166D02*
X120501580Y-34964785D01*
X120501580Y-34964785D02*
X120406342Y-35012404D01*
X120406342Y-35012404D02*
X120215866Y-35060023D01*
X120215866Y-35060023D02*
X119977771Y-35060023D01*
X119977771Y-35060023D02*
X119787295Y-35012404D01*
X119787295Y-35012404D02*
X119692057Y-34964785D01*
X119692057Y-34964785D02*
X119644438Y-34917166D01*
X119644438Y-34917166D02*
X119596819Y-34821928D01*
X105486580Y-40012857D02*
X105534200Y-40060476D01*
X105534200Y-40060476D02*
X105581819Y-40203333D01*
X105581819Y-40203333D02*
X105581819Y-40298571D01*
X105581819Y-40298571D02*
X105534200Y-40441428D01*
X105534200Y-40441428D02*
X105438961Y-40536666D01*
X105438961Y-40536666D02*
X105343723Y-40584285D01*
X105343723Y-40584285D02*
X105153247Y-40631904D01*
X105153247Y-40631904D02*
X105010390Y-40631904D01*
X105010390Y-40631904D02*
X104819914Y-40584285D01*
X104819914Y-40584285D02*
X104724676Y-40536666D01*
X104724676Y-40536666D02*
X104629438Y-40441428D01*
X104629438Y-40441428D02*
X104581819Y-40298571D01*
X104581819Y-40298571D02*
X104581819Y-40203333D01*
X104581819Y-40203333D02*
X104629438Y-40060476D01*
X104629438Y-40060476D02*
X104677057Y-40012857D01*
X105581819Y-39060476D02*
X105581819Y-39631904D01*
X105581819Y-39346190D02*
X104581819Y-39346190D01*
X104581819Y-39346190D02*
X104724676Y-39441428D01*
X104724676Y-39441428D02*
X104819914Y-39536666D01*
X104819914Y-39536666D02*
X104867533Y-39631904D01*
X104915152Y-38203333D02*
X105581819Y-38203333D01*
X104534200Y-38441428D02*
X105248485Y-38679523D01*
X105248485Y-38679523D02*
X105248485Y-38060476D01*
X169654762Y-78204819D02*
X170273809Y-78204819D01*
X170273809Y-78204819D02*
X169940476Y-78585771D01*
X169940476Y-78585771D02*
X170083333Y-78585771D01*
X170083333Y-78585771D02*
X170178571Y-78633390D01*
X170178571Y-78633390D02*
X170226190Y-78681009D01*
X170226190Y-78681009D02*
X170273809Y-78776247D01*
X170273809Y-78776247D02*
X170273809Y-79014342D01*
X170273809Y-79014342D02*
X170226190Y-79109580D01*
X170226190Y-79109580D02*
X170178571Y-79157200D01*
X170178571Y-79157200D02*
X170083333Y-79204819D01*
X170083333Y-79204819D02*
X169797619Y-79204819D01*
X169797619Y-79204819D02*
X169702381Y-79157200D01*
X169702381Y-79157200D02*
X169654762Y-79109580D01*
X170559524Y-78204819D02*
X170892857Y-79204819D01*
X170892857Y-79204819D02*
X171226190Y-78204819D01*
X171464286Y-78204819D02*
X172083333Y-78204819D01*
X172083333Y-78204819D02*
X171750000Y-78585771D01*
X171750000Y-78585771D02*
X171892857Y-78585771D01*
X171892857Y-78585771D02*
X171988095Y-78633390D01*
X171988095Y-78633390D02*
X172035714Y-78681009D01*
X172035714Y-78681009D02*
X172083333Y-78776247D01*
X172083333Y-78776247D02*
X172083333Y-79014342D01*
X172083333Y-79014342D02*
X172035714Y-79109580D01*
X172035714Y-79109580D02*
X171988095Y-79157200D01*
X171988095Y-79157200D02*
X171892857Y-79204819D01*
X171892857Y-79204819D02*
X171607143Y-79204819D01*
X171607143Y-79204819D02*
X171511905Y-79157200D01*
X171511905Y-79157200D02*
X171464286Y-79109580D01*
X172273810Y-79300057D02*
X173035714Y-79300057D01*
X173845238Y-79204819D02*
X173511905Y-78728628D01*
X173273810Y-79204819D02*
X173273810Y-78204819D01*
X173273810Y-78204819D02*
X173654762Y-78204819D01*
X173654762Y-78204819D02*
X173750000Y-78252438D01*
X173750000Y-78252438D02*
X173797619Y-78300057D01*
X173797619Y-78300057D02*
X173845238Y-78395295D01*
X173845238Y-78395295D02*
X173845238Y-78538152D01*
X173845238Y-78538152D02*
X173797619Y-78633390D01*
X173797619Y-78633390D02*
X173750000Y-78681009D01*
X173750000Y-78681009D02*
X173654762Y-78728628D01*
X173654762Y-78728628D02*
X173273810Y-78728628D01*
X174797619Y-79204819D02*
X174226191Y-79204819D01*
X174511905Y-79204819D02*
X174511905Y-78204819D01*
X174511905Y-78204819D02*
X174416667Y-78347676D01*
X174416667Y-78347676D02*
X174321429Y-78442914D01*
X174321429Y-78442914D02*
X174226191Y-78490533D01*
X152331009Y-86605714D02*
X152331009Y-86939047D01*
X152854819Y-86939047D02*
X151854819Y-86939047D01*
X151854819Y-86939047D02*
X151854819Y-86462857D01*
X152854819Y-85939047D02*
X152807200Y-86034285D01*
X152807200Y-86034285D02*
X152711961Y-86081904D01*
X152711961Y-86081904D02*
X151854819Y-86081904D01*
X152854819Y-85129523D02*
X152331009Y-85129523D01*
X152331009Y-85129523D02*
X152235771Y-85177142D01*
X152235771Y-85177142D02*
X152188152Y-85272380D01*
X152188152Y-85272380D02*
X152188152Y-85462856D01*
X152188152Y-85462856D02*
X152235771Y-85558094D01*
X152807200Y-85129523D02*
X152854819Y-85224761D01*
X152854819Y-85224761D02*
X152854819Y-85462856D01*
X152854819Y-85462856D02*
X152807200Y-85558094D01*
X152807200Y-85558094D02*
X152711961Y-85605713D01*
X152711961Y-85605713D02*
X152616723Y-85605713D01*
X152616723Y-85605713D02*
X152521485Y-85558094D01*
X152521485Y-85558094D02*
X152473866Y-85462856D01*
X152473866Y-85462856D02*
X152473866Y-85224761D01*
X152473866Y-85224761D02*
X152426247Y-85129523D01*
X152807200Y-84700951D02*
X152854819Y-84605713D01*
X152854819Y-84605713D02*
X152854819Y-84415237D01*
X152854819Y-84415237D02*
X152807200Y-84319999D01*
X152807200Y-84319999D02*
X152711961Y-84272380D01*
X152711961Y-84272380D02*
X152664342Y-84272380D01*
X152664342Y-84272380D02*
X152569104Y-84319999D01*
X152569104Y-84319999D02*
X152521485Y-84415237D01*
X152521485Y-84415237D02*
X152521485Y-84558094D01*
X152521485Y-84558094D02*
X152473866Y-84653332D01*
X152473866Y-84653332D02*
X152378628Y-84700951D01*
X152378628Y-84700951D02*
X152331009Y-84700951D01*
X152331009Y-84700951D02*
X152235771Y-84653332D01*
X152235771Y-84653332D02*
X152188152Y-84558094D01*
X152188152Y-84558094D02*
X152188152Y-84415237D01*
X152188152Y-84415237D02*
X152235771Y-84319999D01*
X152854819Y-83843808D02*
X151854819Y-83843808D01*
X152854819Y-83415237D02*
X152331009Y-83415237D01*
X152331009Y-83415237D02*
X152235771Y-83462856D01*
X152235771Y-83462856D02*
X152188152Y-83558094D01*
X152188152Y-83558094D02*
X152188152Y-83700951D01*
X152188152Y-83700951D02*
X152235771Y-83796189D01*
X152235771Y-83796189D02*
X152283390Y-83843808D01*
X152950057Y-83177142D02*
X152950057Y-82415237D01*
X152854819Y-81605713D02*
X152378628Y-81939046D01*
X152854819Y-82177141D02*
X151854819Y-82177141D01*
X151854819Y-82177141D02*
X151854819Y-81796189D01*
X151854819Y-81796189D02*
X151902438Y-81700951D01*
X151902438Y-81700951D02*
X151950057Y-81653332D01*
X151950057Y-81653332D02*
X152045295Y-81605713D01*
X152045295Y-81605713D02*
X152188152Y-81605713D01*
X152188152Y-81605713D02*
X152283390Y-81653332D01*
X152283390Y-81653332D02*
X152331009Y-81700951D01*
X152331009Y-81700951D02*
X152378628Y-81796189D01*
X152378628Y-81796189D02*
X152378628Y-82177141D01*
X152854819Y-80653332D02*
X152854819Y-81224760D01*
X152854819Y-80939046D02*
X151854819Y-80939046D01*
X151854819Y-80939046D02*
X151997676Y-81034284D01*
X151997676Y-81034284D02*
X152092914Y-81129522D01*
X152092914Y-81129522D02*
X152140533Y-81224760D01*
X163607142Y-75204819D02*
X163273809Y-74728628D01*
X163035714Y-75204819D02*
X163035714Y-74204819D01*
X163035714Y-74204819D02*
X163416666Y-74204819D01*
X163416666Y-74204819D02*
X163511904Y-74252438D01*
X163511904Y-74252438D02*
X163559523Y-74300057D01*
X163559523Y-74300057D02*
X163607142Y-74395295D01*
X163607142Y-74395295D02*
X163607142Y-74538152D01*
X163607142Y-74538152D02*
X163559523Y-74633390D01*
X163559523Y-74633390D02*
X163511904Y-74681009D01*
X163511904Y-74681009D02*
X163416666Y-74728628D01*
X163416666Y-74728628D02*
X163035714Y-74728628D01*
X164559523Y-75204819D02*
X163988095Y-75204819D01*
X164273809Y-75204819D02*
X164273809Y-74204819D01*
X164273809Y-74204819D02*
X164178571Y-74347676D01*
X164178571Y-74347676D02*
X164083333Y-74442914D01*
X164083333Y-74442914D02*
X163988095Y-74490533D01*
X165416666Y-74538152D02*
X165416666Y-75204819D01*
X165178571Y-74157200D02*
X164940476Y-74871485D01*
X164940476Y-74871485D02*
X165559523Y-74871485D01*
X96774095Y-31696819D02*
X96774095Y-30696819D01*
X96774095Y-31173009D02*
X97345523Y-31173009D01*
X97345523Y-31696819D02*
X97345523Y-30696819D01*
X97774095Y-30792057D02*
X97821714Y-30744438D01*
X97821714Y-30744438D02*
X97916952Y-30696819D01*
X97916952Y-30696819D02*
X98155047Y-30696819D01*
X98155047Y-30696819D02*
X98250285Y-30744438D01*
X98250285Y-30744438D02*
X98297904Y-30792057D01*
X98297904Y-30792057D02*
X98345523Y-30887295D01*
X98345523Y-30887295D02*
X98345523Y-30982533D01*
X98345523Y-30982533D02*
X98297904Y-31125390D01*
X98297904Y-31125390D02*
X97726476Y-31696819D01*
X97726476Y-31696819D02*
X98345523Y-31696819D01*
X102340580Y-47886857D02*
X102388200Y-47934476D01*
X102388200Y-47934476D02*
X102435819Y-48077333D01*
X102435819Y-48077333D02*
X102435819Y-48172571D01*
X102435819Y-48172571D02*
X102388200Y-48315428D01*
X102388200Y-48315428D02*
X102292961Y-48410666D01*
X102292961Y-48410666D02*
X102197723Y-48458285D01*
X102197723Y-48458285D02*
X102007247Y-48505904D01*
X102007247Y-48505904D02*
X101864390Y-48505904D01*
X101864390Y-48505904D02*
X101673914Y-48458285D01*
X101673914Y-48458285D02*
X101578676Y-48410666D01*
X101578676Y-48410666D02*
X101483438Y-48315428D01*
X101483438Y-48315428D02*
X101435819Y-48172571D01*
X101435819Y-48172571D02*
X101435819Y-48077333D01*
X101435819Y-48077333D02*
X101483438Y-47934476D01*
X101483438Y-47934476D02*
X101531057Y-47886857D01*
X102435819Y-46934476D02*
X102435819Y-47505904D01*
X102435819Y-47220190D02*
X101435819Y-47220190D01*
X101435819Y-47220190D02*
X101578676Y-47315428D01*
X101578676Y-47315428D02*
X101673914Y-47410666D01*
X101673914Y-47410666D02*
X101721533Y-47505904D01*
X101864390Y-46363047D02*
X101816771Y-46458285D01*
X101816771Y-46458285D02*
X101769152Y-46505904D01*
X101769152Y-46505904D02*
X101673914Y-46553523D01*
X101673914Y-46553523D02*
X101626295Y-46553523D01*
X101626295Y-46553523D02*
X101531057Y-46505904D01*
X101531057Y-46505904D02*
X101483438Y-46458285D01*
X101483438Y-46458285D02*
X101435819Y-46363047D01*
X101435819Y-46363047D02*
X101435819Y-46172571D01*
X101435819Y-46172571D02*
X101483438Y-46077333D01*
X101483438Y-46077333D02*
X101531057Y-46029714D01*
X101531057Y-46029714D02*
X101626295Y-45982095D01*
X101626295Y-45982095D02*
X101673914Y-45982095D01*
X101673914Y-45982095D02*
X101769152Y-46029714D01*
X101769152Y-46029714D02*
X101816771Y-46077333D01*
X101816771Y-46077333D02*
X101864390Y-46172571D01*
X101864390Y-46172571D02*
X101864390Y-46363047D01*
X101864390Y-46363047D02*
X101912009Y-46458285D01*
X101912009Y-46458285D02*
X101959628Y-46505904D01*
X101959628Y-46505904D02*
X102054866Y-46553523D01*
X102054866Y-46553523D02*
X102245342Y-46553523D01*
X102245342Y-46553523D02*
X102340580Y-46505904D01*
X102340580Y-46505904D02*
X102388200Y-46458285D01*
X102388200Y-46458285D02*
X102435819Y-46363047D01*
X102435819Y-46363047D02*
X102435819Y-46172571D01*
X102435819Y-46172571D02*
X102388200Y-46077333D01*
X102388200Y-46077333D02*
X102340580Y-46029714D01*
X102340580Y-46029714D02*
X102245342Y-45982095D01*
X102245342Y-45982095D02*
X102054866Y-45982095D01*
X102054866Y-45982095D02*
X101959628Y-46029714D01*
X101959628Y-46029714D02*
X101912009Y-46077333D01*
X101912009Y-46077333D02*
X101864390Y-46172571D01*
X96562152Y-41409761D02*
X97562152Y-41409761D01*
X96609771Y-41409761D02*
X96562152Y-41314523D01*
X96562152Y-41314523D02*
X96562152Y-41124047D01*
X96562152Y-41124047D02*
X96609771Y-41028809D01*
X96609771Y-41028809D02*
X96657390Y-40981190D01*
X96657390Y-40981190D02*
X96752628Y-40933571D01*
X96752628Y-40933571D02*
X97038342Y-40933571D01*
X97038342Y-40933571D02*
X97133580Y-40981190D01*
X97133580Y-40981190D02*
X97181200Y-41028809D01*
X97181200Y-41028809D02*
X97228819Y-41124047D01*
X97228819Y-41124047D02*
X97228819Y-41314523D01*
X97228819Y-41314523D02*
X97181200Y-41409761D01*
X96562152Y-40600237D02*
X97228819Y-40409761D01*
X97228819Y-40409761D02*
X96752628Y-40219285D01*
X96752628Y-40219285D02*
X97228819Y-40028809D01*
X97228819Y-40028809D02*
X96562152Y-39838333D01*
X97228819Y-39457380D02*
X96562152Y-39457380D01*
X96657390Y-39457380D02*
X96609771Y-39409761D01*
X96609771Y-39409761D02*
X96562152Y-39314523D01*
X96562152Y-39314523D02*
X96562152Y-39171666D01*
X96562152Y-39171666D02*
X96609771Y-39076428D01*
X96609771Y-39076428D02*
X96705009Y-39028809D01*
X96705009Y-39028809D02*
X97228819Y-39028809D01*
X96705009Y-39028809D02*
X96609771Y-38981190D01*
X96609771Y-38981190D02*
X96562152Y-38885952D01*
X96562152Y-38885952D02*
X96562152Y-38743095D01*
X96562152Y-38743095D02*
X96609771Y-38647856D01*
X96609771Y-38647856D02*
X96705009Y-38600237D01*
X96705009Y-38600237D02*
X97228819Y-38600237D01*
X135736556Y-50454164D02*
X136308682Y-50454164D01*
X136022619Y-51455384D02*
X136022619Y-50454164D01*
X136642421Y-51455384D02*
X136642421Y-50454164D01*
X136642421Y-50454164D02*
X137023838Y-50454164D01*
X137023838Y-50454164D02*
X137119193Y-50501841D01*
X137119193Y-50501841D02*
X137166870Y-50549518D01*
X137166870Y-50549518D02*
X137214547Y-50644872D01*
X137214547Y-50644872D02*
X137214547Y-50787904D01*
X137214547Y-50787904D02*
X137166870Y-50883258D01*
X137166870Y-50883258D02*
X137119193Y-50930935D01*
X137119193Y-50930935D02*
X137023838Y-50978612D01*
X137023838Y-50978612D02*
X136642421Y-50978612D01*
X138168090Y-51455384D02*
X137595964Y-51455384D01*
X137882027Y-51455384D02*
X137882027Y-50454164D01*
X137882027Y-50454164D02*
X137786673Y-50597195D01*
X137786673Y-50597195D02*
X137691318Y-50692549D01*
X137691318Y-50692549D02*
X137595964Y-50740227D01*
X121037556Y-40983164D02*
X121609682Y-40983164D01*
X121323619Y-41984384D02*
X121323619Y-40983164D01*
X121943421Y-41984384D02*
X121943421Y-40983164D01*
X121943421Y-40983164D02*
X122324838Y-40983164D01*
X122324838Y-40983164D02*
X122420193Y-41030841D01*
X122420193Y-41030841D02*
X122467870Y-41078518D01*
X122467870Y-41078518D02*
X122515547Y-41173872D01*
X122515547Y-41173872D02*
X122515547Y-41316904D01*
X122515547Y-41316904D02*
X122467870Y-41412258D01*
X122467870Y-41412258D02*
X122420193Y-41459935D01*
X122420193Y-41459935D02*
X122324838Y-41507612D01*
X122324838Y-41507612D02*
X121943421Y-41507612D01*
X122896964Y-41078518D02*
X122944641Y-41030841D01*
X122944641Y-41030841D02*
X123039996Y-40983164D01*
X123039996Y-40983164D02*
X123278381Y-40983164D01*
X123278381Y-40983164D02*
X123373736Y-41030841D01*
X123373736Y-41030841D02*
X123421413Y-41078518D01*
X123421413Y-41078518D02*
X123469090Y-41173872D01*
X123469090Y-41173872D02*
X123469090Y-41269227D01*
X123469090Y-41269227D02*
X123421413Y-41412258D01*
X123421413Y-41412258D02*
X122849287Y-41984384D01*
X122849287Y-41984384D02*
X123469090Y-41984384D01*
X110429833Y-75289580D02*
X110382214Y-75337200D01*
X110382214Y-75337200D02*
X110239357Y-75384819D01*
X110239357Y-75384819D02*
X110144119Y-75384819D01*
X110144119Y-75384819D02*
X110001262Y-75337200D01*
X110001262Y-75337200D02*
X109906024Y-75241961D01*
X109906024Y-75241961D02*
X109858405Y-75146723D01*
X109858405Y-75146723D02*
X109810786Y-74956247D01*
X109810786Y-74956247D02*
X109810786Y-74813390D01*
X109810786Y-74813390D02*
X109858405Y-74622914D01*
X109858405Y-74622914D02*
X109906024Y-74527676D01*
X109906024Y-74527676D02*
X110001262Y-74432438D01*
X110001262Y-74432438D02*
X110144119Y-74384819D01*
X110144119Y-74384819D02*
X110239357Y-74384819D01*
X110239357Y-74384819D02*
X110382214Y-74432438D01*
X110382214Y-74432438D02*
X110429833Y-74480057D01*
X111286976Y-74718152D02*
X111286976Y-75384819D01*
X111048881Y-74337200D02*
X110810786Y-75051485D01*
X110810786Y-75051485D02*
X111429833Y-75051485D01*
X114363667Y-88327200D02*
X114506524Y-88374819D01*
X114506524Y-88374819D02*
X114744619Y-88374819D01*
X114744619Y-88374819D02*
X114839857Y-88327200D01*
X114839857Y-88327200D02*
X114887476Y-88279580D01*
X114887476Y-88279580D02*
X114935095Y-88184342D01*
X114935095Y-88184342D02*
X114935095Y-88089104D01*
X114935095Y-88089104D02*
X114887476Y-87993866D01*
X114887476Y-87993866D02*
X114839857Y-87946247D01*
X114839857Y-87946247D02*
X114744619Y-87898628D01*
X114744619Y-87898628D02*
X114554143Y-87851009D01*
X114554143Y-87851009D02*
X114458905Y-87803390D01*
X114458905Y-87803390D02*
X114411286Y-87755771D01*
X114411286Y-87755771D02*
X114363667Y-87660533D01*
X114363667Y-87660533D02*
X114363667Y-87565295D01*
X114363667Y-87565295D02*
X114411286Y-87470057D01*
X114411286Y-87470057D02*
X114458905Y-87422438D01*
X114458905Y-87422438D02*
X114554143Y-87374819D01*
X114554143Y-87374819D02*
X114792238Y-87374819D01*
X114792238Y-87374819D02*
X114935095Y-87422438D01*
X115268429Y-87374819D02*
X115506524Y-88374819D01*
X115506524Y-88374819D02*
X115697000Y-87660533D01*
X115697000Y-87660533D02*
X115887476Y-88374819D01*
X115887476Y-88374819D02*
X116125572Y-87374819D01*
X116411286Y-87374819D02*
X117030333Y-87374819D01*
X117030333Y-87374819D02*
X116697000Y-87755771D01*
X116697000Y-87755771D02*
X116839857Y-87755771D01*
X116839857Y-87755771D02*
X116935095Y-87803390D01*
X116935095Y-87803390D02*
X116982714Y-87851009D01*
X116982714Y-87851009D02*
X117030333Y-87946247D01*
X117030333Y-87946247D02*
X117030333Y-88184342D01*
X117030333Y-88184342D02*
X116982714Y-88279580D01*
X116982714Y-88279580D02*
X116935095Y-88327200D01*
X116935095Y-88327200D02*
X116839857Y-88374819D01*
X116839857Y-88374819D02*
X116554143Y-88374819D01*
X116554143Y-88374819D02*
X116458905Y-88327200D01*
X116458905Y-88327200D02*
X116411286Y-88279580D01*
X112196691Y-79254319D02*
X112530024Y-80254319D01*
X112530024Y-80254319D02*
X112863357Y-79254319D01*
X113196691Y-80254319D02*
X113196691Y-79587652D01*
X113196691Y-79254319D02*
X113149072Y-79301938D01*
X113149072Y-79301938D02*
X113196691Y-79349557D01*
X113196691Y-79349557D02*
X113244310Y-79301938D01*
X113244310Y-79301938D02*
X113196691Y-79254319D01*
X113196691Y-79254319D02*
X113196691Y-79349557D01*
X113672881Y-79587652D02*
X113672881Y-80254319D01*
X113672881Y-79682890D02*
X113720500Y-79635271D01*
X113720500Y-79635271D02*
X113815738Y-79587652D01*
X113815738Y-79587652D02*
X113958595Y-79587652D01*
X113958595Y-79587652D02*
X114053833Y-79635271D01*
X114053833Y-79635271D02*
X114101452Y-79730509D01*
X114101452Y-79730509D02*
X114101452Y-80254319D01*
X117792595Y-79301938D02*
X117697357Y-79254319D01*
X117697357Y-79254319D02*
X117554500Y-79254319D01*
X117554500Y-79254319D02*
X117411643Y-79301938D01*
X117411643Y-79301938D02*
X117316405Y-79397176D01*
X117316405Y-79397176D02*
X117268786Y-79492414D01*
X117268786Y-79492414D02*
X117221167Y-79682890D01*
X117221167Y-79682890D02*
X117221167Y-79825747D01*
X117221167Y-79825747D02*
X117268786Y-80016223D01*
X117268786Y-80016223D02*
X117316405Y-80111461D01*
X117316405Y-80111461D02*
X117411643Y-80206700D01*
X117411643Y-80206700D02*
X117554500Y-80254319D01*
X117554500Y-80254319D02*
X117649738Y-80254319D01*
X117649738Y-80254319D02*
X117792595Y-80206700D01*
X117792595Y-80206700D02*
X117840214Y-80159080D01*
X117840214Y-80159080D02*
X117840214Y-79825747D01*
X117840214Y-79825747D02*
X117649738Y-79825747D01*
X118268786Y-80254319D02*
X118268786Y-79254319D01*
X118268786Y-79254319D02*
X118840214Y-80254319D01*
X118840214Y-80254319D02*
X118840214Y-79254319D01*
X119316405Y-80254319D02*
X119316405Y-79254319D01*
X119316405Y-79254319D02*
X119554500Y-79254319D01*
X119554500Y-79254319D02*
X119697357Y-79301938D01*
X119697357Y-79301938D02*
X119792595Y-79397176D01*
X119792595Y-79397176D02*
X119840214Y-79492414D01*
X119840214Y-79492414D02*
X119887833Y-79682890D01*
X119887833Y-79682890D02*
X119887833Y-79825747D01*
X119887833Y-79825747D02*
X119840214Y-80016223D01*
X119840214Y-80016223D02*
X119792595Y-80111461D01*
X119792595Y-80111461D02*
X119697357Y-80206700D01*
X119697357Y-80206700D02*
X119554500Y-80254319D01*
X119554500Y-80254319D02*
X119316405Y-80254319D01*
X163607142Y-72954819D02*
X163273809Y-72478628D01*
X163035714Y-72954819D02*
X163035714Y-71954819D01*
X163035714Y-71954819D02*
X163416666Y-71954819D01*
X163416666Y-71954819D02*
X163511904Y-72002438D01*
X163511904Y-72002438D02*
X163559523Y-72050057D01*
X163559523Y-72050057D02*
X163607142Y-72145295D01*
X163607142Y-72145295D02*
X163607142Y-72288152D01*
X163607142Y-72288152D02*
X163559523Y-72383390D01*
X163559523Y-72383390D02*
X163511904Y-72431009D01*
X163511904Y-72431009D02*
X163416666Y-72478628D01*
X163416666Y-72478628D02*
X163035714Y-72478628D01*
X164559523Y-72954819D02*
X163988095Y-72954819D01*
X164273809Y-72954819D02*
X164273809Y-71954819D01*
X164273809Y-71954819D02*
X164178571Y-72097676D01*
X164178571Y-72097676D02*
X164083333Y-72192914D01*
X164083333Y-72192914D02*
X163988095Y-72240533D01*
X164892857Y-71954819D02*
X165511904Y-71954819D01*
X165511904Y-71954819D02*
X165178571Y-72335771D01*
X165178571Y-72335771D02*
X165321428Y-72335771D01*
X165321428Y-72335771D02*
X165416666Y-72383390D01*
X165416666Y-72383390D02*
X165464285Y-72431009D01*
X165464285Y-72431009D02*
X165511904Y-72526247D01*
X165511904Y-72526247D02*
X165511904Y-72764342D01*
X165511904Y-72764342D02*
X165464285Y-72859580D01*
X165464285Y-72859580D02*
X165416666Y-72907200D01*
X165416666Y-72907200D02*
X165321428Y-72954819D01*
X165321428Y-72954819D02*
X165035714Y-72954819D01*
X165035714Y-72954819D02*
X164940476Y-72907200D01*
X164940476Y-72907200D02*
X164892857Y-72859580D01*
X150836333Y-69130080D02*
X150788714Y-69177700D01*
X150788714Y-69177700D02*
X150645857Y-69225319D01*
X150645857Y-69225319D02*
X150550619Y-69225319D01*
X150550619Y-69225319D02*
X150407762Y-69177700D01*
X150407762Y-69177700D02*
X150312524Y-69082461D01*
X150312524Y-69082461D02*
X150264905Y-68987223D01*
X150264905Y-68987223D02*
X150217286Y-68796747D01*
X150217286Y-68796747D02*
X150217286Y-68653890D01*
X150217286Y-68653890D02*
X150264905Y-68463414D01*
X150264905Y-68463414D02*
X150312524Y-68368176D01*
X150312524Y-68368176D02*
X150407762Y-68272938D01*
X150407762Y-68272938D02*
X150550619Y-68225319D01*
X150550619Y-68225319D02*
X150645857Y-68225319D01*
X150645857Y-68225319D02*
X150788714Y-68272938D01*
X150788714Y-68272938D02*
X150836333Y-68320557D01*
X151169667Y-68225319D02*
X151788714Y-68225319D01*
X151788714Y-68225319D02*
X151455381Y-68606271D01*
X151455381Y-68606271D02*
X151598238Y-68606271D01*
X151598238Y-68606271D02*
X151693476Y-68653890D01*
X151693476Y-68653890D02*
X151741095Y-68701509D01*
X151741095Y-68701509D02*
X151788714Y-68796747D01*
X151788714Y-68796747D02*
X151788714Y-69034842D01*
X151788714Y-69034842D02*
X151741095Y-69130080D01*
X151741095Y-69130080D02*
X151693476Y-69177700D01*
X151693476Y-69177700D02*
X151598238Y-69225319D01*
X151598238Y-69225319D02*
X151312524Y-69225319D01*
X151312524Y-69225319D02*
X151217286Y-69177700D01*
X151217286Y-69177700D02*
X151169667Y-69130080D01*
X163583333Y-79704819D02*
X163250000Y-79228628D01*
X163011905Y-79704819D02*
X163011905Y-78704819D01*
X163011905Y-78704819D02*
X163392857Y-78704819D01*
X163392857Y-78704819D02*
X163488095Y-78752438D01*
X163488095Y-78752438D02*
X163535714Y-78800057D01*
X163535714Y-78800057D02*
X163583333Y-78895295D01*
X163583333Y-78895295D02*
X163583333Y-79038152D01*
X163583333Y-79038152D02*
X163535714Y-79133390D01*
X163535714Y-79133390D02*
X163488095Y-79181009D01*
X163488095Y-79181009D02*
X163392857Y-79228628D01*
X163392857Y-79228628D02*
X163011905Y-79228628D01*
X164440476Y-79038152D02*
X164440476Y-79704819D01*
X164202381Y-78657200D02*
X163964286Y-79371485D01*
X163964286Y-79371485D02*
X164583333Y-79371485D01*
X123182142Y-70622319D02*
X122848809Y-70146128D01*
X122610714Y-70622319D02*
X122610714Y-69622319D01*
X122610714Y-69622319D02*
X122991666Y-69622319D01*
X122991666Y-69622319D02*
X123086904Y-69669938D01*
X123086904Y-69669938D02*
X123134523Y-69717557D01*
X123134523Y-69717557D02*
X123182142Y-69812795D01*
X123182142Y-69812795D02*
X123182142Y-69955652D01*
X123182142Y-69955652D02*
X123134523Y-70050890D01*
X123134523Y-70050890D02*
X123086904Y-70098509D01*
X123086904Y-70098509D02*
X122991666Y-70146128D01*
X122991666Y-70146128D02*
X122610714Y-70146128D01*
X124134523Y-70622319D02*
X123563095Y-70622319D01*
X123848809Y-70622319D02*
X123848809Y-69622319D01*
X123848809Y-69622319D02*
X123753571Y-69765176D01*
X123753571Y-69765176D02*
X123658333Y-69860414D01*
X123658333Y-69860414D02*
X123563095Y-69908033D01*
X124610714Y-70622319D02*
X124801190Y-70622319D01*
X124801190Y-70622319D02*
X124896428Y-70574700D01*
X124896428Y-70574700D02*
X124944047Y-70527080D01*
X124944047Y-70527080D02*
X125039285Y-70384223D01*
X125039285Y-70384223D02*
X125086904Y-70193747D01*
X125086904Y-70193747D02*
X125086904Y-69812795D01*
X125086904Y-69812795D02*
X125039285Y-69717557D01*
X125039285Y-69717557D02*
X124991666Y-69669938D01*
X124991666Y-69669938D02*
X124896428Y-69622319D01*
X124896428Y-69622319D02*
X124705952Y-69622319D01*
X124705952Y-69622319D02*
X124610714Y-69669938D01*
X124610714Y-69669938D02*
X124563095Y-69717557D01*
X124563095Y-69717557D02*
X124515476Y-69812795D01*
X124515476Y-69812795D02*
X124515476Y-70050890D01*
X124515476Y-70050890D02*
X124563095Y-70146128D01*
X124563095Y-70146128D02*
X124610714Y-70193747D01*
X124610714Y-70193747D02*
X124705952Y-70241366D01*
X124705952Y-70241366D02*
X124896428Y-70241366D01*
X124896428Y-70241366D02*
X124991666Y-70193747D01*
X124991666Y-70193747D02*
X125039285Y-70146128D01*
X125039285Y-70146128D02*
X125086904Y-70050890D01*
X181610023Y-54572819D02*
X181133833Y-54572819D01*
X181133833Y-54572819D02*
X181086214Y-55049009D01*
X181086214Y-55049009D02*
X181133833Y-55001390D01*
X181133833Y-55001390D02*
X181229071Y-54953771D01*
X181229071Y-54953771D02*
X181467166Y-54953771D01*
X181467166Y-54953771D02*
X181562404Y-55001390D01*
X181562404Y-55001390D02*
X181610023Y-55049009D01*
X181610023Y-55049009D02*
X181657642Y-55144247D01*
X181657642Y-55144247D02*
X181657642Y-55382342D01*
X181657642Y-55382342D02*
X181610023Y-55477580D01*
X181610023Y-55477580D02*
X181562404Y-55525200D01*
X181562404Y-55525200D02*
X181467166Y-55572819D01*
X181467166Y-55572819D02*
X181229071Y-55572819D01*
X181229071Y-55572819D02*
X181133833Y-55525200D01*
X181133833Y-55525200D02*
X181086214Y-55477580D01*
X181943357Y-54572819D02*
X182276690Y-55572819D01*
X182276690Y-55572819D02*
X182610023Y-54572819D01*
X181102095Y-34252819D02*
X181721142Y-34252819D01*
X181721142Y-34252819D02*
X181387809Y-34633771D01*
X181387809Y-34633771D02*
X181530666Y-34633771D01*
X181530666Y-34633771D02*
X181625904Y-34681390D01*
X181625904Y-34681390D02*
X181673523Y-34729009D01*
X181673523Y-34729009D02*
X181721142Y-34824247D01*
X181721142Y-34824247D02*
X181721142Y-35062342D01*
X181721142Y-35062342D02*
X181673523Y-35157580D01*
X181673523Y-35157580D02*
X181625904Y-35205200D01*
X181625904Y-35205200D02*
X181530666Y-35252819D01*
X181530666Y-35252819D02*
X181244952Y-35252819D01*
X181244952Y-35252819D02*
X181149714Y-35205200D01*
X181149714Y-35205200D02*
X181102095Y-35157580D01*
X182006857Y-34252819D02*
X182340190Y-35252819D01*
X182340190Y-35252819D02*
X182673523Y-34252819D01*
X181483095Y-31633438D02*
X181387857Y-31585819D01*
X181387857Y-31585819D02*
X181245000Y-31585819D01*
X181245000Y-31585819D02*
X181102143Y-31633438D01*
X181102143Y-31633438D02*
X181006905Y-31728676D01*
X181006905Y-31728676D02*
X180959286Y-31823914D01*
X180959286Y-31823914D02*
X180911667Y-32014390D01*
X180911667Y-32014390D02*
X180911667Y-32157247D01*
X180911667Y-32157247D02*
X180959286Y-32347723D01*
X180959286Y-32347723D02*
X181006905Y-32442961D01*
X181006905Y-32442961D02*
X181102143Y-32538200D01*
X181102143Y-32538200D02*
X181245000Y-32585819D01*
X181245000Y-32585819D02*
X181340238Y-32585819D01*
X181340238Y-32585819D02*
X181483095Y-32538200D01*
X181483095Y-32538200D02*
X181530714Y-32490580D01*
X181530714Y-32490580D02*
X181530714Y-32157247D01*
X181530714Y-32157247D02*
X181340238Y-32157247D01*
X181959286Y-32585819D02*
X181959286Y-31585819D01*
X181959286Y-31585819D02*
X182530714Y-32585819D01*
X182530714Y-32585819D02*
X182530714Y-31585819D01*
X183006905Y-32585819D02*
X183006905Y-31585819D01*
X183006905Y-31585819D02*
X183245000Y-31585819D01*
X183245000Y-31585819D02*
X183387857Y-31633438D01*
X183387857Y-31633438D02*
X183483095Y-31728676D01*
X183483095Y-31728676D02*
X183530714Y-31823914D01*
X183530714Y-31823914D02*
X183578333Y-32014390D01*
X183578333Y-32014390D02*
X183578333Y-32157247D01*
X183578333Y-32157247D02*
X183530714Y-32347723D01*
X183530714Y-32347723D02*
X183483095Y-32442961D01*
X183483095Y-32442961D02*
X183387857Y-32538200D01*
X183387857Y-32538200D02*
X183245000Y-32585819D01*
X183245000Y-32585819D02*
X183006905Y-32585819D01*
X181371881Y-51969319D02*
X181467119Y-51969319D01*
X181467119Y-51969319D02*
X181562357Y-52016938D01*
X181562357Y-52016938D02*
X181609976Y-52064557D01*
X181609976Y-52064557D02*
X181657595Y-52159795D01*
X181657595Y-52159795D02*
X181705214Y-52350271D01*
X181705214Y-52350271D02*
X181705214Y-52588366D01*
X181705214Y-52588366D02*
X181657595Y-52778842D01*
X181657595Y-52778842D02*
X181609976Y-52874080D01*
X181609976Y-52874080D02*
X181562357Y-52921700D01*
X181562357Y-52921700D02*
X181467119Y-52969319D01*
X181467119Y-52969319D02*
X181371881Y-52969319D01*
X181371881Y-52969319D02*
X181276643Y-52921700D01*
X181276643Y-52921700D02*
X181229024Y-52874080D01*
X181229024Y-52874080D02*
X181181405Y-52778842D01*
X181181405Y-52778842D02*
X181133786Y-52588366D01*
X181133786Y-52588366D02*
X181133786Y-52350271D01*
X181133786Y-52350271D02*
X181181405Y-52159795D01*
X181181405Y-52159795D02*
X181229024Y-52064557D01*
X181229024Y-52064557D02*
X181276643Y-52016938D01*
X181276643Y-52016938D02*
X181371881Y-51969319D01*
X181768714Y-50365819D02*
X181197286Y-50365819D01*
X181483000Y-50365819D02*
X181483000Y-49365819D01*
X181483000Y-49365819D02*
X181387762Y-49508676D01*
X181387762Y-49508676D02*
X181292524Y-49603914D01*
X181292524Y-49603914D02*
X181197286Y-49651533D01*
X181197286Y-46984557D02*
X181244905Y-46936938D01*
X181244905Y-46936938D02*
X181340143Y-46889319D01*
X181340143Y-46889319D02*
X181578238Y-46889319D01*
X181578238Y-46889319D02*
X181673476Y-46936938D01*
X181673476Y-46936938D02*
X181721095Y-46984557D01*
X181721095Y-46984557D02*
X181768714Y-47079795D01*
X181768714Y-47079795D02*
X181768714Y-47175033D01*
X181768714Y-47175033D02*
X181721095Y-47317890D01*
X181721095Y-47317890D02*
X181149667Y-47889319D01*
X181149667Y-47889319D02*
X181768714Y-47889319D01*
X181086167Y-44349319D02*
X181705214Y-44349319D01*
X181705214Y-44349319D02*
X181371881Y-44730271D01*
X181371881Y-44730271D02*
X181514738Y-44730271D01*
X181514738Y-44730271D02*
X181609976Y-44777890D01*
X181609976Y-44777890D02*
X181657595Y-44825509D01*
X181657595Y-44825509D02*
X181705214Y-44920747D01*
X181705214Y-44920747D02*
X181705214Y-45158842D01*
X181705214Y-45158842D02*
X181657595Y-45254080D01*
X181657595Y-45254080D02*
X181609976Y-45301700D01*
X181609976Y-45301700D02*
X181514738Y-45349319D01*
X181514738Y-45349319D02*
X181229024Y-45349319D01*
X181229024Y-45349319D02*
X181133786Y-45301700D01*
X181133786Y-45301700D02*
X181086167Y-45254080D01*
X181546476Y-42269652D02*
X181546476Y-42936319D01*
X181308381Y-41888700D02*
X181070286Y-42602985D01*
X181070286Y-42602985D02*
X181689333Y-42602985D01*
X181657595Y-39205819D02*
X181181405Y-39205819D01*
X181181405Y-39205819D02*
X181133786Y-39682009D01*
X181133786Y-39682009D02*
X181181405Y-39634390D01*
X181181405Y-39634390D02*
X181276643Y-39586771D01*
X181276643Y-39586771D02*
X181514738Y-39586771D01*
X181514738Y-39586771D02*
X181609976Y-39634390D01*
X181609976Y-39634390D02*
X181657595Y-39682009D01*
X181657595Y-39682009D02*
X181705214Y-39777247D01*
X181705214Y-39777247D02*
X181705214Y-40015342D01*
X181705214Y-40015342D02*
X181657595Y-40110580D01*
X181657595Y-40110580D02*
X181609976Y-40158200D01*
X181609976Y-40158200D02*
X181514738Y-40205819D01*
X181514738Y-40205819D02*
X181276643Y-40205819D01*
X181276643Y-40205819D02*
X181181405Y-40158200D01*
X181181405Y-40158200D02*
X181133786Y-40110580D01*
X181609976Y-36665819D02*
X181419500Y-36665819D01*
X181419500Y-36665819D02*
X181324262Y-36713438D01*
X181324262Y-36713438D02*
X181276643Y-36761057D01*
X181276643Y-36761057D02*
X181181405Y-36903914D01*
X181181405Y-36903914D02*
X181133786Y-37094390D01*
X181133786Y-37094390D02*
X181133786Y-37475342D01*
X181133786Y-37475342D02*
X181181405Y-37570580D01*
X181181405Y-37570580D02*
X181229024Y-37618200D01*
X181229024Y-37618200D02*
X181324262Y-37665819D01*
X181324262Y-37665819D02*
X181514738Y-37665819D01*
X181514738Y-37665819D02*
X181609976Y-37618200D01*
X181609976Y-37618200D02*
X181657595Y-37570580D01*
X181657595Y-37570580D02*
X181705214Y-37475342D01*
X181705214Y-37475342D02*
X181705214Y-37237247D01*
X181705214Y-37237247D02*
X181657595Y-37142009D01*
X181657595Y-37142009D02*
X181609976Y-37094390D01*
X181609976Y-37094390D02*
X181514738Y-37046771D01*
X181514738Y-37046771D02*
X181324262Y-37046771D01*
X181324262Y-37046771D02*
X181229024Y-37094390D01*
X181229024Y-37094390D02*
X181181405Y-37142009D01*
X181181405Y-37142009D02*
X181133786Y-37237247D01*
X116332095Y-65380819D02*
X116332095Y-66190342D01*
X116332095Y-66190342D02*
X116379714Y-66285580D01*
X116379714Y-66285580D02*
X116427333Y-66333200D01*
X116427333Y-66333200D02*
X116522571Y-66380819D01*
X116522571Y-66380819D02*
X116713047Y-66380819D01*
X116713047Y-66380819D02*
X116808285Y-66333200D01*
X116808285Y-66333200D02*
X116855904Y-66285580D01*
X116855904Y-66285580D02*
X116903523Y-66190342D01*
X116903523Y-66190342D02*
X116903523Y-65380819D01*
X117284476Y-65380819D02*
X117903523Y-65380819D01*
X117903523Y-65380819D02*
X117570190Y-65761771D01*
X117570190Y-65761771D02*
X117713047Y-65761771D01*
X117713047Y-65761771D02*
X117808285Y-65809390D01*
X117808285Y-65809390D02*
X117855904Y-65857009D01*
X117855904Y-65857009D02*
X117903523Y-65952247D01*
X117903523Y-65952247D02*
X117903523Y-66190342D01*
X117903523Y-66190342D02*
X117855904Y-66285580D01*
X117855904Y-66285580D02*
X117808285Y-66333200D01*
X117808285Y-66333200D02*
X117713047Y-66380819D01*
X117713047Y-66380819D02*
X117427333Y-66380819D01*
X117427333Y-66380819D02*
X117332095Y-66333200D01*
X117332095Y-66333200D02*
X117284476Y-66285580D01*
X167745580Y-71794666D02*
X167793200Y-71842285D01*
X167793200Y-71842285D02*
X167840819Y-71985142D01*
X167840819Y-71985142D02*
X167840819Y-72080380D01*
X167840819Y-72080380D02*
X167793200Y-72223237D01*
X167793200Y-72223237D02*
X167697961Y-72318475D01*
X167697961Y-72318475D02*
X167602723Y-72366094D01*
X167602723Y-72366094D02*
X167412247Y-72413713D01*
X167412247Y-72413713D02*
X167269390Y-72413713D01*
X167269390Y-72413713D02*
X167078914Y-72366094D01*
X167078914Y-72366094D02*
X166983676Y-72318475D01*
X166983676Y-72318475D02*
X166888438Y-72223237D01*
X166888438Y-72223237D02*
X166840819Y-72080380D01*
X166840819Y-72080380D02*
X166840819Y-71985142D01*
X166840819Y-71985142D02*
X166888438Y-71842285D01*
X166888438Y-71842285D02*
X166936057Y-71794666D01*
X166936057Y-71413713D02*
X166888438Y-71366094D01*
X166888438Y-71366094D02*
X166840819Y-71270856D01*
X166840819Y-71270856D02*
X166840819Y-71032761D01*
X166840819Y-71032761D02*
X166888438Y-70937523D01*
X166888438Y-70937523D02*
X166936057Y-70889904D01*
X166936057Y-70889904D02*
X167031295Y-70842285D01*
X167031295Y-70842285D02*
X167126533Y-70842285D01*
X167126533Y-70842285D02*
X167269390Y-70889904D01*
X167269390Y-70889904D02*
X167840819Y-71461332D01*
X167840819Y-71461332D02*
X167840819Y-70842285D01*
X149965580Y-76557166D02*
X150013200Y-76604785D01*
X150013200Y-76604785D02*
X150060819Y-76747642D01*
X150060819Y-76747642D02*
X150060819Y-76842880D01*
X150060819Y-76842880D02*
X150013200Y-76985737D01*
X150013200Y-76985737D02*
X149917961Y-77080975D01*
X149917961Y-77080975D02*
X149822723Y-77128594D01*
X149822723Y-77128594D02*
X149632247Y-77176213D01*
X149632247Y-77176213D02*
X149489390Y-77176213D01*
X149489390Y-77176213D02*
X149298914Y-77128594D01*
X149298914Y-77128594D02*
X149203676Y-77080975D01*
X149203676Y-77080975D02*
X149108438Y-76985737D01*
X149108438Y-76985737D02*
X149060819Y-76842880D01*
X149060819Y-76842880D02*
X149060819Y-76747642D01*
X149060819Y-76747642D02*
X149108438Y-76604785D01*
X149108438Y-76604785D02*
X149156057Y-76557166D01*
X150060819Y-75604785D02*
X150060819Y-76176213D01*
X150060819Y-75890499D02*
X149060819Y-75890499D01*
X149060819Y-75890499D02*
X149203676Y-75985737D01*
X149203676Y-75985737D02*
X149298914Y-76080975D01*
X149298914Y-76080975D02*
X149346533Y-76176213D01*
X174180595Y-85227319D02*
X174180595Y-84227319D01*
X174180595Y-84703509D02*
X174752023Y-84703509D01*
X174752023Y-85227319D02*
X174752023Y-84227319D01*
X175132976Y-84227319D02*
X175752023Y-84227319D01*
X175752023Y-84227319D02*
X175418690Y-84608271D01*
X175418690Y-84608271D02*
X175561547Y-84608271D01*
X175561547Y-84608271D02*
X175656785Y-84655890D01*
X175656785Y-84655890D02*
X175704404Y-84703509D01*
X175704404Y-84703509D02*
X175752023Y-84798747D01*
X175752023Y-84798747D02*
X175752023Y-85036842D01*
X175752023Y-85036842D02*
X175704404Y-85132080D01*
X175704404Y-85132080D02*
X175656785Y-85179700D01*
X175656785Y-85179700D02*
X175561547Y-85227319D01*
X175561547Y-85227319D02*
X175275833Y-85227319D01*
X175275833Y-85227319D02*
X175180595Y-85179700D01*
X175180595Y-85179700D02*
X175132976Y-85132080D01*
X150010833Y-63891319D02*
X149534643Y-63891319D01*
X149534643Y-63891319D02*
X149534643Y-62891319D01*
X150248929Y-62891319D02*
X150867976Y-62891319D01*
X150867976Y-62891319D02*
X150534643Y-63272271D01*
X150534643Y-63272271D02*
X150677500Y-63272271D01*
X150677500Y-63272271D02*
X150772738Y-63319890D01*
X150772738Y-63319890D02*
X150820357Y-63367509D01*
X150820357Y-63367509D02*
X150867976Y-63462747D01*
X150867976Y-63462747D02*
X150867976Y-63700842D01*
X150867976Y-63700842D02*
X150820357Y-63796080D01*
X150820357Y-63796080D02*
X150772738Y-63843700D01*
X150772738Y-63843700D02*
X150677500Y-63891319D01*
X150677500Y-63891319D02*
X150391786Y-63891319D01*
X150391786Y-63891319D02*
X150296548Y-63843700D01*
X150296548Y-63843700D02*
X150248929Y-63796080D01*
X96689152Y-60078761D02*
X97689152Y-60078761D01*
X96736771Y-60078761D02*
X96689152Y-59983523D01*
X96689152Y-59983523D02*
X96689152Y-59793047D01*
X96689152Y-59793047D02*
X96736771Y-59697809D01*
X96736771Y-59697809D02*
X96784390Y-59650190D01*
X96784390Y-59650190D02*
X96879628Y-59602571D01*
X96879628Y-59602571D02*
X97165342Y-59602571D01*
X97165342Y-59602571D02*
X97260580Y-59650190D01*
X97260580Y-59650190D02*
X97308200Y-59697809D01*
X97308200Y-59697809D02*
X97355819Y-59793047D01*
X97355819Y-59793047D02*
X97355819Y-59983523D01*
X97355819Y-59983523D02*
X97308200Y-60078761D01*
X96689152Y-59269237D02*
X97355819Y-59078761D01*
X97355819Y-59078761D02*
X96879628Y-58888285D01*
X96879628Y-58888285D02*
X97355819Y-58697809D01*
X97355819Y-58697809D02*
X96689152Y-58507333D01*
X97355819Y-58126380D02*
X96689152Y-58126380D01*
X96784390Y-58126380D02*
X96736771Y-58078761D01*
X96736771Y-58078761D02*
X96689152Y-57983523D01*
X96689152Y-57983523D02*
X96689152Y-57840666D01*
X96689152Y-57840666D02*
X96736771Y-57745428D01*
X96736771Y-57745428D02*
X96832009Y-57697809D01*
X96832009Y-57697809D02*
X97355819Y-57697809D01*
X96832009Y-57697809D02*
X96736771Y-57650190D01*
X96736771Y-57650190D02*
X96689152Y-57554952D01*
X96689152Y-57554952D02*
X96689152Y-57412095D01*
X96689152Y-57412095D02*
X96736771Y-57316856D01*
X96736771Y-57316856D02*
X96832009Y-57269237D01*
X96832009Y-57269237D02*
X97355819Y-57269237D01*
X163454819Y-86297619D02*
X163454819Y-86773809D01*
X163454819Y-86773809D02*
X163931009Y-86821428D01*
X163931009Y-86821428D02*
X163883390Y-86773809D01*
X163883390Y-86773809D02*
X163835771Y-86678571D01*
X163835771Y-86678571D02*
X163835771Y-86440476D01*
X163835771Y-86440476D02*
X163883390Y-86345238D01*
X163883390Y-86345238D02*
X163931009Y-86297619D01*
X163931009Y-86297619D02*
X164026247Y-86250000D01*
X164026247Y-86250000D02*
X164264342Y-86250000D01*
X164264342Y-86250000D02*
X164359580Y-86297619D01*
X164359580Y-86297619D02*
X164407200Y-86345238D01*
X164407200Y-86345238D02*
X164454819Y-86440476D01*
X164454819Y-86440476D02*
X164454819Y-86678571D01*
X164454819Y-86678571D02*
X164407200Y-86773809D01*
X164407200Y-86773809D02*
X164359580Y-86821428D01*
X163454819Y-85964285D02*
X164454819Y-85630952D01*
X164454819Y-85630952D02*
X163454819Y-85297619D01*
X164550057Y-85202381D02*
X164550057Y-84440476D01*
X164454819Y-83630952D02*
X163978628Y-83964285D01*
X164454819Y-84202380D02*
X163454819Y-84202380D01*
X163454819Y-84202380D02*
X163454819Y-83821428D01*
X163454819Y-83821428D02*
X163502438Y-83726190D01*
X163502438Y-83726190D02*
X163550057Y-83678571D01*
X163550057Y-83678571D02*
X163645295Y-83630952D01*
X163645295Y-83630952D02*
X163788152Y-83630952D01*
X163788152Y-83630952D02*
X163883390Y-83678571D01*
X163883390Y-83678571D02*
X163931009Y-83726190D01*
X163931009Y-83726190D02*
X163978628Y-83821428D01*
X163978628Y-83821428D02*
X163978628Y-84202380D01*
X164454819Y-82678571D02*
X164454819Y-83249999D01*
X164454819Y-82964285D02*
X163454819Y-82964285D01*
X163454819Y-82964285D02*
X163597676Y-83059523D01*
X163597676Y-83059523D02*
X163692914Y-83154761D01*
X163692914Y-83154761D02*
X163740533Y-83249999D01*
X145139580Y-77287357D02*
X145187200Y-77334976D01*
X145187200Y-77334976D02*
X145234819Y-77477833D01*
X145234819Y-77477833D02*
X145234819Y-77573071D01*
X145234819Y-77573071D02*
X145187200Y-77715928D01*
X145187200Y-77715928D02*
X145091961Y-77811166D01*
X145091961Y-77811166D02*
X144996723Y-77858785D01*
X144996723Y-77858785D02*
X144806247Y-77906404D01*
X144806247Y-77906404D02*
X144663390Y-77906404D01*
X144663390Y-77906404D02*
X144472914Y-77858785D01*
X144472914Y-77858785D02*
X144377676Y-77811166D01*
X144377676Y-77811166D02*
X144282438Y-77715928D01*
X144282438Y-77715928D02*
X144234819Y-77573071D01*
X144234819Y-77573071D02*
X144234819Y-77477833D01*
X144234819Y-77477833D02*
X144282438Y-77334976D01*
X144282438Y-77334976D02*
X144330057Y-77287357D01*
X145234819Y-76334976D02*
X145234819Y-76906404D01*
X145234819Y-76620690D02*
X144234819Y-76620690D01*
X144234819Y-76620690D02*
X144377676Y-76715928D01*
X144377676Y-76715928D02*
X144472914Y-76811166D01*
X144472914Y-76811166D02*
X144520533Y-76906404D01*
X144330057Y-75954023D02*
X144282438Y-75906404D01*
X144282438Y-75906404D02*
X144234819Y-75811166D01*
X144234819Y-75811166D02*
X144234819Y-75573071D01*
X144234819Y-75573071D02*
X144282438Y-75477833D01*
X144282438Y-75477833D02*
X144330057Y-75430214D01*
X144330057Y-75430214D02*
X144425295Y-75382595D01*
X144425295Y-75382595D02*
X144520533Y-75382595D01*
X144520533Y-75382595D02*
X144663390Y-75430214D01*
X144663390Y-75430214D02*
X145234819Y-76001642D01*
X145234819Y-76001642D02*
X145234819Y-75382595D01*
X141869048Y-70823866D02*
X142630953Y-70823866D01*
X142250000Y-71204819D02*
X142250000Y-70442914D01*
X102150080Y-64269857D02*
X102197700Y-64317476D01*
X102197700Y-64317476D02*
X102245319Y-64460333D01*
X102245319Y-64460333D02*
X102245319Y-64555571D01*
X102245319Y-64555571D02*
X102197700Y-64698428D01*
X102197700Y-64698428D02*
X102102461Y-64793666D01*
X102102461Y-64793666D02*
X102007223Y-64841285D01*
X102007223Y-64841285D02*
X101816747Y-64888904D01*
X101816747Y-64888904D02*
X101673890Y-64888904D01*
X101673890Y-64888904D02*
X101483414Y-64841285D01*
X101483414Y-64841285D02*
X101388176Y-64793666D01*
X101388176Y-64793666D02*
X101292938Y-64698428D01*
X101292938Y-64698428D02*
X101245319Y-64555571D01*
X101245319Y-64555571D02*
X101245319Y-64460333D01*
X101245319Y-64460333D02*
X101292938Y-64317476D01*
X101292938Y-64317476D02*
X101340557Y-64269857D01*
X102245319Y-63317476D02*
X102245319Y-63888904D01*
X102245319Y-63603190D02*
X101245319Y-63603190D01*
X101245319Y-63603190D02*
X101388176Y-63698428D01*
X101388176Y-63698428D02*
X101483414Y-63793666D01*
X101483414Y-63793666D02*
X101531033Y-63888904D01*
X101245319Y-62984142D02*
X101245319Y-62365095D01*
X101245319Y-62365095D02*
X101626271Y-62698428D01*
X101626271Y-62698428D02*
X101626271Y-62555571D01*
X101626271Y-62555571D02*
X101673890Y-62460333D01*
X101673890Y-62460333D02*
X101721509Y-62412714D01*
X101721509Y-62412714D02*
X101816747Y-62365095D01*
X101816747Y-62365095D02*
X102054842Y-62365095D01*
X102054842Y-62365095D02*
X102150080Y-62412714D01*
X102150080Y-62412714D02*
X102197700Y-62460333D01*
X102197700Y-62460333D02*
X102245319Y-62555571D01*
X102245319Y-62555571D02*
X102245319Y-62841285D01*
X102245319Y-62841285D02*
X102197700Y-62936523D01*
X102197700Y-62936523D02*
X102150080Y-62984142D01*
X175470200Y-63996332D02*
X175517819Y-63853475D01*
X175517819Y-63853475D02*
X175517819Y-63615380D01*
X175517819Y-63615380D02*
X175470200Y-63520142D01*
X175470200Y-63520142D02*
X175422580Y-63472523D01*
X175422580Y-63472523D02*
X175327342Y-63424904D01*
X175327342Y-63424904D02*
X175232104Y-63424904D01*
X175232104Y-63424904D02*
X175136866Y-63472523D01*
X175136866Y-63472523D02*
X175089247Y-63520142D01*
X175089247Y-63520142D02*
X175041628Y-63615380D01*
X175041628Y-63615380D02*
X174994009Y-63805856D01*
X174994009Y-63805856D02*
X174946390Y-63901094D01*
X174946390Y-63901094D02*
X174898771Y-63948713D01*
X174898771Y-63948713D02*
X174803533Y-63996332D01*
X174803533Y-63996332D02*
X174708295Y-63996332D01*
X174708295Y-63996332D02*
X174613057Y-63948713D01*
X174613057Y-63948713D02*
X174565438Y-63901094D01*
X174565438Y-63901094D02*
X174517819Y-63805856D01*
X174517819Y-63805856D02*
X174517819Y-63567761D01*
X174517819Y-63567761D02*
X174565438Y-63424904D01*
X174517819Y-63091570D02*
X175517819Y-62853475D01*
X175517819Y-62853475D02*
X174803533Y-62662999D01*
X174803533Y-62662999D02*
X175517819Y-62472523D01*
X175517819Y-62472523D02*
X174517819Y-62234428D01*
X174851152Y-61424904D02*
X175517819Y-61424904D01*
X174470200Y-61662999D02*
X175184485Y-61901094D01*
X175184485Y-61901094D02*
X175184485Y-61282047D01*
X123983761Y-76623057D02*
X123888523Y-76575438D01*
X123888523Y-76575438D02*
X123793285Y-76480200D01*
X123793285Y-76480200D02*
X123650428Y-76337342D01*
X123650428Y-76337342D02*
X123555190Y-76289723D01*
X123555190Y-76289723D02*
X123459952Y-76289723D01*
X123507571Y-76527819D02*
X123412333Y-76480200D01*
X123412333Y-76480200D02*
X123317095Y-76384961D01*
X123317095Y-76384961D02*
X123269476Y-76194485D01*
X123269476Y-76194485D02*
X123269476Y-75861152D01*
X123269476Y-75861152D02*
X123317095Y-75670676D01*
X123317095Y-75670676D02*
X123412333Y-75575438D01*
X123412333Y-75575438D02*
X123507571Y-75527819D01*
X123507571Y-75527819D02*
X123698047Y-75527819D01*
X123698047Y-75527819D02*
X123793285Y-75575438D01*
X123793285Y-75575438D02*
X123888523Y-75670676D01*
X123888523Y-75670676D02*
X123936142Y-75861152D01*
X123936142Y-75861152D02*
X123936142Y-76194485D01*
X123936142Y-76194485D02*
X123888523Y-76384961D01*
X123888523Y-76384961D02*
X123793285Y-76480200D01*
X123793285Y-76480200D02*
X123698047Y-76527819D01*
X123698047Y-76527819D02*
X123507571Y-76527819D01*
X124888523Y-76527819D02*
X124317095Y-76527819D01*
X124602809Y-76527819D02*
X124602809Y-75527819D01*
X124602809Y-75527819D02*
X124507571Y-75670676D01*
X124507571Y-75670676D02*
X124412333Y-75765914D01*
X124412333Y-75765914D02*
X124317095Y-75813533D01*
X120703180Y-76358905D02*
X121703180Y-76358905D01*
X121703180Y-76358905D02*
X121703180Y-76597000D01*
X121703180Y-76597000D02*
X121655561Y-76739857D01*
X121655561Y-76739857D02*
X121560323Y-76835095D01*
X121560323Y-76835095D02*
X121465085Y-76882714D01*
X121465085Y-76882714D02*
X121274609Y-76930333D01*
X121274609Y-76930333D02*
X121131752Y-76930333D01*
X121131752Y-76930333D02*
X120941276Y-76882714D01*
X120941276Y-76882714D02*
X120846038Y-76835095D01*
X120846038Y-76835095D02*
X120750800Y-76739857D01*
X120750800Y-76739857D02*
X120703180Y-76597000D01*
X120703180Y-76597000D02*
X120703180Y-76358905D01*
X120750800Y-77311286D02*
X120703180Y-77454143D01*
X120703180Y-77454143D02*
X120703180Y-77692238D01*
X120703180Y-77692238D02*
X120750800Y-77787476D01*
X120750800Y-77787476D02*
X120798419Y-77835095D01*
X120798419Y-77835095D02*
X120893657Y-77882714D01*
X120893657Y-77882714D02*
X120988895Y-77882714D01*
X120988895Y-77882714D02*
X121084133Y-77835095D01*
X121084133Y-77835095D02*
X121131752Y-77787476D01*
X121131752Y-77787476D02*
X121179371Y-77692238D01*
X121179371Y-77692238D02*
X121226990Y-77501762D01*
X121226990Y-77501762D02*
X121274609Y-77406524D01*
X121274609Y-77406524D02*
X121322228Y-77358905D01*
X121322228Y-77358905D02*
X121417466Y-77311286D01*
X121417466Y-77311286D02*
X121512704Y-77311286D01*
X121512704Y-77311286D02*
X121607942Y-77358905D01*
X121607942Y-77358905D02*
X121655561Y-77406524D01*
X121655561Y-77406524D02*
X121703180Y-77501762D01*
X121703180Y-77501762D02*
X121703180Y-77739857D01*
X121703180Y-77739857D02*
X121655561Y-77882714D01*
X121655561Y-78835095D02*
X121703180Y-78739857D01*
X121703180Y-78739857D02*
X121703180Y-78597000D01*
X121703180Y-78597000D02*
X121655561Y-78454143D01*
X121655561Y-78454143D02*
X121560323Y-78358905D01*
X121560323Y-78358905D02*
X121465085Y-78311286D01*
X121465085Y-78311286D02*
X121274609Y-78263667D01*
X121274609Y-78263667D02*
X121131752Y-78263667D01*
X121131752Y-78263667D02*
X120941276Y-78311286D01*
X120941276Y-78311286D02*
X120846038Y-78358905D01*
X120846038Y-78358905D02*
X120750800Y-78454143D01*
X120750800Y-78454143D02*
X120703180Y-78597000D01*
X120703180Y-78597000D02*
X120703180Y-78692238D01*
X120703180Y-78692238D02*
X120750800Y-78835095D01*
X120750800Y-78835095D02*
X120798419Y-78882714D01*
X120798419Y-78882714D02*
X121131752Y-78882714D01*
X121131752Y-78882714D02*
X121131752Y-78692238D01*
X162785319Y-51869404D02*
X163594842Y-51869404D01*
X163594842Y-51869404D02*
X163690080Y-51821785D01*
X163690080Y-51821785D02*
X163737700Y-51774166D01*
X163737700Y-51774166D02*
X163785319Y-51678928D01*
X163785319Y-51678928D02*
X163785319Y-51488452D01*
X163785319Y-51488452D02*
X163737700Y-51393214D01*
X163737700Y-51393214D02*
X163690080Y-51345595D01*
X163690080Y-51345595D02*
X163594842Y-51297976D01*
X163594842Y-51297976D02*
X162785319Y-51297976D01*
X163118652Y-50393214D02*
X163785319Y-50393214D01*
X162737700Y-50631309D02*
X163451985Y-50869404D01*
X163451985Y-50869404D02*
X163451985Y-50250357D01*
X123848833Y-74876819D02*
X123515500Y-74400628D01*
X123277405Y-74876819D02*
X123277405Y-73876819D01*
X123277405Y-73876819D02*
X123658357Y-73876819D01*
X123658357Y-73876819D02*
X123753595Y-73924438D01*
X123753595Y-73924438D02*
X123801214Y-73972057D01*
X123801214Y-73972057D02*
X123848833Y-74067295D01*
X123848833Y-74067295D02*
X123848833Y-74210152D01*
X123848833Y-74210152D02*
X123801214Y-74305390D01*
X123801214Y-74305390D02*
X123753595Y-74353009D01*
X123753595Y-74353009D02*
X123658357Y-74400628D01*
X123658357Y-74400628D02*
X123277405Y-74400628D01*
X124705976Y-73876819D02*
X124515500Y-73876819D01*
X124515500Y-73876819D02*
X124420262Y-73924438D01*
X124420262Y-73924438D02*
X124372643Y-73972057D01*
X124372643Y-73972057D02*
X124277405Y-74114914D01*
X124277405Y-74114914D02*
X124229786Y-74305390D01*
X124229786Y-74305390D02*
X124229786Y-74686342D01*
X124229786Y-74686342D02*
X124277405Y-74781580D01*
X124277405Y-74781580D02*
X124325024Y-74829200D01*
X124325024Y-74829200D02*
X124420262Y-74876819D01*
X124420262Y-74876819D02*
X124610738Y-74876819D01*
X124610738Y-74876819D02*
X124705976Y-74829200D01*
X124705976Y-74829200D02*
X124753595Y-74781580D01*
X124753595Y-74781580D02*
X124801214Y-74686342D01*
X124801214Y-74686342D02*
X124801214Y-74448247D01*
X124801214Y-74448247D02*
X124753595Y-74353009D01*
X124753595Y-74353009D02*
X124705976Y-74305390D01*
X124705976Y-74305390D02*
X124610738Y-74257771D01*
X124610738Y-74257771D02*
X124420262Y-74257771D01*
X124420262Y-74257771D02*
X124325024Y-74305390D01*
X124325024Y-74305390D02*
X124277405Y-74353009D01*
X124277405Y-74353009D02*
X124229786Y-74448247D01*
D10*
X178157919Y-87058309D02*
X178157919Y-86439262D01*
X178157919Y-86439262D02*
X178538871Y-86772595D01*
X178538871Y-86772595D02*
X178538871Y-86629738D01*
X178538871Y-86629738D02*
X178586490Y-86534500D01*
X178586490Y-86534500D02*
X178634109Y-86486881D01*
X178634109Y-86486881D02*
X178729347Y-86439262D01*
X178729347Y-86439262D02*
X178967442Y-86439262D01*
X178967442Y-86439262D02*
X179062680Y-86486881D01*
X179062680Y-86486881D02*
X179110300Y-86534500D01*
X179110300Y-86534500D02*
X179157919Y-86629738D01*
X179157919Y-86629738D02*
X179157919Y-86915452D01*
X179157919Y-86915452D02*
X179110300Y-87010690D01*
X179110300Y-87010690D02*
X179062680Y-87058309D01*
X178491252Y-86105928D02*
X179157919Y-85867833D01*
X179157919Y-85867833D02*
X178491252Y-85629738D01*
X178157919Y-85344023D02*
X178157919Y-84724976D01*
X178157919Y-84724976D02*
X178538871Y-85058309D01*
X178538871Y-85058309D02*
X178538871Y-84915452D01*
X178538871Y-84915452D02*
X178586490Y-84820214D01*
X178586490Y-84820214D02*
X178634109Y-84772595D01*
X178634109Y-84772595D02*
X178729347Y-84724976D01*
X178729347Y-84724976D02*
X178967442Y-84724976D01*
X178967442Y-84724976D02*
X179062680Y-84772595D01*
X179062680Y-84772595D02*
X179110300Y-84820214D01*
X179110300Y-84820214D02*
X179157919Y-84915452D01*
X179157919Y-84915452D02*
X179157919Y-85201166D01*
X179157919Y-85201166D02*
X179110300Y-85296404D01*
X179110300Y-85296404D02*
X179062680Y-85344023D01*
X179157919Y-83820214D02*
X179157919Y-84296404D01*
X179157919Y-84296404D02*
X178157919Y-84296404D01*
X178634109Y-83486880D02*
X178634109Y-83153547D01*
X179157919Y-83010690D02*
X179157919Y-83486880D01*
X179157919Y-83486880D02*
X178157919Y-83486880D01*
X178157919Y-83486880D02*
X178157919Y-83010690D01*
X179157919Y-82582118D02*
X178157919Y-82582118D01*
X178157919Y-82582118D02*
X178157919Y-82344023D01*
X178157919Y-82344023D02*
X178205538Y-82201166D01*
X178205538Y-82201166D02*
X178300776Y-82105928D01*
X178300776Y-82105928D02*
X178396014Y-82058309D01*
X178396014Y-82058309D02*
X178586490Y-82010690D01*
X178586490Y-82010690D02*
X178729347Y-82010690D01*
X178729347Y-82010690D02*
X178919823Y-82058309D01*
X178919823Y-82058309D02*
X179015061Y-82105928D01*
X179015061Y-82105928D02*
X179110300Y-82201166D01*
X179110300Y-82201166D02*
X179157919Y-82344023D01*
X179157919Y-82344023D02*
X179157919Y-82582118D01*
X179157919Y-81058309D02*
X179157919Y-81629737D01*
X179157919Y-81344023D02*
X178157919Y-81344023D01*
X178157919Y-81344023D02*
X178300776Y-81439261D01*
X178300776Y-81439261D02*
X178396014Y-81534499D01*
X178396014Y-81534499D02*
X178443633Y-81629737D01*
D11*
X181369048Y-81323866D02*
X182130953Y-81323866D01*
X181750000Y-81704819D02*
X181750000Y-80942914D01*
X181369048Y-87073866D02*
X182130953Y-87073866D01*
X117771080Y-35663166D02*
X117818700Y-35710785D01*
X117818700Y-35710785D02*
X117866319Y-35853642D01*
X117866319Y-35853642D02*
X117866319Y-35948880D01*
X117866319Y-35948880D02*
X117818700Y-36091737D01*
X117818700Y-36091737D02*
X117723461Y-36186975D01*
X117723461Y-36186975D02*
X117628223Y-36234594D01*
X117628223Y-36234594D02*
X117437747Y-36282213D01*
X117437747Y-36282213D02*
X117294890Y-36282213D01*
X117294890Y-36282213D02*
X117104414Y-36234594D01*
X117104414Y-36234594D02*
X117009176Y-36186975D01*
X117009176Y-36186975D02*
X116913938Y-36091737D01*
X116913938Y-36091737D02*
X116866319Y-35948880D01*
X116866319Y-35948880D02*
X116866319Y-35853642D01*
X116866319Y-35853642D02*
X116913938Y-35710785D01*
X116913938Y-35710785D02*
X116961557Y-35663166D01*
X117294890Y-35091737D02*
X117247271Y-35186975D01*
X117247271Y-35186975D02*
X117199652Y-35234594D01*
X117199652Y-35234594D02*
X117104414Y-35282213D01*
X117104414Y-35282213D02*
X117056795Y-35282213D01*
X117056795Y-35282213D02*
X116961557Y-35234594D01*
X116961557Y-35234594D02*
X116913938Y-35186975D01*
X116913938Y-35186975D02*
X116866319Y-35091737D01*
X116866319Y-35091737D02*
X116866319Y-34901261D01*
X116866319Y-34901261D02*
X116913938Y-34806023D01*
X116913938Y-34806023D02*
X116961557Y-34758404D01*
X116961557Y-34758404D02*
X117056795Y-34710785D01*
X117056795Y-34710785D02*
X117104414Y-34710785D01*
X117104414Y-34710785D02*
X117199652Y-34758404D01*
X117199652Y-34758404D02*
X117247271Y-34806023D01*
X117247271Y-34806023D02*
X117294890Y-34901261D01*
X117294890Y-34901261D02*
X117294890Y-35091737D01*
X117294890Y-35091737D02*
X117342509Y-35186975D01*
X117342509Y-35186975D02*
X117390128Y-35234594D01*
X117390128Y-35234594D02*
X117485366Y-35282213D01*
X117485366Y-35282213D02*
X117675842Y-35282213D01*
X117675842Y-35282213D02*
X117771080Y-35234594D01*
X117771080Y-35234594D02*
X117818700Y-35186975D01*
X117818700Y-35186975D02*
X117866319Y-35091737D01*
X117866319Y-35091737D02*
X117866319Y-34901261D01*
X117866319Y-34901261D02*
X117818700Y-34806023D01*
X117818700Y-34806023D02*
X117771080Y-34758404D01*
X117771080Y-34758404D02*
X117675842Y-34710785D01*
X117675842Y-34710785D02*
X117485366Y-34710785D01*
X117485366Y-34710785D02*
X117390128Y-34758404D01*
X117390128Y-34758404D02*
X117342509Y-34806023D01*
X117342509Y-34806023D02*
X117294890Y-34901261D01*
X102576762Y-76417819D02*
X103243428Y-76417819D01*
X103243428Y-76417819D02*
X102814857Y-77417819D01*
X103481524Y-76417819D02*
X103814857Y-77417819D01*
X103814857Y-77417819D02*
X104148190Y-76417819D01*
X104957714Y-76417819D02*
X104481524Y-76417819D01*
X104481524Y-76417819D02*
X104433905Y-76894009D01*
X104433905Y-76894009D02*
X104481524Y-76846390D01*
X104481524Y-76846390D02*
X104576762Y-76798771D01*
X104576762Y-76798771D02*
X104814857Y-76798771D01*
X104814857Y-76798771D02*
X104910095Y-76846390D01*
X104910095Y-76846390D02*
X104957714Y-76894009D01*
X104957714Y-76894009D02*
X105005333Y-76989247D01*
X105005333Y-76989247D02*
X105005333Y-77227342D01*
X105005333Y-77227342D02*
X104957714Y-77322580D01*
X104957714Y-77322580D02*
X104910095Y-77370200D01*
X104910095Y-77370200D02*
X104814857Y-77417819D01*
X104814857Y-77417819D02*
X104576762Y-77417819D01*
X104576762Y-77417819D02*
X104481524Y-77370200D01*
X104481524Y-77370200D02*
X104433905Y-77322580D01*
X105195810Y-77513057D02*
X105957714Y-77513057D01*
X106767238Y-77417819D02*
X106433905Y-76941628D01*
X106195810Y-77417819D02*
X106195810Y-76417819D01*
X106195810Y-76417819D02*
X106576762Y-76417819D01*
X106576762Y-76417819D02*
X106672000Y-76465438D01*
X106672000Y-76465438D02*
X106719619Y-76513057D01*
X106719619Y-76513057D02*
X106767238Y-76608295D01*
X106767238Y-76608295D02*
X106767238Y-76751152D01*
X106767238Y-76751152D02*
X106719619Y-76846390D01*
X106719619Y-76846390D02*
X106672000Y-76894009D01*
X106672000Y-76894009D02*
X106576762Y-76941628D01*
X106576762Y-76941628D02*
X106195810Y-76941628D01*
X107719619Y-77417819D02*
X107148191Y-77417819D01*
X107433905Y-77417819D02*
X107433905Y-76417819D01*
X107433905Y-76417819D02*
X107338667Y-76560676D01*
X107338667Y-76560676D02*
X107243429Y-76655914D01*
X107243429Y-76655914D02*
X107148191Y-76703533D01*
X135487580Y-65116857D02*
X135535200Y-65164476D01*
X135535200Y-65164476D02*
X135582819Y-65307333D01*
X135582819Y-65307333D02*
X135582819Y-65402571D01*
X135582819Y-65402571D02*
X135535200Y-65545428D01*
X135535200Y-65545428D02*
X135439961Y-65640666D01*
X135439961Y-65640666D02*
X135344723Y-65688285D01*
X135344723Y-65688285D02*
X135154247Y-65735904D01*
X135154247Y-65735904D02*
X135011390Y-65735904D01*
X135011390Y-65735904D02*
X134820914Y-65688285D01*
X134820914Y-65688285D02*
X134725676Y-65640666D01*
X134725676Y-65640666D02*
X134630438Y-65545428D01*
X134630438Y-65545428D02*
X134582819Y-65402571D01*
X134582819Y-65402571D02*
X134582819Y-65307333D01*
X134582819Y-65307333D02*
X134630438Y-65164476D01*
X134630438Y-65164476D02*
X134678057Y-65116857D01*
X134678057Y-64735904D02*
X134630438Y-64688285D01*
X134630438Y-64688285D02*
X134582819Y-64593047D01*
X134582819Y-64593047D02*
X134582819Y-64354952D01*
X134582819Y-64354952D02*
X134630438Y-64259714D01*
X134630438Y-64259714D02*
X134678057Y-64212095D01*
X134678057Y-64212095D02*
X134773295Y-64164476D01*
X134773295Y-64164476D02*
X134868533Y-64164476D01*
X134868533Y-64164476D02*
X135011390Y-64212095D01*
X135011390Y-64212095D02*
X135582819Y-64783523D01*
X135582819Y-64783523D02*
X135582819Y-64164476D01*
X134678057Y-63783523D02*
X134630438Y-63735904D01*
X134630438Y-63735904D02*
X134582819Y-63640666D01*
X134582819Y-63640666D02*
X134582819Y-63402571D01*
X134582819Y-63402571D02*
X134630438Y-63307333D01*
X134630438Y-63307333D02*
X134678057Y-63259714D01*
X134678057Y-63259714D02*
X134773295Y-63212095D01*
X134773295Y-63212095D02*
X134868533Y-63212095D01*
X134868533Y-63212095D02*
X135011390Y-63259714D01*
X135011390Y-63259714D02*
X135582819Y-63831142D01*
X135582819Y-63831142D02*
X135582819Y-63212095D01*
X129166666Y-73454819D02*
X129166666Y-74169104D01*
X129166666Y-74169104D02*
X129119047Y-74311961D01*
X129119047Y-74311961D02*
X129023809Y-74407200D01*
X129023809Y-74407200D02*
X128880952Y-74454819D01*
X128880952Y-74454819D02*
X128785714Y-74454819D01*
X129595238Y-73550057D02*
X129642857Y-73502438D01*
X129642857Y-73502438D02*
X129738095Y-73454819D01*
X129738095Y-73454819D02*
X129976190Y-73454819D01*
X129976190Y-73454819D02*
X130071428Y-73502438D01*
X130071428Y-73502438D02*
X130119047Y-73550057D01*
X130119047Y-73550057D02*
X130166666Y-73645295D01*
X130166666Y-73645295D02*
X130166666Y-73740533D01*
X130166666Y-73740533D02*
X130119047Y-73883390D01*
X130119047Y-73883390D02*
X129547619Y-74454819D01*
X129547619Y-74454819D02*
X130166666Y-74454819D01*
X101282595Y-80709819D02*
X101282595Y-79709819D01*
X101282595Y-80186009D02*
X101854023Y-80186009D01*
X101854023Y-80709819D02*
X101854023Y-79709819D01*
X102758785Y-80043152D02*
X102758785Y-80709819D01*
X102520690Y-79662200D02*
X102282595Y-80376485D01*
X102282595Y-80376485D02*
X102901642Y-80376485D01*
X183533700Y-73405832D02*
X183581319Y-73262975D01*
X183581319Y-73262975D02*
X183581319Y-73024880D01*
X183581319Y-73024880D02*
X183533700Y-72929642D01*
X183533700Y-72929642D02*
X183486080Y-72882023D01*
X183486080Y-72882023D02*
X183390842Y-72834404D01*
X183390842Y-72834404D02*
X183295604Y-72834404D01*
X183295604Y-72834404D02*
X183200366Y-72882023D01*
X183200366Y-72882023D02*
X183152747Y-72929642D01*
X183152747Y-72929642D02*
X183105128Y-73024880D01*
X183105128Y-73024880D02*
X183057509Y-73215356D01*
X183057509Y-73215356D02*
X183009890Y-73310594D01*
X183009890Y-73310594D02*
X182962271Y-73358213D01*
X182962271Y-73358213D02*
X182867033Y-73405832D01*
X182867033Y-73405832D02*
X182771795Y-73405832D01*
X182771795Y-73405832D02*
X182676557Y-73358213D01*
X182676557Y-73358213D02*
X182628938Y-73310594D01*
X182628938Y-73310594D02*
X182581319Y-73215356D01*
X182581319Y-73215356D02*
X182581319Y-72977261D01*
X182581319Y-72977261D02*
X182628938Y-72834404D01*
X182581319Y-72501070D02*
X183581319Y-72262975D01*
X183581319Y-72262975D02*
X182867033Y-72072499D01*
X182867033Y-72072499D02*
X183581319Y-71882023D01*
X183581319Y-71882023D02*
X182581319Y-71643928D01*
X182676557Y-71310594D02*
X182628938Y-71262975D01*
X182628938Y-71262975D02*
X182581319Y-71167737D01*
X182581319Y-71167737D02*
X182581319Y-70929642D01*
X182581319Y-70929642D02*
X182628938Y-70834404D01*
X182628938Y-70834404D02*
X182676557Y-70786785D01*
X182676557Y-70786785D02*
X182771795Y-70739166D01*
X182771795Y-70739166D02*
X182867033Y-70739166D01*
X182867033Y-70739166D02*
X183009890Y-70786785D01*
X183009890Y-70786785D02*
X183581319Y-71358213D01*
X183581319Y-71358213D02*
X183581319Y-70739166D01*
X174878904Y-75110061D02*
X174974142Y-75157680D01*
X174974142Y-75157680D02*
X175116999Y-75157680D01*
X175116999Y-75157680D02*
X175259856Y-75110061D01*
X175259856Y-75110061D02*
X175355094Y-75014823D01*
X175355094Y-75014823D02*
X175402713Y-74919585D01*
X175402713Y-74919585D02*
X175450332Y-74729109D01*
X175450332Y-74729109D02*
X175450332Y-74586252D01*
X175450332Y-74586252D02*
X175402713Y-74395776D01*
X175402713Y-74395776D02*
X175355094Y-74300538D01*
X175355094Y-74300538D02*
X175259856Y-74205300D01*
X175259856Y-74205300D02*
X175116999Y-74157680D01*
X175116999Y-74157680D02*
X175021761Y-74157680D01*
X175021761Y-74157680D02*
X174878904Y-74205300D01*
X174878904Y-74205300D02*
X174831285Y-74252919D01*
X174831285Y-74252919D02*
X174831285Y-74586252D01*
X174831285Y-74586252D02*
X175021761Y-74586252D01*
X174402713Y-74157680D02*
X174402713Y-75157680D01*
X174402713Y-75157680D02*
X173831285Y-74157680D01*
X173831285Y-74157680D02*
X173831285Y-75157680D01*
X173355094Y-74157680D02*
X173355094Y-75157680D01*
X173355094Y-75157680D02*
X173116999Y-75157680D01*
X173116999Y-75157680D02*
X172974142Y-75110061D01*
X172974142Y-75110061D02*
X172878904Y-75014823D01*
X172878904Y-75014823D02*
X172831285Y-74919585D01*
X172831285Y-74919585D02*
X172783666Y-74729109D01*
X172783666Y-74729109D02*
X172783666Y-74586252D01*
X172783666Y-74586252D02*
X172831285Y-74395776D01*
X172831285Y-74395776D02*
X172878904Y-74300538D01*
X172878904Y-74300538D02*
X172974142Y-74205300D01*
X172974142Y-74205300D02*
X173116999Y-74157680D01*
X173116999Y-74157680D02*
X173355094Y-74157680D01*
X174998023Y-72141490D02*
X174855166Y-72093871D01*
X174855166Y-72093871D02*
X174807547Y-72046252D01*
X174807547Y-72046252D02*
X174759928Y-71951014D01*
X174759928Y-71951014D02*
X174759928Y-71808157D01*
X174759928Y-71808157D02*
X174807547Y-71712919D01*
X174807547Y-71712919D02*
X174855166Y-71665300D01*
X174855166Y-71665300D02*
X174950404Y-71617680D01*
X174950404Y-71617680D02*
X175331356Y-71617680D01*
X175331356Y-71617680D02*
X175331356Y-72617680D01*
X175331356Y-72617680D02*
X174998023Y-72617680D01*
X174998023Y-72617680D02*
X174902785Y-72570061D01*
X174902785Y-72570061D02*
X174855166Y-72522442D01*
X174855166Y-72522442D02*
X174807547Y-72427204D01*
X174807547Y-72427204D02*
X174807547Y-72331966D01*
X174807547Y-72331966D02*
X174855166Y-72236728D01*
X174855166Y-72236728D02*
X174902785Y-72189109D01*
X174902785Y-72189109D02*
X174998023Y-72141490D01*
X174998023Y-72141490D02*
X175331356Y-72141490D01*
X174474213Y-72617680D02*
X173902785Y-72617680D01*
X174188499Y-71617680D02*
X174188499Y-72617680D01*
X101663819Y-72548833D02*
X102378104Y-72548833D01*
X102378104Y-72548833D02*
X102520961Y-72596452D01*
X102520961Y-72596452D02*
X102616200Y-72691690D01*
X102616200Y-72691690D02*
X102663819Y-72834547D01*
X102663819Y-72834547D02*
X102663819Y-72929785D01*
X102663819Y-71548833D02*
X102663819Y-72120261D01*
X102663819Y-71834547D02*
X101663819Y-71834547D01*
X101663819Y-71834547D02*
X101806676Y-71929785D01*
X101806676Y-71929785D02*
X101901914Y-72025023D01*
X101901914Y-72025023D02*
X101949533Y-72120261D01*
X123182142Y-68653819D02*
X122848809Y-68177628D01*
X122610714Y-68653819D02*
X122610714Y-67653819D01*
X122610714Y-67653819D02*
X122991666Y-67653819D01*
X122991666Y-67653819D02*
X123086904Y-67701438D01*
X123086904Y-67701438D02*
X123134523Y-67749057D01*
X123134523Y-67749057D02*
X123182142Y-67844295D01*
X123182142Y-67844295D02*
X123182142Y-67987152D01*
X123182142Y-67987152D02*
X123134523Y-68082390D01*
X123134523Y-68082390D02*
X123086904Y-68130009D01*
X123086904Y-68130009D02*
X122991666Y-68177628D01*
X122991666Y-68177628D02*
X122610714Y-68177628D01*
X124134523Y-68653819D02*
X123563095Y-68653819D01*
X123848809Y-68653819D02*
X123848809Y-67653819D01*
X123848809Y-67653819D02*
X123753571Y-67796676D01*
X123753571Y-67796676D02*
X123658333Y-67891914D01*
X123658333Y-67891914D02*
X123563095Y-67939533D01*
X124467857Y-67653819D02*
X125134523Y-67653819D01*
X125134523Y-67653819D02*
X124705952Y-68653819D01*
X163607142Y-77454819D02*
X163273809Y-76978628D01*
X163035714Y-77454819D02*
X163035714Y-76454819D01*
X163035714Y-76454819D02*
X163416666Y-76454819D01*
X163416666Y-76454819D02*
X163511904Y-76502438D01*
X163511904Y-76502438D02*
X163559523Y-76550057D01*
X163559523Y-76550057D02*
X163607142Y-76645295D01*
X163607142Y-76645295D02*
X163607142Y-76788152D01*
X163607142Y-76788152D02*
X163559523Y-76883390D01*
X163559523Y-76883390D02*
X163511904Y-76931009D01*
X163511904Y-76931009D02*
X163416666Y-76978628D01*
X163416666Y-76978628D02*
X163035714Y-76978628D01*
X164559523Y-77454819D02*
X163988095Y-77454819D01*
X164273809Y-77454819D02*
X164273809Y-76454819D01*
X164273809Y-76454819D02*
X164178571Y-76597676D01*
X164178571Y-76597676D02*
X164083333Y-76692914D01*
X164083333Y-76692914D02*
X163988095Y-76740533D01*
X165464285Y-76454819D02*
X164988095Y-76454819D01*
X164988095Y-76454819D02*
X164940476Y-76931009D01*
X164940476Y-76931009D02*
X164988095Y-76883390D01*
X164988095Y-76883390D02*
X165083333Y-76835771D01*
X165083333Y-76835771D02*
X165321428Y-76835771D01*
X165321428Y-76835771D02*
X165416666Y-76883390D01*
X165416666Y-76883390D02*
X165464285Y-76931009D01*
X165464285Y-76931009D02*
X165511904Y-77026247D01*
X165511904Y-77026247D02*
X165511904Y-77264342D01*
X165511904Y-77264342D02*
X165464285Y-77359580D01*
X165464285Y-77359580D02*
X165416666Y-77407200D01*
X165416666Y-77407200D02*
X165321428Y-77454819D01*
X165321428Y-77454819D02*
X165083333Y-77454819D01*
X165083333Y-77454819D02*
X164988095Y-77407200D01*
X164988095Y-77407200D02*
X164940476Y-77359580D01*
X106109580Y-58392857D02*
X106157200Y-58440476D01*
X106157200Y-58440476D02*
X106204819Y-58583333D01*
X106204819Y-58583333D02*
X106204819Y-58678571D01*
X106204819Y-58678571D02*
X106157200Y-58821428D01*
X106157200Y-58821428D02*
X106061961Y-58916666D01*
X106061961Y-58916666D02*
X105966723Y-58964285D01*
X105966723Y-58964285D02*
X105776247Y-59011904D01*
X105776247Y-59011904D02*
X105633390Y-59011904D01*
X105633390Y-59011904D02*
X105442914Y-58964285D01*
X105442914Y-58964285D02*
X105347676Y-58916666D01*
X105347676Y-58916666D02*
X105252438Y-58821428D01*
X105252438Y-58821428D02*
X105204819Y-58678571D01*
X105204819Y-58678571D02*
X105204819Y-58583333D01*
X105204819Y-58583333D02*
X105252438Y-58440476D01*
X105252438Y-58440476D02*
X105300057Y-58392857D01*
X106204819Y-57440476D02*
X106204819Y-58011904D01*
X106204819Y-57726190D02*
X105204819Y-57726190D01*
X105204819Y-57726190D02*
X105347676Y-57821428D01*
X105347676Y-57821428D02*
X105442914Y-57916666D01*
X105442914Y-57916666D02*
X105490533Y-58011904D01*
X105204819Y-56535714D02*
X105204819Y-57011904D01*
X105204819Y-57011904D02*
X105681009Y-57059523D01*
X105681009Y-57059523D02*
X105633390Y-57011904D01*
X105633390Y-57011904D02*
X105585771Y-56916666D01*
X105585771Y-56916666D02*
X105585771Y-56678571D01*
X105585771Y-56678571D02*
X105633390Y-56583333D01*
X105633390Y-56583333D02*
X105681009Y-56535714D01*
X105681009Y-56535714D02*
X105776247Y-56488095D01*
X105776247Y-56488095D02*
X106014342Y-56488095D01*
X106014342Y-56488095D02*
X106109580Y-56535714D01*
X106109580Y-56535714D02*
X106157200Y-56583333D01*
X106157200Y-56583333D02*
X106204819Y-56678571D01*
X106204819Y-56678571D02*
X106204819Y-56916666D01*
X106204819Y-56916666D02*
X106157200Y-57011904D01*
X106157200Y-57011904D02*
X106109580Y-57059523D01*
X167809080Y-64799357D02*
X167856700Y-64846976D01*
X167856700Y-64846976D02*
X167904319Y-64989833D01*
X167904319Y-64989833D02*
X167904319Y-65085071D01*
X167904319Y-65085071D02*
X167856700Y-65227928D01*
X167856700Y-65227928D02*
X167761461Y-65323166D01*
X167761461Y-65323166D02*
X167666223Y-65370785D01*
X167666223Y-65370785D02*
X167475747Y-65418404D01*
X167475747Y-65418404D02*
X167332890Y-65418404D01*
X167332890Y-65418404D02*
X167142414Y-65370785D01*
X167142414Y-65370785D02*
X167047176Y-65323166D01*
X167047176Y-65323166D02*
X166951938Y-65227928D01*
X166951938Y-65227928D02*
X166904319Y-65085071D01*
X166904319Y-65085071D02*
X166904319Y-64989833D01*
X166904319Y-64989833D02*
X166951938Y-64846976D01*
X166951938Y-64846976D02*
X166999557Y-64799357D01*
X166999557Y-64418404D02*
X166951938Y-64370785D01*
X166951938Y-64370785D02*
X166904319Y-64275547D01*
X166904319Y-64275547D02*
X166904319Y-64037452D01*
X166904319Y-64037452D02*
X166951938Y-63942214D01*
X166951938Y-63942214D02*
X166999557Y-63894595D01*
X166999557Y-63894595D02*
X167094795Y-63846976D01*
X167094795Y-63846976D02*
X167190033Y-63846976D01*
X167190033Y-63846976D02*
X167332890Y-63894595D01*
X167332890Y-63894595D02*
X167904319Y-64466023D01*
X167904319Y-64466023D02*
X167904319Y-63846976D01*
X166904319Y-63513642D02*
X166904319Y-62894595D01*
X166904319Y-62894595D02*
X167285271Y-63227928D01*
X167285271Y-63227928D02*
X167285271Y-63085071D01*
X167285271Y-63085071D02*
X167332890Y-62989833D01*
X167332890Y-62989833D02*
X167380509Y-62942214D01*
X167380509Y-62942214D02*
X167475747Y-62894595D01*
X167475747Y-62894595D02*
X167713842Y-62894595D01*
X167713842Y-62894595D02*
X167809080Y-62942214D01*
X167809080Y-62942214D02*
X167856700Y-62989833D01*
X167856700Y-62989833D02*
X167904319Y-63085071D01*
X167904319Y-63085071D02*
X167904319Y-63370785D01*
X167904319Y-63370785D02*
X167856700Y-63466023D01*
X167856700Y-63466023D02*
X167809080Y-63513642D01*
X170609580Y-64892857D02*
X170657200Y-64940476D01*
X170657200Y-64940476D02*
X170704819Y-65083333D01*
X170704819Y-65083333D02*
X170704819Y-65178571D01*
X170704819Y-65178571D02*
X170657200Y-65321428D01*
X170657200Y-65321428D02*
X170561961Y-65416666D01*
X170561961Y-65416666D02*
X170466723Y-65464285D01*
X170466723Y-65464285D02*
X170276247Y-65511904D01*
X170276247Y-65511904D02*
X170133390Y-65511904D01*
X170133390Y-65511904D02*
X169942914Y-65464285D01*
X169942914Y-65464285D02*
X169847676Y-65416666D01*
X169847676Y-65416666D02*
X169752438Y-65321428D01*
X169752438Y-65321428D02*
X169704819Y-65178571D01*
X169704819Y-65178571D02*
X169704819Y-65083333D01*
X169704819Y-65083333D02*
X169752438Y-64940476D01*
X169752438Y-64940476D02*
X169800057Y-64892857D01*
X169800057Y-64511904D02*
X169752438Y-64464285D01*
X169752438Y-64464285D02*
X169704819Y-64369047D01*
X169704819Y-64369047D02*
X169704819Y-64130952D01*
X169704819Y-64130952D02*
X169752438Y-64035714D01*
X169752438Y-64035714D02*
X169800057Y-63988095D01*
X169800057Y-63988095D02*
X169895295Y-63940476D01*
X169895295Y-63940476D02*
X169990533Y-63940476D01*
X169990533Y-63940476D02*
X170133390Y-63988095D01*
X170133390Y-63988095D02*
X170704819Y-64559523D01*
X170704819Y-64559523D02*
X170704819Y-63940476D01*
X170038152Y-63083333D02*
X170704819Y-63083333D01*
X169657200Y-63321428D02*
X170371485Y-63559523D01*
X170371485Y-63559523D02*
X170371485Y-62940476D01*
X163607142Y-67954819D02*
X163273809Y-67478628D01*
X163035714Y-67954819D02*
X163035714Y-66954819D01*
X163035714Y-66954819D02*
X163416666Y-66954819D01*
X163416666Y-66954819D02*
X163511904Y-67002438D01*
X163511904Y-67002438D02*
X163559523Y-67050057D01*
X163559523Y-67050057D02*
X163607142Y-67145295D01*
X163607142Y-67145295D02*
X163607142Y-67288152D01*
X163607142Y-67288152D02*
X163559523Y-67383390D01*
X163559523Y-67383390D02*
X163511904Y-67431009D01*
X163511904Y-67431009D02*
X163416666Y-67478628D01*
X163416666Y-67478628D02*
X163035714Y-67478628D01*
X164559523Y-67954819D02*
X163988095Y-67954819D01*
X164273809Y-67954819D02*
X164273809Y-66954819D01*
X164273809Y-66954819D02*
X164178571Y-67097676D01*
X164178571Y-67097676D02*
X164083333Y-67192914D01*
X164083333Y-67192914D02*
X163988095Y-67240533D01*
X165416666Y-66954819D02*
X165226190Y-66954819D01*
X165226190Y-66954819D02*
X165130952Y-67002438D01*
X165130952Y-67002438D02*
X165083333Y-67050057D01*
X165083333Y-67050057D02*
X164988095Y-67192914D01*
X164988095Y-67192914D02*
X164940476Y-67383390D01*
X164940476Y-67383390D02*
X164940476Y-67764342D01*
X164940476Y-67764342D02*
X164988095Y-67859580D01*
X164988095Y-67859580D02*
X165035714Y-67907200D01*
X165035714Y-67907200D02*
X165130952Y-67954819D01*
X165130952Y-67954819D02*
X165321428Y-67954819D01*
X165321428Y-67954819D02*
X165416666Y-67907200D01*
X165416666Y-67907200D02*
X165464285Y-67859580D01*
X165464285Y-67859580D02*
X165511904Y-67764342D01*
X165511904Y-67764342D02*
X165511904Y-67526247D01*
X165511904Y-67526247D02*
X165464285Y-67431009D01*
X165464285Y-67431009D02*
X165416666Y-67383390D01*
X165416666Y-67383390D02*
X165321428Y-67335771D01*
X165321428Y-67335771D02*
X165130952Y-67335771D01*
X165130952Y-67335771D02*
X165035714Y-67383390D01*
X165035714Y-67383390D02*
X164988095Y-67431009D01*
X164988095Y-67431009D02*
X164940476Y-67526247D01*
X114704833Y-62589580D02*
X114657214Y-62637200D01*
X114657214Y-62637200D02*
X114514357Y-62684819D01*
X114514357Y-62684819D02*
X114419119Y-62684819D01*
X114419119Y-62684819D02*
X114276262Y-62637200D01*
X114276262Y-62637200D02*
X114181024Y-62541961D01*
X114181024Y-62541961D02*
X114133405Y-62446723D01*
X114133405Y-62446723D02*
X114085786Y-62256247D01*
X114085786Y-62256247D02*
X114085786Y-62113390D01*
X114085786Y-62113390D02*
X114133405Y-61922914D01*
X114133405Y-61922914D02*
X114181024Y-61827676D01*
X114181024Y-61827676D02*
X114276262Y-61732438D01*
X114276262Y-61732438D02*
X114419119Y-61684819D01*
X114419119Y-61684819D02*
X114514357Y-61684819D01*
X114514357Y-61684819D02*
X114657214Y-61732438D01*
X114657214Y-61732438D02*
X114704833Y-61780057D01*
X115561976Y-61684819D02*
X115371500Y-61684819D01*
X115371500Y-61684819D02*
X115276262Y-61732438D01*
X115276262Y-61732438D02*
X115228643Y-61780057D01*
X115228643Y-61780057D02*
X115133405Y-61922914D01*
X115133405Y-61922914D02*
X115085786Y-62113390D01*
X115085786Y-62113390D02*
X115085786Y-62494342D01*
X115085786Y-62494342D02*
X115133405Y-62589580D01*
X115133405Y-62589580D02*
X115181024Y-62637200D01*
X115181024Y-62637200D02*
X115276262Y-62684819D01*
X115276262Y-62684819D02*
X115466738Y-62684819D01*
X115466738Y-62684819D02*
X115561976Y-62637200D01*
X115561976Y-62637200D02*
X115609595Y-62589580D01*
X115609595Y-62589580D02*
X115657214Y-62494342D01*
X115657214Y-62494342D02*
X115657214Y-62256247D01*
X115657214Y-62256247D02*
X115609595Y-62161009D01*
X115609595Y-62161009D02*
X115561976Y-62113390D01*
X115561976Y-62113390D02*
X115466738Y-62065771D01*
X115466738Y-62065771D02*
X115276262Y-62065771D01*
X115276262Y-62065771D02*
X115181024Y-62113390D01*
X115181024Y-62113390D02*
X115133405Y-62161009D01*
X115133405Y-62161009D02*
X115085786Y-62256247D01*
X127931080Y-35493166D02*
X127978700Y-35540785D01*
X127978700Y-35540785D02*
X128026319Y-35683642D01*
X128026319Y-35683642D02*
X128026319Y-35778880D01*
X128026319Y-35778880D02*
X127978700Y-35921737D01*
X127978700Y-35921737D02*
X127883461Y-36016975D01*
X127883461Y-36016975D02*
X127788223Y-36064594D01*
X127788223Y-36064594D02*
X127597747Y-36112213D01*
X127597747Y-36112213D02*
X127454890Y-36112213D01*
X127454890Y-36112213D02*
X127264414Y-36064594D01*
X127264414Y-36064594D02*
X127169176Y-36016975D01*
X127169176Y-36016975D02*
X127073938Y-35921737D01*
X127073938Y-35921737D02*
X127026319Y-35778880D01*
X127026319Y-35778880D02*
X127026319Y-35683642D01*
X127026319Y-35683642D02*
X127073938Y-35540785D01*
X127073938Y-35540785D02*
X127121557Y-35493166D01*
X128026319Y-35016975D02*
X128026319Y-34826499D01*
X128026319Y-34826499D02*
X127978700Y-34731261D01*
X127978700Y-34731261D02*
X127931080Y-34683642D01*
X127931080Y-34683642D02*
X127788223Y-34588404D01*
X127788223Y-34588404D02*
X127597747Y-34540785D01*
X127597747Y-34540785D02*
X127216795Y-34540785D01*
X127216795Y-34540785D02*
X127121557Y-34588404D01*
X127121557Y-34588404D02*
X127073938Y-34636023D01*
X127073938Y-34636023D02*
X127026319Y-34731261D01*
X127026319Y-34731261D02*
X127026319Y-34921737D01*
X127026319Y-34921737D02*
X127073938Y-35016975D01*
X127073938Y-35016975D02*
X127121557Y-35064594D01*
X127121557Y-35064594D02*
X127216795Y-35112213D01*
X127216795Y-35112213D02*
X127454890Y-35112213D01*
X127454890Y-35112213D02*
X127550128Y-35064594D01*
X127550128Y-35064594D02*
X127597747Y-35016975D01*
X127597747Y-35016975D02*
X127645366Y-34921737D01*
X127645366Y-34921737D02*
X127645366Y-34731261D01*
X127645366Y-34731261D02*
X127597747Y-34636023D01*
X127597747Y-34636023D02*
X127550128Y-34588404D01*
X127550128Y-34588404D02*
X127454890Y-34540785D01*
D10*
X105946919Y-86507428D02*
X105946919Y-85840762D01*
X105946919Y-85840762D02*
X106946919Y-86269333D01*
X105946919Y-85602666D02*
X106946919Y-85269333D01*
X106946919Y-85269333D02*
X105946919Y-84936000D01*
X106280252Y-84174095D02*
X106946919Y-84174095D01*
X105899300Y-84412190D02*
X106613585Y-84650285D01*
X106613585Y-84650285D02*
X106613585Y-84031238D01*
X106946919Y-83174095D02*
X106946919Y-83650285D01*
X106946919Y-83650285D02*
X105946919Y-83650285D01*
X106423109Y-82840761D02*
X106423109Y-82507428D01*
X106946919Y-82364571D02*
X106946919Y-82840761D01*
X106946919Y-82840761D02*
X105946919Y-82840761D01*
X105946919Y-82840761D02*
X105946919Y-82364571D01*
X106946919Y-81935999D02*
X105946919Y-81935999D01*
X105946919Y-81935999D02*
X105946919Y-81697904D01*
X105946919Y-81697904D02*
X105994538Y-81555047D01*
X105994538Y-81555047D02*
X106089776Y-81459809D01*
X106089776Y-81459809D02*
X106185014Y-81412190D01*
X106185014Y-81412190D02*
X106375490Y-81364571D01*
X106375490Y-81364571D02*
X106518347Y-81364571D01*
X106518347Y-81364571D02*
X106708823Y-81412190D01*
X106708823Y-81412190D02*
X106804061Y-81459809D01*
X106804061Y-81459809D02*
X106899300Y-81555047D01*
X106899300Y-81555047D02*
X106946919Y-81697904D01*
X106946919Y-81697904D02*
X106946919Y-81935999D01*
X106946919Y-80412190D02*
X106946919Y-80983618D01*
X106946919Y-80697904D02*
X105946919Y-80697904D01*
X105946919Y-80697904D02*
X106089776Y-80793142D01*
X106089776Y-80793142D02*
X106185014Y-80888380D01*
X106185014Y-80888380D02*
X106232633Y-80983618D01*
D11*
X107869048Y-80323866D02*
X108630953Y-80323866D01*
X108250000Y-80704819D02*
X108250000Y-79942914D01*
X107950048Y-86573866D02*
X108711953Y-86573866D01*
X174204819Y-66416666D02*
X173728628Y-66749999D01*
X174204819Y-66988094D02*
X173204819Y-66988094D01*
X173204819Y-66988094D02*
X173204819Y-66607142D01*
X173204819Y-66607142D02*
X173252438Y-66511904D01*
X173252438Y-66511904D02*
X173300057Y-66464285D01*
X173300057Y-66464285D02*
X173395295Y-66416666D01*
X173395295Y-66416666D02*
X173538152Y-66416666D01*
X173538152Y-66416666D02*
X173633390Y-66464285D01*
X173633390Y-66464285D02*
X173681009Y-66511904D01*
X173681009Y-66511904D02*
X173728628Y-66607142D01*
X173728628Y-66607142D02*
X173728628Y-66988094D01*
X173300057Y-66035713D02*
X173252438Y-65988094D01*
X173252438Y-65988094D02*
X173204819Y-65892856D01*
X173204819Y-65892856D02*
X173204819Y-65654761D01*
X173204819Y-65654761D02*
X173252438Y-65559523D01*
X173252438Y-65559523D02*
X173300057Y-65511904D01*
X173300057Y-65511904D02*
X173395295Y-65464285D01*
X173395295Y-65464285D02*
X173490533Y-65464285D01*
X173490533Y-65464285D02*
X173633390Y-65511904D01*
X173633390Y-65511904D02*
X174204819Y-66083332D01*
X174204819Y-66083332D02*
X174204819Y-65464285D01*
X130469319Y-48306904D02*
X131278842Y-48306904D01*
X131278842Y-48306904D02*
X131374080Y-48259285D01*
X131374080Y-48259285D02*
X131421700Y-48211666D01*
X131421700Y-48211666D02*
X131469319Y-48116428D01*
X131469319Y-48116428D02*
X131469319Y-47925952D01*
X131469319Y-47925952D02*
X131421700Y-47830714D01*
X131421700Y-47830714D02*
X131374080Y-47783095D01*
X131374080Y-47783095D02*
X131278842Y-47735476D01*
X131278842Y-47735476D02*
X130469319Y-47735476D01*
X131469319Y-46735476D02*
X131469319Y-47306904D01*
X131469319Y-47021190D02*
X130469319Y-47021190D01*
X130469319Y-47021190D02*
X130612176Y-47116428D01*
X130612176Y-47116428D02*
X130707414Y-47211666D01*
X130707414Y-47211666D02*
X130755033Y-47306904D01*
X163583333Y-70454819D02*
X163250000Y-69978628D01*
X163011905Y-70454819D02*
X163011905Y-69454819D01*
X163011905Y-69454819D02*
X163392857Y-69454819D01*
X163392857Y-69454819D02*
X163488095Y-69502438D01*
X163488095Y-69502438D02*
X163535714Y-69550057D01*
X163535714Y-69550057D02*
X163583333Y-69645295D01*
X163583333Y-69645295D02*
X163583333Y-69788152D01*
X163583333Y-69788152D02*
X163535714Y-69883390D01*
X163535714Y-69883390D02*
X163488095Y-69931009D01*
X163488095Y-69931009D02*
X163392857Y-69978628D01*
X163392857Y-69978628D02*
X163011905Y-69978628D01*
X163916667Y-69454819D02*
X164535714Y-69454819D01*
X164535714Y-69454819D02*
X164202381Y-69835771D01*
X164202381Y-69835771D02*
X164345238Y-69835771D01*
X164345238Y-69835771D02*
X164440476Y-69883390D01*
X164440476Y-69883390D02*
X164488095Y-69931009D01*
X164488095Y-69931009D02*
X164535714Y-70026247D01*
X164535714Y-70026247D02*
X164535714Y-70264342D01*
X164535714Y-70264342D02*
X164488095Y-70359580D01*
X164488095Y-70359580D02*
X164440476Y-70407200D01*
X164440476Y-70407200D02*
X164345238Y-70454819D01*
X164345238Y-70454819D02*
X164059524Y-70454819D01*
X164059524Y-70454819D02*
X163964286Y-70407200D01*
X163964286Y-70407200D02*
X163916667Y-70359580D01*
D10*
X153773919Y-85804309D02*
X153773919Y-86280499D01*
X153773919Y-86280499D02*
X154250109Y-86328118D01*
X154250109Y-86328118D02*
X154202490Y-86280499D01*
X154202490Y-86280499D02*
X154154871Y-86185261D01*
X154154871Y-86185261D02*
X154154871Y-85947166D01*
X154154871Y-85947166D02*
X154202490Y-85851928D01*
X154202490Y-85851928D02*
X154250109Y-85804309D01*
X154250109Y-85804309D02*
X154345347Y-85756690D01*
X154345347Y-85756690D02*
X154583442Y-85756690D01*
X154583442Y-85756690D02*
X154678680Y-85804309D01*
X154678680Y-85804309D02*
X154726300Y-85851928D01*
X154726300Y-85851928D02*
X154773919Y-85947166D01*
X154773919Y-85947166D02*
X154773919Y-86185261D01*
X154773919Y-86185261D02*
X154726300Y-86280499D01*
X154726300Y-86280499D02*
X154678680Y-86328118D01*
X153773919Y-85470975D02*
X154773919Y-85137642D01*
X154773919Y-85137642D02*
X153773919Y-84804309D01*
X154773919Y-83994785D02*
X154773919Y-84470975D01*
X154773919Y-84470975D02*
X153773919Y-84470975D01*
X154250109Y-83661451D02*
X154250109Y-83328118D01*
X154773919Y-83185261D02*
X154773919Y-83661451D01*
X154773919Y-83661451D02*
X153773919Y-83661451D01*
X153773919Y-83661451D02*
X153773919Y-83185261D01*
X154773919Y-82756689D02*
X153773919Y-82756689D01*
X153773919Y-82756689D02*
X153773919Y-82518594D01*
X153773919Y-82518594D02*
X153821538Y-82375737D01*
X153821538Y-82375737D02*
X153916776Y-82280499D01*
X153916776Y-82280499D02*
X154012014Y-82232880D01*
X154012014Y-82232880D02*
X154202490Y-82185261D01*
X154202490Y-82185261D02*
X154345347Y-82185261D01*
X154345347Y-82185261D02*
X154535823Y-82232880D01*
X154535823Y-82232880D02*
X154631061Y-82280499D01*
X154631061Y-82280499D02*
X154726300Y-82375737D01*
X154726300Y-82375737D02*
X154773919Y-82518594D01*
X154773919Y-82518594D02*
X154773919Y-82756689D01*
X154773919Y-81232880D02*
X154773919Y-81804308D01*
X154773919Y-81518594D02*
X153773919Y-81518594D01*
X153773919Y-81518594D02*
X153916776Y-81613832D01*
X153916776Y-81613832D02*
X154012014Y-81709070D01*
X154012014Y-81709070D02*
X154059633Y-81804308D01*
D11*
X156869048Y-80573866D02*
X157630953Y-80573866D01*
X157250000Y-80954819D02*
X157250000Y-80192914D01*
X157035548Y-87323866D02*
X157797453Y-87323866D01*
X132630080Y-65043166D02*
X132677700Y-65090785D01*
X132677700Y-65090785D02*
X132725319Y-65233642D01*
X132725319Y-65233642D02*
X132725319Y-65328880D01*
X132725319Y-65328880D02*
X132677700Y-65471737D01*
X132677700Y-65471737D02*
X132582461Y-65566975D01*
X132582461Y-65566975D02*
X132487223Y-65614594D01*
X132487223Y-65614594D02*
X132296747Y-65662213D01*
X132296747Y-65662213D02*
X132153890Y-65662213D01*
X132153890Y-65662213D02*
X131963414Y-65614594D01*
X131963414Y-65614594D02*
X131868176Y-65566975D01*
X131868176Y-65566975D02*
X131772938Y-65471737D01*
X131772938Y-65471737D02*
X131725319Y-65328880D01*
X131725319Y-65328880D02*
X131725319Y-65233642D01*
X131725319Y-65233642D02*
X131772938Y-65090785D01*
X131772938Y-65090785D02*
X131820557Y-65043166D01*
X131725319Y-64709832D02*
X131725319Y-64043166D01*
X131725319Y-64043166D02*
X132725319Y-64471737D01*
D12*
X121756500Y-32035436D02*
X121756500Y-32489564D01*
X123226500Y-32035436D02*
X123226500Y-32489564D01*
X155165000Y-35172936D02*
X155165000Y-35627064D01*
X156635000Y-35172936D02*
X156635000Y-35627064D01*
X127233436Y-65178000D02*
X127687564Y-65178000D01*
X127233436Y-66648000D02*
X127687564Y-66648000D01*
X106597500Y-30956500D02*
X106597500Y-34956500D01*
X106887500Y-29926500D02*
X106887500Y-35946500D01*
X106887500Y-35946500D02*
X114727500Y-35946500D01*
X107467500Y-29926500D02*
X107467500Y-30526500D01*
X107467500Y-30526500D02*
X109067500Y-30526500D01*
X108267500Y-34946500D02*
X108517500Y-34416500D01*
X108267500Y-34946500D02*
X113347500Y-34946500D01*
X108267500Y-35946500D02*
X108267500Y-34946500D01*
X108517500Y-34416500D02*
X113097500Y-34416500D01*
X108517500Y-35946500D02*
X108517500Y-34946500D01*
X109067500Y-30526500D02*
X109067500Y-29926500D01*
X110007500Y-29926500D02*
X110007500Y-30526500D01*
X110007500Y-30526500D02*
X111607500Y-30526500D01*
X111607500Y-30526500D02*
X111607500Y-29926500D01*
X112547500Y-29926500D02*
X112547500Y-30526500D01*
X112547500Y-30526500D02*
X114147500Y-30526500D01*
X113097500Y-34416500D02*
X113347500Y-34946500D01*
X113097500Y-35946500D02*
X113097500Y-34946500D01*
X113347500Y-34946500D02*
X113347500Y-35946500D01*
X114147500Y-30526500D02*
X114147500Y-29926500D01*
X114727500Y-29926500D02*
X106887500Y-29926500D01*
X114727500Y-35946500D02*
X114727500Y-29926500D01*
X120861064Y-71337500D02*
X120406936Y-71337500D01*
X120861064Y-72807500D02*
X120406936Y-72807500D01*
X137167000Y-61783000D02*
X137167000Y-63148000D01*
X137167000Y-63148000D02*
X138977000Y-63148000D01*
X147567000Y-61783000D02*
X147567000Y-63148000D01*
X147567000Y-63148000D02*
X145757000Y-63148000D01*
X139017000Y-65973000D02*
X138547000Y-66313000D01*
X138547000Y-65633000D01*
X139017000Y-65973000D01*
G36*
X139017000Y-65973000D02*
G01*
X138547000Y-66313000D01*
X138547000Y-65633000D01*
X139017000Y-65973000D01*
G37*
X124423500Y-32561252D02*
X124423500Y-32038748D01*
X125893500Y-32561252D02*
X125893500Y-32038748D01*
X157330000Y-32000000D02*
X157330000Y-36000000D01*
X157620000Y-30970000D02*
X157620000Y-36990000D01*
X157620000Y-36990000D02*
X162920000Y-36990000D01*
X158200000Y-30970000D02*
X158200000Y-31570000D01*
X158200000Y-31570000D02*
X159800000Y-31570000D01*
X159000000Y-35990000D02*
X159250000Y-35460000D01*
X159000000Y-35990000D02*
X161540000Y-35990000D01*
X159000000Y-36990000D02*
X159000000Y-35990000D01*
X159250000Y-35460000D02*
X161290000Y-35460000D01*
X159250000Y-36990000D02*
X159250000Y-35990000D01*
X159800000Y-31570000D02*
X159800000Y-30970000D01*
X160740000Y-30970000D02*
X160740000Y-31570000D01*
X160740000Y-31570000D02*
X162340000Y-31570000D01*
X161290000Y-35460000D02*
X161540000Y-35990000D01*
X161290000Y-36990000D02*
X161290000Y-35990000D01*
X161540000Y-35990000D02*
X161540000Y-36990000D01*
X162340000Y-31570000D02*
X162340000Y-30970000D01*
X162920000Y-30970000D02*
X157620000Y-30970000D01*
X162920000Y-36990000D02*
X162920000Y-30970000D01*
X127624064Y-62828500D02*
X127169936Y-62828500D01*
X127624064Y-64298500D02*
X127169936Y-64298500D01*
D13*
X100454500Y-47879000D02*
G75*
G02*
X97284500Y-47879000I-1585000J0D01*
G01*
X97284500Y-47879000D02*
G75*
G02*
X100454500Y-47879000I1585000J0D01*
G01*
X100200500Y-79438500D02*
G75*
G02*
X97030500Y-79438500I-1585000J0D01*
G01*
X97030500Y-79438500D02*
G75*
G02*
X100200500Y-79438500I1585000J0D01*
G01*
D12*
X114201752Y-76544500D02*
X113679248Y-76544500D01*
X114201752Y-78014500D02*
X113679248Y-78014500D01*
D14*
X122936000Y-53340000D02*
X122936000Y-54594760D01*
X122936000Y-60594240D02*
X122936000Y-61849000D01*
X122936000Y-61849000D02*
X131445000Y-61849000D01*
X131445000Y-53340000D02*
X122936000Y-53340000D01*
X131445000Y-54594760D02*
X131445000Y-53340000D01*
X131445000Y-61849000D02*
X131445000Y-60594240D01*
D12*
X154183500Y-72100000D02*
X153383500Y-72100000D01*
X154183500Y-72100000D02*
X154983500Y-72100000D01*
X154183500Y-75220000D02*
X153383500Y-75220000D01*
X154183500Y-75220000D02*
X154983500Y-75220000D01*
X152883500Y-72150000D02*
X152643500Y-71820000D01*
X153123500Y-71820000D01*
X152883500Y-72150000D01*
G36*
X152883500Y-72150000D02*
G01*
X152643500Y-71820000D01*
X153123500Y-71820000D01*
X152883500Y-72150000D01*
G37*
X119343500Y-32561252D02*
X119343500Y-32038748D01*
X120813500Y-32561252D02*
X120813500Y-32038748D01*
X106072000Y-39631252D02*
X106072000Y-39108748D01*
X107542000Y-39631252D02*
X107542000Y-39108748D01*
X177017436Y-78386000D02*
X177471564Y-78386000D01*
X177017436Y-79856000D02*
X177471564Y-79856000D01*
X149887000Y-84846936D02*
X149887000Y-85301064D01*
X151357000Y-84846936D02*
X151357000Y-85301064D01*
X160475436Y-73877500D02*
X160929564Y-73877500D01*
X160475436Y-75347500D02*
X160929564Y-75347500D01*
X103383500Y-46855748D02*
X103383500Y-47378252D01*
X104853500Y-46855748D02*
X104853500Y-47378252D01*
X97871500Y-34497500D02*
X97871500Y-42337500D01*
X97871500Y-36677500D02*
X98471500Y-36677500D01*
X97871500Y-39217500D02*
X98471500Y-39217500D01*
X97871500Y-41757500D02*
X98471500Y-41757500D01*
X97871500Y-42337500D02*
X103891500Y-42337500D01*
X98471500Y-35077500D02*
X97871500Y-35077500D01*
X98471500Y-36677500D02*
X98471500Y-35077500D01*
X98471500Y-37617500D02*
X97871500Y-37617500D01*
X98471500Y-39217500D02*
X98471500Y-37617500D01*
X98471500Y-40157500D02*
X97871500Y-40157500D01*
X98471500Y-41757500D02*
X98471500Y-40157500D01*
X98901500Y-42627500D02*
X102901500Y-42627500D01*
X102361500Y-36127500D02*
X102891500Y-35877500D01*
X102361500Y-40707500D02*
X102361500Y-36127500D01*
X102891500Y-35877500D02*
X103891500Y-35877500D01*
X102891500Y-40957500D02*
X102361500Y-40707500D01*
X102891500Y-40957500D02*
X102891500Y-35877500D01*
X103891500Y-34497500D02*
X97871500Y-34497500D01*
X103891500Y-36127500D02*
X102891500Y-36127500D01*
X103891500Y-40707500D02*
X102891500Y-40707500D01*
X103891500Y-40957500D02*
X102891500Y-40957500D01*
X103891500Y-42337500D02*
X103891500Y-34497500D01*
D13*
X135379500Y-52832000D02*
G75*
G02*
X132209500Y-52832000I-1585000J0D01*
G01*
X132209500Y-52832000D02*
G75*
G02*
X135379500Y-52832000I1585000J0D01*
G01*
X123886000Y-38481000D02*
G75*
G02*
X120716000Y-38481000I-1585000J0D01*
G01*
X120716000Y-38481000D02*
G75*
G02*
X123886000Y-38481000I1585000J0D01*
G01*
D12*
X114201752Y-74195000D02*
X113679248Y-74195000D01*
X114201752Y-75665000D02*
X113679248Y-75665000D01*
X111777000Y-80810000D02*
X111777000Y-86830000D01*
X111777000Y-86830000D02*
X119617000Y-86830000D01*
X112357000Y-86230000D02*
X112357000Y-86830000D01*
X113157000Y-81810000D02*
X113157000Y-80810000D01*
X113407000Y-80810000D02*
X113407000Y-81810000D01*
X113407000Y-82340000D02*
X113157000Y-81810000D01*
X113957000Y-86230000D02*
X112357000Y-86230000D01*
X113957000Y-86830000D02*
X113957000Y-86230000D01*
X114897000Y-86230000D02*
X114897000Y-86830000D01*
X116497000Y-86230000D02*
X114897000Y-86230000D01*
X116497000Y-86830000D02*
X116497000Y-86230000D01*
X117437000Y-86230000D02*
X117437000Y-86830000D01*
X117987000Y-80810000D02*
X117987000Y-81810000D01*
X117987000Y-82340000D02*
X113407000Y-82340000D01*
X118237000Y-80810000D02*
X118237000Y-81810000D01*
X118237000Y-81810000D02*
X113157000Y-81810000D01*
X118237000Y-81810000D02*
X117987000Y-82340000D01*
X119037000Y-86230000D02*
X117437000Y-86230000D01*
X119037000Y-86830000D02*
X119037000Y-86230000D01*
X119617000Y-80810000D02*
X111777000Y-80810000D01*
X119617000Y-86830000D02*
X119617000Y-80810000D01*
X119907000Y-85800000D02*
X119907000Y-81800000D01*
X160475436Y-71464500D02*
X160929564Y-71464500D01*
X160475436Y-72934500D02*
X160929564Y-72934500D01*
X154439252Y-67908500D02*
X153916748Y-67908500D01*
X154439252Y-69378500D02*
X153916748Y-69378500D01*
X160427936Y-78767000D02*
X160882064Y-78767000D01*
X160427936Y-80237000D02*
X160882064Y-80237000D01*
X127233436Y-69559500D02*
X127687564Y-69559500D01*
X127233436Y-71029500D02*
X127687564Y-71029500D01*
X177613000Y-53721000D02*
X177613000Y-30801000D01*
X180273000Y-30801000D02*
X177613000Y-30801000D01*
X180273000Y-53721000D02*
X177613000Y-53721000D01*
X180273000Y-53721000D02*
X180273000Y-30801000D01*
X180273000Y-54991000D02*
X180273000Y-56321000D01*
X180273000Y-56321000D02*
X178943000Y-56321000D01*
X117094000Y-66766000D02*
X116294000Y-66766000D01*
X117094000Y-66766000D02*
X117894000Y-66766000D01*
X117094000Y-69886000D02*
X116294000Y-69886000D01*
X117094000Y-69886000D02*
X117894000Y-69886000D01*
X115794000Y-66816000D02*
X115554000Y-66486000D01*
X116034000Y-66486000D01*
X115794000Y-66816000D01*
G36*
X115794000Y-66816000D02*
G01*
X115554000Y-66486000D01*
X116034000Y-66486000D01*
X115794000Y-66816000D01*
G37*
X166524000Y-68360748D02*
X166524000Y-68883252D01*
X167994000Y-68360748D02*
X167994000Y-68883252D01*
X148744000Y-72932748D02*
X148744000Y-73455252D01*
X150214000Y-72932748D02*
X150214000Y-73455252D01*
D14*
X152781000Y-57277000D02*
X152781000Y-58531760D01*
X152781000Y-64531240D02*
X152781000Y-65786000D01*
X152781000Y-65786000D02*
X161290000Y-65786000D01*
X161290000Y-57277000D02*
X152781000Y-57277000D01*
X161290000Y-58531760D02*
X161290000Y-57277000D01*
X161290000Y-65786000D02*
X161290000Y-64531240D01*
D12*
X98189000Y-52214000D02*
X98189000Y-60054000D01*
X98189000Y-54394000D02*
X98789000Y-54394000D01*
X98189000Y-56934000D02*
X98789000Y-56934000D01*
X98189000Y-59474000D02*
X98789000Y-59474000D01*
X98189000Y-60054000D02*
X104209000Y-60054000D01*
X98789000Y-52794000D02*
X98189000Y-52794000D01*
X98789000Y-54394000D02*
X98789000Y-52794000D01*
X98789000Y-55334000D02*
X98189000Y-55334000D01*
X98789000Y-56934000D02*
X98789000Y-55334000D01*
X98789000Y-57874000D02*
X98189000Y-57874000D01*
X98789000Y-59474000D02*
X98789000Y-57874000D01*
X99219000Y-60344000D02*
X103219000Y-60344000D01*
X102679000Y-53844000D02*
X103209000Y-53594000D01*
X102679000Y-58424000D02*
X102679000Y-53844000D01*
X103209000Y-53594000D02*
X104209000Y-53594000D01*
X103209000Y-58674000D02*
X102679000Y-58424000D01*
X103209000Y-58674000D02*
X103209000Y-53594000D01*
X104209000Y-52214000D02*
X98189000Y-52214000D01*
X104209000Y-53844000D02*
X103209000Y-53844000D01*
X104209000Y-58424000D02*
X103209000Y-58424000D01*
X104209000Y-58674000D02*
X103209000Y-58674000D01*
X104209000Y-60054000D02*
X104209000Y-52214000D01*
X160936000Y-84735936D02*
X160936000Y-85190064D01*
X162406000Y-84735936D02*
X162406000Y-85190064D01*
X143333500Y-69755000D02*
X143333500Y-74140000D01*
X146353500Y-69755000D02*
X143333500Y-69755000D01*
X146353500Y-74140000D02*
X146353500Y-69755000D01*
X102770000Y-63365748D02*
X102770000Y-63888252D01*
X104240000Y-63365748D02*
X104240000Y-63888252D01*
X176010000Y-58870000D02*
X176010000Y-66710000D01*
X176010000Y-60250000D02*
X177010000Y-60250000D01*
X176010000Y-60500000D02*
X177010000Y-60500000D01*
X176010000Y-65080000D02*
X177010000Y-65080000D01*
X176010000Y-66710000D02*
X182030000Y-66710000D01*
X177010000Y-60250000D02*
X177010000Y-65330000D01*
X177010000Y-60250000D02*
X177540000Y-60500000D01*
X177010000Y-65330000D02*
X176010000Y-65330000D01*
X177540000Y-60500000D02*
X177540000Y-65080000D01*
X177540000Y-65080000D02*
X177010000Y-65330000D01*
X181000000Y-58580000D02*
X177000000Y-58580000D01*
X181430000Y-59450000D02*
X181430000Y-61050000D01*
X181430000Y-61050000D02*
X182030000Y-61050000D01*
X181430000Y-61990000D02*
X181430000Y-63590000D01*
X181430000Y-63590000D02*
X182030000Y-63590000D01*
X181430000Y-64530000D02*
X181430000Y-66130000D01*
X181430000Y-66130000D02*
X182030000Y-66130000D01*
X182030000Y-58870000D02*
X176010000Y-58870000D01*
X182030000Y-59450000D02*
X181430000Y-59450000D01*
X182030000Y-61990000D02*
X181430000Y-61990000D01*
X182030000Y-64530000D02*
X181430000Y-64530000D01*
X182030000Y-66710000D02*
X182030000Y-58870000D01*
X122136500Y-76922000D02*
X122136500Y-87162000D01*
X125267500Y-76922000D02*
X125267500Y-87162000D01*
X126777500Y-76922000D02*
X122136500Y-76922000D01*
X126777500Y-76922000D02*
X126777500Y-87162000D01*
X126777500Y-80192000D02*
X125267500Y-80192000D01*
X126777500Y-83893000D02*
X125267500Y-83893000D01*
X126777500Y-87162000D02*
X122136500Y-87162000D01*
X164380500Y-47997500D02*
X164380500Y-54417500D01*
X164380500Y-54417500D02*
X164650500Y-54417500D01*
X171280500Y-47997500D02*
X171280500Y-54417500D01*
X171280500Y-54417500D02*
X171010500Y-54417500D01*
X164690500Y-56147500D02*
X164220500Y-56487500D01*
X164220500Y-55807500D01*
X164690500Y-56147500D01*
G36*
X164690500Y-56147500D02*
G01*
X164220500Y-56487500D01*
X164220500Y-55807500D01*
X164690500Y-56147500D01*
G37*
X120406936Y-73750500D02*
X120861064Y-73750500D01*
X120406936Y-75220500D02*
X120861064Y-75220500D01*
X116740000Y-32497752D02*
X116740000Y-31975248D01*
X118210000Y-32497752D02*
X118210000Y-31975248D01*
X104944936Y-77878000D02*
X105399064Y-77878000D01*
X104944936Y-79348000D02*
X105399064Y-79348000D01*
X134456500Y-68022748D02*
X134456500Y-68545252D01*
X135926500Y-68022748D02*
X135926500Y-68545252D01*
D13*
X128250000Y-83444250D02*
X129950000Y-83444250D01*
X128250000Y-85944250D02*
X128250000Y-83444250D01*
X129950000Y-78644250D02*
X139850000Y-78644250D01*
X129950000Y-83444250D02*
X129950000Y-78644250D01*
X129950000Y-85944250D02*
X128250000Y-85944250D01*
X129950000Y-87644250D02*
X129950000Y-85944250D01*
X132900000Y-72444250D02*
X131900000Y-72444250D01*
X137400000Y-71944250D02*
X137400000Y-72944250D01*
X137900000Y-72444250D02*
X136900000Y-72444250D01*
X139850000Y-78644250D02*
X139850000Y-83444250D01*
X139850000Y-83444250D02*
X141550000Y-83444250D01*
X139850000Y-85944250D02*
X139850000Y-87644250D01*
X139850000Y-87644250D02*
X129950000Y-87644250D01*
X141550000Y-83444250D02*
X141550000Y-85944250D01*
X141550000Y-85944250D02*
X139850000Y-85944250D01*
D12*
X176016500Y-68152500D02*
X176016500Y-75992500D01*
X176016500Y-69532500D02*
X177016500Y-69532500D01*
X176016500Y-69782500D02*
X177016500Y-69782500D01*
X176016500Y-74362500D02*
X177016500Y-74362500D01*
X176016500Y-75992500D02*
X182036500Y-75992500D01*
X177016500Y-69532500D02*
X177016500Y-74612500D01*
X177016500Y-69532500D02*
X177546500Y-69782500D01*
X177016500Y-74612500D02*
X176016500Y-74612500D01*
X177546500Y-69782500D02*
X177546500Y-74362500D01*
X177546500Y-74362500D02*
X177016500Y-74612500D01*
X181006500Y-67862500D02*
X177006500Y-67862500D01*
X181436500Y-68732500D02*
X181436500Y-70332500D01*
X181436500Y-70332500D02*
X182036500Y-70332500D01*
X181436500Y-71272500D02*
X181436500Y-72872500D01*
X181436500Y-72872500D02*
X182036500Y-72872500D01*
X181436500Y-73812500D02*
X181436500Y-75412500D01*
X181436500Y-75412500D02*
X182036500Y-75412500D01*
X182036500Y-68152500D02*
X176016500Y-68152500D01*
X182036500Y-68732500D02*
X181436500Y-68732500D01*
X182036500Y-71272500D02*
X181436500Y-71272500D01*
X182036500Y-73812500D02*
X181436500Y-73812500D01*
X182036500Y-75992500D02*
X182036500Y-68152500D01*
X96019000Y-68455500D02*
X96419000Y-68455500D01*
X96419000Y-75975500D02*
X96019000Y-75975500D01*
X98389000Y-68455500D02*
X100369000Y-68455500D01*
X98389000Y-75975500D02*
X100369000Y-75975500D01*
X100369000Y-68455500D02*
X100369000Y-68875500D01*
X100369000Y-75975500D02*
X100369000Y-75555500D01*
X100599000Y-70455500D02*
X101049000Y-70455500D01*
X101049000Y-70905500D02*
X101049000Y-70455500D01*
X127233436Y-67337000D02*
X127687564Y-67337000D01*
X127233436Y-68807000D02*
X127687564Y-68807000D01*
X160866064Y-76290500D02*
X160411936Y-76290500D01*
X160866064Y-77760500D02*
X160411936Y-77760500D01*
X107024500Y-57834252D02*
X107024500Y-57311748D01*
X108494500Y-57834252D02*
X108494500Y-57311748D01*
X166714500Y-60444748D02*
X166714500Y-60967252D01*
X168184500Y-60444748D02*
X168184500Y-60967252D01*
X169445000Y-60444748D02*
X169445000Y-60967252D01*
X170915000Y-60444748D02*
X170915000Y-60967252D01*
X160961564Y-66702000D02*
X160507436Y-66702000D01*
X160961564Y-68172000D02*
X160507436Y-68172000D01*
X117700248Y-61558500D02*
X118222752Y-61558500D01*
X117700248Y-63028500D02*
X118222752Y-63028500D01*
X126773000Y-32561252D02*
X126773000Y-32038748D01*
X128243000Y-32561252D02*
X128243000Y-32038748D01*
X172937500Y-69378564D02*
X172937500Y-68924436D01*
X174407500Y-69378564D02*
X174407500Y-68924436D01*
X132314500Y-23245000D02*
X132314500Y-29445000D01*
X132314500Y-23245000D02*
X150714500Y-23245000D01*
X132314500Y-48095000D02*
X132314500Y-49095000D01*
X132314500Y-49095000D02*
X133814500Y-49095000D01*
X150714500Y-23245000D02*
X150714500Y-29445000D01*
X150714500Y-49095000D02*
X149214500Y-49095000D01*
X150714500Y-49095000D02*
X150714500Y-48095000D01*
X132314500Y-30120000D02*
X131814500Y-30120000D01*
X132314500Y-29620000D01*
X132314500Y-30120000D01*
G36*
X132314500Y-30120000D02*
G01*
X131814500Y-30120000D01*
X132314500Y-29620000D01*
X132314500Y-30120000D01*
G37*
X160475436Y-68988000D02*
X160929564Y-68988000D01*
X160475436Y-70458000D02*
X160929564Y-70458000D01*
X131408500Y-68022748D02*
X131408500Y-68545252D01*
X132878500Y-68022748D02*
X132878500Y-68545252D01*
M02*
