G04 #@! TF.GenerationSoftware,KiCad,Pcbnew,8.0.8*
G04 #@! TF.CreationDate,2025-03-31T15:28:11-05:00*
G04 #@! TF.ProjectId,Group_29_Handheld,47726f75-705f-4323-995f-48616e646865,rev?*
G04 #@! TF.SameCoordinates,Original*
G04 #@! TF.FileFunction,Legend,Bot*
G04 #@! TF.FilePolarity,Positive*
%FSLAX46Y46*%
G04 Gerber Fmt 4.6, Leading zero omitted, Abs format (unit mm)*
G04 Created by KiCad (PCBNEW 8.0.8) date 2025-03-31 15:28:11*
%MOMM*%
%LPD*%
G01*
G04 APERTURE LIST*
%ADD10C,0.150000*%
%ADD11C,0.120000*%
G04 APERTURE END LIST*
D10*
X112564080Y-63993991D02*
X112611700Y-63946372D01*
X112611700Y-63946372D02*
X112659319Y-63803515D01*
X112659319Y-63803515D02*
X112659319Y-63708277D01*
X112659319Y-63708277D02*
X112611700Y-63565420D01*
X112611700Y-63565420D02*
X112516461Y-63470182D01*
X112516461Y-63470182D02*
X112421223Y-63422563D01*
X112421223Y-63422563D02*
X112230747Y-63374944D01*
X112230747Y-63374944D02*
X112087890Y-63374944D01*
X112087890Y-63374944D02*
X111897414Y-63422563D01*
X111897414Y-63422563D02*
X111802176Y-63470182D01*
X111802176Y-63470182D02*
X111706938Y-63565420D01*
X111706938Y-63565420D02*
X111659319Y-63708277D01*
X111659319Y-63708277D02*
X111659319Y-63803515D01*
X111659319Y-63803515D02*
X111706938Y-63946372D01*
X111706938Y-63946372D02*
X111754557Y-63993991D01*
X111754557Y-64374944D02*
X111706938Y-64422563D01*
X111706938Y-64422563D02*
X111659319Y-64517801D01*
X111659319Y-64517801D02*
X111659319Y-64755896D01*
X111659319Y-64755896D02*
X111706938Y-64851134D01*
X111706938Y-64851134D02*
X111754557Y-64898753D01*
X111754557Y-64898753D02*
X111849795Y-64946372D01*
X111849795Y-64946372D02*
X111945033Y-64946372D01*
X111945033Y-64946372D02*
X112087890Y-64898753D01*
X112087890Y-64898753D02*
X112659319Y-64327325D01*
X112659319Y-64327325D02*
X112659319Y-64946372D01*
X111659319Y-65565420D02*
X111659319Y-65660658D01*
X111659319Y-65660658D02*
X111706938Y-65755896D01*
X111706938Y-65755896D02*
X111754557Y-65803515D01*
X111754557Y-65803515D02*
X111849795Y-65851134D01*
X111849795Y-65851134D02*
X112040271Y-65898753D01*
X112040271Y-65898753D02*
X112278366Y-65898753D01*
X112278366Y-65898753D02*
X112468842Y-65851134D01*
X112468842Y-65851134D02*
X112564080Y-65803515D01*
X112564080Y-65803515D02*
X112611700Y-65755896D01*
X112611700Y-65755896D02*
X112659319Y-65660658D01*
X112659319Y-65660658D02*
X112659319Y-65565420D01*
X112659319Y-65565420D02*
X112611700Y-65470182D01*
X112611700Y-65470182D02*
X112564080Y-65422563D01*
X112564080Y-65422563D02*
X112468842Y-65374944D01*
X112468842Y-65374944D02*
X112278366Y-65327325D01*
X112278366Y-65327325D02*
X112040271Y-65327325D01*
X112040271Y-65327325D02*
X111849795Y-65374944D01*
X111849795Y-65374944D02*
X111754557Y-65422563D01*
X111754557Y-65422563D02*
X111706938Y-65470182D01*
X111706938Y-65470182D02*
X111659319Y-65565420D01*
X102424580Y-46253991D02*
X102472200Y-46206372D01*
X102472200Y-46206372D02*
X102519819Y-46063515D01*
X102519819Y-46063515D02*
X102519819Y-45968277D01*
X102519819Y-45968277D02*
X102472200Y-45825420D01*
X102472200Y-45825420D02*
X102376961Y-45730182D01*
X102376961Y-45730182D02*
X102281723Y-45682563D01*
X102281723Y-45682563D02*
X102091247Y-45634944D01*
X102091247Y-45634944D02*
X101948390Y-45634944D01*
X101948390Y-45634944D02*
X101757914Y-45682563D01*
X101757914Y-45682563D02*
X101662676Y-45730182D01*
X101662676Y-45730182D02*
X101567438Y-45825420D01*
X101567438Y-45825420D02*
X101519819Y-45968277D01*
X101519819Y-45968277D02*
X101519819Y-46063515D01*
X101519819Y-46063515D02*
X101567438Y-46206372D01*
X101567438Y-46206372D02*
X101615057Y-46253991D01*
X102519819Y-47206372D02*
X102519819Y-46634944D01*
X102519819Y-46920658D02*
X101519819Y-46920658D01*
X101519819Y-46920658D02*
X101662676Y-46825420D01*
X101662676Y-46825420D02*
X101757914Y-46730182D01*
X101757914Y-46730182D02*
X101805533Y-46634944D01*
X101519819Y-47539706D02*
X101519819Y-48206372D01*
X101519819Y-48206372D02*
X102519819Y-47777801D01*
D11*
X104746000Y-60178151D02*
X104746000Y-59378151D01*
X105146000Y-59778151D02*
X104346000Y-59778151D01*
X106021000Y-65268849D02*
X103256000Y-65268849D01*
X106021000Y-65308849D02*
X103271000Y-65308849D01*
X106021000Y-65348849D02*
X103287000Y-65348849D01*
X106021000Y-65388849D02*
X103304000Y-65388849D01*
X106021000Y-65428849D02*
X103321000Y-65428849D01*
X106021000Y-65468849D02*
X103339000Y-65468849D01*
X106021000Y-65508849D02*
X103357000Y-65508849D01*
X106021000Y-65548849D02*
X103375000Y-65548849D01*
X106021000Y-65588849D02*
X103395000Y-65588849D01*
X106021000Y-65628849D02*
X103414000Y-65628849D01*
X106021000Y-65668849D02*
X103434000Y-65668849D01*
X106021000Y-65708849D02*
X103455000Y-65708849D01*
X106021000Y-65748849D02*
X103477000Y-65748849D01*
X106021000Y-65788849D02*
X103499000Y-65788849D01*
X106021000Y-65828849D02*
X103521000Y-65828849D01*
X106021000Y-65868849D02*
X103544000Y-65868849D01*
X106021000Y-65908849D02*
X103568000Y-65908849D01*
X106021000Y-65948849D02*
X103592000Y-65948849D01*
X106021000Y-65988849D02*
X103617000Y-65988849D01*
X106021000Y-66028849D02*
X103643000Y-66028849D01*
X106021000Y-66068849D02*
X103669000Y-66068849D01*
X106021000Y-66108849D02*
X103696000Y-66108849D01*
X106021000Y-66148849D02*
X103723000Y-66148849D01*
X106021000Y-66188849D02*
X103752000Y-66188849D01*
X106021000Y-66228849D02*
X103781000Y-66228849D01*
X106021000Y-66268849D02*
X103811000Y-66268849D01*
X106021000Y-66308849D02*
X103841000Y-66308849D01*
X106021000Y-66348849D02*
X103872000Y-66348849D01*
X106021000Y-66388849D02*
X103905000Y-66388849D01*
X106021000Y-66428849D02*
X103937000Y-66428849D01*
X106021000Y-66468849D02*
X103971000Y-66468849D01*
X106021000Y-66508849D02*
X104006000Y-66508849D01*
X106021000Y-66548849D02*
X104042000Y-66548849D01*
X106021000Y-66588849D02*
X104078000Y-66588849D01*
X106021000Y-66628849D02*
X104116000Y-66628849D01*
X106021000Y-66668849D02*
X104154000Y-66668849D01*
X106021000Y-66708849D02*
X104194000Y-66708849D01*
X106021000Y-66748849D02*
X104235000Y-66748849D01*
X106021000Y-66788849D02*
X104277000Y-66788849D01*
X106021000Y-66828849D02*
X104320000Y-66828849D01*
X106021000Y-66868849D02*
X104364000Y-66868849D01*
X106021000Y-66908849D02*
X104410000Y-66908849D01*
X106021000Y-66948849D02*
X104457000Y-66948849D01*
X106021000Y-66988849D02*
X104505000Y-66988849D01*
X106021000Y-67028849D02*
X104556000Y-67028849D01*
X106021000Y-67068849D02*
X104607000Y-67068849D01*
X106021000Y-67108849D02*
X104661000Y-67108849D01*
X106021000Y-67148849D02*
X104716000Y-67148849D01*
X106021000Y-67188849D02*
X104774000Y-67188849D01*
X106021000Y-67228849D02*
X104833000Y-67228849D01*
X106021000Y-67268849D02*
X104895000Y-67268849D01*
X106021000Y-67308849D02*
X104959000Y-67308849D01*
X107594000Y-67868849D02*
X106528000Y-67868849D01*
X107829000Y-67828849D02*
X106293000Y-67828849D01*
X108009000Y-67788849D02*
X106113000Y-67788849D01*
X108159000Y-67748849D02*
X105963000Y-67748849D01*
X108290000Y-67708849D02*
X105832000Y-67708849D01*
X108407000Y-67668849D02*
X105715000Y-67668849D01*
X108514000Y-67628849D02*
X105608000Y-67628849D01*
X108613000Y-67588849D02*
X105509000Y-67588849D01*
X108706000Y-67548849D02*
X105416000Y-67548849D01*
X108792000Y-67508849D02*
X105330000Y-67508849D01*
X108874000Y-67468849D02*
X105248000Y-67468849D01*
X108951000Y-67428849D02*
X105171000Y-67428849D01*
X109025000Y-67388849D02*
X105097000Y-67388849D01*
X109095000Y-67348849D02*
X105027000Y-67348849D01*
X109163000Y-67308849D02*
X108101000Y-67308849D01*
X109227000Y-67268849D02*
X108101000Y-67268849D01*
X109289000Y-67228849D02*
X108101000Y-67228849D01*
X109348000Y-67188849D02*
X108101000Y-67188849D01*
X109406000Y-67148849D02*
X108101000Y-67148849D01*
X109461000Y-67108849D02*
X108101000Y-67108849D01*
X109515000Y-67068849D02*
X108101000Y-67068849D01*
X109566000Y-67028849D02*
X108101000Y-67028849D01*
X109617000Y-66988849D02*
X108101000Y-66988849D01*
X109665000Y-66948849D02*
X108101000Y-66948849D01*
X109712000Y-66908849D02*
X108101000Y-66908849D01*
X109758000Y-66868849D02*
X108101000Y-66868849D01*
X109802000Y-66828849D02*
X108101000Y-66828849D01*
X109845000Y-66788849D02*
X108101000Y-66788849D01*
X109887000Y-66748849D02*
X108101000Y-66748849D01*
X109928000Y-66708849D02*
X108101000Y-66708849D01*
X109968000Y-66668849D02*
X108101000Y-66668849D01*
X110006000Y-66628849D02*
X108101000Y-66628849D01*
X110044000Y-66588849D02*
X108101000Y-66588849D01*
X110080000Y-66548849D02*
X108101000Y-66548849D01*
X110116000Y-66508849D02*
X108101000Y-66508849D01*
X110151000Y-66468849D02*
X108101000Y-66468849D01*
X110185000Y-66428849D02*
X108101000Y-66428849D01*
X110217000Y-66388849D02*
X108101000Y-66388849D01*
X110250000Y-66348849D02*
X108101000Y-66348849D01*
X110281000Y-66308849D02*
X108101000Y-66308849D01*
X110311000Y-66268849D02*
X108101000Y-66268849D01*
X110341000Y-66228849D02*
X108101000Y-66228849D01*
X110370000Y-66188849D02*
X108101000Y-66188849D01*
X110399000Y-66148849D02*
X108101000Y-66148849D01*
X110426000Y-66108849D02*
X108101000Y-66108849D01*
X110453000Y-66068849D02*
X108101000Y-66068849D01*
X110479000Y-66028849D02*
X108101000Y-66028849D01*
X110505000Y-65988849D02*
X108101000Y-65988849D01*
X110530000Y-65948849D02*
X108101000Y-65948849D01*
X110554000Y-65908849D02*
X108101000Y-65908849D01*
X110578000Y-65868849D02*
X108101000Y-65868849D01*
X110601000Y-65828849D02*
X108101000Y-65828849D01*
X110623000Y-65788849D02*
X108101000Y-65788849D01*
X110645000Y-65748849D02*
X108101000Y-65748849D01*
X110667000Y-65708849D02*
X108101000Y-65708849D01*
X110688000Y-65668849D02*
X108101000Y-65668849D01*
X110708000Y-65628849D02*
X108101000Y-65628849D01*
X110727000Y-65588849D02*
X108101000Y-65588849D01*
X110747000Y-65548849D02*
X108101000Y-65548849D01*
X110765000Y-65508849D02*
X108101000Y-65508849D01*
X110783000Y-65468849D02*
X108101000Y-65468849D01*
X110801000Y-65428849D02*
X108101000Y-65428849D01*
X110818000Y-65388849D02*
X108101000Y-65388849D01*
X110835000Y-65348849D02*
X108101000Y-65348849D01*
X110851000Y-65308849D02*
X108101000Y-65308849D01*
X110866000Y-65268849D02*
X108101000Y-65268849D01*
X110882000Y-65228849D02*
X103240000Y-65228849D01*
X110896000Y-65188849D02*
X103226000Y-65188849D01*
X110911000Y-65148849D02*
X103211000Y-65148849D01*
X110924000Y-65108849D02*
X103198000Y-65108849D01*
X110938000Y-65068849D02*
X103184000Y-65068849D01*
X110950000Y-65028849D02*
X103172000Y-65028849D01*
X110963000Y-64988849D02*
X103159000Y-64988849D01*
X110975000Y-64948849D02*
X103147000Y-64948849D01*
X110986000Y-64908849D02*
X103136000Y-64908849D01*
X110997000Y-64868849D02*
X103125000Y-64868849D01*
X111008000Y-64828849D02*
X103114000Y-64828849D01*
X111018000Y-64788849D02*
X103104000Y-64788849D01*
X111028000Y-64748849D02*
X103094000Y-64748849D01*
X111037000Y-64708849D02*
X103085000Y-64708849D01*
X111046000Y-64668849D02*
X103076000Y-64668849D01*
X111055000Y-64628849D02*
X103067000Y-64628849D01*
X111063000Y-64588849D02*
X103059000Y-64588849D01*
X111071000Y-64548849D02*
X103051000Y-64548849D01*
X111078000Y-64508849D02*
X103044000Y-64508849D01*
X111085000Y-64467849D02*
X103037000Y-64467849D01*
X111091000Y-64427849D02*
X103031000Y-64427849D01*
X111098000Y-64387849D02*
X103024000Y-64387849D01*
X111103000Y-64347849D02*
X103019000Y-64347849D01*
X111109000Y-64307849D02*
X103013000Y-64307849D01*
X111113000Y-64267849D02*
X103009000Y-64267849D01*
X111118000Y-64227849D02*
X103004000Y-64227849D01*
X111122000Y-64187849D02*
X103000000Y-64187849D01*
X111126000Y-64147849D02*
X102996000Y-64147849D01*
X111129000Y-64107849D02*
X102993000Y-64107849D01*
X111132000Y-64067849D02*
X102990000Y-64067849D01*
X111135000Y-64027849D02*
X102987000Y-64027849D01*
X111137000Y-63987849D02*
X102985000Y-63987849D01*
X111138000Y-63947849D02*
X102984000Y-63947849D01*
X111140000Y-63907849D02*
X102982000Y-63907849D01*
X111141000Y-63787849D02*
X102981000Y-63787849D01*
X111141000Y-63827849D02*
X102981000Y-63827849D01*
X111141000Y-63867849D02*
X102981000Y-63867849D01*
X111181000Y-63787849D02*
G75*
G02*
X102941000Y-63787849I-4120000J0D01*
G01*
X102941000Y-63787849D02*
G75*
G02*
X111181000Y-63787849I4120000J0D01*
G01*
X105000000Y-43287151D02*
X105000000Y-42487151D01*
X105400000Y-42887151D02*
X104600000Y-42887151D01*
X106275000Y-48377849D02*
X103510000Y-48377849D01*
X106275000Y-48417849D02*
X103525000Y-48417849D01*
X106275000Y-48457849D02*
X103541000Y-48457849D01*
X106275000Y-48497849D02*
X103558000Y-48497849D01*
X106275000Y-48537849D02*
X103575000Y-48537849D01*
X106275000Y-48577849D02*
X103593000Y-48577849D01*
X106275000Y-48617849D02*
X103611000Y-48617849D01*
X106275000Y-48657849D02*
X103629000Y-48657849D01*
X106275000Y-48697849D02*
X103649000Y-48697849D01*
X106275000Y-48737849D02*
X103668000Y-48737849D01*
X106275000Y-48777849D02*
X103688000Y-48777849D01*
X106275000Y-48817849D02*
X103709000Y-48817849D01*
X106275000Y-48857849D02*
X103731000Y-48857849D01*
X106275000Y-48897849D02*
X103753000Y-48897849D01*
X106275000Y-48937849D02*
X103775000Y-48937849D01*
X106275000Y-48977849D02*
X103798000Y-48977849D01*
X106275000Y-49017849D02*
X103822000Y-49017849D01*
X106275000Y-49057849D02*
X103846000Y-49057849D01*
X106275000Y-49097849D02*
X103871000Y-49097849D01*
X106275000Y-49137849D02*
X103897000Y-49137849D01*
X106275000Y-49177849D02*
X103923000Y-49177849D01*
X106275000Y-49217849D02*
X103950000Y-49217849D01*
X106275000Y-49257849D02*
X103977000Y-49257849D01*
X106275000Y-49297849D02*
X104006000Y-49297849D01*
X106275000Y-49337849D02*
X104035000Y-49337849D01*
X106275000Y-49377849D02*
X104065000Y-49377849D01*
X106275000Y-49417849D02*
X104095000Y-49417849D01*
X106275000Y-49457849D02*
X104126000Y-49457849D01*
X106275000Y-49497849D02*
X104159000Y-49497849D01*
X106275000Y-49537849D02*
X104191000Y-49537849D01*
X106275000Y-49577849D02*
X104225000Y-49577849D01*
X106275000Y-49617849D02*
X104260000Y-49617849D01*
X106275000Y-49657849D02*
X104296000Y-49657849D01*
X106275000Y-49697849D02*
X104332000Y-49697849D01*
X106275000Y-49737849D02*
X104370000Y-49737849D01*
X106275000Y-49777849D02*
X104408000Y-49777849D01*
X106275000Y-49817849D02*
X104448000Y-49817849D01*
X106275000Y-49857849D02*
X104489000Y-49857849D01*
X106275000Y-49897849D02*
X104531000Y-49897849D01*
X106275000Y-49937849D02*
X104574000Y-49937849D01*
X106275000Y-49977849D02*
X104618000Y-49977849D01*
X106275000Y-50017849D02*
X104664000Y-50017849D01*
X106275000Y-50057849D02*
X104711000Y-50057849D01*
X106275000Y-50097849D02*
X104759000Y-50097849D01*
X106275000Y-50137849D02*
X104810000Y-50137849D01*
X106275000Y-50177849D02*
X104861000Y-50177849D01*
X106275000Y-50217849D02*
X104915000Y-50217849D01*
X106275000Y-50257849D02*
X104970000Y-50257849D01*
X106275000Y-50297849D02*
X105028000Y-50297849D01*
X106275000Y-50337849D02*
X105087000Y-50337849D01*
X106275000Y-50377849D02*
X105149000Y-50377849D01*
X106275000Y-50417849D02*
X105213000Y-50417849D01*
X107848000Y-50977849D02*
X106782000Y-50977849D01*
X108083000Y-50937849D02*
X106547000Y-50937849D01*
X108263000Y-50897849D02*
X106367000Y-50897849D01*
X108413000Y-50857849D02*
X106217000Y-50857849D01*
X108544000Y-50817849D02*
X106086000Y-50817849D01*
X108661000Y-50777849D02*
X105969000Y-50777849D01*
X108768000Y-50737849D02*
X105862000Y-50737849D01*
X108867000Y-50697849D02*
X105763000Y-50697849D01*
X108960000Y-50657849D02*
X105670000Y-50657849D01*
X109046000Y-50617849D02*
X105584000Y-50617849D01*
X109128000Y-50577849D02*
X105502000Y-50577849D01*
X109205000Y-50537849D02*
X105425000Y-50537849D01*
X109279000Y-50497849D02*
X105351000Y-50497849D01*
X109349000Y-50457849D02*
X105281000Y-50457849D01*
X109417000Y-50417849D02*
X108355000Y-50417849D01*
X109481000Y-50377849D02*
X108355000Y-50377849D01*
X109543000Y-50337849D02*
X108355000Y-50337849D01*
X109602000Y-50297849D02*
X108355000Y-50297849D01*
X109660000Y-50257849D02*
X108355000Y-50257849D01*
X109715000Y-50217849D02*
X108355000Y-50217849D01*
X109769000Y-50177849D02*
X108355000Y-50177849D01*
X109820000Y-50137849D02*
X108355000Y-50137849D01*
X109871000Y-50097849D02*
X108355000Y-50097849D01*
X109919000Y-50057849D02*
X108355000Y-50057849D01*
X109966000Y-50017849D02*
X108355000Y-50017849D01*
X110012000Y-49977849D02*
X108355000Y-49977849D01*
X110056000Y-49937849D02*
X108355000Y-49937849D01*
X110099000Y-49897849D02*
X108355000Y-49897849D01*
X110141000Y-49857849D02*
X108355000Y-49857849D01*
X110182000Y-49817849D02*
X108355000Y-49817849D01*
X110222000Y-49777849D02*
X108355000Y-49777849D01*
X110260000Y-49737849D02*
X108355000Y-49737849D01*
X110298000Y-49697849D02*
X108355000Y-49697849D01*
X110334000Y-49657849D02*
X108355000Y-49657849D01*
X110370000Y-49617849D02*
X108355000Y-49617849D01*
X110405000Y-49577849D02*
X108355000Y-49577849D01*
X110439000Y-49537849D02*
X108355000Y-49537849D01*
X110471000Y-49497849D02*
X108355000Y-49497849D01*
X110504000Y-49457849D02*
X108355000Y-49457849D01*
X110535000Y-49417849D02*
X108355000Y-49417849D01*
X110565000Y-49377849D02*
X108355000Y-49377849D01*
X110595000Y-49337849D02*
X108355000Y-49337849D01*
X110624000Y-49297849D02*
X108355000Y-49297849D01*
X110653000Y-49257849D02*
X108355000Y-49257849D01*
X110680000Y-49217849D02*
X108355000Y-49217849D01*
X110707000Y-49177849D02*
X108355000Y-49177849D01*
X110733000Y-49137849D02*
X108355000Y-49137849D01*
X110759000Y-49097849D02*
X108355000Y-49097849D01*
X110784000Y-49057849D02*
X108355000Y-49057849D01*
X110808000Y-49017849D02*
X108355000Y-49017849D01*
X110832000Y-48977849D02*
X108355000Y-48977849D01*
X110855000Y-48937849D02*
X108355000Y-48937849D01*
X110877000Y-48897849D02*
X108355000Y-48897849D01*
X110899000Y-48857849D02*
X108355000Y-48857849D01*
X110921000Y-48817849D02*
X108355000Y-48817849D01*
X110942000Y-48777849D02*
X108355000Y-48777849D01*
X110962000Y-48737849D02*
X108355000Y-48737849D01*
X110981000Y-48697849D02*
X108355000Y-48697849D01*
X111001000Y-48657849D02*
X108355000Y-48657849D01*
X111019000Y-48617849D02*
X108355000Y-48617849D01*
X111037000Y-48577849D02*
X108355000Y-48577849D01*
X111055000Y-48537849D02*
X108355000Y-48537849D01*
X111072000Y-48497849D02*
X108355000Y-48497849D01*
X111089000Y-48457849D02*
X108355000Y-48457849D01*
X111105000Y-48417849D02*
X108355000Y-48417849D01*
X111120000Y-48377849D02*
X108355000Y-48377849D01*
X111136000Y-48337849D02*
X103494000Y-48337849D01*
X111150000Y-48297849D02*
X103480000Y-48297849D01*
X111165000Y-48257849D02*
X103465000Y-48257849D01*
X111178000Y-48217849D02*
X103452000Y-48217849D01*
X111192000Y-48177849D02*
X103438000Y-48177849D01*
X111204000Y-48137849D02*
X103426000Y-48137849D01*
X111217000Y-48097849D02*
X103413000Y-48097849D01*
X111229000Y-48057849D02*
X103401000Y-48057849D01*
X111240000Y-48017849D02*
X103390000Y-48017849D01*
X111251000Y-47977849D02*
X103379000Y-47977849D01*
X111262000Y-47937849D02*
X103368000Y-47937849D01*
X111272000Y-47897849D02*
X103358000Y-47897849D01*
X111282000Y-47857849D02*
X103348000Y-47857849D01*
X111291000Y-47817849D02*
X103339000Y-47817849D01*
X111300000Y-47777849D02*
X103330000Y-47777849D01*
X111309000Y-47737849D02*
X103321000Y-47737849D01*
X111317000Y-47697849D02*
X103313000Y-47697849D01*
X111325000Y-47657849D02*
X103305000Y-47657849D01*
X111332000Y-47617849D02*
X103298000Y-47617849D01*
X111339000Y-47576849D02*
X103291000Y-47576849D01*
X111345000Y-47536849D02*
X103285000Y-47536849D01*
X111352000Y-47496849D02*
X103278000Y-47496849D01*
X111357000Y-47456849D02*
X103273000Y-47456849D01*
X111363000Y-47416849D02*
X103267000Y-47416849D01*
X111367000Y-47376849D02*
X103263000Y-47376849D01*
X111372000Y-47336849D02*
X103258000Y-47336849D01*
X111376000Y-47296849D02*
X103254000Y-47296849D01*
X111380000Y-47256849D02*
X103250000Y-47256849D01*
X111383000Y-47216849D02*
X103247000Y-47216849D01*
X111386000Y-47176849D02*
X103244000Y-47176849D01*
X111389000Y-47136849D02*
X103241000Y-47136849D01*
X111391000Y-47096849D02*
X103239000Y-47096849D01*
X111392000Y-47056849D02*
X103238000Y-47056849D01*
X111394000Y-47016849D02*
X103236000Y-47016849D01*
X111395000Y-46896849D02*
X103235000Y-46896849D01*
X111395000Y-46936849D02*
X103235000Y-46936849D01*
X111395000Y-46976849D02*
X103235000Y-46976849D01*
X111435000Y-46896849D02*
G75*
G02*
X103195000Y-46896849I-4120000J0D01*
G01*
X103195000Y-46896849D02*
G75*
G02*
X111435000Y-46896849I4120000J0D01*
G01*
M02*
