G04 #@! TF.GenerationSoftware,KiCad,Pcbnew,8.0.8*
G04 #@! TF.CreationDate,2025-03-31T15:28:11-05:00*
G04 #@! TF.ProjectId,Group_29_Handheld,47726f75-705f-4323-995f-48616e646865,rev?*
G04 #@! TF.SameCoordinates,Original*
G04 #@! TF.FileFunction,Copper,L2,Bot*
G04 #@! TF.FilePolarity,Positive*
%FSLAX46Y46*%
G04 Gerber Fmt 4.6, Leading zero omitted, Abs format (unit mm)*
G04 Created by KiCad (PCBNEW 8.0.8) date 2025-03-31 15:28:11*
%MOMM*%
%LPD*%
G01*
G04 APERTURE LIST*
G04 Aperture macros list*
%AMRoundRect*
0 Rectangle with rounded corners*
0 $1 Rounding radius*
0 $2 $3 $4 $5 $6 $7 $8 $9 X,Y pos of 4 corners*
0 Add a 4 corners polygon primitive as box body*
4,1,4,$2,$3,$4,$5,$6,$7,$8,$9,$2,$3,0*
0 Add four circle primitives for the rounded corners*
1,1,$1+$1,$2,$3*
1,1,$1+$1,$4,$5*
1,1,$1+$1,$6,$7*
1,1,$1+$1,$8,$9*
0 Add four rect primitives between the rounded corners*
20,1,$1+$1,$2,$3,$4,$5,0*
20,1,$1+$1,$4,$5,$6,$7,0*
20,1,$1+$1,$6,$7,$8,$9,0*
20,1,$1+$1,$8,$9,$2,$3,0*%
G04 Aperture macros list end*
G04 #@! TA.AperFunction,ComponentPad*
%ADD10RoundRect,0.250000X-0.620000X-0.845000X0.620000X-0.845000X0.620000X0.845000X-0.620000X0.845000X0*%
G04 #@! TD*
G04 #@! TA.AperFunction,ComponentPad*
%ADD11O,1.740000X2.190000*%
G04 #@! TD*
G04 #@! TA.AperFunction,ComponentPad*
%ADD12C,2.400000*%
G04 #@! TD*
G04 #@! TA.AperFunction,ComponentPad*
%ADD13RoundRect,0.250000X0.845000X-0.620000X0.845000X0.620000X-0.845000X0.620000X-0.845000X-0.620000X0*%
G04 #@! TD*
G04 #@! TA.AperFunction,ComponentPad*
%ADD14O,2.190000X1.740000*%
G04 #@! TD*
G04 #@! TA.AperFunction,ComponentPad*
%ADD15RoundRect,0.250000X0.620000X0.845000X-0.620000X0.845000X-0.620000X-0.845000X0.620000X-0.845000X0*%
G04 #@! TD*
G04 #@! TA.AperFunction,ComponentPad*
%ADD16R,1.700000X1.700000*%
G04 #@! TD*
G04 #@! TA.AperFunction,ComponentPad*
%ADD17O,1.700000X1.700000*%
G04 #@! TD*
G04 #@! TA.AperFunction,ComponentPad*
%ADD18RoundRect,0.250000X-0.845000X0.620000X-0.845000X-0.620000X0.845000X-0.620000X0.845000X0.620000X0*%
G04 #@! TD*
G04 #@! TA.AperFunction,ComponentPad*
%ADD19R,2.000000X1.905000*%
G04 #@! TD*
G04 #@! TA.AperFunction,ComponentPad*
%ADD20O,2.000000X1.905000*%
G04 #@! TD*
G04 #@! TA.AperFunction,ComponentPad*
%ADD21C,2.550000*%
G04 #@! TD*
G04 #@! TA.AperFunction,ComponentPad*
%ADD22R,2.550000X2.550000*%
G04 #@! TD*
G04 #@! TA.AperFunction,ComponentPad*
%ADD23C,1.508000*%
G04 #@! TD*
G04 #@! TA.AperFunction,HeatsinkPad*
%ADD24O,1.550000X0.890000*%
G04 #@! TD*
G04 #@! TA.AperFunction,HeatsinkPad*
%ADD25O,0.950000X1.250000*%
G04 #@! TD*
G04 #@! TA.AperFunction,HeatsinkPad*
%ADD26C,0.600000*%
G04 #@! TD*
G04 #@! TA.AperFunction,ComponentPad*
%ADD27R,1.600000X1.600000*%
G04 #@! TD*
G04 #@! TA.AperFunction,ComponentPad*
%ADD28C,1.600000*%
G04 #@! TD*
G04 #@! TA.AperFunction,ViaPad*
%ADD29C,0.600000*%
G04 #@! TD*
G04 #@! TA.AperFunction,Conductor*
%ADD30C,0.508000*%
G04 #@! TD*
G04 #@! TA.AperFunction,Conductor*
%ADD31C,0.762000*%
G04 #@! TD*
G04 APERTURE END LIST*
D10*
X108267500Y-32956500D03*
D11*
X110807500Y-32956500D03*
X113347500Y-32956500D03*
D10*
X159000000Y-34000000D03*
D11*
X161540000Y-34000000D03*
D12*
X98869500Y-47879000D03*
X98615500Y-79438500D03*
D13*
X100901500Y-40957500D03*
D14*
X100901500Y-38417500D03*
X100901500Y-35877500D03*
D12*
X133794500Y-52832000D03*
X122301000Y-38481000D03*
D15*
X118237000Y-83800000D03*
D11*
X115697000Y-83800000D03*
X113157000Y-83800000D03*
D16*
X178943000Y-54991000D03*
D17*
X178943000Y-52451000D03*
X178943000Y-49911000D03*
X178943000Y-47371000D03*
X178943000Y-44831000D03*
X178943000Y-42291000D03*
X178943000Y-39751000D03*
X178943000Y-37211000D03*
X178943000Y-34671000D03*
X178943000Y-32131000D03*
D13*
X101219000Y-58674000D03*
D14*
X101219000Y-56134000D03*
X101219000Y-53594000D03*
D18*
X179000000Y-60250000D03*
D14*
X179000000Y-62790000D03*
X179000000Y-65330000D03*
D19*
X123507500Y-79502000D03*
D20*
X123507500Y-82042000D03*
X123507500Y-84582000D03*
D21*
X132400000Y-74694250D03*
D22*
X137400000Y-74694250D03*
D23*
X129400000Y-84694250D03*
X140400000Y-84694250D03*
D18*
X179006500Y-69532500D03*
D14*
X179006500Y-72072500D03*
X179006500Y-74612500D03*
D24*
X97409000Y-68715500D03*
D25*
X100109000Y-69715500D03*
X100109000Y-74715500D03*
D24*
X97409000Y-75715500D03*
D26*
X138614500Y-37905000D03*
X138614500Y-39305000D03*
X139314500Y-37205000D03*
X139314500Y-38605000D03*
X139314500Y-40005000D03*
X140014500Y-37905000D03*
X140014500Y-39305000D03*
X140714500Y-37205000D03*
X140714500Y-38605000D03*
X140714500Y-40005000D03*
X141414500Y-37905000D03*
X141414500Y-39305000D03*
D27*
X107061000Y-61287849D03*
D28*
X107061000Y-66287849D03*
D27*
X107315000Y-44396849D03*
D28*
X107315000Y-49396849D03*
D29*
X165227000Y-59182000D03*
X124650500Y-32385000D03*
X155003500Y-47434500D03*
X183134000Y-81026000D03*
X135572500Y-32385000D03*
X151130000Y-71755000D03*
X129413000Y-50673000D03*
X161036000Y-49022000D03*
X97750000Y-33000000D03*
X165608000Y-65786000D03*
X118750000Y-42750000D03*
X173250000Y-52250000D03*
X153250000Y-34500000D03*
X167500000Y-80000000D03*
X117250000Y-71500000D03*
X153416000Y-70866000D03*
X117250000Y-38500000D03*
X165750000Y-34750000D03*
X146750000Y-32750000D03*
X117250000Y-65000000D03*
X121250000Y-83750000D03*
X163449000Y-61976000D03*
X172500000Y-61250000D03*
X129750000Y-41750000D03*
X112250000Y-51000000D03*
X120250000Y-84750000D03*
X130500000Y-72000000D03*
X118000000Y-53500000D03*
X114000000Y-69750000D03*
X139250000Y-71250000D03*
X168750000Y-60750000D03*
X162814000Y-56261000D03*
X137750000Y-44500000D03*
X102616000Y-69977000D03*
X147106000Y-80772000D03*
X171450000Y-67627500D03*
X168783000Y-64960500D03*
D30*
X165909000Y-58500000D02*
X180750000Y-58500000D01*
X124269500Y-32766000D02*
X124269500Y-36512500D01*
X165227000Y-59182000D02*
X165909000Y-58500000D01*
X180750000Y-58500000D02*
X183134000Y-60884000D01*
X183134000Y-60884000D02*
X183134000Y-81026000D01*
X166179500Y-47434500D02*
X178943000Y-34671000D01*
X124650500Y-32385000D02*
X124269500Y-32766000D01*
X155003500Y-47434500D02*
X139954000Y-32385000D01*
X155003500Y-47434500D02*
X166179500Y-47434500D01*
X124269500Y-36512500D02*
X122301000Y-38481000D01*
X139954000Y-32385000D02*
X135572500Y-32385000D01*
X102057500Y-56197500D02*
X100520500Y-56197500D01*
D31*
X129413000Y-50673000D02*
X123136849Y-44396849D01*
D30*
X178943000Y-54991000D02*
X167894000Y-54991000D01*
X167894000Y-54991000D02*
X151130000Y-71755000D01*
D31*
X101008638Y-38417500D02*
X100901500Y-38417500D01*
X107315000Y-44396849D02*
X106987987Y-44396849D01*
X107061000Y-61287849D02*
X105750000Y-59976849D01*
D30*
X107061000Y-61201000D02*
X102057500Y-56197500D01*
D31*
X123136849Y-44396849D02*
X107315000Y-44396849D01*
X105750000Y-59976849D02*
X105750000Y-45961849D01*
X118798151Y-61287849D02*
X107061000Y-61287849D01*
X106987987Y-44396849D02*
X101008638Y-38417500D01*
X129413000Y-50673000D02*
X118798151Y-61287849D01*
X105750000Y-45961849D02*
X107315000Y-44396849D01*
D30*
X107061000Y-61287849D02*
X107061000Y-61201000D01*
X147106000Y-80772000D02*
X144429500Y-78095500D01*
X163671500Y-64206500D02*
X171543500Y-64206500D01*
X175500000Y-60250000D02*
X179000000Y-60250000D01*
X147106000Y-80772000D02*
X163671500Y-64206500D01*
X171543500Y-64206500D02*
X175500000Y-60250000D01*
X144429500Y-78095500D02*
X110734500Y-78095500D01*
X110734500Y-78095500D02*
X102616000Y-69977000D01*
X168783000Y-64960500D02*
X171450000Y-67627500D01*
G04 #@! TA.AperFunction,Conductor*
G36*
X122787396Y-45298034D02*
G01*
X122808038Y-45314668D01*
X128078689Y-50585319D01*
X128112174Y-50646642D01*
X128107190Y-50716334D01*
X128078689Y-50760681D01*
X118469340Y-60370030D01*
X118408017Y-60403515D01*
X118381659Y-60406349D01*
X108450878Y-60406349D01*
X108383839Y-60386664D01*
X108338084Y-60333860D01*
X108334696Y-60325682D01*
X108304797Y-60245520D01*
X108304793Y-60245513D01*
X108218547Y-60130304D01*
X108218544Y-60130301D01*
X108103335Y-60044055D01*
X108103328Y-60044051D01*
X107968482Y-59993757D01*
X107968483Y-59993757D01*
X107908883Y-59987350D01*
X107908881Y-59987349D01*
X107908873Y-59987349D01*
X107908865Y-59987349D01*
X107058492Y-59987349D01*
X106991453Y-59967664D01*
X106970811Y-59951030D01*
X106667819Y-59648038D01*
X106634334Y-59586715D01*
X106631500Y-59560357D01*
X106631500Y-50707160D01*
X106651185Y-50640121D01*
X106703989Y-50594366D01*
X106773147Y-50584422D01*
X106807905Y-50594778D01*
X106868673Y-50623115D01*
X106868682Y-50623118D01*
X107088389Y-50681988D01*
X107088400Y-50681990D01*
X107314998Y-50701815D01*
X107315002Y-50701815D01*
X107541599Y-50681990D01*
X107541610Y-50681988D01*
X107761317Y-50623118D01*
X107761331Y-50623113D01*
X107967478Y-50526985D01*
X108040471Y-50475873D01*
X107361447Y-49796849D01*
X107367661Y-49796849D01*
X107469394Y-49769590D01*
X107560606Y-49716929D01*
X107635080Y-49642455D01*
X107687741Y-49551243D01*
X107715000Y-49449510D01*
X107715000Y-49443296D01*
X108394024Y-50122320D01*
X108445136Y-50049327D01*
X108541264Y-49843180D01*
X108541269Y-49843166D01*
X108600139Y-49623459D01*
X108600141Y-49623448D01*
X108619966Y-49396851D01*
X108619966Y-49396846D01*
X108600141Y-49170249D01*
X108600139Y-49170238D01*
X108541269Y-48950531D01*
X108541264Y-48950517D01*
X108445136Y-48744370D01*
X108445132Y-48744362D01*
X108394025Y-48671375D01*
X107715000Y-49350400D01*
X107715000Y-49344188D01*
X107687741Y-49242455D01*
X107635080Y-49151243D01*
X107560606Y-49076769D01*
X107469394Y-49024108D01*
X107367661Y-48996849D01*
X107361446Y-48996849D01*
X108040472Y-48317823D01*
X107967478Y-48266712D01*
X107761331Y-48170584D01*
X107761317Y-48170579D01*
X107541610Y-48111709D01*
X107541599Y-48111707D01*
X107315002Y-48091883D01*
X107314998Y-48091883D01*
X107088400Y-48111707D01*
X107088389Y-48111709D01*
X106868682Y-48170579D01*
X106868677Y-48170581D01*
X106807904Y-48198920D01*
X106738826Y-48209411D01*
X106675042Y-48180891D01*
X106636803Y-48122414D01*
X106631500Y-48086537D01*
X106631500Y-46378339D01*
X106651185Y-46311300D01*
X106667815Y-46290662D01*
X107224810Y-45733666D01*
X107286133Y-45700182D01*
X107312491Y-45697348D01*
X108162871Y-45697348D01*
X108162872Y-45697348D01*
X108222483Y-45690940D01*
X108357331Y-45640645D01*
X108472546Y-45554395D01*
X108558796Y-45439180D01*
X108588695Y-45359017D01*
X108630565Y-45303083D01*
X108696030Y-45278665D01*
X108704877Y-45278349D01*
X122720357Y-45278349D01*
X122787396Y-45298034D01*
G37*
G04 #@! TD.AperFunction*
G04 #@! TA.AperFunction,Conductor*
G36*
X100245172Y-29223832D02*
G01*
X100312142Y-29243734D01*
X100357725Y-29296686D01*
X100367443Y-29365877D01*
X100359324Y-29395282D01*
X100288448Y-29566392D01*
X100225661Y-29800714D01*
X100194000Y-30041211D01*
X100194000Y-30283788D01*
X100225661Y-30524285D01*
X100288447Y-30758604D01*
X100370791Y-30957399D01*
X100381276Y-30982712D01*
X100502564Y-31192789D01*
X100502566Y-31192792D01*
X100502567Y-31192793D01*
X100650233Y-31385236D01*
X100650239Y-31385243D01*
X100821756Y-31556760D01*
X100821763Y-31556766D01*
X100918507Y-31631000D01*
X101014211Y-31704436D01*
X101224288Y-31825724D01*
X101448400Y-31918554D01*
X101682711Y-31981338D01*
X101863086Y-32005084D01*
X101923211Y-32013000D01*
X101923212Y-32013000D01*
X102165789Y-32013000D01*
X102213888Y-32006667D01*
X102406289Y-31981338D01*
X102640600Y-31918554D01*
X102864712Y-31825724D01*
X103074789Y-31704436D01*
X103267238Y-31556765D01*
X103438765Y-31385238D01*
X103586436Y-31192789D01*
X103707724Y-30982712D01*
X103800554Y-30758600D01*
X103863338Y-30524289D01*
X103895000Y-30283788D01*
X103895000Y-30041212D01*
X103863338Y-29800711D01*
X103800554Y-29566400D01*
X103734539Y-29407027D01*
X103727071Y-29337559D01*
X103758346Y-29275079D01*
X103818435Y-29239427D01*
X103849496Y-29235576D01*
X117390906Y-29279700D01*
X117457879Y-29299603D01*
X117503462Y-29352555D01*
X117512105Y-29392605D01*
X117514500Y-29395000D01*
X152775802Y-29395000D01*
X152776207Y-29395001D01*
X168197684Y-29445250D01*
X168264657Y-29465153D01*
X168310240Y-29518105D01*
X168319958Y-29587296D01*
X168317053Y-29601341D01*
X168297664Y-29673704D01*
X168297660Y-29673721D01*
X168266000Y-29914211D01*
X168266000Y-30156788D01*
X168297661Y-30397285D01*
X168360447Y-30631604D01*
X168430350Y-30800364D01*
X168453276Y-30855712D01*
X168574564Y-31065789D01*
X168574566Y-31065792D01*
X168574567Y-31065793D01*
X168722233Y-31258236D01*
X168722239Y-31258243D01*
X168893756Y-31429760D01*
X168893762Y-31429765D01*
X169086211Y-31577436D01*
X169296288Y-31698724D01*
X169520400Y-31791554D01*
X169754711Y-31854338D01*
X169935086Y-31878084D01*
X169995211Y-31886000D01*
X169995212Y-31886000D01*
X170237789Y-31886000D01*
X170285888Y-31879667D01*
X170478289Y-31854338D01*
X170712600Y-31791554D01*
X170936712Y-31698724D01*
X171146789Y-31577436D01*
X171339238Y-31429765D01*
X171510765Y-31258238D01*
X171658436Y-31065789D01*
X171779724Y-30855712D01*
X171872554Y-30631600D01*
X171935338Y-30397289D01*
X171967000Y-30156788D01*
X171967000Y-29914212D01*
X171935338Y-29673711D01*
X171919300Y-29613857D01*
X171920963Y-29544012D01*
X171960125Y-29486149D01*
X172024353Y-29458644D01*
X172039463Y-29457768D01*
X184524407Y-29498450D01*
X184591379Y-29518352D01*
X184636962Y-29571304D01*
X184648000Y-29622448D01*
X184648000Y-88075500D01*
X184628315Y-88142539D01*
X184575511Y-88188294D01*
X184524000Y-88199500D01*
X128143468Y-88199500D01*
X128142492Y-88199496D01*
X96372024Y-87949334D01*
X96305141Y-87929122D01*
X96259804Y-87875960D01*
X96249000Y-87825338D01*
X96249000Y-84333711D01*
X100194000Y-84333711D01*
X100194000Y-84576288D01*
X100225661Y-84816785D01*
X100288447Y-85051104D01*
X100381273Y-85275205D01*
X100381277Y-85275214D01*
X100392754Y-85295092D01*
X100502564Y-85485289D01*
X100502566Y-85485292D01*
X100502567Y-85485293D01*
X100650233Y-85677736D01*
X100650239Y-85677743D01*
X100821756Y-85849260D01*
X100821762Y-85849265D01*
X101014211Y-85996936D01*
X101224288Y-86118224D01*
X101448400Y-86211054D01*
X101682711Y-86273838D01*
X101863086Y-86297584D01*
X101923211Y-86305500D01*
X101923212Y-86305500D01*
X102165789Y-86305500D01*
X102213888Y-86299167D01*
X102406289Y-86273838D01*
X102640600Y-86211054D01*
X102864712Y-86118224D01*
X103074789Y-85996936D01*
X103267238Y-85849265D01*
X103438765Y-85677738D01*
X103586436Y-85485289D01*
X103707724Y-85275212D01*
X103800554Y-85051100D01*
X103863338Y-84816789D01*
X103895000Y-84576288D01*
X103895000Y-84333712D01*
X103863338Y-84093211D01*
X103800554Y-83858900D01*
X103707724Y-83634788D01*
X103610928Y-83467133D01*
X111786500Y-83467133D01*
X111786500Y-84132866D01*
X111820245Y-84345922D01*
X111820246Y-84345926D01*
X111886908Y-84551089D01*
X111984843Y-84743299D01*
X112111641Y-84917821D01*
X112264179Y-85070359D01*
X112438701Y-85197157D01*
X112630911Y-85295092D01*
X112836074Y-85361754D01*
X112915973Y-85374408D01*
X113049134Y-85395500D01*
X113049139Y-85395500D01*
X113264866Y-85395500D01*
X113383230Y-85376752D01*
X113477926Y-85361754D01*
X113683089Y-85295092D01*
X113875299Y-85197157D01*
X114049821Y-85070359D01*
X114202359Y-84917821D01*
X114326682Y-84746704D01*
X114382012Y-84704040D01*
X114451626Y-84698061D01*
X114513420Y-84730667D01*
X114527315Y-84746702D01*
X114651641Y-84917821D01*
X114804179Y-85070359D01*
X114978701Y-85197157D01*
X115170911Y-85295092D01*
X115376074Y-85361754D01*
X115455973Y-85374408D01*
X115589134Y-85395500D01*
X115589139Y-85395500D01*
X115804866Y-85395500D01*
X115923230Y-85376752D01*
X116017926Y-85361754D01*
X116223089Y-85295092D01*
X116415299Y-85197157D01*
X116589821Y-85070359D01*
X116732186Y-84927993D01*
X116793505Y-84894511D01*
X116863197Y-84899495D01*
X116919131Y-84941366D01*
X116932248Y-84963277D01*
X116932640Y-84964118D01*
X117024684Y-85113345D01*
X117148654Y-85237315D01*
X117297875Y-85329356D01*
X117297880Y-85329358D01*
X117464302Y-85384505D01*
X117464309Y-85384506D01*
X117567019Y-85394999D01*
X117986999Y-85394999D01*
X117987000Y-85394998D01*
X117987000Y-84342709D01*
X118007339Y-84354452D01*
X118158667Y-84395000D01*
X118315333Y-84395000D01*
X118466661Y-84354452D01*
X118487000Y-84342709D01*
X118487000Y-85394999D01*
X118906972Y-85394999D01*
X118906986Y-85394998D01*
X119009697Y-85384505D01*
X119176119Y-85329358D01*
X119176124Y-85329356D01*
X119325345Y-85237315D01*
X119449315Y-85113345D01*
X119541356Y-84964124D01*
X119541358Y-84964119D01*
X119596505Y-84797697D01*
X119596506Y-84797690D01*
X119606999Y-84694986D01*
X119607000Y-84694973D01*
X119607000Y-84050000D01*
X118779709Y-84050000D01*
X118791452Y-84029661D01*
X118832000Y-83878333D01*
X118832000Y-83721667D01*
X118791452Y-83570339D01*
X118779709Y-83550000D01*
X119606999Y-83550000D01*
X119606999Y-82905028D01*
X119606998Y-82905013D01*
X119596505Y-82802302D01*
X119541358Y-82635880D01*
X119541356Y-82635875D01*
X119449315Y-82486654D01*
X119325345Y-82362684D01*
X119176124Y-82270643D01*
X119176119Y-82270641D01*
X119009697Y-82215494D01*
X119009690Y-82215493D01*
X118906986Y-82205000D01*
X118487000Y-82205000D01*
X118487000Y-83257290D01*
X118466661Y-83245548D01*
X118315333Y-83205000D01*
X118158667Y-83205000D01*
X118007339Y-83245548D01*
X117987000Y-83257290D01*
X117987000Y-82205000D01*
X117567028Y-82205000D01*
X117567012Y-82205001D01*
X117464302Y-82215494D01*
X117297880Y-82270641D01*
X117297875Y-82270643D01*
X117148654Y-82362684D01*
X117024684Y-82486654D01*
X116932637Y-82635885D01*
X116932245Y-82636728D01*
X116931821Y-82637208D01*
X116928851Y-82642025D01*
X116928027Y-82641517D01*
X116886072Y-82689167D01*
X116818879Y-82708318D01*
X116751998Y-82688101D01*
X116732183Y-82672003D01*
X116589823Y-82529643D01*
X116589821Y-82529641D01*
X116415299Y-82402843D01*
X116223089Y-82304908D01*
X116017926Y-82238246D01*
X116017924Y-82238245D01*
X116017922Y-82238245D01*
X115804866Y-82204500D01*
X115804861Y-82204500D01*
X115589139Y-82204500D01*
X115589134Y-82204500D01*
X115376077Y-82238245D01*
X115170908Y-82304909D01*
X114978700Y-82402843D01*
X114879129Y-82475186D01*
X114804179Y-82529641D01*
X114804177Y-82529643D01*
X114804176Y-82529643D01*
X114651643Y-82682176D01*
X114651643Y-82682177D01*
X114651641Y-82682179D01*
X114632650Y-82708318D01*
X114527318Y-82853294D01*
X114471988Y-82895959D01*
X114402374Y-82901938D01*
X114340579Y-82869332D01*
X114326682Y-82853294D01*
X114290532Y-82803538D01*
X114202359Y-82682179D01*
X114049821Y-82529641D01*
X113875299Y-82402843D01*
X113683089Y-82304908D01*
X113477926Y-82238246D01*
X113477924Y-82238245D01*
X113477922Y-82238245D01*
X113264866Y-82204500D01*
X113264861Y-82204500D01*
X113049139Y-82204500D01*
X113049134Y-82204500D01*
X112836077Y-82238245D01*
X112630908Y-82304909D01*
X112438700Y-82402843D01*
X112339129Y-82475186D01*
X112264179Y-82529641D01*
X112264177Y-82529643D01*
X112264176Y-82529643D01*
X112111643Y-82682176D01*
X112111643Y-82682177D01*
X112111641Y-82682179D01*
X112092650Y-82708318D01*
X111984843Y-82856700D01*
X111886909Y-83048908D01*
X111820245Y-83254077D01*
X111786500Y-83467133D01*
X103610928Y-83467133D01*
X103586436Y-83424711D01*
X103438765Y-83232262D01*
X103438760Y-83232256D01*
X103267243Y-83060739D01*
X103267236Y-83060733D01*
X103074793Y-82913067D01*
X103074792Y-82913066D01*
X103074789Y-82913064D01*
X102903161Y-82813974D01*
X102864714Y-82791777D01*
X102864705Y-82791773D01*
X102640604Y-82698947D01*
X102426274Y-82641517D01*
X102406289Y-82636162D01*
X102406288Y-82636161D01*
X102406285Y-82636161D01*
X102165789Y-82604500D01*
X102165788Y-82604500D01*
X101923212Y-82604500D01*
X101923211Y-82604500D01*
X101682714Y-82636161D01*
X101448395Y-82698947D01*
X101224294Y-82791773D01*
X101224285Y-82791777D01*
X101014206Y-82913067D01*
X100821763Y-83060733D01*
X100821756Y-83060739D01*
X100650239Y-83232256D01*
X100650233Y-83232263D01*
X100502567Y-83424706D01*
X100381277Y-83634785D01*
X100381273Y-83634794D01*
X100288447Y-83858895D01*
X100225661Y-84093214D01*
X100194000Y-84333711D01*
X96249000Y-84333711D01*
X96249000Y-79438495D01*
X96910733Y-79438495D01*
X96910733Y-79438504D01*
X96929773Y-79692579D01*
X96986468Y-79940977D01*
X96986473Y-79940994D01*
X97079558Y-80178171D01*
X97079557Y-80178171D01*
X97206957Y-80398832D01*
X97248952Y-80451493D01*
X97899652Y-79800792D01*
X97906549Y-79817442D01*
X97994099Y-79948470D01*
X98105530Y-80059901D01*
X98236558Y-80147451D01*
X98253205Y-80154346D01*
X97602313Y-80805237D01*
X97763123Y-80914875D01*
X97763124Y-80914876D01*
X97992676Y-81025421D01*
X97992674Y-81025421D01*
X98236152Y-81100524D01*
X98236158Y-81100526D01*
X98488095Y-81138499D01*
X98488104Y-81138500D01*
X98742896Y-81138500D01*
X98742904Y-81138499D01*
X98994841Y-81100526D01*
X98994847Y-81100524D01*
X99238324Y-81025421D01*
X99467881Y-80914873D01*
X99628685Y-80805237D01*
X98977794Y-80154346D01*
X98994442Y-80147451D01*
X99125470Y-80059901D01*
X99236901Y-79948470D01*
X99324451Y-79817442D01*
X99331346Y-79800794D01*
X99982045Y-80451493D01*
X100024045Y-80398827D01*
X100151441Y-80178171D01*
X100244526Y-79940994D01*
X100244531Y-79940977D01*
X100301226Y-79692579D01*
X100320267Y-79438504D01*
X100320267Y-79438495D01*
X100301226Y-79184420D01*
X100244531Y-78936022D01*
X100244526Y-78936005D01*
X100151441Y-78698828D01*
X100151442Y-78698828D01*
X100024044Y-78478171D01*
X99982046Y-78425506D01*
X99331346Y-79076205D01*
X99324451Y-79059558D01*
X99236901Y-78928530D01*
X99125470Y-78817099D01*
X98994442Y-78729549D01*
X98977792Y-78722652D01*
X99628685Y-78071761D01*
X99467877Y-77962124D01*
X99467876Y-77962123D01*
X99238323Y-77851578D01*
X99238325Y-77851578D01*
X98994847Y-77776475D01*
X98994841Y-77776473D01*
X98742904Y-77738500D01*
X98488095Y-77738500D01*
X98236158Y-77776473D01*
X98236152Y-77776475D01*
X97992675Y-77851578D01*
X97763124Y-77962123D01*
X97763116Y-77962128D01*
X97602313Y-78071761D01*
X98253205Y-78722653D01*
X98236558Y-78729549D01*
X98105530Y-78817099D01*
X97994099Y-78928530D01*
X97906549Y-79059558D01*
X97899653Y-79076206D01*
X97248953Y-78425506D01*
X97206955Y-78478170D01*
X97079558Y-78698828D01*
X96986473Y-78936005D01*
X96986468Y-78936022D01*
X96929773Y-79184420D01*
X96910733Y-79438495D01*
X96249000Y-79438495D01*
X96249000Y-76521294D01*
X96268685Y-76454255D01*
X96321489Y-76408500D01*
X96390647Y-76398556D01*
X96454203Y-76427581D01*
X96460681Y-76433613D01*
X96476594Y-76449526D01*
X96476598Y-76449529D01*
X96631368Y-76552944D01*
X96631377Y-76552949D01*
X96803353Y-76624183D01*
X96803361Y-76624185D01*
X96985921Y-76660499D01*
X96985924Y-76660500D01*
X97159000Y-76660500D01*
X97159000Y-75965500D01*
X97659000Y-75965500D01*
X97659000Y-76660500D01*
X97832076Y-76660500D01*
X97832078Y-76660499D01*
X98014638Y-76624185D01*
X98014646Y-76624183D01*
X98186622Y-76552949D01*
X98186631Y-76552944D01*
X98341401Y-76449529D01*
X98341405Y-76449526D01*
X98473026Y-76317905D01*
X98473029Y-76317901D01*
X98576444Y-76163131D01*
X98576451Y-76163118D01*
X98647682Y-75991149D01*
X98647683Y-75991144D01*
X98652784Y-75965500D01*
X97783728Y-75965500D01*
X97875614Y-75927440D01*
X97945940Y-75857114D01*
X97984000Y-75765228D01*
X97984000Y-75665772D01*
X97945940Y-75573886D01*
X97875614Y-75503560D01*
X97783728Y-75465500D01*
X98652784Y-75465500D01*
X98647683Y-75439855D01*
X98647682Y-75439850D01*
X98576451Y-75267881D01*
X98576444Y-75267868D01*
X98473029Y-75113098D01*
X98473026Y-75113094D01*
X98341405Y-74981473D01*
X98341401Y-74981470D01*
X98186631Y-74878055D01*
X98186622Y-74878050D01*
X98014646Y-74806816D01*
X98014638Y-74806814D01*
X97832077Y-74770500D01*
X97659000Y-74770500D01*
X97659000Y-75465500D01*
X97159000Y-75465500D01*
X97159000Y-74770500D01*
X96985923Y-74770500D01*
X96803361Y-74806814D01*
X96803353Y-74806816D01*
X96631377Y-74878050D01*
X96631368Y-74878055D01*
X96476598Y-74981470D01*
X96476594Y-74981473D01*
X96460681Y-74997387D01*
X96399358Y-75030872D01*
X96329666Y-75025888D01*
X96273733Y-74984016D01*
X96249316Y-74918552D01*
X96249000Y-74909706D01*
X96249000Y-74465499D01*
X99134789Y-74465499D01*
X99134790Y-74465500D01*
X99852763Y-74465500D01*
X99834000Y-74510799D01*
X99834000Y-74920201D01*
X99852763Y-74965500D01*
X99134789Y-74965500D01*
X99171466Y-75149889D01*
X99171468Y-75149897D01*
X99244964Y-75327333D01*
X99244969Y-75327342D01*
X99351667Y-75487026D01*
X99351670Y-75487030D01*
X99487469Y-75622829D01*
X99487473Y-75622832D01*
X99647157Y-75729530D01*
X99647167Y-75729535D01*
X99824599Y-75803030D01*
X99824606Y-75803033D01*
X99859000Y-75809873D01*
X99859000Y-74980556D01*
X99875866Y-75021275D01*
X99953225Y-75098634D01*
X100054299Y-75140500D01*
X100163701Y-75140500D01*
X100264775Y-75098634D01*
X100342134Y-75021275D01*
X100359000Y-74980556D01*
X100359000Y-75809872D01*
X100393393Y-75803033D01*
X100393400Y-75803030D01*
X100570832Y-75729535D01*
X100570842Y-75729530D01*
X100730526Y-75622832D01*
X100730530Y-75622829D01*
X100866329Y-75487030D01*
X100866332Y-75487026D01*
X100973030Y-75327342D01*
X100973035Y-75327333D01*
X101046531Y-75149897D01*
X101046533Y-75149889D01*
X101083210Y-74965500D01*
X100365237Y-74965500D01*
X100384000Y-74920201D01*
X100384000Y-74510799D01*
X100365237Y-74465500D01*
X101083210Y-74465500D01*
X101083210Y-74465499D01*
X101046533Y-74281110D01*
X101046531Y-74281102D01*
X100973035Y-74103666D01*
X100973030Y-74103657D01*
X100866332Y-73943973D01*
X100866329Y-73943969D01*
X100730530Y-73808170D01*
X100730526Y-73808167D01*
X100570842Y-73701469D01*
X100570833Y-73701464D01*
X100393397Y-73627968D01*
X100393389Y-73627966D01*
X100359000Y-73621125D01*
X100359000Y-74450443D01*
X100342134Y-74409725D01*
X100264775Y-74332366D01*
X100163701Y-74290500D01*
X100054299Y-74290500D01*
X99953225Y-74332366D01*
X99875866Y-74409725D01*
X99859000Y-74450443D01*
X99859000Y-73621125D01*
X99824610Y-73627966D01*
X99824602Y-73627968D01*
X99647166Y-73701464D01*
X99647157Y-73701469D01*
X99487473Y-73808167D01*
X99487469Y-73808170D01*
X99351670Y-73943969D01*
X99351667Y-73943973D01*
X99244969Y-74103657D01*
X99244964Y-74103666D01*
X99171468Y-74281102D01*
X99171466Y-74281110D01*
X99134789Y-74465499D01*
X96249000Y-74465499D01*
X96249000Y-69521294D01*
X96268685Y-69454255D01*
X96321489Y-69408500D01*
X96390647Y-69398556D01*
X96454203Y-69427581D01*
X96460681Y-69433613D01*
X96476594Y-69449526D01*
X96476598Y-69449529D01*
X96631368Y-69552944D01*
X96631377Y-69552949D01*
X96803353Y-69624183D01*
X96803361Y-69624185D01*
X96985921Y-69660499D01*
X96985924Y-69660500D01*
X97159000Y-69660500D01*
X97159000Y-68965500D01*
X97659000Y-68965500D01*
X97659000Y-69660500D01*
X97832076Y-69660500D01*
X97832078Y-69660499D01*
X98014638Y-69624185D01*
X98014646Y-69624183D01*
X98186622Y-69552949D01*
X98186631Y-69552944D01*
X98317500Y-69465499D01*
X99134789Y-69465499D01*
X99134790Y-69465500D01*
X99852763Y-69465500D01*
X99834000Y-69510799D01*
X99834000Y-69920201D01*
X99852763Y-69965500D01*
X99134789Y-69965500D01*
X99171466Y-70149889D01*
X99171468Y-70149897D01*
X99244964Y-70327333D01*
X99244969Y-70327342D01*
X99351667Y-70487026D01*
X99351670Y-70487030D01*
X99487469Y-70622829D01*
X99487473Y-70622832D01*
X99647157Y-70729530D01*
X99647167Y-70729535D01*
X99824599Y-70803030D01*
X99824606Y-70803033D01*
X99859000Y-70809873D01*
X99859000Y-69980556D01*
X99875866Y-70021275D01*
X99953225Y-70098634D01*
X100054299Y-70140500D01*
X100163701Y-70140500D01*
X100264775Y-70098634D01*
X100342134Y-70021275D01*
X100359000Y-69980556D01*
X100359000Y-70809872D01*
X100393393Y-70803033D01*
X100393400Y-70803030D01*
X100570832Y-70729535D01*
X100570842Y-70729530D01*
X100730526Y-70622832D01*
X100730530Y-70622829D01*
X100866329Y-70487030D01*
X100866332Y-70487026D01*
X100973030Y-70327342D01*
X100973035Y-70327333D01*
X101046531Y-70149897D01*
X101046533Y-70149889D01*
X101080923Y-69976996D01*
X101810435Y-69976996D01*
X101810435Y-69977003D01*
X101830630Y-70156249D01*
X101830631Y-70156254D01*
X101890211Y-70326523D01*
X101890726Y-70327342D01*
X101986184Y-70479262D01*
X102113738Y-70606816D01*
X102202320Y-70662476D01*
X102272374Y-70706494D01*
X102271868Y-70707298D01*
X102297360Y-70725385D01*
X110144100Y-78572124D01*
X110144121Y-78572147D01*
X110253529Y-78681555D01*
X110253532Y-78681557D01*
X110253534Y-78681559D01*
X110336105Y-78736730D01*
X110377111Y-78764130D01*
X110457543Y-78797445D01*
X110457544Y-78797446D01*
X110481103Y-78807204D01*
X110514420Y-78821005D01*
X110514429Y-78821006D01*
X110514430Y-78821007D01*
X110538603Y-78825815D01*
X110538610Y-78825816D01*
X110660186Y-78850001D01*
X110660188Y-78850001D01*
X110814926Y-78850001D01*
X110814946Y-78850000D01*
X121883000Y-78850000D01*
X121950039Y-78869685D01*
X121995794Y-78922489D01*
X122007000Y-78974000D01*
X122007000Y-80502370D01*
X122007001Y-80502376D01*
X122013408Y-80561983D01*
X122063702Y-80696828D01*
X122063706Y-80696835D01*
X122149952Y-80812044D01*
X122149955Y-80812047D01*
X122265164Y-80898293D01*
X122265169Y-80898296D01*
X122293039Y-80908690D01*
X122348973Y-80950561D01*
X122373391Y-81016024D01*
X122358540Y-81084298D01*
X122350026Y-81097756D01*
X122336677Y-81116131D01*
X122217283Y-81280461D01*
X122113450Y-81484244D01*
X122042778Y-81701750D01*
X122042778Y-81701753D01*
X122007000Y-81927646D01*
X122007000Y-82156353D01*
X122042778Y-82382246D01*
X122042778Y-82382249D01*
X122113450Y-82599755D01*
X122158465Y-82688101D01*
X122217283Y-82803538D01*
X122351714Y-82988566D01*
X122513434Y-83150286D01*
X122582923Y-83200773D01*
X122597938Y-83211682D01*
X122640603Y-83267013D01*
X122646582Y-83336626D01*
X122613976Y-83398421D01*
X122597938Y-83412318D01*
X122513432Y-83473715D01*
X122351716Y-83635431D01*
X122351716Y-83635432D01*
X122351714Y-83635434D01*
X122293980Y-83714896D01*
X122217283Y-83820461D01*
X122113450Y-84024244D01*
X122042778Y-84241750D01*
X122042778Y-84241753D01*
X122042778Y-84241755D01*
X122007000Y-84467646D01*
X122007000Y-84696354D01*
X122014975Y-84746705D01*
X122042778Y-84922246D01*
X122042778Y-84922249D01*
X122113450Y-85139755D01*
X122207273Y-85323892D01*
X122217283Y-85343538D01*
X122351714Y-85528566D01*
X122513434Y-85690286D01*
X122698462Y-85824717D01*
X122802245Y-85877597D01*
X122902244Y-85928549D01*
X123119751Y-85999221D01*
X123119752Y-85999221D01*
X123119755Y-85999222D01*
X123345646Y-86035000D01*
X123345647Y-86035000D01*
X123669353Y-86035000D01*
X123669354Y-86035000D01*
X123895245Y-85999222D01*
X123895248Y-85999221D01*
X123895249Y-85999221D01*
X124112755Y-85928549D01*
X124112755Y-85928548D01*
X124112758Y-85928548D01*
X124316538Y-85824717D01*
X124501566Y-85690286D01*
X124663286Y-85528566D01*
X124797717Y-85343538D01*
X124901548Y-85139758D01*
X124958615Y-84964124D01*
X124972221Y-84922249D01*
X124972221Y-84922248D01*
X124972222Y-84922245D01*
X125008000Y-84696354D01*
X125008000Y-84694247D01*
X128140708Y-84694247D01*
X128140708Y-84694252D01*
X128159838Y-84912918D01*
X128159839Y-84912925D01*
X128167460Y-84941366D01*
X128216653Y-85124953D01*
X128216654Y-85124956D01*
X128216655Y-85124958D01*
X128309419Y-85323892D01*
X128309423Y-85323900D01*
X128435322Y-85503702D01*
X128435327Y-85503708D01*
X128590541Y-85658922D01*
X128590547Y-85658927D01*
X128770349Y-85784826D01*
X128770351Y-85784827D01*
X128770354Y-85784829D01*
X128969297Y-85877597D01*
X129181326Y-85934411D01*
X129337521Y-85948076D01*
X129399998Y-85953542D01*
X129400000Y-85953542D01*
X129400002Y-85953542D01*
X129454668Y-85948759D01*
X129618674Y-85934411D01*
X129830703Y-85877597D01*
X130029646Y-85784829D01*
X130209457Y-85658924D01*
X130364674Y-85503707D01*
X130490579Y-85323896D01*
X130583347Y-85124953D01*
X130640161Y-84912924D01*
X130659292Y-84694250D01*
X130659292Y-84694247D01*
X139140708Y-84694247D01*
X139140708Y-84694252D01*
X139159838Y-84912918D01*
X139159839Y-84912925D01*
X139167460Y-84941366D01*
X139216653Y-85124953D01*
X139216654Y-85124956D01*
X139216655Y-85124958D01*
X139309419Y-85323892D01*
X139309423Y-85323900D01*
X139435322Y-85503702D01*
X139435327Y-85503708D01*
X139590541Y-85658922D01*
X139590547Y-85658927D01*
X139770349Y-85784826D01*
X139770351Y-85784827D01*
X139770354Y-85784829D01*
X139969297Y-85877597D01*
X140181326Y-85934411D01*
X140337521Y-85948076D01*
X140399998Y-85953542D01*
X140400000Y-85953542D01*
X140400002Y-85953542D01*
X140454668Y-85948759D01*
X140618674Y-85934411D01*
X140830703Y-85877597D01*
X141029646Y-85784829D01*
X141209457Y-85658924D01*
X141364674Y-85503707D01*
X141490579Y-85323896D01*
X141583347Y-85124953D01*
X141640161Y-84912924D01*
X141659292Y-84694250D01*
X141640161Y-84475576D01*
X141602148Y-84333711D01*
X168520000Y-84333711D01*
X168520000Y-84576288D01*
X168551661Y-84816785D01*
X168614447Y-85051104D01*
X168707273Y-85275205D01*
X168707277Y-85275214D01*
X168718754Y-85295092D01*
X168828564Y-85485289D01*
X168828566Y-85485292D01*
X168828567Y-85485293D01*
X168976233Y-85677736D01*
X168976239Y-85677743D01*
X169147756Y-85849260D01*
X169147762Y-85849265D01*
X169340211Y-85996936D01*
X169550288Y-86118224D01*
X169774400Y-86211054D01*
X170008711Y-86273838D01*
X170189086Y-86297584D01*
X170249211Y-86305500D01*
X170249212Y-86305500D01*
X170491789Y-86305500D01*
X170539888Y-86299167D01*
X170732289Y-86273838D01*
X170966600Y-86211054D01*
X171190712Y-86118224D01*
X171400789Y-85996936D01*
X171593238Y-85849265D01*
X171764765Y-85677738D01*
X171912436Y-85485289D01*
X172033724Y-85275212D01*
X172126554Y-85051100D01*
X172189338Y-84816789D01*
X172221000Y-84576288D01*
X172221000Y-84333712D01*
X172189338Y-84093211D01*
X172126554Y-83858900D01*
X172033724Y-83634788D01*
X171912436Y-83424711D01*
X171764765Y-83232262D01*
X171764760Y-83232256D01*
X171593243Y-83060739D01*
X171593236Y-83060733D01*
X171400793Y-82913067D01*
X171400792Y-82913066D01*
X171400789Y-82913064D01*
X171229161Y-82813974D01*
X171190714Y-82791777D01*
X171190705Y-82791773D01*
X170966604Y-82698947D01*
X170752274Y-82641517D01*
X170732289Y-82636162D01*
X170732288Y-82636161D01*
X170732285Y-82636161D01*
X170491789Y-82604500D01*
X170491788Y-82604500D01*
X170249212Y-82604500D01*
X170249211Y-82604500D01*
X170008714Y-82636161D01*
X169774395Y-82698947D01*
X169550294Y-82791773D01*
X169550285Y-82791777D01*
X169340206Y-82913067D01*
X169147763Y-83060733D01*
X169147756Y-83060739D01*
X168976239Y-83232256D01*
X168976233Y-83232263D01*
X168828567Y-83424706D01*
X168707277Y-83634785D01*
X168707273Y-83634794D01*
X168614447Y-83858895D01*
X168551661Y-84093214D01*
X168520000Y-84333711D01*
X141602148Y-84333711D01*
X141583347Y-84263547D01*
X141490579Y-84064604D01*
X141490577Y-84064601D01*
X141490576Y-84064599D01*
X141364677Y-83884797D01*
X141364672Y-83884791D01*
X141209458Y-83729577D01*
X141209452Y-83729572D01*
X141029650Y-83603673D01*
X141029642Y-83603669D01*
X140830708Y-83510905D01*
X140830706Y-83510904D01*
X140830703Y-83510903D01*
X140679885Y-83470490D01*
X140618675Y-83454089D01*
X140618668Y-83454088D01*
X140400002Y-83434958D01*
X140399998Y-83434958D01*
X140181331Y-83454088D01*
X140181324Y-83454089D01*
X140108078Y-83473716D01*
X139969297Y-83510903D01*
X139969295Y-83510903D01*
X139969291Y-83510905D01*
X139770357Y-83603669D01*
X139770349Y-83603673D01*
X139590547Y-83729572D01*
X139590541Y-83729577D01*
X139435327Y-83884791D01*
X139435322Y-83884797D01*
X139309423Y-84064599D01*
X139309419Y-84064607D01*
X139216655Y-84263541D01*
X139159839Y-84475574D01*
X139159838Y-84475581D01*
X139140708Y-84694247D01*
X130659292Y-84694247D01*
X130640161Y-84475576D01*
X130583347Y-84263547D01*
X130490579Y-84064604D01*
X130490577Y-84064601D01*
X130490576Y-84064599D01*
X130364677Y-83884797D01*
X130364672Y-83884791D01*
X130209458Y-83729577D01*
X130209452Y-83729572D01*
X130029650Y-83603673D01*
X130029642Y-83603669D01*
X129830708Y-83510905D01*
X129830706Y-83510904D01*
X129830703Y-83510903D01*
X129679885Y-83470490D01*
X129618675Y-83454089D01*
X129618668Y-83454088D01*
X129400002Y-83434958D01*
X129399998Y-83434958D01*
X129181331Y-83454088D01*
X129181324Y-83454089D01*
X129108078Y-83473716D01*
X128969297Y-83510903D01*
X128969295Y-83510903D01*
X128969291Y-83510905D01*
X128770357Y-83603669D01*
X128770349Y-83603673D01*
X128590547Y-83729572D01*
X128590541Y-83729577D01*
X128435327Y-83884791D01*
X128435322Y-83884797D01*
X128309423Y-84064599D01*
X128309419Y-84064607D01*
X128216655Y-84263541D01*
X128159839Y-84475574D01*
X128159838Y-84475581D01*
X128140708Y-84694247D01*
X125008000Y-84694247D01*
X125008000Y-84467646D01*
X124972222Y-84241755D01*
X124972221Y-84241751D01*
X124972221Y-84241750D01*
X124901549Y-84024244D01*
X124830494Y-83884791D01*
X124797717Y-83820462D01*
X124663286Y-83635434D01*
X124501566Y-83473714D01*
X124417059Y-83412316D01*
X124374396Y-83356988D01*
X124368417Y-83287375D01*
X124401023Y-83225580D01*
X124417056Y-83211685D01*
X124501566Y-83150286D01*
X124663286Y-82988566D01*
X124797717Y-82803538D01*
X124901548Y-82599758D01*
X124938298Y-82486654D01*
X124972221Y-82382249D01*
X124972221Y-82382248D01*
X124972222Y-82382245D01*
X125008000Y-82156354D01*
X125008000Y-81927646D01*
X124972222Y-81701755D01*
X124972221Y-81701751D01*
X124972221Y-81701750D01*
X124901549Y-81484244D01*
X124797716Y-81280461D01*
X124793212Y-81274262D01*
X124664972Y-81097755D01*
X124641494Y-81031953D01*
X124657319Y-80963899D01*
X124707425Y-80915204D01*
X124721955Y-80908692D01*
X124749831Y-80898296D01*
X124865046Y-80812046D01*
X124951296Y-80696831D01*
X125001591Y-80561983D01*
X125008000Y-80502373D01*
X125007999Y-78973999D01*
X125027684Y-78906961D01*
X125080487Y-78861206D01*
X125131999Y-78850000D01*
X144065613Y-78850000D01*
X144132652Y-78869685D01*
X144153294Y-78886319D01*
X146357615Y-81090639D01*
X146375704Y-81116130D01*
X146376507Y-81115626D01*
X146380210Y-81121519D01*
X146380211Y-81121522D01*
X146476184Y-81274262D01*
X146603738Y-81401816D01*
X146756478Y-81497789D01*
X146843565Y-81528262D01*
X146926745Y-81557368D01*
X146926750Y-81557369D01*
X147105996Y-81577565D01*
X147106000Y-81577565D01*
X147106004Y-81577565D01*
X147285249Y-81557369D01*
X147285252Y-81557368D01*
X147285255Y-81557368D01*
X147455522Y-81497789D01*
X147608262Y-81401816D01*
X147735816Y-81274262D01*
X147831789Y-81121522D01*
X147831789Y-81121520D01*
X147835494Y-81115625D01*
X147836299Y-81116131D01*
X147854382Y-81090641D01*
X160082541Y-68862483D01*
X177411000Y-68862483D01*
X177411000Y-70202501D01*
X177411001Y-70202518D01*
X177421500Y-70305296D01*
X177421501Y-70305299D01*
X177476685Y-70471831D01*
X177476687Y-70471836D01*
X177486056Y-70487026D01*
X177568788Y-70621156D01*
X177692844Y-70745212D01*
X177842166Y-70837314D01*
X177842168Y-70837314D01*
X177842169Y-70837315D01*
X177842848Y-70837632D01*
X177843235Y-70837973D01*
X177848313Y-70841105D01*
X177847777Y-70841972D01*
X177895287Y-70883804D01*
X177914439Y-70950998D01*
X177894223Y-71017879D01*
X177878125Y-71037695D01*
X177736140Y-71179680D01*
X177609343Y-71354200D01*
X177511409Y-71546408D01*
X177444745Y-71751577D01*
X177411000Y-71964633D01*
X177411000Y-72180366D01*
X177443382Y-72384815D01*
X177444746Y-72393426D01*
X177511408Y-72598589D01*
X177609343Y-72790799D01*
X177736141Y-72965321D01*
X177888679Y-73117859D01*
X177969971Y-73176921D01*
X178060220Y-73242491D01*
X178102885Y-73297821D01*
X178108864Y-73367435D01*
X178076258Y-73429230D01*
X178060220Y-73443127D01*
X177889003Y-73567524D01*
X177736525Y-73720002D01*
X177736525Y-73720003D01*
X177609771Y-73894463D01*
X177511872Y-74086598D01*
X177445233Y-74291690D01*
X177434019Y-74362500D01*
X178463791Y-74362500D01*
X178452048Y-74382839D01*
X178411500Y-74534167D01*
X178411500Y-74690833D01*
X178452048Y-74842161D01*
X178463791Y-74862500D01*
X177434019Y-74862500D01*
X177445233Y-74933309D01*
X177511872Y-75138401D01*
X177609771Y-75330536D01*
X177736525Y-75504996D01*
X177736525Y-75504997D01*
X177889002Y-75657474D01*
X178063463Y-75784228D01*
X178255598Y-75882127D01*
X178460690Y-75948765D01*
X178673680Y-75982500D01*
X178756500Y-75982500D01*
X178756500Y-75155209D01*
X178776839Y-75166952D01*
X178928167Y-75207500D01*
X179084833Y-75207500D01*
X179236161Y-75166952D01*
X179256500Y-75155209D01*
X179256500Y-75982500D01*
X179339320Y-75982500D01*
X179552309Y-75948765D01*
X179757401Y-75882127D01*
X179949536Y-75784228D01*
X180123996Y-75657474D01*
X180123997Y-75657474D01*
X180276474Y-75504997D01*
X180276474Y-75504996D01*
X180403228Y-75330536D01*
X180501127Y-75138401D01*
X180567766Y-74933309D01*
X180578981Y-74862500D01*
X179549209Y-74862500D01*
X179560952Y-74842161D01*
X179601500Y-74690833D01*
X179601500Y-74534167D01*
X179560952Y-74382839D01*
X179549209Y-74362500D01*
X180578981Y-74362500D01*
X180567766Y-74291690D01*
X180501127Y-74086598D01*
X180403228Y-73894463D01*
X180276474Y-73720003D01*
X180276474Y-73720002D01*
X180123997Y-73567525D01*
X179952779Y-73443127D01*
X179910114Y-73387797D01*
X179904135Y-73318183D01*
X179936741Y-73256388D01*
X179952780Y-73242491D01*
X180043029Y-73176921D01*
X180124321Y-73117859D01*
X180276859Y-72965321D01*
X180403657Y-72790799D01*
X180501592Y-72598589D01*
X180568254Y-72393426D01*
X180589820Y-72257262D01*
X180602000Y-72180366D01*
X180602000Y-71964633D01*
X180568797Y-71755003D01*
X180568254Y-71751574D01*
X180501592Y-71546411D01*
X180403657Y-71354201D01*
X180276859Y-71179679D01*
X180134875Y-71037695D01*
X180101390Y-70976372D01*
X180106374Y-70906680D01*
X180148246Y-70850747D01*
X180170157Y-70837629D01*
X180170822Y-70837317D01*
X180170834Y-70837314D01*
X180320156Y-70745212D01*
X180444212Y-70621156D01*
X180536314Y-70471834D01*
X180591499Y-70305297D01*
X180602000Y-70202509D01*
X180601999Y-68862492D01*
X180591499Y-68759703D01*
X180536314Y-68593166D01*
X180444212Y-68443844D01*
X180320156Y-68319788D01*
X180170834Y-68227686D01*
X180004297Y-68172501D01*
X180004295Y-68172500D01*
X179901510Y-68162000D01*
X178111498Y-68162000D01*
X178111481Y-68162001D01*
X178008703Y-68172500D01*
X178008700Y-68172501D01*
X177842168Y-68227685D01*
X177842163Y-68227687D01*
X177692842Y-68319789D01*
X177568789Y-68443842D01*
X177476687Y-68593163D01*
X177476686Y-68593166D01*
X177421501Y-68759703D01*
X177421501Y-68759704D01*
X177421500Y-68759704D01*
X177411000Y-68862483D01*
X160082541Y-68862483D01*
X163947705Y-64997319D01*
X164009028Y-64963834D01*
X164035386Y-64961000D01*
X167866678Y-64961000D01*
X167933717Y-64980685D01*
X167979472Y-65033489D01*
X167989898Y-65071117D01*
X167997630Y-65139749D01*
X168057210Y-65310021D01*
X168057211Y-65310022D01*
X168153184Y-65462762D01*
X168280738Y-65590316D01*
X168352427Y-65635361D01*
X168439374Y-65689994D01*
X168438868Y-65690798D01*
X168464360Y-65708885D01*
X170701615Y-67946139D01*
X170719704Y-67971630D01*
X170720507Y-67971126D01*
X170724210Y-67977019D01*
X170724211Y-67977022D01*
X170820184Y-68129762D01*
X170947738Y-68257316D01*
X171038080Y-68314082D01*
X171047161Y-68319788D01*
X171100478Y-68353289D01*
X171270745Y-68412868D01*
X171270750Y-68412869D01*
X171449996Y-68433065D01*
X171450000Y-68433065D01*
X171450004Y-68433065D01*
X171629249Y-68412869D01*
X171629252Y-68412868D01*
X171629255Y-68412868D01*
X171799522Y-68353289D01*
X171952262Y-68257316D01*
X172079816Y-68129762D01*
X172175789Y-67977022D01*
X172235368Y-67806755D01*
X172255565Y-67627500D01*
X172249423Y-67572990D01*
X172235369Y-67448250D01*
X172235368Y-67448245D01*
X172175788Y-67277976D01*
X172079815Y-67125237D01*
X171952262Y-66997684D01*
X171799522Y-66901711D01*
X171799519Y-66901710D01*
X171793626Y-66898007D01*
X171794130Y-66897204D01*
X171768639Y-66879115D01*
X170062206Y-65172681D01*
X170028721Y-65111358D01*
X170033705Y-65041666D01*
X170075577Y-64985733D01*
X170141041Y-64961316D01*
X170149887Y-64961000D01*
X171463054Y-64961000D01*
X171463074Y-64961001D01*
X171469188Y-64961001D01*
X171617814Y-64961001D01*
X171739394Y-64936815D01*
X171739394Y-64936816D01*
X171739400Y-64936813D01*
X171763580Y-64932005D01*
X171799442Y-64917149D01*
X171820444Y-64908451D01*
X171820447Y-64908449D01*
X171820455Y-64908446D01*
X171900889Y-64875130D01*
X172024466Y-64792559D01*
X175776206Y-61040819D01*
X175837529Y-61007334D01*
X175863887Y-61004500D01*
X177319397Y-61004500D01*
X177386436Y-61024185D01*
X177432191Y-61076989D01*
X177437102Y-61089494D01*
X177470186Y-61189334D01*
X177562288Y-61338656D01*
X177686344Y-61462712D01*
X177835666Y-61554814D01*
X177835668Y-61554814D01*
X177835669Y-61554815D01*
X177836348Y-61555132D01*
X177836735Y-61555473D01*
X177841813Y-61558605D01*
X177841277Y-61559472D01*
X177888787Y-61601304D01*
X177907939Y-61668498D01*
X177887723Y-61735379D01*
X177871625Y-61755195D01*
X177729640Y-61897180D01*
X177602843Y-62071700D01*
X177504909Y-62263908D01*
X177438245Y-62469077D01*
X177404500Y-62682133D01*
X177404500Y-62897866D01*
X177438245Y-63110922D01*
X177504909Y-63316091D01*
X177574157Y-63451999D01*
X177602843Y-63508299D01*
X177729641Y-63682821D01*
X177882179Y-63835359D01*
X178003454Y-63923471D01*
X178053294Y-63959682D01*
X178095959Y-64015012D01*
X178101938Y-64084626D01*
X178069332Y-64146421D01*
X178053294Y-64160318D01*
X177882179Y-64284641D01*
X177882177Y-64284643D01*
X177882176Y-64284643D01*
X177729643Y-64437176D01*
X177729643Y-64437177D01*
X177729641Y-64437179D01*
X177675186Y-64512129D01*
X177602843Y-64611700D01*
X177504909Y-64803908D01*
X177438245Y-65009077D01*
X177404500Y-65222133D01*
X177404500Y-65437866D01*
X177435781Y-65635362D01*
X177438246Y-65650926D01*
X177504908Y-65856089D01*
X177602843Y-66048299D01*
X177729641Y-66222821D01*
X177882179Y-66375359D01*
X178056701Y-66502157D01*
X178248911Y-66600092D01*
X178454074Y-66666754D01*
X178533973Y-66679408D01*
X178667134Y-66700500D01*
X178667139Y-66700500D01*
X179332866Y-66700500D01*
X179451230Y-66681752D01*
X179545926Y-66666754D01*
X179751089Y-66600092D01*
X179943299Y-66502157D01*
X180117821Y-66375359D01*
X180270359Y-66222821D01*
X180397157Y-66048299D01*
X180495092Y-65856089D01*
X180561754Y-65650926D01*
X180576752Y-65556230D01*
X180595500Y-65437866D01*
X180595500Y-65222133D01*
X180570071Y-65061584D01*
X180561754Y-65009074D01*
X180495092Y-64803911D01*
X180397157Y-64611701D01*
X180270359Y-64437179D01*
X180117821Y-64284641D01*
X179946704Y-64160317D01*
X179904040Y-64104988D01*
X179898061Y-64035374D01*
X179930667Y-63973580D01*
X179946702Y-63959684D01*
X180117821Y-63835359D01*
X180270359Y-63682821D01*
X180397157Y-63508299D01*
X180495092Y-63316089D01*
X180561754Y-63110926D01*
X180576752Y-63016230D01*
X180595500Y-62897866D01*
X180595500Y-62682133D01*
X180561754Y-62469077D01*
X180561754Y-62469074D01*
X180495092Y-62263911D01*
X180397157Y-62071701D01*
X180270359Y-61897179D01*
X180128375Y-61755195D01*
X180094890Y-61693872D01*
X180099874Y-61624180D01*
X180141746Y-61568247D01*
X180163657Y-61555129D01*
X180164322Y-61554817D01*
X180164334Y-61554814D01*
X180313656Y-61462712D01*
X180437712Y-61338656D01*
X180529814Y-61189334D01*
X180584999Y-61022797D01*
X180595500Y-60920009D01*
X180595499Y-59711884D01*
X180615184Y-59644846D01*
X180667987Y-59599091D01*
X180737146Y-59589147D01*
X180800702Y-59618172D01*
X180807167Y-59624192D01*
X181476576Y-60293600D01*
X182343181Y-61160205D01*
X182376666Y-61221528D01*
X182379500Y-61247886D01*
X182379500Y-80737459D01*
X182372542Y-80778414D01*
X182348631Y-80846745D01*
X182348630Y-80846750D01*
X182328435Y-81025996D01*
X182328435Y-81026003D01*
X182348630Y-81205249D01*
X182348631Y-81205254D01*
X182408211Y-81375523D01*
X182504184Y-81528262D01*
X182631738Y-81655816D01*
X182784478Y-81751789D01*
X182954745Y-81811368D01*
X182954750Y-81811369D01*
X183133996Y-81831565D01*
X183134000Y-81831565D01*
X183134004Y-81831565D01*
X183313249Y-81811369D01*
X183313252Y-81811368D01*
X183313255Y-81811368D01*
X183483522Y-81751789D01*
X183636262Y-81655816D01*
X183763816Y-81528262D01*
X183859789Y-81375522D01*
X183919368Y-81205255D01*
X183919369Y-81205249D01*
X183939565Y-81026003D01*
X183939565Y-81025996D01*
X183919369Y-80846750D01*
X183919368Y-80846745D01*
X183895458Y-80778414D01*
X183888500Y-80737459D01*
X183888500Y-60964446D01*
X183888501Y-60964425D01*
X183888501Y-60809685D01*
X183859506Y-60663926D01*
X183859504Y-60663918D01*
X183802632Y-60526616D01*
X183802627Y-60526607D01*
X183789213Y-60506532D01*
X183789212Y-60506529D01*
X183720060Y-60403035D01*
X183720054Y-60403028D01*
X183610647Y-60293621D01*
X183610624Y-60293600D01*
X181230969Y-57913943D01*
X181230968Y-57913942D01*
X181189773Y-57886417D01*
X181107389Y-57831370D01*
X181107386Y-57831368D01*
X181107385Y-57831368D01*
X181026955Y-57798053D01*
X180970080Y-57774495D01*
X180945894Y-57769684D01*
X180921598Y-57764851D01*
X180824314Y-57745499D01*
X180824312Y-57745499D01*
X180675688Y-57745499D01*
X180669574Y-57745499D01*
X180669554Y-57745500D01*
X166505886Y-57745500D01*
X166438847Y-57725815D01*
X166393092Y-57673011D01*
X166383148Y-57603853D01*
X166412173Y-57540297D01*
X166418205Y-57533819D01*
X168170205Y-55781819D01*
X168231528Y-55748334D01*
X168257886Y-55745500D01*
X177468501Y-55745500D01*
X177535540Y-55765185D01*
X177581295Y-55817989D01*
X177592501Y-55869500D01*
X177592501Y-55888876D01*
X177598908Y-55948483D01*
X177649202Y-56083328D01*
X177649206Y-56083335D01*
X177735452Y-56198544D01*
X177735455Y-56198547D01*
X177850664Y-56284793D01*
X177850671Y-56284797D01*
X177985517Y-56335091D01*
X177985516Y-56335091D01*
X177992444Y-56335835D01*
X178045127Y-56341500D01*
X179840872Y-56341499D01*
X179900483Y-56335091D01*
X180035331Y-56284796D01*
X180150546Y-56198546D01*
X180236796Y-56083331D01*
X180287091Y-55948483D01*
X180293500Y-55888873D01*
X180293499Y-54093128D01*
X180287091Y-54033517D01*
X180271560Y-53991877D01*
X180236797Y-53898671D01*
X180236793Y-53898664D01*
X180150547Y-53783455D01*
X180150544Y-53783452D01*
X180035335Y-53697206D01*
X180035328Y-53697202D01*
X179903917Y-53648189D01*
X179847983Y-53606318D01*
X179823566Y-53540853D01*
X179838418Y-53472580D01*
X179859563Y-53444332D01*
X179981495Y-53322401D01*
X180117035Y-53128830D01*
X180216903Y-52914663D01*
X180278063Y-52686408D01*
X180298659Y-52451000D01*
X180296145Y-52422271D01*
X180281750Y-52257734D01*
X180278063Y-52215592D01*
X180216903Y-51987337D01*
X180117035Y-51773171D01*
X180046280Y-51672121D01*
X179981494Y-51579597D01*
X179814402Y-51412506D01*
X179814396Y-51412501D01*
X179628842Y-51282575D01*
X179585217Y-51227998D01*
X179578023Y-51158500D01*
X179609546Y-51096145D01*
X179628842Y-51079425D01*
X179651026Y-51063891D01*
X179814401Y-50949495D01*
X179981495Y-50782401D01*
X180117035Y-50588830D01*
X180216903Y-50374663D01*
X180278063Y-50146408D01*
X180298659Y-49911000D01*
X180278063Y-49675592D01*
X180216903Y-49447337D01*
X180117035Y-49233171D01*
X180102374Y-49212232D01*
X179981494Y-49039597D01*
X179814402Y-48872506D01*
X179814396Y-48872501D01*
X179628842Y-48742575D01*
X179585217Y-48687998D01*
X179578023Y-48618500D01*
X179609546Y-48556145D01*
X179628842Y-48539425D01*
X179651026Y-48523891D01*
X179814401Y-48409495D01*
X179981495Y-48242401D01*
X180117035Y-48048830D01*
X180216903Y-47834663D01*
X180278063Y-47606408D01*
X180298659Y-47371000D01*
X180278063Y-47135592D01*
X180216903Y-46907337D01*
X180117035Y-46693171D01*
X180105829Y-46677166D01*
X179981494Y-46499597D01*
X179814402Y-46332506D01*
X179814396Y-46332501D01*
X179628842Y-46202575D01*
X179585217Y-46147998D01*
X179578023Y-46078500D01*
X179609546Y-46016145D01*
X179628842Y-45999425D01*
X179651026Y-45983891D01*
X179814401Y-45869495D01*
X179981495Y-45702401D01*
X180117035Y-45508830D01*
X180216903Y-45294663D01*
X180278063Y-45066408D01*
X180298659Y-44831000D01*
X180278063Y-44595592D01*
X180216903Y-44367337D01*
X180117035Y-44153171D01*
X179981495Y-43959599D01*
X179981494Y-43959597D01*
X179814402Y-43792506D01*
X179814396Y-43792501D01*
X179628842Y-43662575D01*
X179585217Y-43607998D01*
X179578023Y-43538500D01*
X179609546Y-43476145D01*
X179628842Y-43459425D01*
X179652499Y-43442860D01*
X179814401Y-43329495D01*
X179981495Y-43162401D01*
X180117035Y-42968830D01*
X180216903Y-42754663D01*
X180278063Y-42526408D01*
X180298659Y-42291000D01*
X180278063Y-42055592D01*
X180216903Y-41827337D01*
X180117035Y-41613171D01*
X179981495Y-41419599D01*
X179981494Y-41419597D01*
X179814402Y-41252506D01*
X179814396Y-41252501D01*
X179628842Y-41122575D01*
X179585217Y-41067998D01*
X179578023Y-40998500D01*
X179609546Y-40936145D01*
X179628842Y-40919425D01*
X179651026Y-40903891D01*
X179814401Y-40789495D01*
X179981495Y-40622401D01*
X180117035Y-40428830D01*
X180216903Y-40214663D01*
X180278063Y-39986408D01*
X180298659Y-39751000D01*
X180278063Y-39515592D01*
X180223062Y-39310322D01*
X180216905Y-39287344D01*
X180216904Y-39287343D01*
X180216903Y-39287337D01*
X180117035Y-39073171D01*
X180026303Y-38943591D01*
X179981494Y-38879597D01*
X179814402Y-38712506D01*
X179814396Y-38712501D01*
X179628842Y-38582575D01*
X179585217Y-38527998D01*
X179578023Y-38458500D01*
X179609546Y-38396145D01*
X179628842Y-38379425D01*
X179651026Y-38363891D01*
X179814401Y-38249495D01*
X179981495Y-38082401D01*
X180117035Y-37888830D01*
X180216903Y-37674663D01*
X180278063Y-37446408D01*
X180298659Y-37211000D01*
X180278063Y-36975592D01*
X180216903Y-36747337D01*
X180117035Y-36533171D01*
X180026170Y-36403401D01*
X179981494Y-36339597D01*
X179814402Y-36172506D01*
X179814396Y-36172501D01*
X179628842Y-36042575D01*
X179585217Y-35987998D01*
X179578023Y-35918500D01*
X179609546Y-35856145D01*
X179628842Y-35839425D01*
X179686336Y-35799167D01*
X179814401Y-35709495D01*
X179981495Y-35542401D01*
X180117035Y-35348830D01*
X180216903Y-35134663D01*
X180278063Y-34906408D01*
X180298659Y-34671000D01*
X180278063Y-34435592D01*
X180216903Y-34207337D01*
X180117035Y-33993171D01*
X180089816Y-33954297D01*
X179981494Y-33799597D01*
X179814402Y-33632506D01*
X179814401Y-33632505D01*
X179646844Y-33515180D01*
X179628405Y-33502269D01*
X179584781Y-33447692D01*
X179577588Y-33378193D01*
X179609110Y-33315839D01*
X179628405Y-33299119D01*
X179814082Y-33169105D01*
X179981105Y-33002082D01*
X180116600Y-32808578D01*
X180216429Y-32594492D01*
X180216432Y-32594486D01*
X180273636Y-32381000D01*
X179376012Y-32381000D01*
X179408925Y-32323993D01*
X179443000Y-32196826D01*
X179443000Y-32065174D01*
X179408925Y-31938007D01*
X179376012Y-31881000D01*
X180273636Y-31881000D01*
X180273635Y-31880999D01*
X180216432Y-31667513D01*
X180216429Y-31667507D01*
X180116600Y-31453422D01*
X180116599Y-31453420D01*
X179981113Y-31259926D01*
X179981108Y-31259920D01*
X179814082Y-31092894D01*
X179620578Y-30957399D01*
X179406492Y-30857570D01*
X179406486Y-30857567D01*
X179193000Y-30800364D01*
X179193000Y-31697988D01*
X179135993Y-31665075D01*
X179008826Y-31631000D01*
X178877174Y-31631000D01*
X178750007Y-31665075D01*
X178693000Y-31697988D01*
X178693000Y-30800364D01*
X178692999Y-30800364D01*
X178479513Y-30857567D01*
X178479507Y-30857570D01*
X178265422Y-30957399D01*
X178265420Y-30957400D01*
X178071926Y-31092886D01*
X178071920Y-31092891D01*
X177904891Y-31259920D01*
X177904886Y-31259926D01*
X177769400Y-31453420D01*
X177769399Y-31453422D01*
X177669570Y-31667507D01*
X177669567Y-31667513D01*
X177612364Y-31880999D01*
X177612364Y-31881000D01*
X178509988Y-31881000D01*
X178477075Y-31938007D01*
X178443000Y-32065174D01*
X178443000Y-32196826D01*
X178477075Y-32323993D01*
X178509988Y-32381000D01*
X177612364Y-32381000D01*
X177669567Y-32594486D01*
X177669570Y-32594492D01*
X177769399Y-32808578D01*
X177904894Y-33002082D01*
X178071917Y-33169105D01*
X178257595Y-33299119D01*
X178301219Y-33353696D01*
X178308412Y-33423195D01*
X178276890Y-33485549D01*
X178257595Y-33502269D01*
X178071594Y-33632508D01*
X177904505Y-33799597D01*
X177768965Y-33993169D01*
X177768964Y-33993171D01*
X177669098Y-34207335D01*
X177669094Y-34207344D01*
X177607938Y-34435586D01*
X177607936Y-34435596D01*
X177587341Y-34670999D01*
X177587341Y-34671001D01*
X177605522Y-34878811D01*
X177591755Y-34947311D01*
X177569675Y-34977299D01*
X165903294Y-46643681D01*
X165841971Y-46677166D01*
X165815613Y-46680000D01*
X155367387Y-46680000D01*
X155300348Y-46660315D01*
X155279706Y-46643681D01*
X141741009Y-33104983D01*
X157629500Y-33104983D01*
X157629500Y-34895001D01*
X157629501Y-34895018D01*
X157640000Y-34997796D01*
X157640001Y-34997799D01*
X157677584Y-35111216D01*
X157695186Y-35164334D01*
X157787288Y-35313656D01*
X157911344Y-35437712D01*
X158060666Y-35529814D01*
X158227203Y-35584999D01*
X158329991Y-35595500D01*
X159670008Y-35595499D01*
X159772797Y-35584999D01*
X159939334Y-35529814D01*
X160088656Y-35437712D01*
X160212712Y-35313656D01*
X160304814Y-35164334D01*
X160304817Y-35164322D01*
X160305129Y-35163657D01*
X160305469Y-35163269D01*
X160308605Y-35158187D01*
X160309473Y-35158722D01*
X160351299Y-35111216D01*
X160418491Y-35092060D01*
X160485373Y-35112272D01*
X160505195Y-35128375D01*
X160647179Y-35270359D01*
X160821701Y-35397157D01*
X161013911Y-35495092D01*
X161219074Y-35561754D01*
X161298973Y-35574408D01*
X161432134Y-35595500D01*
X161432139Y-35595500D01*
X161647866Y-35595500D01*
X161766230Y-35576752D01*
X161860926Y-35561754D01*
X162066089Y-35495092D01*
X162258299Y-35397157D01*
X162432821Y-35270359D01*
X162585359Y-35117821D01*
X162712157Y-34943299D01*
X162810092Y-34751089D01*
X162876754Y-34545926D01*
X162891769Y-34451127D01*
X162910500Y-34332866D01*
X162910500Y-33667133D01*
X162888002Y-33525095D01*
X162876754Y-33454074D01*
X162810092Y-33248911D01*
X162712157Y-33056701D01*
X162585359Y-32882179D01*
X162432821Y-32729641D01*
X162258299Y-32602843D01*
X162066089Y-32504908D01*
X161860926Y-32438246D01*
X161860924Y-32438245D01*
X161860922Y-32438245D01*
X161647866Y-32404500D01*
X161647861Y-32404500D01*
X161432139Y-32404500D01*
X161432134Y-32404500D01*
X161219077Y-32438245D01*
X161013908Y-32504909D01*
X160821700Y-32602843D01*
X160647180Y-32729640D01*
X160505195Y-32871625D01*
X160443872Y-32905109D01*
X160374180Y-32900125D01*
X160318247Y-32858253D01*
X160305132Y-32836348D01*
X160304815Y-32835669D01*
X160304814Y-32835668D01*
X160304814Y-32835666D01*
X160212712Y-32686344D01*
X160088656Y-32562288D01*
X159995628Y-32504908D01*
X159939336Y-32470187D01*
X159939331Y-32470185D01*
X159937862Y-32469698D01*
X159772797Y-32415001D01*
X159772795Y-32415000D01*
X159670010Y-32404500D01*
X158329998Y-32404500D01*
X158329981Y-32404501D01*
X158227203Y-32415000D01*
X158227200Y-32415001D01*
X158060668Y-32470185D01*
X158060663Y-32470187D01*
X157911342Y-32562289D01*
X157787289Y-32686342D01*
X157695187Y-32835663D01*
X157695185Y-32835668D01*
X157679774Y-32882176D01*
X157640001Y-33002203D01*
X157640001Y-33002204D01*
X157640000Y-33002204D01*
X157629500Y-33104983D01*
X141741009Y-33104983D01*
X140434969Y-31798943D01*
X140434968Y-31798942D01*
X140393773Y-31771417D01*
X140311389Y-31716370D01*
X140311386Y-31716368D01*
X140311385Y-31716368D01*
X140230955Y-31683053D01*
X140174080Y-31659495D01*
X140172652Y-31659211D01*
X140149894Y-31654684D01*
X140028314Y-31630499D01*
X140028312Y-31630499D01*
X139879688Y-31630499D01*
X139873574Y-31630499D01*
X139873554Y-31630500D01*
X135861040Y-31630500D01*
X135820085Y-31623541D01*
X135751762Y-31599633D01*
X135751749Y-31599630D01*
X135572504Y-31579435D01*
X135572496Y-31579435D01*
X135393250Y-31599630D01*
X135393245Y-31599631D01*
X135222976Y-31659211D01*
X135070237Y-31755184D01*
X134942684Y-31882737D01*
X134846711Y-32035476D01*
X134787131Y-32205745D01*
X134787130Y-32205750D01*
X134766935Y-32384996D01*
X134766935Y-32385003D01*
X134787130Y-32564249D01*
X134787131Y-32564254D01*
X134846711Y-32734523D01*
X134924456Y-32858253D01*
X134942684Y-32887262D01*
X135070238Y-33014816D01*
X135070240Y-33014817D01*
X135213750Y-33104991D01*
X135222978Y-33110789D01*
X135324917Y-33146459D01*
X135393245Y-33170368D01*
X135393250Y-33170369D01*
X135572496Y-33190565D01*
X135572500Y-33190565D01*
X135572504Y-33190565D01*
X135751749Y-33170369D01*
X135751751Y-33170368D01*
X135751755Y-33170368D01*
X135751758Y-33170366D01*
X135751762Y-33170366D01*
X135820085Y-33146459D01*
X135861040Y-33139500D01*
X139590113Y-33139500D01*
X139657152Y-33159185D01*
X139677794Y-33175819D01*
X154255115Y-47753140D01*
X154273204Y-47778631D01*
X154274007Y-47778127D01*
X154277710Y-47784021D01*
X154277711Y-47784022D01*
X154373684Y-47936762D01*
X154501238Y-48064316D01*
X154591580Y-48121082D01*
X154653522Y-48160003D01*
X154653978Y-48160289D01*
X154755917Y-48195959D01*
X154824245Y-48219868D01*
X154824250Y-48219869D01*
X155003496Y-48240065D01*
X155003500Y-48240065D01*
X155003504Y-48240065D01*
X155182749Y-48219869D01*
X155182751Y-48219868D01*
X155182755Y-48219868D01*
X155182758Y-48219866D01*
X155182762Y-48219866D01*
X155251085Y-48195959D01*
X155292040Y-48189000D01*
X166099054Y-48189000D01*
X166099074Y-48189001D01*
X166105188Y-48189001D01*
X166253814Y-48189001D01*
X166375394Y-48164815D01*
X166375394Y-48164816D01*
X166375400Y-48164813D01*
X166399580Y-48160005D01*
X166435442Y-48145149D01*
X166456444Y-48136451D01*
X166456447Y-48136449D01*
X166456455Y-48136446D01*
X166536889Y-48103130D01*
X166660466Y-48020559D01*
X177389872Y-37291150D01*
X177451193Y-37257667D01*
X177520885Y-37262651D01*
X177576818Y-37304523D01*
X177601079Y-37368025D01*
X177607936Y-37446403D01*
X177607938Y-37446413D01*
X177669094Y-37674655D01*
X177669096Y-37674659D01*
X177669097Y-37674663D01*
X177700083Y-37741112D01*
X177768965Y-37888830D01*
X177768967Y-37888834D01*
X177904501Y-38082395D01*
X177904506Y-38082402D01*
X178071597Y-38249493D01*
X178071603Y-38249498D01*
X178257158Y-38379425D01*
X178300783Y-38434002D01*
X178307977Y-38503500D01*
X178276454Y-38565855D01*
X178257158Y-38582575D01*
X178071597Y-38712505D01*
X177904505Y-38879597D01*
X177768965Y-39073169D01*
X177768964Y-39073171D01*
X177669098Y-39287335D01*
X177669094Y-39287344D01*
X177607938Y-39515586D01*
X177607936Y-39515596D01*
X177587341Y-39750999D01*
X177587341Y-39751000D01*
X177607936Y-39986403D01*
X177607938Y-39986413D01*
X177669094Y-40214655D01*
X177669096Y-40214659D01*
X177669097Y-40214663D01*
X177768965Y-40428830D01*
X177768967Y-40428834D01*
X177904501Y-40622395D01*
X177904506Y-40622402D01*
X178071597Y-40789493D01*
X178071603Y-40789498D01*
X178257158Y-40919425D01*
X178300783Y-40974002D01*
X178307977Y-41043500D01*
X178276454Y-41105855D01*
X178257158Y-41122575D01*
X178071597Y-41252505D01*
X177904505Y-41419597D01*
X177768965Y-41613169D01*
X177768964Y-41613171D01*
X177669098Y-41827335D01*
X177669094Y-41827344D01*
X177607938Y-42055586D01*
X177607936Y-42055596D01*
X177587341Y-42290999D01*
X177587341Y-42291000D01*
X177607936Y-42526403D01*
X177607938Y-42526413D01*
X177669094Y-42754655D01*
X177669096Y-42754659D01*
X177669097Y-42754663D01*
X177768965Y-42968830D01*
X177768967Y-42968834D01*
X177862742Y-43102757D01*
X177897959Y-43153053D01*
X177904501Y-43162395D01*
X177904506Y-43162402D01*
X178071597Y-43329493D01*
X178071603Y-43329498D01*
X178257158Y-43459425D01*
X178300783Y-43514002D01*
X178307977Y-43583500D01*
X178276454Y-43645855D01*
X178257158Y-43662575D01*
X178071597Y-43792505D01*
X177904505Y-43959597D01*
X177768965Y-44153169D01*
X177768964Y-44153171D01*
X177669098Y-44367335D01*
X177669094Y-44367344D01*
X177607938Y-44595586D01*
X177607936Y-44595596D01*
X177587341Y-44830999D01*
X177587341Y-44831000D01*
X177607936Y-45066403D01*
X177607938Y-45066413D01*
X177669094Y-45294655D01*
X177669096Y-45294659D01*
X177669097Y-45294663D01*
X177768965Y-45508830D01*
X177768967Y-45508834D01*
X177904501Y-45702395D01*
X177904506Y-45702402D01*
X178071597Y-45869493D01*
X178071603Y-45869498D01*
X178257158Y-45999425D01*
X178300783Y-46054002D01*
X178307977Y-46123500D01*
X178276454Y-46185855D01*
X178257158Y-46202575D01*
X178071597Y-46332505D01*
X177904505Y-46499597D01*
X177768965Y-46693169D01*
X177768964Y-46693171D01*
X177669098Y-46907335D01*
X177669094Y-46907344D01*
X177607938Y-47135586D01*
X177607936Y-47135596D01*
X177587341Y-47370999D01*
X177587341Y-47371000D01*
X177607936Y-47606403D01*
X177607938Y-47606413D01*
X177669094Y-47834655D01*
X177669096Y-47834659D01*
X177669097Y-47834663D01*
X177689772Y-47879000D01*
X177768965Y-48048830D01*
X177768967Y-48048834D01*
X177854216Y-48170581D01*
X177902869Y-48240065D01*
X177904501Y-48242395D01*
X177904506Y-48242402D01*
X178071597Y-48409493D01*
X178071603Y-48409498D01*
X178257158Y-48539425D01*
X178300783Y-48594002D01*
X178307977Y-48663500D01*
X178276454Y-48725855D01*
X178257158Y-48742575D01*
X178071597Y-48872505D01*
X177904505Y-49039597D01*
X177768965Y-49233169D01*
X177768964Y-49233171D01*
X177669098Y-49447335D01*
X177669094Y-49447344D01*
X177607938Y-49675586D01*
X177607936Y-49675596D01*
X177587341Y-49910999D01*
X177587341Y-49911000D01*
X177607936Y-50146403D01*
X177607938Y-50146413D01*
X177669094Y-50374655D01*
X177669096Y-50374659D01*
X177669097Y-50374663D01*
X177716292Y-50475873D01*
X177768965Y-50588830D01*
X177768967Y-50588834D01*
X177858244Y-50716334D01*
X177889296Y-50760681D01*
X177904501Y-50782395D01*
X177904506Y-50782402D01*
X178071597Y-50949493D01*
X178071603Y-50949498D01*
X178257158Y-51079425D01*
X178300783Y-51134002D01*
X178307977Y-51203500D01*
X178276454Y-51265855D01*
X178257158Y-51282575D01*
X178071597Y-51412505D01*
X177904505Y-51579597D01*
X177768965Y-51773169D01*
X177768964Y-51773171D01*
X177669098Y-51987335D01*
X177669094Y-51987344D01*
X177607938Y-52215586D01*
X177607936Y-52215596D01*
X177587341Y-52450999D01*
X177587341Y-52451000D01*
X177607936Y-52686403D01*
X177607938Y-52686413D01*
X177669094Y-52914655D01*
X177669096Y-52914659D01*
X177669097Y-52914663D01*
X177708424Y-52999000D01*
X177768965Y-53128830D01*
X177768967Y-53128834D01*
X177838868Y-53228662D01*
X177904501Y-53322396D01*
X177904506Y-53322402D01*
X178026430Y-53444326D01*
X178059915Y-53505649D01*
X178054931Y-53575341D01*
X178013059Y-53631274D01*
X177982083Y-53648189D01*
X177850669Y-53697203D01*
X177850664Y-53697206D01*
X177735455Y-53783452D01*
X177735452Y-53783455D01*
X177649206Y-53898664D01*
X177649202Y-53898671D01*
X177598908Y-54033517D01*
X177592501Y-54093116D01*
X177592501Y-54093123D01*
X177592500Y-54093135D01*
X177592500Y-54112500D01*
X177572815Y-54179539D01*
X177520011Y-54225294D01*
X177468500Y-54236500D01*
X167974446Y-54236500D01*
X167974426Y-54236499D01*
X167968312Y-54236499D01*
X167819688Y-54236499D01*
X167819686Y-54236499D01*
X167698105Y-54260684D01*
X167673920Y-54265495D01*
X167536608Y-54322371D01*
X167413035Y-54404939D01*
X167413028Y-54404945D01*
X167312278Y-54505696D01*
X167312258Y-54505714D01*
X150811357Y-71006616D01*
X150785869Y-71024705D01*
X150786373Y-71025507D01*
X150627737Y-71125184D01*
X150500184Y-71252737D01*
X150404211Y-71405476D01*
X150344631Y-71575745D01*
X150344630Y-71575750D01*
X150324435Y-71754996D01*
X150324435Y-71755003D01*
X150344630Y-71934249D01*
X150344631Y-71934254D01*
X150404211Y-72104523D01*
X150451864Y-72180361D01*
X150500184Y-72257262D01*
X150627738Y-72384816D01*
X150780478Y-72480789D01*
X150950745Y-72540368D01*
X150950750Y-72540369D01*
X151129996Y-72560565D01*
X151130000Y-72560565D01*
X151130004Y-72560565D01*
X151309249Y-72540369D01*
X151309252Y-72540368D01*
X151309255Y-72540368D01*
X151479522Y-72480789D01*
X151632262Y-72384816D01*
X151759816Y-72257262D01*
X151855789Y-72104522D01*
X151855789Y-72104520D01*
X151859494Y-72098625D01*
X151860299Y-72099131D01*
X151878382Y-72073641D01*
X164360119Y-59591903D01*
X164421440Y-59558420D01*
X164491132Y-59563404D01*
X164547065Y-59605276D01*
X164552791Y-59613613D01*
X164597182Y-59684259D01*
X164597184Y-59684262D01*
X164724738Y-59811816D01*
X164877478Y-59907789D01*
X165001054Y-59951030D01*
X165047745Y-59967368D01*
X165047750Y-59967369D01*
X165226996Y-59987565D01*
X165227000Y-59987565D01*
X165227004Y-59987565D01*
X165406249Y-59967369D01*
X165406252Y-59967368D01*
X165406255Y-59967368D01*
X165576522Y-59907789D01*
X165729262Y-59811816D01*
X165856816Y-59684262D01*
X165952789Y-59531522D01*
X165952789Y-59531520D01*
X165956494Y-59525625D01*
X165957299Y-59526131D01*
X165975382Y-59500641D01*
X166185205Y-59290819D01*
X166246528Y-59257334D01*
X166272886Y-59254500D01*
X175378279Y-59254500D01*
X175445318Y-59274185D01*
X175491073Y-59326989D01*
X175501017Y-59396147D01*
X175471992Y-59459703D01*
X175413214Y-59497477D01*
X175402471Y-59500117D01*
X175308675Y-59518775D01*
X175304105Y-59519684D01*
X175279920Y-59524495D01*
X175243963Y-59539389D01*
X175142614Y-59581368D01*
X175142607Y-59581372D01*
X175019031Y-59663942D01*
X175019030Y-59663943D01*
X171267294Y-63415681D01*
X171205971Y-63449166D01*
X171179613Y-63452000D01*
X163751946Y-63452000D01*
X163751926Y-63451999D01*
X163745812Y-63451999D01*
X163597188Y-63451999D01*
X163597186Y-63451999D01*
X163475605Y-63476184D01*
X163451420Y-63480995D01*
X163396676Y-63503671D01*
X163348309Y-63523704D01*
X163314110Y-63537870D01*
X163314111Y-63537870D01*
X163190531Y-63620442D01*
X163190528Y-63620445D01*
X163089778Y-63721196D01*
X163089758Y-63721214D01*
X147193680Y-79617293D01*
X147132357Y-79650778D01*
X147062665Y-79645794D01*
X147018318Y-79617293D01*
X144910469Y-77509443D01*
X144910468Y-77509442D01*
X144869273Y-77481917D01*
X144786889Y-77426870D01*
X144786886Y-77426868D01*
X144786885Y-77426868D01*
X144706455Y-77393553D01*
X144649580Y-77369995D01*
X144625394Y-77365184D01*
X144503814Y-77340999D01*
X144503812Y-77340999D01*
X144355188Y-77340999D01*
X144349074Y-77340999D01*
X144349054Y-77341000D01*
X111098386Y-77341000D01*
X111031347Y-77321315D01*
X111010705Y-77304681D01*
X108400269Y-74694245D01*
X130620023Y-74694245D01*
X130620023Y-74694254D01*
X130639903Y-74959540D01*
X130639903Y-74959542D01*
X130699098Y-75218893D01*
X130699104Y-75218912D01*
X130796296Y-75466553D01*
X130929313Y-75696945D01*
X130929320Y-75696956D01*
X130980084Y-75760610D01*
X130980085Y-75760611D01*
X131645884Y-75094811D01*
X131646740Y-75096876D01*
X131739762Y-75236094D01*
X131858156Y-75354488D01*
X131997374Y-75447510D01*
X131999437Y-75448364D01*
X131332839Y-76114961D01*
X131510011Y-76235754D01*
X131510015Y-76235756D01*
X131749695Y-76351181D01*
X131749699Y-76351182D01*
X132003909Y-76429596D01*
X132003915Y-76429597D01*
X132266976Y-76469249D01*
X132266983Y-76469250D01*
X132533017Y-76469250D01*
X132533023Y-76469249D01*
X132796084Y-76429597D01*
X132796090Y-76429596D01*
X133050299Y-76351183D01*
X133289984Y-76235757D01*
X133467159Y-76114961D01*
X132800562Y-75448364D01*
X132802626Y-75447510D01*
X132941844Y-75354488D01*
X133060238Y-75236094D01*
X133153260Y-75096876D01*
X133154114Y-75094812D01*
X133819913Y-75760611D01*
X133819913Y-75760610D01*
X133870688Y-75696943D01*
X134003703Y-75466553D01*
X134100895Y-75218912D01*
X134100901Y-75218893D01*
X134160096Y-74959542D01*
X134160096Y-74959540D01*
X134179977Y-74694254D01*
X134179977Y-74694245D01*
X134160096Y-74428959D01*
X134160096Y-74428957D01*
X134100901Y-74169606D01*
X134100895Y-74169587D01*
X134003703Y-73921946D01*
X133870686Y-73691554D01*
X133819913Y-73627887D01*
X133154114Y-74293686D01*
X133153260Y-74291624D01*
X133060238Y-74152406D01*
X132941844Y-74034012D01*
X132802626Y-73940990D01*
X132800561Y-73940134D01*
X133369311Y-73371385D01*
X135624500Y-73371385D01*
X135624500Y-76017120D01*
X135624501Y-76017126D01*
X135630908Y-76076733D01*
X135681202Y-76211578D01*
X135681206Y-76211585D01*
X135767452Y-76326794D01*
X135767455Y-76326797D01*
X135882664Y-76413043D01*
X135882671Y-76413047D01*
X136017517Y-76463341D01*
X136017516Y-76463341D01*
X136024444Y-76464085D01*
X136077127Y-76469750D01*
X138722872Y-76469749D01*
X138782483Y-76463341D01*
X138917331Y-76413046D01*
X139032546Y-76326796D01*
X139118796Y-76211581D01*
X139169091Y-76076733D01*
X139175500Y-76017123D01*
X139175499Y-73371378D01*
X139169091Y-73311767D01*
X139163889Y-73297821D01*
X139118797Y-73176921D01*
X139118793Y-73176914D01*
X139032547Y-73061705D01*
X139032544Y-73061702D01*
X138917335Y-72975456D01*
X138917328Y-72975452D01*
X138782482Y-72925158D01*
X138782483Y-72925158D01*
X138722883Y-72918751D01*
X138722881Y-72918750D01*
X138722873Y-72918750D01*
X138722864Y-72918750D01*
X136077129Y-72918750D01*
X136077123Y-72918751D01*
X136017516Y-72925158D01*
X135882671Y-72975452D01*
X135882664Y-72975456D01*
X135767455Y-73061702D01*
X135767452Y-73061705D01*
X135681206Y-73176914D01*
X135681202Y-73176921D01*
X135630908Y-73311767D01*
X135624924Y-73367435D01*
X135624501Y-73371373D01*
X135624500Y-73371385D01*
X133369311Y-73371385D01*
X133467159Y-73273537D01*
X133289989Y-73152745D01*
X133289985Y-73152743D01*
X133050299Y-73037316D01*
X132796090Y-72958903D01*
X132796084Y-72958902D01*
X132533023Y-72919250D01*
X132266976Y-72919250D01*
X132003915Y-72958902D01*
X132003909Y-72958903D01*
X131749699Y-73037317D01*
X131749695Y-73037318D01*
X131510012Y-73152744D01*
X131510004Y-73152749D01*
X131332840Y-73273536D01*
X131999438Y-73940134D01*
X131997374Y-73940990D01*
X131858156Y-74034012D01*
X131739762Y-74152406D01*
X131646740Y-74291624D01*
X131645885Y-74293688D01*
X130980084Y-73627887D01*
X130929316Y-73691549D01*
X130796296Y-73921946D01*
X130699104Y-74169587D01*
X130699098Y-74169606D01*
X130639903Y-74428957D01*
X130639903Y-74428959D01*
X130620023Y-74694245D01*
X108400269Y-74694245D01*
X103364385Y-69658360D01*
X103346298Y-69632868D01*
X103345494Y-69633374D01*
X103275069Y-69521294D01*
X103245816Y-69474738D01*
X103118262Y-69347184D01*
X103071665Y-69317905D01*
X102965523Y-69251211D01*
X102795254Y-69191631D01*
X102795249Y-69191630D01*
X102616004Y-69171435D01*
X102615996Y-69171435D01*
X102436750Y-69191630D01*
X102436745Y-69191631D01*
X102266476Y-69251211D01*
X102113737Y-69347184D01*
X101986184Y-69474737D01*
X101890211Y-69627476D01*
X101830631Y-69797745D01*
X101830630Y-69797750D01*
X101810435Y-69976996D01*
X101080923Y-69976996D01*
X101083210Y-69965500D01*
X100365237Y-69965500D01*
X100384000Y-69920201D01*
X100384000Y-69510799D01*
X100365237Y-69465500D01*
X101083210Y-69465500D01*
X101083210Y-69465499D01*
X101046533Y-69281110D01*
X101046531Y-69281102D01*
X100973035Y-69103666D01*
X100973030Y-69103657D01*
X100866332Y-68943973D01*
X100866329Y-68943969D01*
X100730530Y-68808170D01*
X100730526Y-68808167D01*
X100570842Y-68701469D01*
X100570833Y-68701464D01*
X100393397Y-68627968D01*
X100393389Y-68627966D01*
X100359000Y-68621125D01*
X100359000Y-69450443D01*
X100342134Y-69409725D01*
X100264775Y-69332366D01*
X100163701Y-69290500D01*
X100054299Y-69290500D01*
X99953225Y-69332366D01*
X99875866Y-69409725D01*
X99859000Y-69450443D01*
X99859000Y-68621125D01*
X99824610Y-68627966D01*
X99824602Y-68627968D01*
X99647166Y-68701464D01*
X99647157Y-68701469D01*
X99487473Y-68808167D01*
X99487469Y-68808170D01*
X99351670Y-68943969D01*
X99351667Y-68943973D01*
X99244969Y-69103657D01*
X99244964Y-69103666D01*
X99171468Y-69281102D01*
X99171466Y-69281110D01*
X99134789Y-69465499D01*
X98317500Y-69465499D01*
X98341401Y-69449529D01*
X98341405Y-69449526D01*
X98473026Y-69317905D01*
X98473029Y-69317901D01*
X98576444Y-69163131D01*
X98576451Y-69163118D01*
X98647682Y-68991149D01*
X98647683Y-68991144D01*
X98652784Y-68965500D01*
X97783728Y-68965500D01*
X97875614Y-68927440D01*
X97945940Y-68857114D01*
X97984000Y-68765228D01*
X97984000Y-68665772D01*
X97945940Y-68573886D01*
X97875614Y-68503560D01*
X97783728Y-68465500D01*
X98652784Y-68465500D01*
X98647683Y-68439855D01*
X98647682Y-68439850D01*
X98576451Y-68267881D01*
X98576444Y-68267868D01*
X98473029Y-68113098D01*
X98473026Y-68113094D01*
X98341405Y-67981473D01*
X98341401Y-67981470D01*
X98186631Y-67878055D01*
X98186622Y-67878050D01*
X98014646Y-67806816D01*
X98014638Y-67806814D01*
X97832077Y-67770500D01*
X97659000Y-67770500D01*
X97659000Y-68465500D01*
X97159000Y-68465500D01*
X97159000Y-67770500D01*
X96985923Y-67770500D01*
X96803361Y-67806814D01*
X96803353Y-67806816D01*
X96631377Y-67878050D01*
X96631368Y-67878055D01*
X96476598Y-67981470D01*
X96476594Y-67981473D01*
X96460681Y-67997387D01*
X96399358Y-68030872D01*
X96329666Y-68025888D01*
X96273733Y-67984016D01*
X96249316Y-67918552D01*
X96249000Y-67909706D01*
X96249000Y-66287846D01*
X105756034Y-66287846D01*
X105756034Y-66287851D01*
X105775858Y-66514448D01*
X105775860Y-66514459D01*
X105834730Y-66734166D01*
X105834735Y-66734180D01*
X105930863Y-66940327D01*
X105981974Y-67013321D01*
X106661000Y-66334295D01*
X106661000Y-66340510D01*
X106688259Y-66442243D01*
X106740920Y-66533455D01*
X106815394Y-66607929D01*
X106906606Y-66660590D01*
X107008339Y-66687849D01*
X107014553Y-66687849D01*
X106335526Y-67366874D01*
X106408513Y-67417981D01*
X106408521Y-67417985D01*
X106614668Y-67514113D01*
X106614682Y-67514118D01*
X106834389Y-67572988D01*
X106834400Y-67572990D01*
X107060998Y-67592815D01*
X107061002Y-67592815D01*
X107287599Y-67572990D01*
X107287610Y-67572988D01*
X107507317Y-67514118D01*
X107507331Y-67514113D01*
X107713478Y-67417985D01*
X107786471Y-67366873D01*
X107107447Y-66687849D01*
X107113661Y-66687849D01*
X107215394Y-66660590D01*
X107306606Y-66607929D01*
X107381080Y-66533455D01*
X107433741Y-66442243D01*
X107461000Y-66340510D01*
X107461000Y-66334296D01*
X108140024Y-67013320D01*
X108191136Y-66940327D01*
X108287264Y-66734180D01*
X108287269Y-66734166D01*
X108346139Y-66514459D01*
X108346141Y-66514448D01*
X108365966Y-66287851D01*
X108365966Y-66287846D01*
X108346141Y-66061249D01*
X108346139Y-66061238D01*
X108287269Y-65841531D01*
X108287264Y-65841517D01*
X108191136Y-65635370D01*
X108191132Y-65635362D01*
X108140025Y-65562375D01*
X107461000Y-66241400D01*
X107461000Y-66235188D01*
X107433741Y-66133455D01*
X107381080Y-66042243D01*
X107306606Y-65967769D01*
X107215394Y-65915108D01*
X107113661Y-65887849D01*
X107107445Y-65887849D01*
X107786472Y-65208823D01*
X107713478Y-65157712D01*
X107507331Y-65061584D01*
X107507317Y-65061579D01*
X107287610Y-65002709D01*
X107287599Y-65002707D01*
X107061002Y-64982883D01*
X107060998Y-64982883D01*
X106834400Y-65002707D01*
X106834389Y-65002709D01*
X106614682Y-65061579D01*
X106614673Y-65061583D01*
X106408516Y-65157715D01*
X106408512Y-65157717D01*
X106335526Y-65208822D01*
X106335526Y-65208823D01*
X107014553Y-65887849D01*
X107008339Y-65887849D01*
X106906606Y-65915108D01*
X106815394Y-65967769D01*
X106740920Y-66042243D01*
X106688259Y-66133455D01*
X106661000Y-66235188D01*
X106661000Y-66241401D01*
X105981974Y-65562375D01*
X105981973Y-65562375D01*
X105930868Y-65635361D01*
X105930866Y-65635365D01*
X105834734Y-65841522D01*
X105834730Y-65841531D01*
X105775860Y-66061238D01*
X105775858Y-66061249D01*
X105756034Y-66287846D01*
X96249000Y-66287846D01*
X96249000Y-47878995D01*
X97164232Y-47878995D01*
X97164232Y-47879004D01*
X97183277Y-48133154D01*
X97225426Y-48317823D01*
X97239992Y-48381637D01*
X97333107Y-48618888D01*
X97460541Y-48839612D01*
X97619450Y-49038877D01*
X97806283Y-49212232D01*
X98016866Y-49355805D01*
X98016871Y-49355807D01*
X98016872Y-49355808D01*
X98016873Y-49355809D01*
X98138828Y-49414538D01*
X98246492Y-49466387D01*
X98246493Y-49466387D01*
X98246496Y-49466389D01*
X98490042Y-49541513D01*
X98742065Y-49579500D01*
X98996935Y-49579500D01*
X99248958Y-49541513D01*
X99492504Y-49466389D01*
X99722134Y-49355805D01*
X99932717Y-49212232D01*
X100119550Y-49038877D01*
X100278459Y-48839612D01*
X100405893Y-48618888D01*
X100499008Y-48381637D01*
X100555722Y-48133157D01*
X100564160Y-48020556D01*
X100574768Y-47879004D01*
X100574768Y-47878995D01*
X100555722Y-47624845D01*
X100499009Y-47376369D01*
X100499008Y-47376363D01*
X100405893Y-47139112D01*
X100278459Y-46918388D01*
X100119550Y-46719123D01*
X99932717Y-46545768D01*
X99722134Y-46402195D01*
X99722130Y-46402193D01*
X99722127Y-46402191D01*
X99722126Y-46402190D01*
X99492506Y-46291612D01*
X99492508Y-46291612D01*
X99248966Y-46216489D01*
X99248962Y-46216488D01*
X99248958Y-46216487D01*
X99127731Y-46198214D01*
X98996940Y-46178500D01*
X98996935Y-46178500D01*
X98742065Y-46178500D01*
X98742059Y-46178500D01*
X98585109Y-46202157D01*
X98490042Y-46216487D01*
X98490039Y-46216488D01*
X98490033Y-46216489D01*
X98246492Y-46291612D01*
X98016873Y-46402190D01*
X98016872Y-46402191D01*
X97806282Y-46545768D01*
X97619452Y-46719121D01*
X97619450Y-46719123D01*
X97460541Y-46918388D01*
X97333108Y-47139109D01*
X97239992Y-47376362D01*
X97239990Y-47376369D01*
X97183277Y-47624845D01*
X97164232Y-47878995D01*
X96249000Y-47878995D01*
X96249000Y-38309633D01*
X99306000Y-38309633D01*
X99306000Y-38525366D01*
X99339228Y-38735157D01*
X99339746Y-38738426D01*
X99406408Y-38943589D01*
X99504343Y-39135799D01*
X99631141Y-39310321D01*
X99631143Y-39310323D01*
X99773124Y-39452304D01*
X99806609Y-39513627D01*
X99801625Y-39583319D01*
X99759753Y-39639252D01*
X99737860Y-39652361D01*
X99737177Y-39652679D01*
X99587842Y-39744789D01*
X99463789Y-39868842D01*
X99371687Y-40018163D01*
X99371686Y-40018166D01*
X99316501Y-40184703D01*
X99316501Y-40184704D01*
X99316500Y-40184704D01*
X99306000Y-40287483D01*
X99306000Y-41627501D01*
X99306001Y-41627518D01*
X99316500Y-41730296D01*
X99316501Y-41730299D01*
X99348656Y-41827335D01*
X99371686Y-41896834D01*
X99463788Y-42046156D01*
X99587844Y-42170212D01*
X99737166Y-42262314D01*
X99903703Y-42317499D01*
X100006491Y-42328000D01*
X101796508Y-42327999D01*
X101899297Y-42317499D01*
X102065834Y-42262314D01*
X102215156Y-42170212D01*
X102339212Y-42046156D01*
X102431314Y-41896834D01*
X102486499Y-41730297D01*
X102497000Y-41627509D01*
X102496999Y-41451851D01*
X102516683Y-41384814D01*
X102569487Y-41339059D01*
X102638645Y-41329115D01*
X102702201Y-41358140D01*
X102708680Y-41364172D01*
X105817182Y-44472673D01*
X105850667Y-44533996D01*
X105845683Y-44603688D01*
X105817182Y-44648035D01*
X105065295Y-45399922D01*
X104968822Y-45544305D01*
X104902377Y-45704720D01*
X104902374Y-45704732D01*
X104877159Y-45831498D01*
X104877159Y-45831501D01*
X104868500Y-45875028D01*
X104868500Y-57642113D01*
X104848815Y-57709152D01*
X104796011Y-57754907D01*
X104726853Y-57764851D01*
X104663297Y-57735826D01*
X104656819Y-57729794D01*
X102816894Y-55889869D01*
X102783409Y-55828546D01*
X102782105Y-55821608D01*
X102780754Y-55813074D01*
X102714092Y-55607911D01*
X102616157Y-55415701D01*
X102489359Y-55241179D01*
X102336821Y-55088641D01*
X102165279Y-54964008D01*
X102122614Y-54908678D01*
X102116635Y-54839064D01*
X102149241Y-54777269D01*
X102165280Y-54763372D01*
X102336491Y-54638979D01*
X102336497Y-54638974D01*
X102488974Y-54486497D01*
X102488974Y-54486496D01*
X102615728Y-54312036D01*
X102713627Y-54119901D01*
X102780266Y-53914809D01*
X102791481Y-53844000D01*
X101761709Y-53844000D01*
X101773452Y-53823661D01*
X101814000Y-53672333D01*
X101814000Y-53515667D01*
X101773452Y-53364339D01*
X101761709Y-53344000D01*
X102791481Y-53344000D01*
X102780266Y-53273190D01*
X102713627Y-53068098D01*
X102615728Y-52875963D01*
X102488974Y-52701503D01*
X102488974Y-52701502D01*
X102336497Y-52549025D01*
X102162036Y-52422271D01*
X101969901Y-52324372D01*
X101764809Y-52257734D01*
X101551820Y-52224000D01*
X101469000Y-52224000D01*
X101469000Y-53051290D01*
X101448661Y-53039548D01*
X101297333Y-52999000D01*
X101140667Y-52999000D01*
X100989339Y-53039548D01*
X100969000Y-53051290D01*
X100969000Y-52224000D01*
X100886180Y-52224000D01*
X100673190Y-52257734D01*
X100468098Y-52324372D01*
X100275963Y-52422271D01*
X100101503Y-52549025D01*
X100101502Y-52549025D01*
X99949025Y-52701502D01*
X99949025Y-52701503D01*
X99822271Y-52875963D01*
X99724372Y-53068098D01*
X99657733Y-53273190D01*
X99646519Y-53344000D01*
X100676291Y-53344000D01*
X100664548Y-53364339D01*
X100624000Y-53515667D01*
X100624000Y-53672333D01*
X100664548Y-53823661D01*
X100676291Y-53844000D01*
X99646519Y-53844000D01*
X99657733Y-53914809D01*
X99724372Y-54119901D01*
X99822271Y-54312036D01*
X99949025Y-54486496D01*
X99949025Y-54486497D01*
X100101502Y-54638974D01*
X100272720Y-54763372D01*
X100315385Y-54818702D01*
X100321364Y-54888316D01*
X100288758Y-54950110D01*
X100272720Y-54964008D01*
X100101177Y-55088642D01*
X99948643Y-55241176D01*
X99948643Y-55241177D01*
X99948641Y-55241179D01*
X99894186Y-55316129D01*
X99821843Y-55415700D01*
X99723909Y-55607908D01*
X99657245Y-55813077D01*
X99623500Y-56026133D01*
X99623500Y-56241866D01*
X99639281Y-56341500D01*
X99657246Y-56454926D01*
X99723908Y-56660089D01*
X99821843Y-56852299D01*
X99948641Y-57026821D01*
X99948643Y-57026823D01*
X100090624Y-57168804D01*
X100124109Y-57230127D01*
X100119125Y-57299819D01*
X100077253Y-57355752D01*
X100055360Y-57368861D01*
X100054677Y-57369179D01*
X99905342Y-57461289D01*
X99781289Y-57585342D01*
X99689187Y-57734663D01*
X99689185Y-57734668D01*
X99677582Y-57769684D01*
X99634001Y-57901203D01*
X99634001Y-57901204D01*
X99634000Y-57901204D01*
X99623500Y-58003983D01*
X99623500Y-59344001D01*
X99623501Y-59344018D01*
X99634000Y-59446796D01*
X99634001Y-59446799D01*
X99689185Y-59613331D01*
X99689187Y-59613336D01*
X99708623Y-59644846D01*
X99781288Y-59762656D01*
X99905344Y-59886712D01*
X100054666Y-59978814D01*
X100221203Y-60033999D01*
X100323991Y-60044500D01*
X102114008Y-60044499D01*
X102216797Y-60033999D01*
X102383334Y-59978814D01*
X102532656Y-59886712D01*
X102656712Y-59762656D01*
X102748814Y-59613334D01*
X102803999Y-59446797D01*
X102814500Y-59344009D01*
X102814499Y-58320884D01*
X102834183Y-58253846D01*
X102886987Y-58208091D01*
X102956146Y-58198147D01*
X103019702Y-58227172D01*
X103026180Y-58233204D01*
X104844845Y-60051869D01*
X104878330Y-60113192D01*
X104878781Y-60115358D01*
X104902374Y-60233967D01*
X104902377Y-60233977D01*
X104968822Y-60394392D01*
X105065295Y-60538775D01*
X105065296Y-60538776D01*
X105724181Y-61197660D01*
X105757666Y-61258983D01*
X105760500Y-61285341D01*
X105760500Y-62135719D01*
X105760501Y-62135725D01*
X105766908Y-62195332D01*
X105817202Y-62330177D01*
X105817206Y-62330184D01*
X105903452Y-62445393D01*
X105903455Y-62445396D01*
X106018664Y-62531642D01*
X106018671Y-62531646D01*
X106153517Y-62581940D01*
X106153516Y-62581940D01*
X106160444Y-62582684D01*
X106213127Y-62588349D01*
X107908872Y-62588348D01*
X107968483Y-62581940D01*
X108103331Y-62531645D01*
X108218546Y-62445395D01*
X108304796Y-62330180D01*
X108334695Y-62250017D01*
X108376565Y-62194083D01*
X108442030Y-62169665D01*
X108450877Y-62169349D01*
X118884974Y-62169349D01*
X118999544Y-62146558D01*
X119055275Y-62135473D01*
X119135486Y-62102248D01*
X119215694Y-62069026D01*
X119215695Y-62069025D01*
X119215698Y-62069024D01*
X119360075Y-61972555D01*
X128500633Y-52831995D01*
X132089232Y-52831995D01*
X132089232Y-52832004D01*
X132108277Y-53086154D01*
X132164990Y-53334630D01*
X132164992Y-53334637D01*
X132258108Y-53571890D01*
X132277985Y-53606318D01*
X132385541Y-53792612D01*
X132544450Y-53991877D01*
X132731283Y-54165232D01*
X132941866Y-54308805D01*
X132941871Y-54308807D01*
X132941872Y-54308808D01*
X132941873Y-54308809D01*
X133063828Y-54367538D01*
X133171492Y-54419387D01*
X133171493Y-54419387D01*
X133171496Y-54419389D01*
X133415042Y-54494513D01*
X133667065Y-54532500D01*
X133921935Y-54532500D01*
X134173958Y-54494513D01*
X134417504Y-54419389D01*
X134647134Y-54308805D01*
X134857717Y-54165232D01*
X135044550Y-53991877D01*
X135203459Y-53792612D01*
X135330893Y-53571888D01*
X135424008Y-53334637D01*
X135480722Y-53086157D01*
X135493573Y-52914664D01*
X135499768Y-52832004D01*
X135499768Y-52831995D01*
X135480722Y-52577845D01*
X135451770Y-52451000D01*
X135424008Y-52329363D01*
X135330893Y-52092112D01*
X135203459Y-51871388D01*
X135044550Y-51672123D01*
X134857717Y-51498768D01*
X134647134Y-51355195D01*
X134647130Y-51355193D01*
X134647127Y-51355191D01*
X134647126Y-51355190D01*
X134417506Y-51244612D01*
X134417508Y-51244612D01*
X134173966Y-51169489D01*
X134173962Y-51169488D01*
X134173958Y-51169487D01*
X134052731Y-51151214D01*
X133921940Y-51131500D01*
X133921935Y-51131500D01*
X133667065Y-51131500D01*
X133667059Y-51131500D01*
X133510109Y-51155157D01*
X133415042Y-51169487D01*
X133415039Y-51169488D01*
X133415033Y-51169489D01*
X133171492Y-51244612D01*
X132941873Y-51355190D01*
X132941872Y-51355191D01*
X132731282Y-51498768D01*
X132544452Y-51672121D01*
X132544450Y-51672123D01*
X132385541Y-51871388D01*
X132258108Y-52092109D01*
X132164992Y-52329362D01*
X132164990Y-52329369D01*
X132108277Y-52577845D01*
X132089232Y-52831995D01*
X128500633Y-52831995D01*
X129974921Y-51357707D01*
X129974924Y-51357706D01*
X130097706Y-51234924D01*
X130194175Y-51090547D01*
X130260625Y-50930124D01*
X130294500Y-50759821D01*
X130294500Y-50586179D01*
X130260625Y-50415876D01*
X130194175Y-50255454D01*
X130097706Y-50111076D01*
X130097704Y-50111074D01*
X130097702Y-50111071D01*
X123698775Y-43712144D01*
X123554392Y-43615671D01*
X123393977Y-43549226D01*
X123393967Y-43549223D01*
X123223672Y-43515349D01*
X123223670Y-43515349D01*
X123223669Y-43515349D01*
X108704878Y-43515349D01*
X108637839Y-43495664D01*
X108592084Y-43442860D01*
X108588696Y-43434682D01*
X108558797Y-43354520D01*
X108558793Y-43354513D01*
X108472547Y-43239304D01*
X108472544Y-43239301D01*
X108357335Y-43153055D01*
X108357328Y-43153051D01*
X108222482Y-43102757D01*
X108222483Y-43102757D01*
X108162883Y-43096350D01*
X108162881Y-43096349D01*
X108162873Y-43096349D01*
X108162865Y-43096349D01*
X106985478Y-43096349D01*
X106918439Y-43076664D01*
X106897797Y-43060030D01*
X102523371Y-38685603D01*
X102489886Y-38624280D01*
X102488579Y-38578528D01*
X102497000Y-38525361D01*
X102497000Y-38480995D01*
X120595732Y-38480995D01*
X120595732Y-38481004D01*
X120614777Y-38735154D01*
X120662351Y-38943591D01*
X120671492Y-38983637D01*
X120764607Y-39220888D01*
X120892041Y-39441612D01*
X121050950Y-39640877D01*
X121237783Y-39814232D01*
X121448366Y-39957805D01*
X121448371Y-39957807D01*
X121448372Y-39957808D01*
X121448373Y-39957809D01*
X121570328Y-40016538D01*
X121677992Y-40068387D01*
X121677993Y-40068387D01*
X121677996Y-40068389D01*
X121921542Y-40143513D01*
X122173565Y-40181500D01*
X122428435Y-40181500D01*
X122680458Y-40143513D01*
X122924004Y-40068389D01*
X123153634Y-39957805D01*
X123364217Y-39814232D01*
X123551050Y-39640877D01*
X123709959Y-39441612D01*
X123837393Y-39220888D01*
X123930508Y-38983637D01*
X123987222Y-38735157D01*
X124002746Y-38527998D01*
X124006268Y-38481004D01*
X124006268Y-38480995D01*
X123987222Y-38226845D01*
X123987222Y-38226843D01*
X123934636Y-37996449D01*
X123938909Y-37926712D01*
X123967844Y-37881179D01*
X124750463Y-37098560D01*
X124750466Y-37098559D01*
X124855559Y-36993466D01*
X124938129Y-36869890D01*
X124995005Y-36732580D01*
X125024000Y-36586812D01*
X125024000Y-33164254D01*
X125043685Y-33097215D01*
X125082029Y-33059260D01*
X125086102Y-33056701D01*
X125152762Y-33014816D01*
X125280316Y-32887262D01*
X125376289Y-32734522D01*
X125435868Y-32564255D01*
X125437934Y-32545921D01*
X125456065Y-32385003D01*
X125456065Y-32384996D01*
X125435869Y-32205750D01*
X125435868Y-32205745D01*
X125385391Y-32061491D01*
X125376289Y-32035478D01*
X125362291Y-32013201D01*
X125315044Y-31938007D01*
X125280316Y-31882738D01*
X125152762Y-31755184D01*
X125090987Y-31716368D01*
X125000023Y-31659211D01*
X124829754Y-31599631D01*
X124829749Y-31599630D01*
X124650504Y-31579435D01*
X124650496Y-31579435D01*
X124471250Y-31599630D01*
X124471245Y-31599631D01*
X124300976Y-31659211D01*
X124148237Y-31755184D01*
X124020684Y-31882737D01*
X123921007Y-32041373D01*
X123920205Y-32040869D01*
X123902116Y-32066357D01*
X123683442Y-32285031D01*
X123600872Y-32408607D01*
X123600866Y-32408618D01*
X123543996Y-32545916D01*
X123543993Y-32545926D01*
X123514999Y-32691685D01*
X123514999Y-32846425D01*
X123515000Y-32846446D01*
X123515000Y-36148613D01*
X123495315Y-36215652D01*
X123478681Y-36236294D01*
X122898394Y-36816580D01*
X122837071Y-36850065D01*
X122774164Y-36847390D01*
X122680470Y-36818490D01*
X122680463Y-36818488D01*
X122680458Y-36818487D01*
X122559231Y-36800214D01*
X122428440Y-36780500D01*
X122428435Y-36780500D01*
X122173565Y-36780500D01*
X122173559Y-36780500D01*
X122016609Y-36804157D01*
X121921542Y-36818487D01*
X121921539Y-36818488D01*
X121921533Y-36818489D01*
X121677992Y-36893612D01*
X121448373Y-37004190D01*
X121448372Y-37004191D01*
X121237782Y-37147768D01*
X121050952Y-37321121D01*
X121050950Y-37321123D01*
X120892041Y-37520388D01*
X120764608Y-37741109D01*
X120671492Y-37978362D01*
X120671490Y-37978369D01*
X120614777Y-38226845D01*
X120595732Y-38480995D01*
X102497000Y-38480995D01*
X102497000Y-38309639D01*
X102497000Y-38309633D01*
X102463254Y-38096577D01*
X102463254Y-38096574D01*
X102396592Y-37891411D01*
X102298657Y-37699201D01*
X102171859Y-37524679D01*
X102019321Y-37372141D01*
X101868621Y-37262651D01*
X101847779Y-37247508D01*
X101805114Y-37192178D01*
X101799135Y-37122564D01*
X101831741Y-37060769D01*
X101847780Y-37046872D01*
X102018991Y-36922479D01*
X102018997Y-36922474D01*
X102171474Y-36769997D01*
X102171474Y-36769996D01*
X102298228Y-36595536D01*
X102396127Y-36403401D01*
X102462766Y-36198309D01*
X102473981Y-36127500D01*
X101444209Y-36127500D01*
X101455952Y-36107161D01*
X101496500Y-35955833D01*
X101496500Y-35799167D01*
X101455952Y-35647839D01*
X101444209Y-35627500D01*
X102473981Y-35627500D01*
X102462766Y-35556690D01*
X102396127Y-35351598D01*
X102298228Y-35159463D01*
X102171474Y-34985003D01*
X102171474Y-34985002D01*
X102018997Y-34832525D01*
X101844536Y-34705771D01*
X101652401Y-34607872D01*
X101447309Y-34541234D01*
X101234320Y-34507500D01*
X101151500Y-34507500D01*
X101151500Y-35334790D01*
X101131161Y-35323048D01*
X100979833Y-35282500D01*
X100823167Y-35282500D01*
X100671839Y-35323048D01*
X100651500Y-35334790D01*
X100651500Y-34507500D01*
X100568680Y-34507500D01*
X100355690Y-34541234D01*
X100150598Y-34607872D01*
X99958463Y-34705771D01*
X99784003Y-34832525D01*
X99784002Y-34832525D01*
X99631525Y-34985002D01*
X99631525Y-34985003D01*
X99504771Y-35159463D01*
X99406872Y-35351598D01*
X99340233Y-35556690D01*
X99329019Y-35627500D01*
X100358791Y-35627500D01*
X100347048Y-35647839D01*
X100306500Y-35799167D01*
X100306500Y-35955833D01*
X100347048Y-36107161D01*
X100358791Y-36127500D01*
X99329019Y-36127500D01*
X99340233Y-36198309D01*
X99406872Y-36403401D01*
X99504771Y-36595536D01*
X99631525Y-36769996D01*
X99631525Y-36769997D01*
X99784002Y-36922474D01*
X99955220Y-37046872D01*
X99997885Y-37102202D01*
X100003864Y-37171816D01*
X99971258Y-37233610D01*
X99955220Y-37247508D01*
X99783677Y-37372142D01*
X99631143Y-37524676D01*
X99631143Y-37524677D01*
X99631141Y-37524679D01*
X99576686Y-37599629D01*
X99504343Y-37699200D01*
X99406409Y-37891408D01*
X99339745Y-38096577D01*
X99306000Y-38309633D01*
X96249000Y-38309633D01*
X96249000Y-32061483D01*
X106897000Y-32061483D01*
X106897000Y-33851501D01*
X106897001Y-33851518D01*
X106907500Y-33954296D01*
X106907501Y-33954299D01*
X106945084Y-34067716D01*
X106962686Y-34120834D01*
X107054788Y-34270156D01*
X107178844Y-34394212D01*
X107328166Y-34486314D01*
X107494703Y-34541499D01*
X107597491Y-34552000D01*
X108937508Y-34551999D01*
X109040297Y-34541499D01*
X109206834Y-34486314D01*
X109356156Y-34394212D01*
X109480212Y-34270156D01*
X109572314Y-34120834D01*
X109572317Y-34120822D01*
X109572629Y-34120157D01*
X109572969Y-34119769D01*
X109576105Y-34114687D01*
X109576973Y-34115222D01*
X109618799Y-34067716D01*
X109685991Y-34048560D01*
X109752873Y-34068772D01*
X109772695Y-34084875D01*
X109914679Y-34226859D01*
X110089201Y-34353657D01*
X110281411Y-34451592D01*
X110486574Y-34518254D01*
X110554296Y-34528980D01*
X110699634Y-34552000D01*
X110699639Y-34552000D01*
X110915366Y-34552000D01*
X111033730Y-34533252D01*
X111128426Y-34518254D01*
X111333589Y-34451592D01*
X111525799Y-34353657D01*
X111700321Y-34226859D01*
X111852859Y-34074321D01*
X111977491Y-33902779D01*
X112032821Y-33860114D01*
X112102434Y-33854135D01*
X112164229Y-33886741D01*
X112178127Y-33902779D01*
X112302525Y-34073996D01*
X112302525Y-34073997D01*
X112455002Y-34226474D01*
X112629463Y-34353228D01*
X112821598Y-34451127D01*
X113026690Y-34517766D01*
X113097500Y-34528981D01*
X113097500Y-33499209D01*
X113117839Y-33510952D01*
X113269167Y-33551500D01*
X113425833Y-33551500D01*
X113577161Y-33510952D01*
X113597500Y-33499209D01*
X113597500Y-34528980D01*
X113668309Y-34517766D01*
X113873401Y-34451127D01*
X114065536Y-34353228D01*
X114239996Y-34226474D01*
X114239997Y-34226474D01*
X114392474Y-34073997D01*
X114392474Y-34073996D01*
X114519228Y-33899536D01*
X114617127Y-33707401D01*
X114683765Y-33502309D01*
X114717500Y-33289320D01*
X114717500Y-33206500D01*
X113890209Y-33206500D01*
X113901952Y-33186161D01*
X113942500Y-33034833D01*
X113942500Y-32878167D01*
X113901952Y-32726839D01*
X113890209Y-32706500D01*
X114717500Y-32706500D01*
X114717500Y-32623679D01*
X114683765Y-32410690D01*
X114617127Y-32205598D01*
X114519228Y-32013463D01*
X114392474Y-31839003D01*
X114392474Y-31839002D01*
X114239997Y-31686525D01*
X114065536Y-31559771D01*
X113873399Y-31461872D01*
X113668305Y-31395233D01*
X113597500Y-31384018D01*
X113597500Y-32413790D01*
X113577161Y-32402048D01*
X113425833Y-32361500D01*
X113269167Y-32361500D01*
X113117839Y-32402048D01*
X113097500Y-32413790D01*
X113097500Y-31384018D01*
X113097499Y-31384018D01*
X113026694Y-31395233D01*
X112821600Y-31461872D01*
X112629463Y-31559771D01*
X112455003Y-31686525D01*
X112455002Y-31686525D01*
X112302524Y-31839003D01*
X112178127Y-32010220D01*
X112122796Y-32052885D01*
X112053183Y-32058864D01*
X111991388Y-32026258D01*
X111977491Y-32010220D01*
X111956507Y-31981338D01*
X111852859Y-31838679D01*
X111700321Y-31686141D01*
X111525799Y-31559343D01*
X111333589Y-31461408D01*
X111128426Y-31394746D01*
X111128424Y-31394745D01*
X111128422Y-31394745D01*
X110915366Y-31361000D01*
X110915361Y-31361000D01*
X110699639Y-31361000D01*
X110699634Y-31361000D01*
X110486577Y-31394745D01*
X110281408Y-31461409D01*
X110089200Y-31559343D01*
X109914680Y-31686140D01*
X109772695Y-31828125D01*
X109711372Y-31861609D01*
X109641680Y-31856625D01*
X109585747Y-31814753D01*
X109572632Y-31792848D01*
X109572315Y-31792169D01*
X109572314Y-31792168D01*
X109572314Y-31792166D01*
X109480212Y-31642844D01*
X109356156Y-31518788D01*
X109206834Y-31426686D01*
X109040297Y-31371501D01*
X109040295Y-31371500D01*
X108937510Y-31361000D01*
X107597498Y-31361000D01*
X107597481Y-31361001D01*
X107494703Y-31371500D01*
X107494700Y-31371501D01*
X107328168Y-31426685D01*
X107328163Y-31426687D01*
X107178842Y-31518789D01*
X107054789Y-31642842D01*
X106962687Y-31792163D01*
X106962685Y-31792168D01*
X106951566Y-31825724D01*
X106907501Y-31958703D01*
X106907501Y-31958704D01*
X106907500Y-31958704D01*
X106897000Y-32061483D01*
X96249000Y-32061483D01*
X96249000Y-29335215D01*
X96268685Y-29268176D01*
X96321489Y-29222421D01*
X96373400Y-29211216D01*
X100245172Y-29223832D01*
G37*
G04 #@! TD.AperFunction*
M02*
