G04 #@! TF.GenerationSoftware,KiCad,Pcbnew,8.0.8*
G04 #@! TF.CreationDate,2025-03-31T15:28:11-05:00*
G04 #@! TF.ProjectId,Group_29_Handheld,47726f75-705f-4323-995f-48616e646865,rev?*
G04 #@! TF.SameCoordinates,Original*
G04 #@! TF.FileFunction,Soldermask,Top*
G04 #@! TF.FilePolarity,Negative*
%FSLAX46Y46*%
G04 Gerber Fmt 4.6, Leading zero omitted, Abs format (unit mm)*
G04 Created by KiCad (PCBNEW 8.0.8) date 2025-03-31 15:28:11*
%MOMM*%
%LPD*%
G01*
G04 APERTURE LIST*
G04 Aperture macros list*
%AMRoundRect*
0 Rectangle with rounded corners*
0 $1 Rounding radius*
0 $2 $3 $4 $5 $6 $7 $8 $9 X,Y pos of 4 corners*
0 Add a 4 corners polygon primitive as box body*
4,1,4,$2,$3,$4,$5,$6,$7,$8,$9,$2,$3,0*
0 Add four circle primitives for the rounded corners*
1,1,$1+$1,$2,$3*
1,1,$1+$1,$4,$5*
1,1,$1+$1,$6,$7*
1,1,$1+$1,$8,$9*
0 Add four rect primitives between the rounded corners*
20,1,$1+$1,$2,$3,$4,$5,0*
20,1,$1+$1,$4,$5,$6,$7,0*
20,1,$1+$1,$6,$7,$8,$9,0*
20,1,$1+$1,$8,$9,$2,$3,0*%
G04 Aperture macros list end*
%ADD10RoundRect,0.250000X-0.450000X0.350000X-0.450000X-0.350000X0.450000X-0.350000X0.450000X0.350000X0*%
%ADD11RoundRect,0.250000X-0.350000X-0.450000X0.350000X-0.450000X0.350000X0.450000X-0.350000X0.450000X0*%
%ADD12RoundRect,0.250000X-0.620000X-0.845000X0.620000X-0.845000X0.620000X0.845000X-0.620000X0.845000X0*%
%ADD13O,1.740000X2.190000*%
%ADD14RoundRect,0.250000X0.350000X0.450000X-0.350000X0.450000X-0.350000X-0.450000X0.350000X-0.450000X0*%
%ADD15RoundRect,0.250000X0.300000X-2.050000X0.300000X2.050000X-0.300000X2.050000X-0.300000X-2.050000X0*%
%ADD16RoundRect,0.250002X5.149998X-4.449998X5.149998X4.449998X-5.149998X4.449998X-5.149998X-4.449998X0*%
%ADD17C,3.200000*%
%ADD18RoundRect,0.250000X0.475000X-0.337500X0.475000X0.337500X-0.475000X0.337500X-0.475000X-0.337500X0*%
%ADD19C,2.604000*%
%ADD20RoundRect,0.250000X0.337500X0.475000X-0.337500X0.475000X-0.337500X-0.475000X0.337500X-0.475000X0*%
%ADD21R,2.413000X5.334000*%
%ADD22RoundRect,0.150000X-0.512500X-0.150000X0.512500X-0.150000X0.512500X0.150000X-0.512500X0.150000X0*%
%ADD23RoundRect,0.250000X-0.475000X0.337500X-0.475000X-0.337500X0.475000X-0.337500X0.475000X0.337500X0*%
%ADD24RoundRect,0.250000X0.845000X-0.620000X0.845000X0.620000X-0.845000X0.620000X-0.845000X-0.620000X0*%
%ADD25O,2.190000X1.740000*%
%ADD26RoundRect,0.250000X0.620000X0.845000X-0.620000X0.845000X-0.620000X-0.845000X0.620000X-0.845000X0*%
%ADD27R,1.700000X1.700000*%
%ADD28O,1.700000X1.700000*%
%ADD29RoundRect,0.175000X0.175000X-0.250000X0.175000X0.250000X-0.175000X0.250000X-0.175000X-0.250000X0*%
%ADD30RoundRect,0.150000X0.150000X-0.275000X0.150000X0.275000X-0.150000X0.275000X-0.150000X-0.275000X0*%
%ADD31RoundRect,0.250001X-0.924999X0.499999X-0.924999X-0.499999X0.924999X-0.499999X0.924999X0.499999X0*%
%ADD32RoundRect,0.250000X-0.845000X0.620000X-0.845000X-0.620000X0.845000X-0.620000X0.845000X0.620000X0*%
%ADD33R,2.000000X1.905000*%
%ADD34O,2.000000X1.905000*%
%ADD35RoundRect,0.250000X0.350000X-0.850000X0.350000X0.850000X-0.350000X0.850000X-0.350000X-0.850000X0*%
%ADD36RoundRect,0.249997X2.650003X-2.950003X2.650003X2.950003X-2.650003X2.950003X-2.650003X-2.950003X0*%
%ADD37C,2.754000*%
%ADD38RoundRect,0.102000X1.275000X1.275000X-1.275000X1.275000X-1.275000X-1.275000X1.275000X-1.275000X0*%
%ADD39C,1.712000*%
%ADD40RoundRect,0.100000X-0.575000X0.100000X-0.575000X-0.100000X0.575000X-0.100000X0.575000X0.100000X0*%
%ADD41O,1.550000X0.890000*%
%ADD42RoundRect,0.250000X-0.525000X0.475000X-0.525000X-0.475000X0.525000X-0.475000X0.525000X0.475000X0*%
%ADD43O,0.950000X1.250000*%
%ADD44RoundRect,0.250000X-0.525000X0.500000X-0.525000X-0.500000X0.525000X-0.500000X0.525000X0.500000X0*%
%ADD45RoundRect,0.250000X-0.337500X-0.475000X0.337500X-0.475000X0.337500X0.475000X-0.337500X0.475000X0*%
%ADD46RoundRect,0.250000X0.450000X-0.350000X0.450000X0.350000X-0.450000X0.350000X-0.450000X-0.350000X0*%
%ADD47R,1.500000X0.900000*%
%ADD48R,0.900000X1.500000*%
%ADD49C,0.600000*%
%ADD50R,3.900000X3.900000*%
%ADD51R,1.600000X1.600000*%
%ADD52C,1.600000*%
G04 APERTURE END LIST*
D10*
X122491500Y-31262500D03*
X122491500Y-33262500D03*
X155900000Y-34400000D03*
X155900000Y-36400000D03*
D11*
X126460500Y-65913000D03*
X128460500Y-65913000D03*
D12*
X108267500Y-32956500D03*
D13*
X110807500Y-32956500D03*
X113347500Y-32956500D03*
D14*
X121634000Y-72072500D03*
X119634000Y-72072500D03*
D15*
X139827000Y-65973000D03*
X142367000Y-65973000D03*
X144907000Y-65973000D03*
D16*
X142367000Y-56823000D03*
D17*
X170116500Y-30035500D03*
D18*
X125158500Y-33337500D03*
X125158500Y-31262500D03*
D12*
X159000000Y-34000000D03*
D13*
X161540000Y-34000000D03*
D14*
X128397000Y-63563500D03*
X126397000Y-63563500D03*
D19*
X98869500Y-47879000D03*
X98615500Y-79438500D03*
D20*
X114978000Y-77279500D03*
X112903000Y-77279500D03*
D21*
X130810000Y-57594500D03*
X123571000Y-57594500D03*
D22*
X153046000Y-72710000D03*
X153046000Y-73660000D03*
X153046000Y-74610000D03*
X155321000Y-74610000D03*
X155321000Y-73660000D03*
X155321000Y-72710000D03*
D18*
X120078500Y-33337500D03*
X120078500Y-31262500D03*
X106807000Y-40407500D03*
X106807000Y-38332500D03*
D11*
X176244500Y-79121000D03*
X178244500Y-79121000D03*
D10*
X150622000Y-84074000D03*
X150622000Y-86074000D03*
D11*
X159702500Y-74612500D03*
X161702500Y-74612500D03*
D17*
X102044500Y-30162500D03*
D23*
X104118500Y-46079500D03*
X104118500Y-48154500D03*
D24*
X100901500Y-40957500D03*
D25*
X100901500Y-38417500D03*
X100901500Y-35877500D03*
D19*
X133794500Y-52832000D03*
X122301000Y-38481000D03*
D20*
X114978000Y-74930000D03*
X112903000Y-74930000D03*
D26*
X118237000Y-83800000D03*
D13*
X115697000Y-83800000D03*
X113157000Y-83800000D03*
D11*
X159702500Y-72199500D03*
X161702500Y-72199500D03*
D20*
X155215500Y-68643500D03*
X153140500Y-68643500D03*
D11*
X159655000Y-79502000D03*
X161655000Y-79502000D03*
X126460500Y-70294500D03*
X128460500Y-70294500D03*
D27*
X178943000Y-54991000D03*
D28*
X178943000Y-52451000D03*
X178943000Y-49911000D03*
X178943000Y-47371000D03*
X178943000Y-44831000D03*
X178943000Y-42291000D03*
X178943000Y-39751000D03*
X178943000Y-37211000D03*
X178943000Y-34671000D03*
X178943000Y-32131000D03*
D22*
X115956500Y-67376000D03*
X115956500Y-68326000D03*
X115956500Y-69276000D03*
X118231500Y-69276000D03*
X118231500Y-68326000D03*
X118231500Y-67376000D03*
D23*
X167259000Y-67584500D03*
X167259000Y-69659500D03*
X149479000Y-72156500D03*
X149479000Y-74231500D03*
D29*
X145806000Y-85622000D03*
D30*
X145806000Y-82072000D03*
D17*
X170370500Y-84455000D03*
D21*
X160655000Y-61531500D03*
X153416000Y-61531500D03*
D24*
X101219000Y-58674000D03*
D25*
X101219000Y-56134000D03*
X101219000Y-53594000D03*
D10*
X161671000Y-83963000D03*
X161671000Y-85963000D03*
D31*
X144843500Y-70765000D03*
X144843500Y-74015000D03*
D23*
X103505000Y-62589500D03*
X103505000Y-64664500D03*
D32*
X179000000Y-60250000D03*
D25*
X179000000Y-62790000D03*
X179000000Y-65330000D03*
D33*
X123507500Y-79502000D03*
D34*
X123507500Y-82042000D03*
X123507500Y-84582000D03*
D35*
X165550500Y-56147500D03*
X167830500Y-56147500D03*
D36*
X167830500Y-49847500D03*
D35*
X170110500Y-56147500D03*
D11*
X119634000Y-74485500D03*
X121634000Y-74485500D03*
D29*
X181800500Y-85909500D03*
D30*
X181800500Y-82359500D03*
D18*
X117475000Y-33274000D03*
X117475000Y-31199000D03*
D11*
X104172000Y-78613000D03*
X106172000Y-78613000D03*
D23*
X135191500Y-67246500D03*
X135191500Y-69321500D03*
D37*
X132400000Y-74694250D03*
D38*
X137400000Y-74694250D03*
D39*
X129400000Y-84694250D03*
X140400000Y-84694250D03*
D17*
X102044500Y-84455000D03*
D32*
X179006500Y-69532500D03*
D25*
X179006500Y-72072500D03*
X179006500Y-74612500D03*
D40*
X100109000Y-70915500D03*
X100109000Y-71565500D03*
X100109000Y-72215500D03*
X100109000Y-72865500D03*
X100109000Y-73515500D03*
D41*
X97409000Y-68715500D03*
D42*
X97409000Y-69190500D03*
D43*
X100109000Y-69715500D03*
D44*
X97409000Y-71215500D03*
X97409000Y-73215500D03*
D43*
X100109000Y-74715500D03*
D42*
X97409000Y-75240500D03*
D41*
X97409000Y-75715500D03*
D11*
X126460500Y-68072000D03*
X128460500Y-68072000D03*
D14*
X161639000Y-77025500D03*
X159639000Y-77025500D03*
D18*
X107759500Y-58610500D03*
X107759500Y-56535500D03*
D23*
X167449500Y-59668500D03*
X167449500Y-61743500D03*
X170180000Y-59668500D03*
X170180000Y-61743500D03*
D14*
X161734500Y-67437000D03*
X159734500Y-67437000D03*
D45*
X116924000Y-62293500D03*
X118999000Y-62293500D03*
D18*
X127508000Y-33337500D03*
X127508000Y-31262500D03*
D29*
X108331000Y-85211000D03*
D30*
X108331000Y-81661000D03*
D46*
X173672500Y-70151500D03*
X173672500Y-68151500D03*
D47*
X132764500Y-30885000D03*
X132764500Y-32155000D03*
X132764500Y-33425000D03*
X132764500Y-34695000D03*
X132764500Y-35965000D03*
X132764500Y-37235000D03*
X132764500Y-38505000D03*
X132764500Y-39775000D03*
X132764500Y-41045000D03*
X132764500Y-42315000D03*
X132764500Y-43585000D03*
X132764500Y-44855000D03*
X132764500Y-46125000D03*
X132764500Y-47395000D03*
D48*
X134529500Y-48645000D03*
X135799500Y-48645000D03*
X137069500Y-48645000D03*
X138339500Y-48645000D03*
X139609500Y-48645000D03*
X140879500Y-48645000D03*
X142149500Y-48645000D03*
X143419500Y-48645000D03*
X144689500Y-48645000D03*
X145959500Y-48645000D03*
X147229500Y-48645000D03*
X148499500Y-48645000D03*
D47*
X150264500Y-47395000D03*
X150264500Y-46125000D03*
X150264500Y-44855000D03*
X150264500Y-43585000D03*
X150264500Y-42315000D03*
X150264500Y-41045000D03*
X150264500Y-39775000D03*
X150264500Y-38505000D03*
X150264500Y-37235000D03*
X150264500Y-35965000D03*
X150264500Y-34695000D03*
X150264500Y-33425000D03*
X150264500Y-32155000D03*
X150264500Y-30885000D03*
D49*
X138614500Y-37905000D03*
X138614500Y-39305000D03*
X139314500Y-37205000D03*
X139314500Y-38605000D03*
X139314500Y-40005000D03*
X140014500Y-37905000D03*
D50*
X140014500Y-38605000D03*
D49*
X140014500Y-39305000D03*
X140714500Y-37205000D03*
X140714500Y-38605000D03*
X140714500Y-40005000D03*
X141414500Y-37905000D03*
X141414500Y-39305000D03*
D11*
X159702500Y-69723000D03*
X161702500Y-69723000D03*
D29*
X157416500Y-85655500D03*
D30*
X157416500Y-82105500D03*
D23*
X132143500Y-67246500D03*
X132143500Y-69321500D03*
D51*
X107061000Y-61287849D03*
D52*
X107061000Y-66287849D03*
D51*
X107315000Y-44396849D03*
D52*
X107315000Y-49396849D03*
M02*
